<svg width="381" height="505" viewBox="0 0 381 505" fill="none" xmlns="http://www.w3.org/2000/svg">
<rect width="381" height="505" fill="#BAC3C3"/>
<g clip-path="url(#clip0_19:645)">
<path d="M262 318V470.99H278.923V333.519H297.576V318H262Z" fill="#090B3C"/>
<path d="M309.424 318.01V333.528H328.077V471H345V318.01H309.424Z" fill="#090B3C"/>
</g>
<path d="M47.9999 76.9121C47.5679 78.7841 47.0399 80.4401 46.4159 81.8801C45.8399 83.3201 45.0479 84.5201 44.0399 85.4801C43.0319 86.4401 41.7599 87.1361 40.2239 87.5681C38.7359 88.0001 36.8399 88.1681 34.5359 88.0721V83.0321C36.6959 83.1281 38.3039 82.8161 39.3599 82.0961C40.4639 81.3281 41.2559 79.9841 41.7359 78.0641L42.8879 74.7521L31.2959 37.6001H36.9119L42.0239 55.0961L45.4799 67.7681L48.4319 55.0961L52.9679 37.6001H58.7999L47.9999 76.9121Z" fill="#090B3C"/>
<path d="M74.4233 58.4081C78.3593 58.4081 81.3113 59.3681 83.2793 61.2881C85.2953 63.1601 86.3033 66.1361 86.3033 70.2161V75.7601C86.3033 79.6961 85.3673 82.7201 83.4953 84.8321C81.6233 86.9441 78.6953 88.0001 74.7113 88.0001H62.9753V37.6001H84.2153V42.7121H68.5193V58.4081H74.4233ZM74.7113 82.8881C76.7753 82.8881 78.2873 82.3601 79.2473 81.3041C80.2073 80.2001 80.6873 78.4721 80.6873 76.1201V69.8561C80.6873 67.4081 80.1593 65.7281 79.1033 64.8161C78.0473 63.9041 76.4873 63.4481 74.4233 63.4481H68.5193V82.8881H74.7113Z" fill="#090B3C"/>
<path d="M105.05 64.7441L97.6338 88.0001H91.8018V37.6001H96.7698V75.1841L101.234 61.2881L109.298 37.6001H115.562V88.0001H110.522V47.8961L105.05 64.7441Z" fill="#090B3C"/>
<path d="M128.967 88.0001V42.7121H119.679V37.6001H143.871V42.7121H134.583V88.0001H128.967Z" fill="#090B3C"/>
<path d="M158.636 57.4721C162.668 57.4721 165.62 58.5041 167.492 60.5681C169.412 62.5841 170.372 65.6081 170.372 69.6401V75.6881C170.372 79.5281 169.46 82.5521 167.636 84.7601C165.86 86.9201 163.004 88.0001 159.068 88.0001H148.052V37.6001H153.668V57.4721H158.636ZM159.068 82.8881C161.132 82.8881 162.596 82.3121 163.46 81.1601C164.372 80.0081 164.828 78.2801 164.828 75.9761V69.2801C164.828 66.8321 164.324 65.1041 163.316 64.0961C162.308 63.0401 160.748 62.5121 158.636 62.5121H153.668V82.8881H159.068Z" fill="#090B3C"/>
<path d="M38.4959 114.712V160H32.8799V109.6H56.4959V160H50.8799V114.712H38.4959Z" fill="#090B3C"/>
<path d="M73.2865 109.6C77.2705 109.6 80.1505 110.704 81.9265 112.912C83.7025 115.072 84.5905 118.072 84.5905 121.912V127.96C84.5905 131.992 83.6305 135.04 81.7105 137.104C79.8385 139.12 76.8865 140.128 72.8545 140.128H67.8865V160H62.2705V109.6H73.2865ZM72.8545 135.088C74.9665 135.088 76.5265 134.584 77.5345 133.576C78.5425 132.52 79.0465 130.768 79.0465 128.32V121.624C79.0465 119.32 78.5905 117.592 77.6785 116.44C76.8145 115.288 75.3505 114.712 73.2865 114.712H67.8865V135.088H72.8545Z" fill="#090B3C"/>
<path d="M102.237 136.744L94.8213 160H88.9893V109.6H93.9573V147.184L98.4213 133.288L106.485 109.6H112.749V160H107.709V119.896L102.237 136.744Z" fill="#090B3C"/>
<path d="M129.322 109.096C133.21 109.096 136.066 110.248 137.89 112.552C139.762 114.856 140.698 117.928 140.698 121.768V126.304H135.37V121.48C135.37 119.176 134.89 117.4 133.93 116.152C133.018 114.856 131.53 114.208 129.466 114.208C127.45 114.208 125.962 114.856 125.002 116.152C124.042 117.4 123.562 119.176 123.562 121.48V148.12C123.562 150.424 124.042 152.224 125.002 153.52C125.962 154.768 127.45 155.392 129.466 155.392C131.53 155.392 133.018 154.768 133.93 153.52C134.89 152.224 135.37 150.424 135.37 148.12V141.568H140.698V147.832C140.698 151.672 139.762 154.744 137.89 157.048C136.066 159.352 133.21 160.504 129.322 160.504C125.482 160.504 122.626 159.352 120.754 157.048C118.93 154.744 118.018 151.672 118.018 147.832V121.768C118.018 119.848 118.234 118.12 118.666 116.584C119.146 115 119.842 113.656 120.754 112.552C121.714 111.448 122.89 110.608 124.282 110.032C125.722 109.408 127.402 109.096 129.322 109.096Z" fill="#090B3C"/>
<defs>
<clipPath id="clip0_19:645">
<rect width="83" height="153" fill="white" transform="translate(262 318)"/>
</clipPath>
</defs>
</svg>
