<svg width="381" height="505" viewBox="0 0 381 505" fill="none" xmlns="http://www.w3.org/2000/svg">
<rect width="381" height="505" fill="#BAC3C3"/>
<path d="M54.9999 75.9121C54.5679 77.7841 54.0399 79.4401 53.4159 80.8801C52.8399 82.3201 52.0479 83.5201 51.0399 84.4801C50.0319 85.4401 48.7599 86.1361 47.2239 86.5681C45.7359 87.0001 43.8399 87.1681 41.5359 87.0721V82.0321C43.6959 82.1281 45.3039 81.8161 46.3599 81.0961C47.4639 80.3281 48.2559 78.9841 48.7359 77.0641L49.8879 73.7521L38.2959 36.6001H43.9119L49.0239 54.0961L52.4799 66.7681L55.4319 54.0961L59.9679 36.6001H65.7999L54.9999 75.9121Z" fill="#090B3C"/>
<path d="M81.4233 57.4081C85.3593 57.4081 88.3113 58.3681 90.2793 60.2881C92.2953 62.1601 93.3033 65.1361 93.3033 69.2161V74.7601C93.3033 78.6961 92.3673 81.7201 90.4953 83.8321C88.6233 85.9441 85.6953 87.0001 81.7113 87.0001H69.9753V36.6001H91.2153V41.7121H75.5193V57.4081H81.4233ZM81.7113 81.8881C83.7753 81.8881 85.2873 81.3601 86.2473 80.3041C87.2073 79.2001 87.6873 77.4721 87.6873 75.1201V68.8561C87.6873 66.4081 87.1593 64.7281 86.1033 63.8161C85.0473 62.9041 83.4873 62.4481 81.4233 62.4481H75.5193V81.8881H81.7113Z" fill="#090B3C"/>
<path d="M112.05 63.7441L104.634 87.0001H98.8018V36.6001H103.77V74.1841L108.234 60.2881L116.298 36.6001H122.562V87.0001H117.522V46.8961L112.05 63.7441Z" fill="#090B3C"/>
<path d="M135.967 87.0001V41.7121H126.679V36.6001H150.871V41.7121H141.583V87.0001H135.967Z" fill="#090B3C"/>
<path d="M165.636 56.4721C169.668 56.4721 172.62 57.5041 174.492 59.5681C176.412 61.5841 177.372 64.6081 177.372 68.6401V74.6881C177.372 78.5281 176.46 81.5521 174.636 83.7601C172.86 85.9201 170.004 87.0001 166.068 87.0001H155.052V36.6001H160.668V56.4721H165.636ZM166.068 81.8881C168.132 81.8881 169.596 81.3121 170.46 80.1601C171.372 79.0081 171.828 77.2801 171.828 74.9761V68.2801C171.828 65.8321 171.324 64.1041 170.316 63.0961C169.308 62.0401 167.748 61.5121 165.636 61.5121H160.668V81.8881H166.068Z" fill="#090B3C"/>
<path d="M50.8959 108.6C54.8799 108.6 57.7599 109.704 59.5359 111.912C61.3119 114.072 62.1999 117.072 62.1999 120.912V126.96C62.1999 130.992 61.2399 134.04 59.3199 136.104C57.4479 138.12 54.4959 139.128 50.4639 139.128H45.4959V159H39.8799V108.6H50.8959ZM50.4639 134.088C52.5759 134.088 54.1359 133.584 55.1439 132.576C56.1519 131.52 56.6559 129.768 56.6559 127.32V120.624C56.6559 118.32 56.1999 116.592 55.2879 115.44C54.4239 114.288 52.9599 113.712 50.8959 113.712H45.4959V134.088H50.4639Z" fill="#090B3C"/>
<path d="M66.1666 120.768C66.1666 116.88 67.1026 113.808 68.9746 111.552C70.8946 109.248 73.7986 108.096 77.6866 108.096C81.5746 108.096 84.4786 109.248 86.3986 111.552C88.3186 113.808 89.2786 116.88 89.2786 120.768V146.832C89.2786 150.672 88.3186 153.744 86.3986 156.048C84.4786 158.352 81.5746 159.504 77.6866 159.504C73.7986 159.504 70.8946 158.352 68.9746 156.048C67.1026 153.744 66.1666 150.672 66.1666 146.832V120.768ZM71.7106 147.12C71.7106 149.424 72.1906 151.224 73.1506 152.52C74.1586 153.768 75.6706 154.392 77.6866 154.392C79.7506 154.392 81.2626 153.768 82.2226 152.52C83.1826 151.224 83.6626 149.424 83.6626 147.12V120.48C83.6626 118.176 83.1826 116.4 82.2226 115.152C81.2626 113.856 79.7506 113.208 77.6866 113.208C75.6706 113.208 74.1586 113.856 73.1506 115.152C72.1906 116.4 71.7106 118.176 71.7106 120.48V147.12Z" fill="#090B3C"/>
<path d="M107.615 137.472C105.263 137.472 103.439 138.024 102.143 139.128C100.895 140.184 100.271 142.128 100.271 144.96V152.88C100.271 154.56 100.199 155.832 100.055 156.696C99.911 157.512 99.671 158.28 99.335 159H93.647C94.079 158.136 94.343 157.2 94.439 156.192C94.583 155.136 94.655 154.056 94.655 152.952V145.104C94.655 142.368 95.111 140.112 96.023 138.336C96.983 136.512 98.615 135.264 100.919 134.592C96.791 133.248 94.727 129.792 94.727 124.224V120.12C94.727 116.376 95.591 113.52 97.319 111.552C99.095 109.584 101.975 108.6 105.959 108.6H117.191V159H111.575V137.472H107.615ZM106.103 113.712C103.991 113.712 102.479 114.288 101.567 115.44C100.703 116.592 100.271 118.32 100.271 120.624V125.448C100.271 128.184 100.895 130.032 102.143 130.992C103.391 131.904 105.119 132.36 107.327 132.36H111.575V113.712H106.103Z" fill="#090B3C"/>
<g clip-path="url(#clip0_19:647)">
<path d="M138.269 310.334C150.298 310.334 158.997 313.661 164.36 320.305C169.723 326.955 172.405 336.121 172.405 347.805V366.211C172.405 378.48 169.54 387.725 163.818 393.93C158.092 400.14 149.141 403.243 136.962 403.243H121.961V463.726H105V310.334H138.269ZM136.962 387.91C143.337 387.91 148.052 386.344 151.097 383.198C154.142 380.056 155.662 374.763 155.662 367.309V346.932C155.662 339.921 154.321 334.663 151.639 331.155C148.957 327.647 144.499 325.896 138.269 325.896H121.961V387.91H136.962Z" fill="#090B3C"/>
<path d="M184.361 347.371C184.361 335.536 187.222 326.155 192.949 319.213C198.675 312.276 207.407 308.802 219.151 308.802C230.894 308.802 239.66 312.276 245.459 319.213C251.253 326.155 254.158 335.536 254.158 347.371V426.698C254.158 438.387 251.258 447.734 245.459 454.749C239.66 461.76 230.889 465.267 219.151 465.267C207.407 465.267 198.675 461.76 192.949 454.749C187.222 447.739 184.361 438.392 184.361 426.698V347.371ZM201.105 427.572C201.105 434.582 202.591 440.026 205.563 443.895C208.53 447.768 213.066 449.7 219.151 449.7C225.38 449.7 229.95 447.763 232.849 443.895C235.749 440.026 237.196 434.582 237.196 427.572V346.493C237.196 339.482 235.744 334.038 232.849 330.17C229.95 326.301 225.38 324.364 219.151 324.364C213.061 324.364 208.53 326.301 205.563 330.17C202.591 334.043 201.105 339.482 201.105 346.493V427.572Z" fill="#090B3C"/>
<path d="M311.558 389.881L287.858 463.73H270.248V310.334H285.249V424.723L299.384 380.456L323.083 310.334H342V463.726H326.781V341.668L311.558 389.881ZM330.475 279C330.475 285.722 328.408 290.981 324.279 294.777C320.15 298.577 314.385 300.475 306.993 300.475C299.601 300.475 293.909 298.577 289.925 294.777C285.936 290.981 283.802 285.722 283.511 279H294.165C294.456 283.239 295.758 286.161 298.077 287.766C300.395 289.376 303.367 290.176 306.993 290.176C310.614 290.176 313.625 289.376 316.016 287.766C318.407 286.161 319.748 283.239 320.038 279H330.475Z" fill="#090B3C"/>
<path d="M220.046 283.81V302.031H218.614V283.81H220.046Z" fill="white" stroke="white" stroke-width="2" stroke-miterlimit="10"/>
<path d="M220.046 306.119V324.34H218.614V306.119H220.046Z" fill="white" stroke="white" stroke-width="2" stroke-miterlimit="10"/>
<path d="M220.046 328.428V346.649H218.614V328.428H220.046Z" fill="white" stroke="white" stroke-width="2" stroke-miterlimit="10"/>
<path d="M220.046 350.737V368.958H218.614V350.737H220.046Z" fill="white" stroke="white" stroke-width="2" stroke-miterlimit="10"/>
<path d="M220.046 373.051V391.271H218.614V373.051H220.046Z" fill="white" stroke="white" stroke-width="2" stroke-miterlimit="10"/>
<path d="M220.046 395.36V413.58H218.614V395.36H220.046Z" fill="white" stroke="white" stroke-width="2" stroke-miterlimit="10"/>
<path d="M220.046 417.669V435.889H218.614V417.669H220.046Z" fill="white" stroke="white" stroke-width="2" stroke-miterlimit="10"/>
<path d="M220.046 439.977V458.198H218.614V439.977H220.046Z" fill="white" stroke="white" stroke-width="2" stroke-miterlimit="10"/>
<path d="M220.046 462.291V480.512H218.614V462.291H220.046Z" fill="white" stroke="white" stroke-width="2" stroke-miterlimit="10"/>
</g>
<defs>
<clipPath id="clip0_19:647">
<rect width="237" height="202" fill="white" transform="translate(105 279)"/>
</clipPath>
</defs>
</svg>
