<svg width="439" height="594" viewBox="0 0 439 594" fill="none" xmlns="http://www.w3.org/2000/svg">
<rect x="0.664062" y="92.2024" width="380.622" height="504.946" transform="rotate(-6.82711 0.664062 92.2024)" fill="#BAC3C3"/>
<g clip-path="url(#clip0_19:649)">
<rect width="71.7253" height="159.708" transform="translate(311.538 371.865) rotate(-6.82711)" fill="#BBC4C4"/>
<path d="M346.681 367.658C359.39 366.136 368.989 368.469 375.479 374.666C381.969 380.863 385.936 389.994 387.383 402.079L389.661 421.109C391.179 433.792 389.298 443.714 384.015 450.855C378.733 457.996 369.666 462.341 356.795 463.882L340.959 465.778L348.445 528.306L330.524 530.451L311.538 371.865L346.681 367.658ZM354.907 448.024C361.646 447.217 366.431 445.004 369.259 441.366C372.089 437.738 373.042 432.066 372.119 424.363L369.596 403.287C368.729 396.042 366.661 390.773 363.393 387.48C360.126 384.197 355.193 382.946 348.616 383.733L331.383 385.796L339.059 449.911L354.905 448.014L354.907 448.024Z" fill="#ABB6B6"/>
</g>
<path d="M53.2254 154.054L55.9214 176.573L50.3452 177.24L44.354 127.198L49.9302 126.53L52.6262 149.049L64.9224 147.577L62.2264 125.058L67.8026 124.39L73.7938 174.433L68.2176 175.101L65.5216 152.581L53.2254 154.054Z" fill="#090B3C"/>
<path d="M93.9904 143.735L94.5895 148.739L82.3648 150.202L84.496 168.003L99.5088 166.206L100.116 171.282L79.5275 173.747L73.5362 123.704L94.1252 121.239L94.7329 126.315L79.7201 128.112L81.7657 145.198L93.9904 143.735Z" fill="#090B3C"/>
<path d="M130.084 156.527C129.878 158.437 129.55 160.144 129.102 161.648C128.701 163.146 128.057 164.432 127.171 165.505C126.284 166.578 125.104 167.42 123.63 168.031C122.204 168.637 120.341 169.029 118.042 169.208L117.443 164.204C119.599 164.042 121.159 163.541 122.121 162.701C123.126 161.807 123.753 160.379 124.001 158.415L124.751 154.99L108.825 119.479L114.401 118.811L121.557 135.576L126.495 147.747L127.92 134.814L130.344 116.903L136.134 116.21L130.084 156.527Z" fill="#090B3C"/>
<path d="M154.12 135.013C158.028 134.545 161.074 135.147 163.256 136.82C165.48 138.439 166.835 141.274 167.32 145.325L167.979 150.83C168.447 154.738 167.877 157.851 166.269 160.171C164.662 162.491 161.88 163.887 157.924 164.361L146.271 165.756L140.28 115.713L161.369 113.188L161.977 118.264L146.392 120.13L148.258 135.715L154.12 135.013ZM157.316 159.285C159.366 159.04 160.804 158.336 161.632 157.173C162.454 155.963 162.725 154.19 162.445 151.855L161.701 145.635C161.41 143.204 160.686 141.599 159.529 140.819C158.372 140.039 156.769 139.772 154.72 140.017L148.857 140.719L151.168 160.021L157.316 159.285Z" fill="#090B3C"/>
<path d="M185.283 137.663L180.684 161.636L174.893 162.329L168.902 112.287L173.835 111.696L178.303 149.013L181.083 134.685L186.274 110.207L192.494 109.462L198.485 159.505L193.481 160.104L188.713 120.284L185.283 137.663Z" fill="#090B3C"/>
<path d="M209.378 107.441C213.286 106.973 216.185 107.568 218.076 109.227C219.961 110.839 221.126 113.503 221.571 117.221L221.853 119.58C222.173 122.249 222.004 124.469 221.345 126.239C220.682 127.962 219.293 129.289 217.181 130.219C219.692 130.595 221.558 131.652 222.782 133.391C224.053 135.124 224.854 137.373 225.185 140.137L225.69 144.355C226.141 148.12 225.559 151.139 223.946 153.411C222.327 155.635 219.563 156.981 215.655 157.449L204.145 158.827L198.154 108.784L209.378 107.441ZM210.562 128.836C212.802 128.567 214.416 127.915 215.403 126.878C216.439 125.836 216.8 124.004 216.486 121.383L216.135 118.452C215.867 116.212 215.241 114.619 214.257 113.673C213.316 112.674 211.844 112.294 209.843 112.534L204.338 113.193L206.272 129.349L210.562 128.836ZM215.047 152.373C219.003 151.9 220.71 149.399 220.168 144.871L219.637 140.439C219.301 137.627 218.498 135.765 217.228 134.854C216.001 133.889 214.172 133.552 211.741 133.843L206.88 134.425L209.114 153.084L215.047 152.373Z" fill="#090B3C"/>
<path d="M236.582 144.719L235.858 155.03L230.711 155.647L234.299 104.457L242.378 103.49L257.948 152.386L252.372 153.053L249.235 143.204L236.582 144.719ZM236.723 139.844L247.875 138.509L238.77 110.303L236.723 139.844Z" fill="#090B3C"/>
<path d="M269.95 150.949L264.566 105.982L255.344 107.086L254.736 102.01L278.757 99.1344L279.365 104.21L270.142 105.314L275.526 150.281L269.95 150.949Z" fill="#090B3C"/>
<path d="M295.779 117.11C299.783 116.631 302.837 117.305 304.941 119.132C307.087 120.905 308.399 123.794 308.879 127.797L309.598 133.802C310.054 137.615 309.508 140.726 307.959 143.135C306.453 145.491 303.745 146.903 299.837 147.371L288.899 148.68L282.908 98.6374L288.484 97.9698L290.847 117.701L295.779 117.11ZM299.23 142.295C301.279 142.049 302.664 141.303 303.385 140.057C304.154 138.805 304.401 137.035 304.127 134.747L303.331 128.099C303.04 125.668 302.334 124.012 301.214 123.131C300.087 122.202 298.476 121.864 296.379 122.115L291.446 122.705L293.868 142.937L299.23 142.295Z" fill="#090B3C"/>
<path d="M63.8508 197.378C67.8066 196.904 70.7974 197.658 72.8233 199.639C74.8434 201.573 76.0817 204.446 76.5382 208.259L77.2572 214.264C77.7365 218.267 77.1456 221.408 75.4846 223.685C73.8655 225.91 71.0543 227.261 67.0508 227.741L62.1181 228.331L64.4803 248.062L58.9042 248.73L52.9129 198.687L63.8508 197.378ZM66.4517 222.736C68.5487 222.485 70.0378 221.799 70.9188 220.679C71.7941 219.51 72.0863 217.711 71.7953 215.28L70.9993 208.632C70.7254 206.344 70.0672 204.683 69.0248 203.647C68.0299 202.606 66.5079 202.208 64.4585 202.453L59.0968 203.095L61.5189 223.327L66.4517 222.736Z" fill="#090B3C"/>
<path d="M89.9627 193.744C91.8691 193.516 93.5505 193.629 95.0068 194.083C96.505 194.483 97.7726 195.178 98.8093 196.165C99.8938 197.148 100.745 198.399 101.362 199.921C102.021 201.389 102.465 203.076 102.693 204.982L105.791 230.862C106.248 234.674 105.684 237.836 104.099 240.346C102.562 242.85 99.8866 244.331 96.0738 244.787C92.261 245.244 89.2883 244.44 87.1557 242.374C85.0708 240.304 83.8001 237.362 83.3436 233.549L82.6931 228.116L87.9118 227.491L88.5966 233.21C88.8704 235.498 89.561 237.228 90.6683 238.401C91.7698 239.526 93.3214 239.968 95.3231 239.729C97.3248 239.489 98.7281 238.693 99.533 237.339C100.332 235.938 100.595 234.094 100.321 231.807L98.9343 220.225L90.2126 221.269L89.6134 216.265L98.3352 215.221L97.154 205.355C96.8801 203.068 96.1924 201.361 95.0909 200.236C93.9836 199.064 92.4292 198.597 90.4274 198.837C88.4257 199.076 87.0253 199.897 86.2262 201.298C85.4214 202.651 85.1559 204.471 85.4298 206.759L85.9091 210.762L80.7618 211.379L80.3168 207.661C80.0885 205.755 80.0976 204.013 80.3439 202.437C80.6322 200.807 81.1635 199.39 81.9378 198.185C82.7121 196.981 83.7561 196.01 85.0697 195.272C86.4254 194.482 88.0564 193.972 89.9627 193.744Z" fill="#090B3C"/>
<path d="M125.178 179.666C125.441 181.858 124.955 183.657 123.722 185.061C122.535 186.46 120.727 187.305 118.296 187.596C115.866 187.887 113.909 187.493 112.426 186.414C110.991 185.329 110.095 183.696 109.737 181.515L113.24 181.095C113.501 182.466 114.044 183.368 114.869 183.801C115.694 184.234 116.703 184.379 117.894 184.236C119.086 184.094 120.031 183.714 120.731 183.099C121.479 182.478 121.817 181.47 121.747 180.077L125.178 179.666ZM123.29 216.584L118.382 241.609L112.591 242.302L106.6 192.26L111.533 191.669L116 228.987L118.918 213.989L123.972 190.18L130.191 189.435L136.183 239.478L131.178 240.077L126.411 200.257L123.29 216.584Z" fill="#090B3C"/>
<path d="M156.632 214.55C155.88 215.946 154.853 217.059 153.551 217.892C152.249 218.725 150.835 219.233 149.31 219.415C147.642 219.615 146.13 219.506 144.775 219.088C143.462 218.617 142.337 217.905 141.401 216.954C140.46 215.955 139.689 214.766 139.089 213.387C138.531 211.956 138.152 210.406 137.952 208.738L135.564 188.792L141.14 188.124L143.477 207.641C143.734 209.786 144.466 211.463 145.675 212.671C146.883 213.88 148.488 214.365 150.49 214.125C153.921 213.715 155.689 211.521 155.793 207.544L153.294 186.669L158.798 186.01L164.79 236.053L159.285 236.712L156.632 214.55Z" fill="#090B3C"/>
<path d="M185.069 205.344L185.668 210.349L173.444 211.812L175.575 229.613L190.588 227.816L191.195 232.892L170.606 235.357L164.615 185.314L185.204 182.849L185.812 187.925L170.799 189.722L172.845 206.808L185.069 205.344Z" fill="#090B3C"/>
<path d="M201.636 186.03L204.387 218.695C204.531 220.708 204.528 222.497 204.377 224.062C204.226 225.627 203.834 227.003 203.203 228.191C202.566 229.331 201.638 230.264 200.42 230.99C199.249 231.71 197.711 232.184 195.804 232.412L194.875 232.524L194.267 227.448C195.411 227.311 196.323 227.057 197.004 226.685C197.685 226.314 198.182 225.819 198.494 225.201C198.849 224.53 199.044 223.734 199.078 222.811C199.113 221.888 199.083 220.828 198.988 219.631L195.81 181.579L216.184 179.14L222.176 229.183L216.599 229.85L211.216 184.883L201.636 186.03Z" fill="#090B3C"/>
<g clip-path="url(#clip1_19:649)">
<path d="M393.652 19.7394C393.599 20.0077 393.59 20.2203 393.515 20.4044C391.388 25.5726 389.26 30.7405 387.113 35.9003C386.938 36.3194 386.977 36.559 387.322 36.8709C389.244 38.6097 390.888 40.5848 392.178 42.8368C393.199 44.618 393.946 46.5001 394.008 48.5912C394.018 48.9158 393.982 49.2412 393.966 49.568C382.94 45.0156 371.956 40.4805 360.945 35.9347C361.587 35.0254 362.479 34.3712 363.457 33.8347C366.974 31.9034 370.801 31.5017 374.722 31.6067C375.032 31.6155 375.21 31.5819 375.344 31.255C377.528 25.9306 379.726 20.6132 381.92 15.294C381.96 15.1949 381.984 15.0892 382.038 14.9129C381.185 14.5779 380.343 14.2658 379.521 13.9086C379.35 13.8338 379.152 13.6009 379.136 13.4257C378.952 11.248 378.798 9.067 378.638 6.88609C378.636 6.85478 378.666 6.82077 378.659 6.83562C386.403 10.0329 394.145 13.2285 401.931 16.4441C401.848 16.5228 401.73 16.6447 401.602 16.7554C400.086 18.0713 398.562 19.3784 397.059 20.707C396.783 20.9504 396.564 20.9831 396.234 20.8324C395.447 20.4737 394.645 20.156 393.652 19.7394Z" fill="#555778"/>
<path d="M367.531 66.5678C369.639 58.871 371.747 51.1742 373.841 43.526C375.724 44.305 377.57 45.0696 379.445 45.8456C375.529 52.7542 371.595 59.6927 367.661 66.6312C367.618 66.6094 367.575 66.5891 367.531 66.5678Z" fill="#555778"/>
</g>
<defs>
<clipPath id="clip0_19:649">
<rect width="71.7253" height="159.708" fill="white" transform="translate(311.538 371.865) rotate(-6.82711)"/>
</clipPath>
<clipPath id="clip1_19:649">
<rect width="51" height="51" fill="white" transform="translate(348 19.573) rotate(-22.5683)"/>
</clipPath>
</defs>
</svg>
