<svg width="1224" height="601" viewBox="0 0 1224 601" fill="none" xmlns="http://www.w3.org/2000/svg">
<path d="M653.992 339.307L665.337 332.044C665.811 331.602 666.062 330.567 665.936 329.901C665.027 325.057 663.985 320.238 662.996 315.414C662.686 313.891 662.41 312.355 662.113 310.826C662.396 310.628 662.673 310.43 662.957 310.233C665.791 313.568 668.619 316.91 671.315 320.087C674.954 316.58 677.908 313.759 680.821 310.898C681.289 310.444 681.757 309.831 681.889 309.218C683.662 301.295 685.376 293.359 687.104 285.423L687.255 280.169C687.769 277.065 688.059 273.901 688.138 270.757C688.27 265.292 688.178 259.828 688.178 254.364L688.138 250.837C687.374 244.754 686.576 238.676 685.62 232.625C685.278 230.457 684.526 228.334 683.821 226.238C683.148 224.234 682.298 222.283 681.336 219.838C676.629 229.567 673.161 238.979 671.962 249.282C671.619 248.366 671.138 247.469 670.953 246.52C669.859 240.845 668.969 235.117 667.749 229.468C665.989 221.367 663.168 213.715 656.694 208.046C653.846 205.554 650.55 203.913 646.503 203.874C646.47 207.947 645.363 211.75 646.984 215.778C647.973 218.243 647.736 221.328 647.571 224.103C647.07 232.5 644.222 240.753 646.015 249.387C645.026 247.568 644.037 245.716 643.813 243.778C643.279 239.131 643.273 234.418 642.726 229.771C642.324 226.377 641.381 223.048 640.629 219.429C635.217 223.463 630.458 227.029 625.685 230.575C620.108 234.721 614.32 238.67 612.402 245.307C610.293 242.42 608.585 238.9 605.856 236.593C598.921 230.734 591.532 225.421 584.228 219.805C582.158 222.745 581.69 226.1 581.419 229.488C581.037 234.326 580.866 239.19 580.312 244.009C580.094 245.881 579.086 247.654 578.44 249.473C578.202 249.407 577.972 249.341 577.734 249.275C579.429 243.231 578.38 237.252 577.464 231.281C576.673 226.133 575.374 220.833 577.154 215.844C578.618 211.724 577.853 207.894 577.543 203.781C571.123 204.289 566.627 207.815 563.166 212.844C558.255 219.983 556.211 228.123 555.275 236.607C554.794 240.977 554.016 245.261 551.926 249.249C551.056 238.979 547.549 229.62 542.948 220.174C542.513 221.018 542.256 221.44 542.065 221.894C538.004 231.459 536.758 241.583 536.072 251.82L535.433 254.852C535.941 263.605 536.428 272.358 536.995 281.112L537.846 287.334C539.342 294.67 540.858 302.007 542.401 309.336C542.519 309.89 542.796 310.49 543.185 310.885C546.066 313.865 549 316.804 552.427 320.278C555.532 316.817 558.466 313.548 561.406 310.272C561.604 310.411 561.801 310.556 561.999 310.694C560.964 315.763 560.153 320.891 558.809 325.881C557.8 329.631 558.163 332.083 561.749 334.509L569.501 338.82C573.97 342.359 577.813 345.405 581.69 348.476C585.843 345.233 589.804 342.129 594.36 338.569C591.242 346.802 588.394 354.263 585.592 361.745C585.276 362.588 584.808 363.735 585.124 364.388C586.265 366.715 587.721 368.896 589.112 371.223C590.793 369.931 592.23 368.83 593.667 367.723C593.931 367.809 594.188 367.901 594.452 367.987C590.015 372.607 591.505 377.03 594.248 381.466C594.913 382.541 595.21 383.839 595.823 384.946C596.212 385.639 596.779 386.509 597.445 386.726C601.209 387.926 605.032 388.954 608.829 390.035L615.355 390.055C619.166 388.967 622.976 387.893 626.773 386.779C627.149 386.667 627.656 386.383 627.768 386.067C629.68 380.418 635.586 375.363 630.399 368.646C630.273 368.481 630.26 368.231 630.056 367.538C631.875 368.89 633.332 369.977 634.756 371.045C635.006 370.887 635.184 370.821 635.283 370.696C638.322 366.945 639.753 363.28 637.32 358.264C634.38 352.194 632.442 345.635 629.95 338.951C634.248 342.287 638.236 345.378 642.291 348.522C646.279 345.378 650.135 342.346 653.992 339.307ZM653.992 339.307C654.084 339.419 654.176 339.532 654.262 339.65L653.992 339.307ZM304.361 3C313.451 9.38049 322.39 15.616 331.243 21.9701C331.751 22.3326 331.896 23.7696 331.659 24.5276C329.035 32.8789 326.299 41.1973 323.597 49.5222C323.471 49.9111 323.379 50.3198 323.63 50.9855C330.169 44.0711 336.708 37.1501 343.281 30.1962C349.134 33.749 354.705 37.1831 360.328 40.525C366.333 44.0909 372.358 47.6305 378.449 51.058C379.972 51.9149 380.44 52.6466 379.893 54.4394C377.573 62.0987 375.437 69.8106 373.242 77.5094C372.965 78.4718 372.734 79.4539 372.859 80.6601C379.418 73.4425 385.971 66.2249 392.635 58.8887C399.208 62.2898 405.661 65.7174 412.188 68.9933C436.638 81.2929 461.529 92.6038 487.66 100.896C491.912 102.247 493.817 104.336 495.169 108.443C499.948 122.944 505.874 137.023 513.099 150.483C518.531 160.601 524.556 170.402 530.331 180.329C530.739 181.034 531.28 181.66 532.15 182.867C532.15 178.2 531.939 174.146 532.203 170.125C532.598 164.094 533.244 158.07 533.937 152.058C534.576 146.449 536.943 141.466 539.823 136.687C540.397 135.731 540.832 134.512 540.825 133.411C540.792 126.128 539.171 119.174 535.624 112.806C529.882 102.497 526.362 91.6151 526.408 79.7439C526.461 79.7505 526.698 79.7307 526.745 79.8098C533.567 92.4456 544.576 100.336 557.048 106.578C562.606 109.359 568.136 112.193 573.713 114.936C574.379 115.265 575.322 115.338 576.067 115.179C600.095 109.972 624.116 110.012 648.144 115.179C648.823 115.324 649.694 115.357 650.287 115.061C657.077 111.699 663.84 108.278 670.59 104.837C679.852 100.118 687.545 93.4475 694.124 85.485C695.482 83.8372 696.332 81.7741 697.763 79.2957C697.592 88.0161 696.412 95.8533 693.142 103.256C691.289 107.461 689.173 111.548 687.183 115.694C684.506 121.257 683.478 127.182 683.307 133.286C683.28 134.248 683.412 135.428 683.946 136.166C688.58 142.554 690.307 149.857 690.874 157.529C691.487 165.755 692.008 173.995 692.568 182.201C692.786 181.898 693.261 181.298 693.682 180.659C709.207 157.022 721.283 131.717 730.308 104.936C730.756 103.598 731.205 102.616 732.813 102.122C756.169 94.9635 778.509 85.2741 800.454 74.6553C810.87 69.6195 821.134 64.2672 831.648 58.9743C838.154 66.1458 844.72 73.3766 851.286 80.614C851.437 80.5481 851.583 80.4756 851.734 80.4096C850.389 75.644 849.058 70.8784 847.706 66.1194C846.54 62.0262 845.287 57.9527 844.226 53.833C844.054 53.1805 844.443 51.9281 844.971 51.6183C856.896 44.5128 868.88 37.5061 881.108 30.3214C887.503 37.1238 894.075 44.1173 900.641 51.1042C900.773 51.0383 900.904 50.9789 901.036 50.913C899.573 46.365 898.109 41.8169 896.639 37.2688C895.229 32.8921 893.752 28.5352 892.447 24.1321C892.249 23.4795 892.546 22.2404 893.053 21.8778C901.709 15.6621 910.437 9.54528 919.151 3.41526C919.349 3.27684 919.613 3.24388 920.008 3.10546C926.508 15.471 926.607 27.7574 919.784 39.9647C915.974 46.7868 910.746 52.0731 903.864 56.1137C865.123 78.8343 826.526 101.792 787.877 124.678C787.442 124.935 787.039 125.231 786.861 125.963C799.255 119.569 811.648 113.169 824.153 106.716C831.002 115.179 837.752 123.504 844.885 132.317C844.773 131.309 844.773 130.874 844.667 130.465C842.261 121.066 839.849 111.666 837.436 102.267C837.146 101.133 836.671 100.125 838.273 99.3072C850.119 93.2761 861.912 87.1461 873.725 81.0556C873.943 80.9435 874.2 80.9172 874.648 80.7985C881.122 88.9323 887.621 97.1057 894.128 105.279C894.279 105.2 894.424 105.121 894.576 105.042C891.854 94.8976 889.124 84.7534 886.369 74.4774C897.371 68.789 908.248 63.1599 919.547 57.3133C920.463 59.9037 921.531 62.2898 922.151 64.7814C925.565 78.4256 921.544 90.0595 912.645 100.54C908.096 105.892 901.986 108.621 896.033 111.712C878.874 120.624 861.695 129.516 844.522 138.401C828.128 146.878 811.72 155.334 795.319 163.804C795.102 163.916 794.937 164.121 794.884 164.582C804.489 160.429 814.1 156.27 823.909 152.032C828.972 160.192 833.968 168.247 838.965 176.302C839.137 176.236 839.308 176.17 839.479 176.104C838.669 170.916 837.845 165.736 837.047 160.548C836.427 156.514 835.788 152.474 835.28 148.427C835.214 147.893 835.702 146.937 836.177 146.726C847.153 141.894 858.175 137.175 869.144 132.317C870.884 131.546 871.253 132.693 871.86 133.635C876.586 141.031 881.293 148.44 886.006 155.848C886.349 156.389 886.745 156.903 887.562 157.239C886.962 152.718 886.382 148.196 885.749 143.681C885.018 138.447 884.18 133.233 883.541 127.987C883.449 127.242 884.022 125.93 884.635 125.653C895.611 120.782 906.639 116.03 918.097 111.06C918.815 113.591 919.698 115.944 920.147 118.383C923.074 134.11 917.042 146.548 905.156 156.244C901.109 159.546 895.881 161.51 891.003 163.646C858.623 177.824 826.19 191.884 793.77 205.989C793.157 206.253 792.564 206.569 792.109 207.281C793.994 206.662 795.879 206.049 797.765 205.422C803.981 203.34 810.25 201.402 816.374 199.075C818.892 198.119 819.881 198.851 821.074 200.954C825.478 208.712 830.066 216.364 834.99 223.958C834.489 219.212 833.988 214.473 833.487 209.727C832.993 205.067 832.426 200.406 832.057 195.733C832.004 195.021 832.69 193.769 833.309 193.558C844.496 189.689 855.722 185.938 866.949 182.181C867.173 182.109 867.443 182.175 867.911 182.175C872.071 191.211 876.263 200.334 880.462 209.45C880.634 209.463 880.805 209.47 880.983 209.483C880.983 208.567 880.99 207.65 880.983 206.728C880.924 197.77 880.812 188.819 880.858 179.861C880.864 178.918 881.537 177.376 882.255 177.119C891.722 173.784 901.247 170.626 911.458 167.192C911.973 171.246 912.849 175.062 912.862 178.885C912.895 192.22 906.323 202.14 896.211 210.195C892.223 213.365 887.555 214.835 882.869 216.404C863.976 222.732 845.182 229.376 826.157 235.295C816.757 238.221 806.941 239.823 797.316 242.011C793.341 242.915 789.353 243.791 785.444 245.136C792.702 243.963 799.967 242.789 807.488 241.576C810.072 249.381 812.656 257.185 815.234 264.989C815.399 264.976 815.57 264.969 815.735 264.956C816.249 259.439 816.757 253.922 817.271 248.399C817.475 246.19 817.521 243.956 817.943 241.794C818.108 240.963 819.031 239.77 819.763 239.639C831.266 237.635 842.782 235.756 854.318 233.977C854.905 233.884 856.032 234.833 856.302 235.532C859.157 243.007 861.886 250.534 864.661 258.042C864.885 258.642 865.182 259.215 865.762 260.507C866.553 252.762 867.331 245.782 867.951 238.788C868.577 231.722 868.491 231.67 875.452 230.503C884.437 229 893.436 227.576 902.651 226.087C903.746 231.3 903.429 236.409 901.887 241.273C896.765 257.422 885.551 266.729 868.946 269.557C855.676 271.818 842.406 274.072 829.084 275.964C825.722 276.438 822.149 275.575 818.688 275.193C801.153 273.248 783.625 271.264 766.09 269.307C765.424 269.234 764.745 269.3 764.04 269.498C770.935 270.678 777.837 271.857 785.035 273.09C783.895 281.758 782.781 290.254 781.66 298.75C781.792 298.823 781.917 298.895 782.049 298.968C786.512 290.966 790.982 282.964 795.51 274.85C807.488 276.874 819.38 278.884 831.549 280.934C830.396 289.865 829.268 298.605 828.141 307.346C828.227 307.398 828.319 307.458 828.405 307.51C829.848 304.854 831.299 302.198 832.736 299.535C835.445 294.506 838.207 289.509 840.798 284.421C841.53 282.977 842.373 282.714 843.81 282.964C853.046 284.559 862.295 286.095 871.53 287.664C871.853 287.716 872.156 287.881 872.703 288.079C871.537 294.44 869.144 300.273 864.826 304.979C854.443 316.29 841.694 320.937 826.355 317.918C819.941 316.653 813.434 315.862 806.981 314.781C792.953 312.428 778.938 310.028 764.916 307.655C764.343 307.557 763.75 307.557 763.071 307.893C782.326 313.792 801.575 319.698 820.949 325.637C820.811 326.191 820.758 326.691 820.573 327.14C814.898 340.975 800.151 346.683 787.587 342.939C767.922 337.086 748.324 331.015 728.693 325.044C728.548 324.997 728.37 325.07 727.572 325.142C743.499 332.96 758.931 340.54 774.58 348.232C770.975 355.272 765.536 359.833 758.034 361.692C750.961 363.445 744.105 362.938 737.434 359.497C727.829 354.54 718.047 349.926 708.198 345.095C707.203 347.408 706.253 349.61 705.166 352.128C713.768 351.653 721.323 353.637 725.516 361.593C729.787 369.694 727.019 376.753 720.604 383.094C721.897 383.707 722.984 384.281 724.105 384.755C734.296 389.079 744.521 393.331 754.685 397.721C761.218 400.535 766.584 404.701 769.419 411.51C773.605 421.562 768.661 430.342 757.705 432.082C755.088 427.303 750.869 424.277 746.089 421.799C740.658 418.985 735.344 415.939 730.011 413.013C728.271 415.043 726.616 416.974 724.804 419.09C730.236 423.783 735.799 428.529 741.277 433.36C743.38 435.213 745.595 437.052 747.236 439.28C753.051 447.163 751.759 458.124 744.349 465.915C739.853 470.635 731.659 474.089 725.529 473.726C724.955 467.952 721.026 464.156 717.289 460.141C703.122 444.915 689.075 429.584 674.664 414.496C676.411 417.337 678.145 420.191 679.918 423.018C689.852 438.917 699.793 454.815 709.728 470.714C714.289 478.017 713.887 485.057 708.304 491.708C699.998 501.601 689.114 505.444 676.464 504.798C673.926 504.666 670.887 504.805 669.048 503.48C667.466 502.333 667.228 499.288 666.451 497.066C662.68 486.329 658.955 475.572 655.165 464.841C652.218 456.503 649.199 448.185 646.219 439.86C646.055 439.405 645.949 438.93 645.712 438.08C652.561 440.321 659.048 439.754 665.429 437.434C667.024 436.854 668.58 436.142 670.103 435.377C671.902 434.481 672.647 432.906 672.456 430.941C672.258 428.924 671.052 427.316 669.14 427.25C661.315 426.98 658.817 420.857 655.87 415.346C655.02 413.764 655.244 411.754 657.044 410.31C664.282 404.51 672.37 401.768 681.599 403.679C687.572 404.918 693.445 406.606 699.563 408.148C698.27 412.406 695.95 414.753 692.423 415.946C691.619 416.216 690.531 416.15 690.011 416.671C688.943 417.739 687.486 419.097 687.466 420.356C687.44 421.746 688.508 423.941 689.681 424.449C700.571 429.162 714.593 428.305 722.622 417.726C724.916 414.7 726.129 411.338 725.39 407.443C725.239 406.645 725.476 405.762 725.608 404.932C726.966 396.567 721.448 390.213 713.03 389.883C708.515 389.705 704.652 390.529 701.441 393.799C701.033 394.214 700.485 394.497 699.991 394.834C699.938 394.867 699.833 394.834 699.569 394.82C699.569 393.542 699.569 392.23 699.569 390.595C693.709 390.595 688.013 390.595 682.318 390.595C682.265 390.365 682.219 390.14 682.166 389.91C683.115 389.495 684.025 388.934 685.014 388.677C689.22 387.583 693.425 386.489 697.671 385.586C699.332 385.23 699.899 384.459 699.971 382.857C700.064 380.82 700.301 378.777 700.598 376.753C701.316 371.83 704.348 368.791 708.627 368.587C712.813 368.389 715.924 371.025 717.17 375.824C717.203 375.962 717.368 376.074 717.467 376.193C721.956 372.693 721.976 365.436 717.407 361.804C713.116 358.396 708.093 357.421 703.234 359.774C696.814 362.878 690.769 366.761 684.559 370.307C681.527 372.04 678.514 373.807 675.449 375.475C674.453 376.015 673.306 376.266 671.764 376.167C672.159 375.422 672.423 374.552 672.983 373.965C675.106 371.75 677.235 369.536 679.536 367.519C680.973 366.26 681.467 365.007 681.243 363.089C680.736 358.778 680.465 354.435 680.169 350.098C679.912 346.301 681.164 343.15 684.684 341.351C687.631 339.841 690.637 339.953 693.333 342.036C696.642 344.587 697.334 347.962 696.102 351.917C701.507 347.883 703.248 340.599 700.156 335.28C697.176 330.152 690.334 327.937 684.467 330.752C681.553 332.149 678.725 334.225 676.576 336.631C658.369 356.959 644.453 379.983 634.209 405.228C632.653 409.064 631.11 413.112 630.715 417.172C629.845 426.057 635.316 431.666 642.04 436.3C642.739 436.781 643.537 437.111 643.734 437.216C643.372 438.482 642.726 439.53 642.858 440.466C644.532 452.106 646.299 463.727 648.085 475.348C649.338 483.508 650.788 491.642 651.915 499.815C653.392 510.533 648.738 518.238 638.243 521.738C621.42 527.347 604.386 527.222 587.425 522.285C582.388 520.822 577.886 518.152 574.775 513.651C571.584 509.037 571.485 503.922 572.296 498.662C575.249 479.547 578.235 460.438 581.142 441.316C581.327 440.097 582.606 438.185 579.481 437.829C583.97 435.476 587.299 432.49 590.187 428.634C593.925 423.645 594.683 418.398 592.725 412.973C589.87 405.057 586.64 397.246 583.015 389.653C574.339 371.493 563.344 354.784 550.239 339.505C547.714 336.565 544.8 333.79 541.583 331.661C537.246 328.774 532.374 328.656 527.806 331.49C523.818 333.962 522.091 337.739 522.585 342.386C523 346.275 525.037 349.346 528.023 352.101C526.784 346.097 528.828 342.023 533.548 340.744C538.736 339.34 543.858 342.88 543.937 348.265C543.996 352.51 543.785 356.808 543.179 361.006C542.711 364.249 543.067 366.655 545.928 368.679C547.912 370.083 549.5 372.067 551.181 373.879C551.762 374.506 552.071 375.376 552.506 376.134C552.355 376.325 552.203 376.523 552.045 376.714C550.832 376.239 549.533 375.916 548.419 375.27C541.267 371.124 534.18 366.873 527.028 362.733C523.271 360.558 519.513 358.284 514.859 358.732C510.779 359.121 507.206 360.473 504.866 364.058C502.321 367.96 503.119 373.102 506.547 376.127C507.45 374.492 508.115 372.601 509.348 371.223C511.655 368.646 514.721 368.039 518.004 369.127C521.24 370.208 522.921 372.706 523.482 375.929C523.877 378.19 524.108 380.491 524.2 382.784C524.273 384.538 525.024 385.302 526.698 385.665C530.693 386.522 534.662 387.504 538.624 388.512C539.797 388.809 540.904 389.369 542.038 389.804C541.992 390.048 541.953 390.292 541.906 390.536C536.303 390.536 530.7 390.536 524.84 390.536C524.84 392.019 524.84 393.41 524.84 395.282C523.435 394.273 522.288 393.687 521.445 392.81C517.536 388.763 512.591 389.488 508.023 390.411C501.049 391.815 497.482 397.747 498.583 404.826C498.676 405.413 498.939 406.019 498.86 406.573C497.614 415.241 502.453 420.468 509.282 424.185C517.417 428.621 525.901 427.784 534.293 424.719C536.132 424.047 537.074 422.511 536.929 420.481C536.771 418.253 535.512 416.908 533.383 416.368C529.335 415.346 526.27 413.217 524.866 408.741C525.776 408.353 526.659 407.924 527.575 407.595C534.26 405.202 541.069 403.29 548.222 403.152C555.466 403.014 561.643 405.854 567.167 410.356C569.099 411.932 568.993 413.863 568.117 415.821C567.385 417.442 566.343 418.925 565.499 420.501C563.469 424.291 560.47 426.703 556.086 427.046C553.746 427.224 552.177 428.325 551.768 430.612C551.313 433.156 552.652 434.791 554.919 435.839C562.085 439.148 569.442 440.703 577.253 438.462C577.543 438.383 577.84 438.337 578.499 438.205C575.394 446.866 572.395 455.178 569.442 463.503C565.374 474.985 561.34 486.481 557.292 497.97C557.068 498.609 556.752 499.281 556.758 499.934C556.798 503.236 554.801 504.047 551.966 504.423C539.276 506.117 527.819 503.552 518.373 494.562C513.139 489.585 509.678 483.58 511.932 476.04C512.835 473.021 514.76 470.266 516.448 467.537C524.49 454.519 532.612 441.547 540.707 428.555C543.581 423.941 546.448 419.314 549.026 414.436C545.756 417.93 542.473 421.404 539.23 424.917C527.615 437.506 516.065 450.149 504.384 462.672C501.392 465.882 499.17 469.369 498.537 473.7C480.89 473.812 469.163 456.905 474.555 443.61C475.9 440.301 478.57 437.302 481.24 434.804C487.074 429.333 493.296 424.271 499.361 419.037C497.588 416.987 495.94 415.076 494.022 412.861C486.731 417.047 479.189 421.147 471.932 425.688C469.578 427.158 467.963 429.808 465.9 432.036C457.983 430.48 452.65 424.897 453.098 418.167C453.48 412.485 455.722 407.476 460.086 403.844C463.052 401.372 466.434 399.204 469.954 397.615C480.356 392.929 490.917 388.598 501.411 384.116C502.097 383.826 502.743 383.457 503.574 383.048C497.515 377.261 494.615 370.491 498.148 362.654C502.07 353.947 509.882 351.68 518.966 352.115C517.99 349.775 517.081 347.606 516.046 345.141C513.752 346.255 511.491 347.349 509.229 348.456C500.89 352.543 492.69 356.953 484.173 360.644C472.729 365.607 456.157 361.909 449.743 348.166C465.346 340.533 480.956 332.901 496.56 325.261C496.5 325.09 496.441 324.918 496.382 324.754C495.03 325.123 493.666 325.446 492.327 325.861C473.204 331.74 454.199 338.042 434.917 343.361C423.902 346.4 408.16 341.14 403.189 325.584C412.827 322.644 422.471 319.711 432.109 316.771C441.779 313.832 451.45 310.892 461.008 307.444C456.275 308.242 451.549 309.026 446.816 309.831C428.589 312.915 410.408 316.35 392.108 318.94C384.118 320.074 376.34 317.417 369.385 313.317C360.427 308.031 354.355 300.379 351.896 290.096C351.745 289.457 351.666 288.797 351.514 287.914C355.7 287.209 359.715 286.543 363.723 285.858C369.266 284.915 374.817 283.992 380.348 282.99C381.811 282.727 382.629 283.043 383.367 284.447C386.874 291.151 390.513 297.788 394.105 304.452C394.58 305.335 395.061 306.219 395.984 306.957C395.259 301.295 394.541 295.633 393.815 289.971C393.539 287.776 393.354 285.554 392.952 283.379C392.609 281.52 393.275 280.822 395.101 280.532C403.348 279.207 411.568 277.763 419.801 276.366C421.983 275.997 424.225 275.812 426.347 275.226C428.246 274.705 429.076 275.423 429.914 276.979C433.658 283.867 437.501 290.702 441.318 297.557C441.595 298.058 441.938 298.52 442.649 299.607C441.437 290.399 440.316 281.916 439.156 273.123C446.242 271.917 453.177 270.73 460.112 269.55C460.099 269.438 460.092 269.333 460.079 269.221C456.473 269.59 452.867 269.933 449.268 270.328C432.577 272.161 415.912 274.244 399.188 275.707C394.303 276.135 389.24 275.015 384.31 274.276C373.274 272.615 362.193 271.099 351.27 268.852C340.591 266.657 332.542 260.125 326.596 251.127C321.645 243.64 320.274 235.282 321.408 226.106C326.174 226.871 330.762 227.603 335.35 228.347C341.408 229.33 347.453 230.384 353.525 231.281C355.1 231.511 355.601 232.098 355.746 233.673C356.544 242.394 357.48 251.094 358.858 259.947C362.042 251.305 365.226 242.664 368.495 233.792C373.307 234.543 378.08 235.275 382.846 236.046C389.913 237.187 396.966 238.406 404.04 239.487C405.668 239.737 406.288 240.324 406.413 242.031C407.006 249.763 407.764 257.482 408.872 265.319C411.456 257.508 414.04 249.69 416.716 241.616C424.159 242.816 431.502 243.995 438.852 245.182C438.879 245.037 438.905 244.892 438.925 244.747C432.049 243.205 425.22 241.418 418.285 240.159C402.959 237.384 388.331 232.302 373.663 227.286C361.422 223.101 348.989 219.416 336.919 214.789C322.72 209.344 314.216 198.712 311.625 183.625C310.689 178.174 311.513 172.815 313.095 167.344C321.052 170.02 328.811 172.531 336.504 175.234C344.922 178.187 343.234 176.552 343.333 184.824C343.419 191.903 343.281 198.983 343.248 206.062C343.241 207.123 343.248 208.184 343.768 209.351C346.53 203.359 349.286 197.368 352.048 191.37C353.043 189.201 354.23 187.105 355.001 184.864C355.845 182.438 357.117 182.063 359.438 182.88C368.522 186.057 377.658 189.069 386.768 192.174C392.477 194.118 392.424 194.138 391.759 200.044C390.941 207.327 390.196 214.624 389.432 221.914C389.372 222.461 389.425 223.015 389.425 224.346C392.991 218.315 396.175 212.924 399.359 207.532C400.875 204.961 402.444 202.423 403.855 199.793C404.574 198.449 405.312 198.324 406.703 198.805C414.343 201.468 422.016 204.012 429.683 206.589C430.467 206.853 431.272 207.037 432.227 206.846C429.663 205.699 427.105 204.539 424.528 203.419C406.874 195.746 389.208 188.107 371.561 180.415C360.974 175.801 350.433 171.081 339.859 166.447C336.194 164.846 332.522 163.237 328.778 161.84C317.492 157.622 310.287 149.356 305.765 138.553C301.988 129.522 302.687 120.426 306.154 111.106C309.391 112.51 312.482 113.855 315.574 115.199C323.313 118.554 331.019 121.969 338.811 125.198C340.65 125.963 340.881 126.906 340.611 128.679C339.246 137.781 338.013 146.897 336.748 156.013C336.682 156.501 336.695 157.002 336.642 158.241C342.503 149.086 347.987 140.523 353.61 131.744C357.994 133.649 362.266 135.501 366.544 137.353C373.189 140.233 379.787 143.226 386.505 145.922C388.812 146.845 389.254 148.018 388.858 150.285C387.494 158.09 386.307 165.927 385.061 173.751C384.929 174.561 384.85 175.385 385.219 176.4C390.19 168.319 395.16 160.238 400.236 151.992C410.091 156.27 419.88 160.515 429.67 164.76C429.729 164.635 429.788 164.51 429.854 164.384C424.409 161.57 418.964 158.755 413.519 155.941C382.497 139.891 351.468 123.854 320.452 107.784C306.24 100.421 297.762 80.9172 301.994 65.3482C302.7 62.7446 303.642 60.2135 304.578 57.3265C308.138 59.1457 311.309 60.754 314.467 62.3887C321.652 66.1128 328.811 69.8897 336.029 73.5546C337.42 74.2598 337.802 74.8663 337.354 76.4746C334.691 85.9794 332.186 95.5304 330.03 105.338C336.497 97.2243 342.958 89.1103 349.681 80.6799C362.114 87.0933 374.56 93.5134 387.276 100.072C384.586 110.631 381.904 121.151 379.221 131.671C379.352 131.757 379.484 131.836 379.623 131.922C386.393 123.57 393.156 115.226 400.045 106.729C412.801 113.321 425.457 119.866 438.114 126.411C438.2 126.26 438.286 126.101 438.371 125.95C433.229 122.905 428.088 119.872 422.952 116.821C403.104 105.022 383.275 93.197 363.419 81.4181C348.099 72.3351 332.74 63.3115 317.407 54.2549C300.531 44.2491 294.328 20.2234 304.361 3ZM636.549 193.242C637.505 193.36 638.856 193.42 640.148 193.71C646.635 195.193 652.139 198.482 656.905 203.05C657.934 204.038 658.909 204.75 660.208 203.781C663.873 201.059 668.066 198.778 671.012 195.41C679.358 185.892 681.975 174.304 680.492 162.005C679.45 153.363 676.358 145.282 669.74 139.1C668.975 138.381 667.453 137.9 666.444 138.111C661.981 139.047 658.85 142.277 655.053 144.847C661.856 147.761 667.004 152.118 671.665 158.129C669.285 157.463 667.558 156.976 665.594 156.428C665.699 157.681 665.725 158.525 665.851 159.348C667.182 168.313 661.981 176.203 653.135 178.628C649.364 179.663 648.909 179.426 647.512 175.662C657.472 175.524 662.344 168.702 662.291 161.234C662.278 159.289 661.48 156.178 660.214 155.67C657.617 154.629 654.46 154.985 651.533 154.767C651.46 155.044 651.381 155.321 651.309 155.605C654.671 157.457 656.325 159.988 654.967 163.831C653.945 166.724 652.152 168.3 649.516 168.431C646.266 168.59 643.761 167.146 642.521 164.266C643.273 164.45 644.084 164.931 644.519 164.701C645.758 164.055 647.32 163.349 647.868 162.229C648.586 160.772 648.184 158.973 646.305 158.182C644.532 157.43 643.444 158.261 642.594 159.83C640.511 163.686 638.349 167.502 636.213 171.332C643.141 176.045 647.109 181.159 647.037 184.778C644.789 182.814 642.488 180.375 639.779 178.549C636.753 176.519 634.756 177.752 634.479 181.364C634.426 182.056 634.36 182.748 634.242 184.033C632.983 182.656 632.251 181.555 631.249 180.804C628.955 179.083 626.674 176.473 624.136 176.143C619.449 175.53 615.375 174.357 612.053 170.758C608.823 174.384 604.887 176.012 600.187 175.952C599.521 175.946 598.776 176.44 598.196 176.882C595.395 178.998 592.632 181.173 590.352 182.939C589.58 181.344 589.185 178.945 587.82 178.088C585.665 176.73 583.713 178.839 581.966 180.131C580.022 181.575 578.216 183.196 577.016 184.185C578.512 178.912 582.52 174.43 587.985 171.417C585.81 167.502 583.687 163.738 581.611 159.942C580.852 158.551 579.785 157.206 578.262 158.188C577.207 158.867 576.278 160.522 576.225 161.774C576.152 163.56 577.662 164.575 579.501 164.655C580.16 164.681 580.826 164.424 581.703 164.259C580.233 167.436 577.893 168.787 574.821 168.609C572.045 168.445 570.041 166.896 569.033 164.259C567.596 160.489 569.257 157.734 572.757 155.117C569.83 155.117 567.576 155.123 565.321 155.117C563.575 155.11 562.83 156.125 562.355 157.681C559.751 166.21 565.546 174.66 574.583 175.425C575.447 175.497 576.304 175.557 577.8 175.669C575.724 176.882 576.06 179.663 573.324 179.327C565.862 178.404 559.705 173.105 558.301 165.683C557.754 162.769 558.209 159.671 558.209 156.527C556.442 157.022 554.82 157.47 552.638 158.076C557.022 151.762 562.335 147.609 569.336 144.821C565.836 142.534 562.876 140.378 559.712 138.605C557.602 137.425 555.335 137.307 553.64 139.713C552.658 141.103 551.392 142.29 550.463 143.707C543.311 154.616 541.9 166.533 544.82 179.004C547.345 189.794 553.133 198.31 563.232 203.524C564.853 204.361 565.987 204.447 567.451 202.984C569.356 201.072 571.558 199.372 573.865 197.961C578.156 195.331 582.692 193.222 588.17 193.334C588.236 194.415 588.308 195.331 588.334 196.241C588.611 207.136 592.705 216.219 601.044 223.371C605.876 227.517 610.754 231.709 612.066 238.643C613.332 232.329 617.504 228.268 621.954 224.386C627.017 219.97 631.684 215.138 633.536 208.507C634.914 203.61 635.534 198.534 636.549 193.242ZM574.241 143.391C574.043 143.615 573.845 143.845 573.647 144.07C579.962 149.567 584.05 156.606 587.8 163.93C588.974 166.223 590.747 168.319 592.619 170.119C594.623 172.037 596.205 171.562 597.385 169.012C597.906 167.884 598.143 166.592 598.321 165.347C598.473 164.266 598.354 163.152 598.354 162.051C598.697 161.992 599.04 161.926 599.383 161.866C600.464 165.254 601.545 168.649 602.685 172.222C605.711 171.628 609.027 170.448 609.897 166.803C610.715 163.382 611.499 159.592 607.478 157.028C606.028 156.106 604.946 154.51 603.879 153.087C600.615 148.723 597.53 144.215 594.201 139.904C586.818 130.34 578.868 121.375 567.859 115.746C558.176 110.789 547.885 106.914 539.388 99.8346C539.316 99.7752 539.105 99.8741 538.795 99.9202C539.019 100.303 539.184 100.665 539.415 100.981C543.746 106.98 548.841 112.24 555.11 116.201C565.776 122.937 575.579 130.656 583.364 140.682C587.194 145.612 590.839 150.674 594.571 155.677C594.458 155.743 594.346 155.802 594.241 155.868C587.57 151.702 580.905 147.55 574.241 143.391ZM630.108 155.73C630.095 155.611 629.996 155.4 630.062 155.308C637.966 143.747 646.285 132.535 657.696 124.091C663.649 119.688 669.806 115.555 675.646 111.014C679.701 107.863 682.904 103.822 685.561 99.3666C678.705 104.877 670.993 108.786 663.102 112.431C659.634 114.032 656.193 115.753 652.91 117.697C643.26 123.419 636.186 131.829 629.462 140.57C625.309 145.961 621.519 151.676 616.951 156.692C614.821 159.032 613.714 160.983 613.872 164.101C614.116 168.873 617.201 172.037 622.198 171.978C622.04 168.247 622.963 164.872 625.468 162.11C625.87 164.444 625.975 166.764 626.694 168.873C627.557 171.398 629.397 171.892 631.427 170.198C632.963 168.913 634.426 167.337 635.376 165.597C639.621 157.846 643.543 149.903 650.564 144.07C650.372 143.832 650.188 143.602 649.997 143.364C643.372 147.491 636.74 151.617 630.108 155.73Z" stroke="white" stroke-width="3" stroke-miterlimit="10"/>
<path d="M511.359 401.194C514.306 401.194 517.239 403.033 518.683 405.874C518.993 406.481 519.256 407.113 519.474 407.753C521.53 413.823 524.681 418.879 531.544 420.692C527.898 421.891 524.332 422.63 520.898 422.63C515.683 422.63 510.772 420.922 506.356 416.513C503.844 414.008 502.282 411.029 503.383 407.291C504.398 403.851 507.278 401.497 510.792 401.214C510.983 401.207 511.168 401.194 511.359 401.194ZM511.359 399.876C511.135 399.876 510.911 399.883 510.687 399.902C506.646 400.232 503.284 402.987 502.123 406.922C501.016 410.679 502.097 414.127 505.426 417.449C509.81 421.825 514.872 423.954 520.898 423.954C524.233 423.954 527.852 423.295 531.953 421.951L536.178 420.56L531.88 419.42C526.442 417.983 523.106 414.364 520.72 407.331C520.476 406.612 520.186 405.92 519.856 405.274C518.188 401.998 514.853 399.876 511.359 399.876Z" fill="white"/>
<path d="M578.512 414.74C579.441 414.74 580.391 414.911 581.34 415.254C587.029 417.31 588.631 424.297 584.359 428.878C580.371 433.156 575.539 435.041 570.18 435.041C568.795 435.041 567.371 434.916 565.921 434.672C562.889 434.165 559.968 432.998 557.002 432.134C557.009 431.877 557.015 431.627 557.022 431.37C564.023 430.612 567.754 426.031 570.661 420.29C572.513 416.645 575.394 414.74 578.512 414.74ZM578.512 413.421C574.801 413.421 571.511 415.709 569.487 419.696C565.229 428.081 560.727 429.643 556.883 430.058L555.743 430.183L555.71 431.33L555.697 431.713L555.684 432.095L555.657 433.117L556.633 433.4C557.543 433.664 558.472 433.967 559.369 434.257C561.412 434.923 563.522 435.608 565.704 435.971C567.233 436.228 568.742 436.36 570.18 436.36C576.152 436.36 581.248 434.145 585.322 429.775C587.662 427.263 588.604 423.862 587.833 420.679C587.082 417.561 584.873 415.129 581.782 414.008C580.7 413.619 579.6 413.421 578.512 413.421Z" fill="white"/>
<path d="M712.833 401.227C715.14 401.227 717.421 402.223 719.036 404.015C721.257 406.467 721.771 409.981 720.203 413.065C717.948 417.495 714.131 420.105 709.556 421.667C707.506 422.366 705.126 422.709 702.674 422.709C699.22 422.709 695.627 422.036 692.601 420.751C694.296 419.92 696.016 419.228 697.585 418.279C701.567 415.867 703.195 411.793 704.685 407.687C705.66 405.004 707.216 402.849 709.939 401.774C710.881 401.405 711.857 401.227 712.833 401.227ZM712.833 399.909C711.666 399.909 710.532 400.126 709.457 400.548C706.649 401.656 704.685 403.844 703.445 407.239C701.877 411.563 700.4 415.036 696.9 417.152C695.891 417.765 694.803 418.266 693.65 418.793C693.109 419.044 692.562 419.294 692.021 419.565L689.431 420.83L692.087 421.957C695.212 423.289 698.976 424.02 702.674 424.02C705.331 424.02 707.856 423.638 709.985 422.913C715.43 421.054 719.161 418.029 721.383 413.665C723.169 410.159 722.635 406.026 720.025 403.139C718.166 401.082 715.548 399.909 712.833 399.909Z" fill="white"/>
<path d="M645.105 414.825C645.58 414.825 646.061 414.871 646.549 414.977C648.546 415.405 650.425 416.816 652.099 418.121C653.035 418.846 653.497 420.224 654.077 421.357C656.8 426.729 660.643 430.651 667.406 431.383C663.563 433.815 659.14 434.995 654.822 434.995C649.535 434.995 644.4 433.229 640.675 429.834C637.472 426.914 636.562 423.104 638.203 419.459C639.39 416.783 642.106 414.825 645.105 414.825ZM645.105 413.507C641.704 413.507 638.441 415.682 636.99 418.912C635.125 423.065 636.166 427.514 639.779 430.803C643.675 434.356 649.014 436.307 654.815 436.307C659.568 436.307 664.163 434.989 668.105 432.49L671.296 430.473L667.545 430.065C662.001 429.465 658.21 426.591 655.25 420.751C655.132 420.514 655.013 420.263 654.894 420.006C654.42 418.985 653.886 417.831 652.904 417.066C650.946 415.55 649.014 414.146 646.819 413.678C646.259 413.573 645.679 413.507 645.105 413.507Z" fill="white"/>
<path d="M612.026 177.238C614.063 177.238 616.127 177.706 618.19 178.681C624.321 181.568 628.309 186.492 631.018 192.714C623.094 198.462 619.258 206.794 615.837 215.395C615.21 216.977 614.564 218.566 613.747 220.049C613.16 221.117 612.587 221.651 612.026 221.651C611.459 221.651 610.912 221.097 610.385 219.99C608.79 216.602 607.511 213.069 605.863 209.707C604.294 206.504 602.685 203.261 600.615 200.38C598.552 197.513 595.902 195.067 593.371 192.292C595.5 187.026 599.145 182.643 604.254 179.551C606.779 178.029 609.383 177.238 612.026 177.238ZM612.026 175.26C609.047 175.26 606.093 176.137 603.239 177.864C597.827 181.14 593.891 185.747 591.545 191.554L591.077 192.708L591.914 193.631C592.712 194.507 593.522 195.351 594.307 196.168C596.041 197.974 597.675 199.675 599.014 201.547C601.044 204.375 602.666 207.677 604.089 210.59C604.953 212.35 605.737 214.216 606.489 216.022C607.155 217.604 607.84 219.245 608.592 220.847C609.469 222.705 610.622 223.648 612.02 223.648C614.03 223.648 615.118 221.67 615.474 221.018C616.377 219.37 617.089 217.577 617.663 216.14C620.992 207.776 624.611 199.813 632.172 194.323L633.457 193.387L632.824 191.93C629.673 184.706 625.158 179.789 619.027 176.895C616.733 175.807 614.373 175.26 612.026 175.26Z" fill="white"/>
<path d="M696.082 351.891C696.082 351.891 694.645 360.15 681.065 365.304" stroke="white" stroke-width="3" stroke-miterlimit="10"/>
<path d="M717.44 376.18C717.44 376.18 719.068 382.91 705.805 390.852" stroke="white" stroke-width="3" stroke-miterlimit="10"/>
<path d="M699.873 383.516L699.543 390.576" stroke="white" stroke-width="3" stroke-miterlimit="10"/>
<path d="M506.52 376.094C506.52 376.094 505.525 384.926 518.94 390.872" stroke="white" stroke-width="3" stroke-miterlimit="10"/>
<path d="M524.253 383.483L524.813 390.503" stroke="white" stroke-width="3" stroke-miterlimit="10"/>
<path d="M528.004 352.068C528.004 352.068 531.221 362.377 542.994 363.445" stroke="white" stroke-width="3" stroke-miterlimit="10"/>
<path d="M226.851 202.713L217.622 217.294L209.567 214.123L255.402 141.729L268.045 146.706L252.191 230.911L243.463 227.477L246.654 210.518L226.851 202.713ZM230.925 195.66L248.374 202.535L257.34 153.864L230.925 195.66Z" stroke="white" stroke-width="3" stroke-miterlimit="10"/>
<path d="M372.569 347.883C378.845 345.925 383.776 346.004 387.375 348.113C390.974 350.223 393.703 354.263 395.562 360.228L396.742 364.018C398.081 368.303 398.469 371.981 397.916 375.052C397.362 378.124 395.49 380.741 392.306 382.909C396.545 382.764 399.946 383.925 402.524 386.396C405.101 388.868 407.079 392.322 408.463 396.758L410.579 403.527C412.464 409.572 412.425 414.687 410.454 418.866C408.483 423.051 404.363 426.116 398.087 428.074L379.609 433.835L354.546 353.499L372.569 347.883ZM381.02 382.652C384.619 381.532 387.085 379.963 388.43 377.946C389.774 375.936 389.788 372.818 388.476 368.613L387.006 363.906C385.885 360.307 384.382 357.862 382.51 356.557C380.631 355.252 378.087 355.1 374.876 356.102L366.036 358.857L374.125 384.795L381.02 382.652ZM395.549 419.927C401.897 417.949 403.941 413.322 401.673 406.052L399.452 398.94C398.041 394.425 396.169 391.59 393.835 390.43C391.502 389.27 388.384 389.297 384.481 390.516L376.676 392.948L386.024 422.9L395.549 419.927Z" stroke="white" stroke-width="3" stroke-miterlimit="10"/>
<path d="M975.065 90.0198C981.341 88.0621 986.535 88.1017 990.655 90.1319C994.776 92.162 997.847 96.4332 999.878 102.932L1002.63 111.771C1004.59 118.047 1004.6 123.333 1002.67 127.63C1000.73 131.928 996.588 135.066 990.24 137.05L971.532 142.883L946.469 62.5468L980.326 51.9873L982.87 60.1343L957.847 67.9385L965.652 92.9596L975.065 90.0198ZM987.696 128.896C990.985 127.868 993.128 126.259 994.123 124.058C995.118 121.856 995.026 118.884 993.859 115.133L990.748 105.147C989.528 101.245 987.854 98.8325 985.718 97.9031C983.582 96.9737 980.866 97.0265 977.577 98.0481L968.163 100.981L977.827 131.968L987.696 128.896Z" stroke="white" stroke-width="3" stroke-miterlimit="10"/>
<path d="M1121.95 349.478L1057.01 388.229L1052.27 380.28L1124.53 337.152L1141.73 365.956L1134.4 370.333L1121.95 349.478Z" stroke="white" stroke-width="3" stroke-miterlimit="10"/>
<path d="M967.438 250.804L974.61 241.761L947.669 220.398L940.496 229.441L933.43 223.839L945.757 208.296L949.996 211.658C952.118 211.302 953.977 210.471 955.573 209.173C957.161 207.874 958.816 206.273 960.536 204.361L1002.6 156.547L1029.07 177.541L981.934 236.975L986.924 240.937L974.597 256.479L967.438 250.804ZM967.768 209.944C965.751 212.231 963.938 213.965 962.336 215.151C960.734 216.331 958.974 217.036 957.056 217.26L974.485 231.076L1016.32 178.325L1004.07 168.616L967.768 209.944Z" stroke="white" stroke-width="3" stroke-miterlimit="10"/>
<path d="M273.655 281.131L279.601 287.083L265.059 301.611L286.219 322.789L304.084 304.946L310.116 310.984L285.619 335.451L226.139 275.918L250.635 251.45L256.667 257.488L238.803 275.331L259.113 295.659L273.655 281.131Z" stroke="white" stroke-width="3" stroke-miterlimit="10"/>
<path d="M1049.19 288.685L1047.26 296.879L1027.25 292.153L1020.37 321.287L1044.94 327.087L1042.98 335.392L1009.28 327.43L1028.63 245.531L1062.32 253.494L1060.36 261.799L1035.79 255.999L1029.18 283.959L1049.19 288.685ZM1045.7 233.383L1043.21 243.917L1035.26 242.038L1037.74 231.505L1045.7 233.383ZM1060.33 236.837L1057.84 247.37L1049.77 245.466L1052.25 234.932L1060.33 236.837Z" stroke="white" stroke-width="3" stroke-miterlimit="10"/>
<path d="M227.853 97.5008L219.092 99.9595L196.633 122.39L190.087 115.838L212.546 93.4076L215.19 84.6542L175.65 101.383L168.854 94.5809L216.726 73.9497L228.73 35.4492L235.355 42.0868L222.243 83.7314L249.633 56.3704L256.179 62.9223L228.789 90.2832L270.537 77.2981L277.162 83.9291L238.901 95.8134L217.965 143.746L211.169 136.944L227.853 97.5008Z" stroke="white" stroke-width="3" stroke-miterlimit="10"/>
<path d="M929.455 277.361C935.651 275.43 940.8 275.838 944.894 278.594C948.981 281.349 951.987 285.785 953.892 291.908L954.538 293.971C955.83 298.104 956.093 301.861 955.349 305.243C954.597 308.624 952.764 311.445 949.857 313.693C953.661 313.765 956.799 315.011 959.271 317.43C961.749 319.849 963.615 323.086 964.881 327.139L966.852 333.454C968.763 339.577 968.816 344.93 967.017 349.524C965.217 354.118 961.215 357.381 955.019 359.312C948.895 361.224 943.793 360.802 939.699 358.047C935.605 355.291 932.606 350.855 930.701 344.732L928.268 336.928L936.647 334.311L939.224 342.577C940.371 346.248 942.026 348.865 944.188 350.414C946.35 351.963 949.04 352.24 952.25 351.238C955.54 350.209 957.61 348.43 958.46 345.899C959.31 343.368 959.099 340.078 957.834 336.018L955.863 329.704C953.378 321.748 948.697 318.841 941.808 320.99L938.018 322.17L935.513 314.135L939.758 312.81C942.744 311.88 944.834 310.18 946.041 307.701C947.24 305.23 947.293 302.23 946.192 298.711L945.045 295.039C943.753 290.906 942.046 288.039 939.91 286.444C937.774 284.842 935.058 284.559 931.769 285.581C928.558 286.582 926.502 288.336 925.605 290.84C924.709 293.345 924.834 296.437 925.974 300.108L927.655 305.5L919.389 308.077L917.813 303.028C915.882 296.832 915.79 291.486 917.536 286.998C919.283 282.509 923.258 279.292 929.455 277.361Z" stroke="white" stroke-width="3" stroke-miterlimit="10"/>
<path d="M310.623 422.531L289.37 457.307L279.911 454.993L299.904 373.247L307.96 375.217L293.049 436.175L305.804 415.405L328.283 380.187L338.442 382.672L318.448 464.419L310.274 462.422L326.187 397.378L310.623 422.531Z" stroke="white" stroke-width="3" stroke-miterlimit="10"/>
<path d="M1063.56 135.909L1062.74 145.526L1075.03 170.962L1066.59 175.042L1029.96 99.2741L1038.4 95.194L1056.09 131.776L1058.53 85.4585L1067.08 81.3257L1064.62 125.112L1104.36 156.778L1095.7 160.963L1063.56 135.909Z" stroke="white" stroke-width="3" stroke-miterlimit="10"/>
<path d="M162.631 145.83L129.387 189.313C127.304 191.963 125.293 194.171 123.355 195.938C121.411 197.704 119.394 198.95 117.304 199.675C115.214 200.4 113.026 200.545 110.738 200.097C108.451 199.649 105.998 198.502 103.388 196.643L102.116 195.74L107.06 188.779C108.629 189.893 110.039 190.605 111.298 190.908C112.558 191.212 113.751 191.152 114.891 190.73C116.025 190.309 117.132 189.551 118.214 188.443C119.288 187.342 120.442 185.998 121.668 184.409L160.429 133.787L188.366 153.627L139.631 222.237L131.984 216.806L175.776 155.156L162.631 145.83Z" stroke="white" stroke-width="3" stroke-miterlimit="10"/>
<path d="M1027.86 449.054L1019.42 452.225L982.811 394.444L1006.4 457.241L998.751 460.115L969.159 381.334L981.427 376.727L1018.01 434.777L1006.87 367.176L1019.13 362.568L1048.73 441.349L1040.4 444.48L1016.6 381.117L1027.86 449.054Z" stroke="white" stroke-width="3" stroke-miterlimit="10"/>
<path d="M164.193 286.833L168.557 324.45L159.243 325.531L149.546 241.939L158.861 240.858L163.224 278.475L183.765 276.096L179.401 238.478L188.716 237.397L198.413 320.99L189.098 322.071L184.734 284.454L164.193 286.833Z" stroke="white" stroke-width="3" stroke-miterlimit="10"/>
<path d="M218.829 356.61C220.371 350.302 223.133 345.681 227.115 342.735C231.097 339.789 236.239 339.083 242.547 340.626C248.856 342.168 253.114 345.167 255.323 349.629C257.531 354.092 257.867 359.47 256.325 365.778L245.982 408.049C244.459 414.278 241.684 418.879 237.656 421.852C233.628 424.824 228.46 425.543 222.151 424.001C215.843 422.458 211.611 419.439 209.448 414.95C207.286 410.462 206.97 405.103 208.492 398.874L218.829 356.61ZM217.365 401.55C216.449 405.287 216.541 408.385 217.629 410.837C218.717 413.289 220.899 414.918 224.168 415.715C227.517 416.532 230.22 416.104 232.283 414.423C234.347 412.742 235.836 410.033 236.746 406.296L247.313 363.089C248.23 359.352 248.157 356.26 247.102 353.815C246.048 351.37 243.846 349.742 240.504 348.924C237.234 348.127 234.544 348.562 232.448 350.236C230.345 351.91 228.842 354.613 227.926 358.35L217.365 401.55Z" stroke="white" stroke-width="3" stroke-miterlimit="10"/>
<path d="M1095.49 241.444L1122.08 312.236L1113.3 315.532L1083.71 236.751L1120.63 222.883L1150.22 301.663L1141.44 304.959L1114.84 234.167L1095.49 241.444Z" stroke="white" stroke-width="3" stroke-miterlimit="10"/>
<path d="M161.148 377.558C167.608 379.14 171.847 382.053 173.864 386.298C175.875 390.543 176.125 395.783 174.602 402.012L172.203 411.82C170.601 418.359 167.859 422.907 163.976 425.464C160.093 428.022 154.879 428.496 148.339 426.901L140.284 424.93L132.4 457.162L123.29 454.934L143.283 373.188L161.148 377.558ZM150.337 418.728C153.765 419.565 156.5 419.347 158.544 418.075C160.588 416.803 162.097 414.18 163.066 410.212L165.723 399.349C166.639 395.612 166.6 392.632 165.617 390.411C164.635 388.19 162.466 386.667 159.118 385.85L150.357 383.707L142.275 416.757L150.337 418.728Z" stroke="white" stroke-width="3" stroke-miterlimit="10"/>
<path d="M886.349 326.309C892.842 326.157 897.674 327.97 900.845 331.747C904.016 335.524 905.677 340.612 905.829 347.026L906 354.599L897.107 354.804L896.923 346.749C896.837 342.906 895.987 339.94 894.372 337.851C892.757 335.768 890.232 334.759 886.784 334.838C883.416 334.917 880.957 336.038 879.408 338.193C877.852 340.355 877.12 343.354 877.213 347.204L878.241 391.676C878.327 395.519 879.197 398.492 880.851 400.575C882.499 402.664 885.011 403.666 888.38 403.587C891.821 403.508 894.306 402.387 895.822 400.232C897.338 398.076 898.05 395.071 897.958 391.221L897.707 380.286L906.6 380.082L906.844 390.536C906.989 396.949 905.565 402.11 902.572 406.026C899.573 409.941 894.833 411.978 888.34 412.123C881.926 412.268 877.133 410.455 873.963 406.685C870.785 402.908 869.131 397.819 868.979 391.406L867.977 347.896C867.905 344.693 868.214 341.779 868.92 339.156C869.618 336.532 870.733 334.285 872.255 332.406C873.778 330.528 875.703 329.058 878.043 328.003C880.37 326.948 883.145 326.382 886.349 326.309Z" stroke="white" stroke-width="3" stroke-miterlimit="10"/>
<path d="M1084.24 510.256L1108.48 438.627L1093.79 433.657L1096.52 425.569L1134.79 438.515L1132.06 446.603L1117.36 441.633L1093.12 513.262L1084.24 510.256Z" stroke="white" stroke-width="3" stroke-miterlimit="10"/>
<path d="M211.518 521.243C211.762 524.44 211.762 527.341 211.518 529.931C211.274 532.528 210.595 534.835 209.461 536.865C208.334 538.895 206.666 540.635 204.471 542.072C202.276 543.509 199.316 544.729 195.598 545.724L193.093 537.689C196.587 536.766 199.006 535.448 200.358 533.721C201.709 532.001 202.289 529.489 202.098 526.187L202.289 520.334L165.334 466.877L174.286 464.083L191.135 489.427L202.948 507.909L201.353 486.243L199.883 456.1L209.178 453.2L211.518 521.243Z" stroke="white" stroke-width="3" stroke-miterlimit="10"/>
<path d="M366.834 472.507C372.233 468.347 377.263 466.772 381.936 467.781C386.604 468.789 390.994 471.96 395.107 477.292L409.122 495.484C413.229 500.817 415.174 505.872 414.956 510.645C414.739 515.417 411.93 519.879 406.531 524.038L401.864 527.631L407.514 534.967L400.183 540.616L394.534 533.279L389.867 536.872C384.468 541.031 379.431 542.606 374.764 541.598C370.097 540.596 365.707 537.425 361.593 532.086L347.578 513.894C343.472 508.562 341.527 503.506 341.744 498.734C341.962 493.962 344.77 489.499 350.169 485.34L354.836 481.748L348.818 473.937L356.155 468.288L362.173 476.099L366.834 472.507ZM355.225 491.918C352.371 494.12 350.914 496.506 350.868 499.07C350.822 501.634 352.048 504.534 354.54 507.777L369.286 526.919C371.778 530.155 374.283 532.1 376.801 532.739C379.319 533.378 382.009 532.601 384.863 530.399L389.53 526.807L359.892 488.326L355.225 491.918ZM401.535 517.552C406.993 513.347 407.23 508.008 402.24 501.529L387.493 482.387C385.002 479.151 382.49 477.239 379.965 476.653C377.441 476.066 374.751 476.877 371.89 479.078L367.223 482.671L396.861 521.151L401.535 517.552Z" stroke="white" stroke-width="3" stroke-miterlimit="10"/>
<path d="M827.739 446.049L817.95 483.732L809.11 484.753L820.949 439.688L800.487 401.029L810.158 399.909L826.935 431.851L836.078 396.903L844.799 395.895L833.85 438.192L855.571 479.362L845.775 480.495L827.739 446.049Z" stroke="white" stroke-width="3" stroke-miterlimit="10"/>
<path d="M911.465 543.872L916.917 533.972L884.793 516.28L925.394 442.568L933.502 447.037L897.015 513.275L915.13 523.247L951.617 457.01L959.937 461.591L923.337 528.039L928.921 531.111L919.468 548.275L911.465 543.872Z" stroke="white" stroke-width="3" stroke-miterlimit="10"/>
<path d="M267.162 492.966L258.909 568.135L274.921 569.895L283.174 494.726L292.495 495.748L284.242 570.917L300.254 572.677L308.507 497.508L317.71 498.516L308.527 582.168L248.651 575.597L257.834 491.945L267.162 492.966Z" stroke="white" stroke-width="3" stroke-miterlimit="10"/>
<path d="M1075.3 571.055L1070.38 560.878L1018.42 585.991L981.789 510.223L990.234 506.143L1023.15 574.226L1037.65 567.212L1004.74 499.13L1013.07 495.102L1045.98 563.185L1060.6 556.119L1027.68 488.036L1036.02 484.009L1069.04 552.309L1074.88 549.481L1083.41 567.127L1075.3 571.055Z" stroke="white" stroke-width="3" stroke-miterlimit="10"/>
<path d="M99.6767 290.339C112.656 288.837 119.921 294.808 121.483 308.262L122.643 318.294C123.382 324.661 122.472 329.829 119.901 333.803C117.337 337.771 112.788 340.138 106.256 340.889L87.9889 343.005L79.261 267.77L68.7532 268.99L67.7842 260.632L87.4879 258.345L91.3113 291.302L99.6767 290.339ZM105.28 332.406C108.701 332.01 111.022 330.771 112.235 328.695C113.448 326.619 113.83 323.666 113.388 319.849L112.103 308.743C111.635 304.682 110.481 301.894 108.648 300.372C106.816 298.849 104.146 298.289 100.646 298.697L92.2869 299.666L96.2092 333.461L105.28 332.406Z" stroke="white" stroke-width="3" stroke-miterlimit="10"/>
<path d="M115.702 541.894C122.334 543.055 126.915 545.586 129.447 549.488C131.978 553.39 132.664 558.656 131.504 565.287L129.763 575.234C128.656 581.548 126.309 586.248 122.723 589.32C119.13 592.398 114.1 593.367 107.627 592.233L89.5054 589.063L104.001 506.169L113.237 507.784L107.522 540.471L115.702 541.894ZM109.104 583.822C112.499 584.416 115.089 583.895 116.882 582.254C118.675 580.612 119.901 577.897 120.567 574.113L122.492 563.099C123.197 559.072 122.868 556.066 121.51 554.075C120.145 552.091 117.733 550.793 114.259 550.18L106.084 548.75L100.224 582.274L109.104 583.822ZM157.542 515.529L143.046 598.422L133.929 596.827L148.425 513.934L157.542 515.529Z" stroke="white" stroke-width="3" stroke-miterlimit="10"/>
<path d="M86.4858 413.58C93.1768 414.311 97.9099 416.546 100.685 420.277C103.46 424.007 104.482 429.221 103.744 435.912L102.643 445.95C101.944 452.324 99.9007 457.162 96.5124 460.458C93.1241 463.754 88.1668 465.046 81.6341 464.327L63.3477 462.317L72.5304 378.665L81.8516 379.687L78.2326 412.67L86.4858 413.58ZM82.5702 455.837C85.998 456.213 88.5492 455.528 90.2367 453.774C91.9177 452.021 92.9725 449.239 93.3944 445.41L94.6139 434.297C95.0621 430.236 94.5414 427.257 93.0582 425.359C91.5749 423.46 89.0765 422.32 85.5695 421.938L77.3229 421.035L73.6115 454.855L82.5702 455.837Z" stroke="white" stroke-width="3" stroke-miterlimit="10"/>
<path d="M1147.47 500.138C1150.53 499.182 1153.34 498.833 1155.89 499.083C1158.45 499.34 1160.74 500.112 1162.79 501.403C1164.83 502.702 1166.6 504.475 1168.1 506.736C1169.6 508.997 1170.83 511.66 1171.79 514.718L1184.75 556.264C1186.66 562.387 1186.71 567.739 1184.91 572.334C1183.11 576.928 1179.15 580.178 1173.03 582.082C1166.9 583.994 1161.8 583.572 1157.71 580.817C1153.61 578.062 1150.61 573.626 1148.7 567.509L1145.98 558.788L1154.36 556.178L1157.22 565.36C1158.37 569.031 1160.03 571.648 1162.19 573.197C1164.35 574.746 1167.04 575.023 1170.25 574.021C1173.47 573.019 1175.52 571.266 1176.42 568.761C1177.32 566.256 1177.19 563.165 1176.05 559.494L1170.25 540.899L1156.25 545.269L1153.74 537.234L1167.75 532.864L1162.81 517.025C1161.66 513.354 1160.01 510.744 1157.84 509.195C1155.68 507.646 1152.99 507.369 1149.78 508.371C1146.57 509.372 1144.52 511.126 1143.61 513.631C1142.72 516.135 1142.84 519.227 1143.98 522.898L1145.99 529.325L1137.72 531.902L1135.85 525.937C1134.9 522.878 1134.4 519.991 1134.35 517.276C1134.3 514.567 1134.73 512.101 1135.64 509.887C1136.54 507.672 1137.97 505.741 1139.93 504.073C1141.9 502.399 1144.4 501.087 1147.47 500.138Z" stroke="white" stroke-width="3" stroke-miterlimit="10"/>
<path d="M1182.94 377.491C1189.14 375.56 1194.31 375.936 1198.47 378.632C1202.62 381.328 1205.67 385.77 1207.61 391.966L1220.57 433.512C1222.48 439.635 1222.49 445.001 1220.61 449.615C1218.74 454.229 1214.7 457.505 1208.5 459.436C1202.31 461.367 1197.11 460.978 1192.9 458.256C1188.69 455.54 1185.64 451.118 1183.72 445.001L1178.5 428.245L1166.9 431.864L1178.18 468.018L1169.23 470.813L1144.17 390.477L1153.12 387.682L1164.4 423.836L1175.99 420.217L1170.76 403.462C1168.83 397.266 1168.83 391.874 1170.76 387.28C1172.68 382.692 1176.74 379.429 1182.94 377.491ZM1185.48 385.645C1182.2 386.673 1180.1 388.44 1179.2 390.944C1178.31 393.449 1178.43 396.541 1179.57 400.212L1192.82 442.674C1193.97 446.345 1195.62 448.962 1197.79 450.505C1199.95 452.054 1202.68 452.317 1205.97 451.289C1209.18 450.287 1211.25 448.527 1212.19 446.009C1213.13 443.491 1213.02 440.4 1211.87 436.728L1198.62 394.267C1197.48 390.595 1195.8 387.992 1193.6 386.449C1191.4 384.907 1188.7 384.636 1185.48 385.645Z" stroke="white" stroke-width="3" stroke-miterlimit="10"/>
<path d="M29.8076 533.543C25.905 533.115 22.7936 533.682 20.4864 535.244C18.1791 536.806 16.7684 539.937 16.2476 544.637L14.804 557.78C14.5007 560.568 14.1448 562.644 13.7558 564.015C13.3669 565.386 12.8198 566.632 12.1342 567.766L2.69434 566.731C3.57108 565.373 4.19733 563.851 4.58626 562.163C4.9752 560.476 5.26525 558.709 5.4696 556.877L6.90008 543.852C7.40108 539.311 8.58765 535.633 10.473 532.812C12.3517 529.997 15.272 528.237 19.2141 527.545C12.6088 524.566 9.81378 518.449 10.829 509.208L11.5739 502.399C12.2594 496.183 14.2305 491.602 17.5001 488.656C20.7698 485.709 25.7073 484.595 32.3191 485.327L50.9615 487.377L41.7788 571.022L32.4576 570L36.3799 534.268L29.8076 533.543ZM31.627 493.837C28.12 493.454 25.5293 494.133 23.8417 495.886C22.1542 497.64 21.106 500.421 20.6841 504.251L19.8074 512.26C19.3064 516.801 20.0117 519.965 21.9102 521.745C23.8088 523.524 26.5906 524.618 30.2624 525.021L37.3159 525.792L40.7174 494.838L31.627 493.837Z" stroke="white" stroke-width="3" stroke-miterlimit="10"/>
</svg>
