<svg width="298" height="227" viewBox="0 0 298 227" fill="none" xmlns="http://www.w3.org/2000/svg">
<g clip-path="url(#clip0_89:532)">
<path d="M297.537 0H0V226.419H297.537V0Z" fill="#BBC3C3"/>
<path d="M136.657 10.6672H7.20801V157.416H136.657V10.6672Z" fill="#1A1A37"/>
<path d="M9.72656 162.132C9.82819 159.55 9.79432 156.953 10.0578 154.386C10.5358 149.741 11.7554 145.262 13.596 140.963C15.8394 135.728 18.8619 130.989 22.6561 126.732C29.9056 118.601 38.7699 112.959 49.0608 109.492C49.8626 109.221 50.6643 108.943 51.4774 108.698C52.2791 108.457 53.0921 108.258 53.9353 108.028C53.0319 106.959 52.1285 105.962 51.3004 104.908C48.2177 100.978 45.8464 96.6342 43.9455 92.027C43.938 92.0044 43.938 91.9781 43.9304 91.9555C43.5089 90.6117 42.8125 89.6632 41.4575 88.8991C38.7549 87.3746 37.4902 84.6984 36.8126 81.7399C36.2631 79.3309 35.9168 76.8918 36.1088 74.4188C36.2781 72.2244 36.854 70.1767 38.7097 68.7238C38.8603 68.6071 38.9732 68.3323 38.9694 68.1366C38.8866 63.9585 38.7323 59.7842 38.7022 55.6061C38.6796 52.3878 38.7963 49.1658 39.869 46.0718C41.3784 41.7168 44.5214 38.9464 48.6092 37.102C51.6618 35.7244 54.8801 34.9227 58.1736 34.407C61.6968 33.8574 65.235 33.4057 68.7506 32.8186C72.1646 32.2464 75.5334 31.4673 78.8081 30.2929C80.7052 29.6116 81.9925 28.2038 83.3965 26.9165C84.951 25.4937 86.4604 24.022 88.1166 22.4486C88.2182 23.2428 88.3161 23.8789 88.3763 24.5188C88.6285 27.1123 88.8054 29.7132 89.1404 32.2954C89.3324 33.7822 89.769 35.2388 90.1266 36.6993C90.1718 36.8875 90.3938 37.087 90.582 37.1736C96.4125 39.8498 99.7061 44.5172 101.242 50.6074C102.303 54.8081 102.416 59.0841 102.371 63.3789C102.352 65.1141 102.345 66.8493 102.382 68.5808C102.39 68.8706 102.582 69.247 102.811 69.4277C104.185 70.5305 104.788 72.0324 104.912 73.6961C105.183 77.3585 104.505 80.9043 103.237 84.322C102.266 86.9418 100.519 88.948 97.9822 90.2165C97.7864 90.3144 97.6095 90.559 97.5305 90.7736C95.6409 96.1373 92.9948 101.087 89.434 105.536C89.0952 105.962 88.7264 106.368 88.3613 106.771C87.9999 107.17 87.6235 107.557 87.2019 108.005C90.9547 108.973 94.5192 110.2 97.9746 111.754C103.222 114.114 108.07 117.107 112.47 120.818C118.376 125.798 123.137 131.685 126.525 138.645C128.685 143.079 130.146 147.735 130.887 152.624C131.365 155.779 131.478 158.948 131.445 162.129C90.8832 162.132 50.3067 162.132 9.72656 162.132ZM84.4052 32.4233C82.6775 33.8574 80.724 34.6027 78.7291 35.2614C72.7555 37.2225 66.5373 37.9226 60.3568 38.8184C56.9428 39.3153 53.5664 39.9439 50.3896 41.378C47.3858 42.7331 45.0484 44.7769 44.1864 48.0404C43.6971 49.896 43.4336 51.8571 43.4072 53.7768C43.3357 58.3087 43.4712 62.8481 43.5126 67.38C43.5277 69.055 43.5164 70.73 43.5164 72.4201C41.7398 71.9609 41.2655 72.2507 40.874 73.9859C40.8289 74.193 40.795 74.4075 40.8063 74.6183C40.8929 76.154 40.9155 77.6973 41.1112 79.218C41.337 81.0021 41.7661 82.7562 42.9669 84.1903C43.9493 85.3646 45.0822 86.2906 46.761 86.1927C46.8212 86.3546 46.8852 86.5051 46.9379 86.6632C48.1311 90.209 49.6179 93.623 51.4962 96.86C53.8675 100.948 56.6755 104.674 60.5299 107.509C63.9702 110.038 67.8058 111.352 72.0893 110.93C76.1093 110.535 79.5082 108.702 82.463 105.999C86.1442 102.63 88.9447 98.6028 91.1278 94.1499C92.3888 91.5753 93.4578 88.9066 94.5757 86.3696C95.2344 86.1325 95.9571 85.9819 96.5631 85.6281C97.6321 84.9995 98.3736 84.0134 98.799 82.8616C99.8416 80.0159 100.357 77.0649 100.233 74.0311C100.169 72.4351 99.4163 71.9646 97.8918 72.4088C97.8391 72.4239 97.7714 72.4013 97.6848 72.3937C97.6848 68.4754 97.681 64.5833 97.6886 60.6876C97.6923 58.0979 97.4928 55.5308 96.9734 52.9901C95.7538 47.0617 92.5657 42.6841 86.9234 40.2375C86.6373 40.1133 86.3513 39.8272 86.2233 39.5449C85.1995 37.3053 84.68 34.9415 84.4052 32.4233ZM43.81 157.54C61.693 157.54 79.4969 157.54 97.3724 157.54C97.3724 156.565 97.3724 155.621 97.3724 154.676C97.3761 151.634 97.3649 148.597 97.3874 145.559C97.395 144.411 98.3548 143.478 99.4577 143.451C100.978 143.414 101.916 144.336 101.927 145.921C101.942 148.578 101.931 151.235 101.931 153.893C101.931 155.097 101.931 156.298 101.931 157.533C110.287 157.533 118.564 157.533 126.845 157.533C126.009 139.755 113.904 124.74 98.9947 117.333C98.1327 118.326 97.2595 119.324 96.3975 120.333C93.7514 123.434 91.1128 126.543 88.4629 129.641C85.7979 132.758 83.1179 135.867 80.4492 138.983C77.7843 142.1 75.1344 145.232 72.4582 148.341C71.487 149.47 69.9965 149.512 68.9689 148.446C68.2311 147.678 67.5498 146.85 66.846 146.052C64.836 143.775 62.826 141.502 60.8197 139.224C58.5952 136.699 56.3744 134.166 54.1461 131.64C52.2302 129.468 50.3067 127.307 48.3946 125.136C46.1701 122.61 43.953 120.08 41.7285 117.547C41.5064 117.66 41.3182 117.754 41.1338 117.856C37.1928 120.005 33.5417 122.565 30.203 125.572C26.262 129.125 22.9384 133.172 20.2885 137.764C17.4429 142.695 15.5834 147.976 14.7516 153.611C14.5596 154.909 14.4806 156.223 14.3488 157.536C22.72 157.536 30.952 157.536 39.2555 157.536C39.2555 157.292 39.2555 157.085 39.2555 156.878C39.2517 153.389 39.2367 149.899 39.2555 146.41C39.2593 145.853 39.312 145.258 39.5115 144.746C39.9104 143.737 40.9945 143.256 42.0898 143.466C43.0196 143.647 43.7949 144.592 43.8062 145.638C43.8251 147.848 43.8138 150.054 43.8138 152.263C43.81 154.01 43.81 155.76 43.81 157.54ZM94.7074 115.289C90.9509 113.746 87.168 112.534 83.2384 111.807C83.0013 111.762 82.7077 111.848 82.4818 111.958C80.8369 112.771 79.2221 113.648 77.5584 114.419C76.7943 114.773 75.9437 114.943 75.0553 115.221C76.0114 116.057 76.911 116.843 77.8558 117.668C76.3916 118.917 75.0102 120.103 73.6175 121.281C73.1921 121.643 72.9136 121.936 73.1056 122.632C73.8998 125.516 74.5773 128.429 75.3113 131.327C75.7291 132.984 76.1695 134.632 76.6325 136.413C82.7039 129.321 88.6925 122.32 94.7074 115.289ZM62.7281 117.66C63.7444 116.787 64.6892 115.978 65.6415 115.161C65.5436 115.086 65.5135 115.04 65.4683 115.029C62.9878 114.355 60.6842 113.305 58.5651 111.848C58.422 111.751 58.1661 111.743 57.9854 111.788C56.1297 112.232 54.259 112.62 52.4372 113.173C50.2879 113.828 48.1838 114.63 45.9292 115.413C52.0231 122.339 57.9967 129.122 64.0116 135.953C64.0907 135.799 64.1471 135.724 64.1697 135.641C65.2688 131.309 66.3453 126.969 67.4821 122.644C67.6552 121.985 67.452 121.673 66.9852 121.285C65.5549 120.118 64.1735 118.899 62.7281 117.66Z" fill="#BBC3C3"/>
<path d="M162.208 19.1249V21.1274C162.208 23.5928 161.019 24.9366 158.598 24.9366H157.454V30.7257H155.034V15.3195H158.598C161.019 15.3195 162.208 16.6632 162.208 19.1249ZM157.454 17.5214V22.7346H158.598C159.37 22.7346 159.788 22.3808 159.788 21.2817V18.9706C159.788 17.8715 159.37 17.5177 158.598 17.5177H157.454V17.5214Z" fill="white"/>
<path d="M171.167 30.7257H168.724L168.306 27.929H165.336L164.918 30.7257H162.694L165.159 15.3195H168.701L171.167 30.7257ZM165.641 25.84H167.975L166.808 18.0484L165.641 25.84Z" fill="white"/>
<path d="M176.952 19.1061C176.952 17.7209 176.466 17.3445 175.698 17.3445C174.926 17.3445 174.422 17.7624 174.422 18.8615V20.1149H172.198V18.9706C172.198 16.5052 173.387 15.1426 175.762 15.1426C178.141 15.1426 179.372 16.5503 179.372 19.0158V19.411C179.372 21.0634 178.845 22.0948 177.678 22.5803C178.89 23.1073 179.372 24.2516 179.372 25.8174V27.0294C179.372 29.4949 178.141 30.9026 175.762 30.9026C173.387 30.9026 172.152 29.4949 172.152 27.0294V25.3356H174.441V27.1838C174.441 28.2829 174.926 28.7044 175.694 28.7044C176.466 28.7044 176.948 28.3318 176.948 26.9654V25.7534C176.948 24.3231 176.462 23.7961 175.363 23.7961H174.768V21.5942H175.495C176.398 21.5942 176.948 21.1989 176.948 19.9643V19.1061H176.952Z" fill="white"/>
<path d="M181.002 30.7257V15.3195H183.422V21.1086H184.567C186.987 21.1086 188.176 22.4523 188.176 24.9178V26.9202C188.176 29.3857 186.987 30.7295 184.567 30.7295H181.002V30.7257ZM184.57 28.5237C185.342 28.5237 185.76 28.1699 185.76 27.0708V24.7597C185.76 23.6606 185.342 23.3068 184.57 23.3068H183.426V28.5237H184.57ZM189.565 30.7257V15.3195H191.985V30.7257H189.565Z" fill="white"/>
<path d="M200.767 24.9818V27.0294C200.767 29.4949 199.536 30.9026 197.157 30.9026C194.778 30.9026 193.547 29.4949 193.547 27.0294V19.0158C193.547 16.5503 194.778 15.1426 197.157 15.1426C199.532 15.1426 200.767 16.5503 200.767 19.0158V20.5139H198.478V18.8615C198.478 17.7624 197.993 17.3445 197.225 17.3445C196.453 17.3445 195.971 17.7624 195.971 18.8615V27.18C195.971 28.2791 196.457 28.6781 197.225 28.6781C197.996 28.6781 198.478 28.2829 198.478 27.18V24.978H200.767V24.9818Z" fill="white"/>
<path d="M205.412 24.5865L204.662 25.9943V30.7257H202.242V15.3195H204.662V22.0308L207.832 15.3195H210.252L206.883 22.1851L210.252 30.7257H207.764L205.412 24.5865Z" fill="white"/>
<path d="M213.84 30.7257H211.352V15.3195H213.508V25.0683L214.389 21.6807L216.369 15.3195H219.03V30.7257H216.851V19.874L215.861 23.6606L213.84 30.7257Z" fill="white"/>
<path d="M227.992 18.8614V19.411C227.992 20.9956 227.507 22.0082 226.43 22.5163C227.729 23.0207 228.233 24.1875 228.233 25.8174V27.0708C228.233 29.4459 226.98 30.7257 224.556 30.7257H220.747V15.3195H224.401C226.912 15.3195 227.992 16.4863 227.992 18.8614ZM223.171 17.5214V21.5941H224.115C225.019 21.5941 225.568 21.1989 225.568 19.9643V19.1061C225.568 18.007 225.196 17.5214 224.337 17.5214H223.171ZM223.171 23.7923V28.5237H224.556C225.369 28.5237 225.809 28.1511 225.809 27.0068V25.6631C225.809 24.2327 225.346 23.7923 224.247 23.7923H223.171Z" fill="white"/>
<path d="M237.523 30.7257H235.08L234.662 27.929H231.692L231.274 30.7257H229.05L231.515 15.3195H235.057L237.523 30.7257ZM231.997 25.84H234.331L233.164 18.0484L231.997 25.84Z" fill="white"/>
<path d="M241.065 21.8124H244.388V24.0144H241.065V28.5275H245.247V30.7295H238.645V15.3195H245.247V17.5214H241.065V21.8124Z" fill="white"/>
<path d="M246.041 15.3195H253.523V17.5214H250.994V30.7257H248.574V17.5214H246.044V15.3195H246.041Z" fill="white"/>
<path d="M261.601 24.9818V27.0294C261.601 29.4949 260.37 30.9026 257.992 30.9026C255.613 30.9026 254.382 29.4949 254.382 27.0294V19.0158C254.382 16.5503 255.613 15.1426 257.992 15.1426C260.367 15.1426 261.601 16.5503 261.601 19.0158V20.5139H259.313V18.8615C259.313 17.7624 258.827 17.3445 258.059 17.3445C257.288 17.3445 256.806 17.7624 256.806 18.8615V27.18C256.806 28.2791 257.291 28.6781 258.059 28.6781C258.831 28.6781 259.313 28.2829 259.313 27.18V24.978H261.601V24.9818Z" fill="white"/>
<path d="M262.633 30.7257C262.874 30.1536 262.896 29.604 262.896 28.855V26.4761C262.896 24.8688 263.292 23.702 264.504 23.1976C263.423 22.6932 262.919 21.6581 262.919 20.0734V18.8614C262.919 16.4863 263.999 15.3195 266.506 15.3195H270.161V30.7257H267.741V24.451H266.905C265.806 24.451 265.32 24.978 265.32 26.4083V28.8286C265.32 30.082 265.234 30.3267 265.102 30.7219H262.633V30.7257ZM266.574 17.5214C265.716 17.5214 265.343 18.007 265.343 19.1061V20.623C265.343 21.8538 265.892 22.2528 266.796 22.2528H267.741V17.5214H266.574Z" fill="white"/>
<path d="M146.03 59.1894H144.683V50.8483H145.849V56.1292L146.328 54.2924L147.4 50.8483H148.842V59.1894H147.664V53.3137L147.129 55.3651L146.03 59.1894Z" fill="white"/>
<path d="M152.549 56.7691L153.445 50.8445H155.267V59.1856H154.029V53.2045L153.122 59.1856H151.883L150.905 53.2874V59.1856H149.76V50.8445H151.582L152.549 56.7691Z" fill="white"/>
<path d="M155.982 59.1894C156.114 58.8807 156.125 58.5796 156.125 58.1768V56.8895C156.125 56.02 156.34 55.3877 156.995 55.1129C156.412 54.8381 156.137 54.2773 156.137 53.4191V52.7641C156.137 51.4768 156.72 50.8445 158.079 50.8445H160.059V59.1856H158.749V55.7904H158.297C157.703 55.7904 157.439 56.0765 157.439 56.8519V58.1618C157.439 58.8393 157.39 58.9711 157.319 59.1856H155.982V59.1894ZM158.117 52.0377C157.65 52.0377 157.45 52.3012 157.45 52.8959V53.7165C157.45 54.3827 157.748 54.5972 158.237 54.5972H158.749V52.0339H158.117V52.0377Z" fill="white"/>
<path d="M162.279 53.3851V54.6499H161.015V53.3851H162.279ZM162.279 57.9246V59.1893H161.015V57.9246H162.279Z" fill="white"/>
<path d="M169.322 59.1894H168.001L167.775 57.6762H166.168L165.942 59.1894H164.737L166.074 50.8483H167.993L169.322 59.1894ZM166.33 56.5433H167.594L166.962 52.3238L166.33 56.5433Z" fill="#1A1A37"/>
<path d="M173.816 52.9072V53.9913C173.816 55.3275 173.172 56.054 171.863 56.054H171.242V59.1894H169.932V50.8483H171.863C173.172 50.8445 173.816 51.571 173.816 52.9072ZM171.242 52.0377V54.8608H171.863C172.28 54.8608 172.506 54.6688 172.506 54.0741V52.8244C172.506 52.2297 172.28 52.0377 171.863 52.0377H171.242Z" fill="#1A1A37"/>
<path d="M174.042 50.8445H178.096V52.0377H176.726V59.1894H175.416V52.0377H174.046V50.8445H174.042Z" fill="#1A1A37"/>
<path d="M181.574 57.0665C181.265 58.5683 180.753 59.3174 178.928 59.2007V58.0338C179.594 58.0828 179.978 57.9623 180.083 57.3563L180.095 57.2848L178.284 50.8483H179.583L180.298 53.6977L180.704 55.6512L181.013 53.7089L181.608 50.8483H182.978L181.574 57.0665Z" fill="#1A1A37"/>
<path d="M187.416 52.9072V53.9913C187.416 55.3275 186.772 56.054 185.462 56.054H184.841V59.1894H183.531V50.8483H185.462C186.772 50.8445 187.416 51.571 187.416 52.9072ZM184.841 52.0377V54.8608H185.462C185.88 54.8608 186.106 54.6688 186.106 54.0741V52.8244C186.106 52.2297 185.88 52.0377 185.462 52.0377H184.841Z" fill="#1A1A37"/>
<path d="M189.885 59.1894V50.8483H193.555V52.0415H191.195V54.1757H191.959C193.269 54.1757 193.939 54.9021 193.939 56.2384V57.1342C193.939 58.4705 193.272 59.1969 191.959 59.1969H189.885V59.1894ZM191.959 57.9962C192.377 57.9962 192.625 57.8042 192.625 57.2095V56.148C192.625 55.5533 192.373 55.3614 191.959 55.3614H191.195V57.9962H191.959Z" fill="#1A1A37"/>
<path d="M198.704 52.9072V53.9913C198.704 55.3275 198.061 56.054 196.751 56.054H196.13V59.1894H194.82V50.8483H196.751C198.061 50.8445 198.704 51.571 198.704 52.9072ZM196.13 52.0377V54.8608H196.751C197.169 54.8608 197.394 54.6688 197.394 54.0741V52.8244C197.394 52.2297 197.169 52.0377 196.751 52.0377H196.13Z" fill="#1A1A37"/>
<path d="M199.205 52.8469C199.205 51.5107 199.908 50.7504 201.196 50.7504C202.483 50.7504 203.187 51.5145 203.187 52.8469V57.1831C203.187 58.5194 202.483 59.2797 201.196 59.2797C199.908 59.2797 199.205 58.5156 199.205 57.1831V52.8469ZM200.514 57.2697C200.514 57.8644 200.778 58.0903 201.196 58.0903C201.614 58.0903 201.873 57.8644 201.873 57.2697V52.7641C201.873 52.1694 201.61 51.9398 201.196 51.9398C200.778 51.9398 200.514 52.1656 200.514 52.7641V57.2697Z" fill="#1A1A37"/>
<path d="M205.378 59.1894H204.03V50.8483H205.197V56.1293L205.675 54.2924L206.748 50.8483H208.19V59.1894H207.011V53.3138L206.477 55.3652L205.378 59.1894ZM206.725 48.9851C206.691 49.4255 206.488 49.5347 206.131 49.5347C205.784 49.5347 205.607 49.4255 205.57 48.9851H204.76C204.783 49.7944 205.212 50.3063 206.131 50.3063C207.06 50.3063 207.523 49.7944 207.523 48.9851H206.725Z" fill="#1A1A37"/>
<path d="M212.947 56.0765V57.1831C212.947 58.5194 212.281 59.2797 210.994 59.2797C209.706 59.2797 209.04 58.5156 209.04 57.1831V52.8469C209.04 51.5107 209.706 50.7504 210.994 50.7504C212.281 50.7504 212.947 51.5145 212.947 52.8469V53.6562H211.709V52.7641C211.709 52.1694 211.445 51.9398 211.031 51.9398C210.613 51.9398 210.35 52.1656 210.35 52.7641V57.2697C210.35 57.8644 210.613 58.079 211.031 58.079C211.449 58.079 211.709 57.8644 211.709 57.2697V56.0765H212.947Z" fill="#1A1A37"/>
<path d="M219.395 56.0765V57.1831C219.395 58.5194 218.729 59.2797 217.442 59.2797C216.155 59.2797 215.488 58.5156 215.488 57.1831V52.8469C215.488 51.5107 216.155 50.7504 217.442 50.7504C218.729 50.7504 219.395 51.5145 219.395 52.8469V53.6562H218.157V52.7641C218.157 52.1694 217.894 51.9398 217.479 51.9398C217.062 51.9398 216.798 52.1656 216.798 52.7641V57.2697C216.798 57.8644 217.062 58.079 217.479 58.079C217.897 58.079 218.157 57.8644 218.157 57.2697V56.0765H219.395Z" fill="#1A1A37"/>
<path d="M219.813 50.8445H223.867V52.0377H222.497V59.1894H221.187V52.0377H219.817V50.8445H219.813Z" fill="#1A1A37"/>
<path d="M225.704 57.9247V59.1894H224.439V57.9247H225.704Z" fill="#1A1A37"/>
<path d="M144.698 71.1102V62.769H148.153V63.9622H146.008V71.1139H144.698V71.1102Z" fill="white"/>
<path d="M152.922 64.828V65.912C152.922 67.2483 152.278 67.9747 150.969 67.9747H150.347V71.1102H149.038V62.7691H150.969C152.278 62.7653 152.922 63.4918 152.922 64.828ZM150.347 63.9585V66.7815H150.969C151.386 66.7815 151.612 66.5896 151.612 65.9948V64.7452C151.612 64.1505 151.386 63.9585 150.969 63.9585H150.347Z" fill="white"/>
<path d="M157.77 71.1102H156.449L156.223 69.597H154.616L154.39 71.1102H153.186L154.522 62.769H156.441L157.77 71.1102ZM154.781 68.464H156.046L155.414 64.2445L154.781 68.464Z" fill="white"/>
<path d="M162.159 66.1379L163.71 62.7654H165.02L163.413 66.1492L165.02 71.1065H163.672L162.479 67.4102L162.159 68.0426V71.1065H160.861V68.0426L160.537 67.3989L159.344 71.1065H157.996L159.618 66.1831L157.996 62.7616H159.306L160.857 66.1342V62.7616H162.155V66.1379H162.159Z" fill="white"/>
<path d="M169.371 72.2282V71.1065H166.57V72.2282H165.294V69.9397H165.806C166.032 69.6536 166.104 69.3449 166.126 68.8556L166.424 62.7654H170.094V69.9397H170.666V72.2282H169.371ZM167.414 68.833C167.38 69.4654 167.259 69.7402 167.045 69.9434H168.761V63.9623H167.651L167.414 68.833Z" fill="white"/>
<path d="M175.638 71.1102H174.317L174.091 69.597H172.484L172.258 71.1102H171.053L172.389 62.769H174.309L175.638 71.1102ZM172.649 68.464H173.914L173.282 64.2445L172.649 68.464Z" fill="white"/>
<path d="M177.557 71.1102H176.248V62.769H177.557V66.3449H179.048V62.769H180.384V71.1102H179.048V67.5343H177.557V71.1102Z" fill="white"/>
<path d="M185.139 67.9974V69.104C185.139 70.4403 184.472 71.2006 183.185 71.2006C181.898 71.2006 181.231 70.4365 181.231 69.104V64.7678C181.231 63.4316 181.898 62.6713 183.185 62.6713C184.472 62.6713 185.139 63.4354 185.139 64.7678V65.5771H183.9V64.685C183.9 64.0903 183.637 63.8607 183.223 63.8607C182.805 63.8607 182.541 64.0865 182.541 64.685V69.1906C182.541 69.7853 182.805 69.9999 183.223 69.9999C183.64 69.9999 183.9 69.7853 183.9 69.1906V67.9974H185.139Z" fill="white"/>
<path d="M185.556 62.7654H189.61V63.9586H188.24V71.1103H186.93V63.9586H185.56V62.7654H185.556Z" fill="white"/>
<path d="M194.104 64.685V64.9824C194.104 65.8406 193.841 66.3902 193.257 66.6612C193.961 66.9359 194.236 67.5683 194.236 68.4491V69.1266C194.236 70.4139 193.558 71.1065 192.245 71.1065H190.182V62.7654H192.162C193.517 62.7654 194.104 63.3977 194.104 64.685ZM191.492 63.9586V66.1643H192.004C192.493 66.1643 192.791 65.9498 192.791 65.2835V64.8168C192.791 64.2221 192.587 63.9586 192.124 63.9586H191.492ZM191.492 67.3538V69.9171H192.245C192.685 69.9171 192.922 69.7138 192.922 69.0965V68.37C192.922 67.5947 192.67 67.3575 192.075 67.3575H191.492V67.3538Z" fill="white"/>
<path d="M194.914 64.7678C194.914 63.4316 195.617 62.6713 196.905 62.6713C198.192 62.6713 198.896 63.4354 198.896 64.7678V69.104C198.896 70.4403 198.192 71.2006 196.905 71.2006C195.617 71.2006 194.914 70.4365 194.914 69.104V64.7678ZM196.223 69.1906C196.223 69.7853 196.487 70.0112 196.905 70.0112C197.323 70.0112 197.582 69.7853 197.582 69.1906V64.685C197.582 64.0903 197.319 63.8607 196.905 63.8607C196.487 63.8607 196.223 64.0865 196.223 64.685V69.1906Z" fill="white"/>
<path d="M201.004 65.306V66.5707H199.739V65.306H201.004ZM201.004 69.8455V71.1102H199.739V69.8455H201.004Z" fill="white"/>
<path d="M207.606 67.9974V69.104C207.606 70.4403 206.94 71.2006 205.652 71.2006C204.365 71.2006 203.699 70.4365 203.699 69.104V64.7678C203.699 63.4316 204.365 62.6713 205.652 62.6713C206.94 62.6713 207.606 63.4354 207.606 64.7678V65.5771H206.367V64.685C206.367 64.0903 206.104 63.8607 205.69 63.8607C205.272 63.8607 205.009 64.0865 205.009 64.685V69.1906C205.009 69.7853 205.272 69.9999 205.69 69.9999C206.108 69.9999 206.367 69.7853 206.367 69.1906V67.9974H207.606Z" fill="#1A1A37"/>
<path d="M208.408 71.1102V62.769H209.718V69.9207H210.851V62.769H212.16V69.9207H213.293V62.769H214.603V71.1102H208.408Z" fill="#1A1A37"/>
<path d="M219.801 71.1102H218.48L218.254 69.597H216.647L216.421 71.1102H215.217L216.553 62.769H218.473L219.801 71.1102ZM216.809 68.464H218.074L217.441 64.2445L216.809 68.464Z" fill="#1A1A37"/>
<path d="M145.996 83.0272H144.687V74.686H148.823V83.0272H147.487V75.8755H145.996V83.0272Z" fill="white"/>
<path d="M153.66 76.7488V77.8328C153.66 79.1691 153.016 79.8955 151.706 79.8955H151.085V83.031H149.775V74.6898H151.706C153.016 74.6861 153.66 75.4125 153.66 76.7488ZM151.085 75.8793V78.7023H151.706C152.124 78.7023 152.35 78.5103 152.35 77.9156V76.666C152.35 76.0712 152.124 75.8793 151.706 75.8793H151.085Z" fill="white"/>
<path d="M154.16 76.6885C154.16 75.3523 154.864 74.5919 156.151 74.5919C157.439 74.5919 158.143 75.356 158.143 76.6885V81.0247C158.143 82.3609 157.439 83.1212 156.151 83.1212C154.864 83.1212 154.16 82.3571 154.16 81.0247V76.6885ZM155.47 81.1075C155.47 81.7022 155.734 81.928 156.151 81.928C156.569 81.928 156.829 81.7022 156.829 81.1075V76.6019C156.829 76.0072 156.565 75.7814 156.151 75.7814C155.734 75.7814 155.47 76.0072 155.47 76.6019V81.1075Z" fill="white"/>
<path d="M160.333 83.0272H158.986V74.686H160.153V79.967L160.631 78.1301L161.703 74.686H163.145V83.0272H161.967V77.1515L161.432 79.2029L160.333 83.0272Z" fill="white"/>
<path d="M167.88 79.918V81.0247C167.88 82.3609 167.214 83.1212 165.927 83.1212C164.639 83.1212 163.973 82.3571 163.973 81.0247V76.6885C163.973 75.3523 164.639 74.5919 165.927 74.5919C167.214 74.5919 167.88 75.356 167.88 76.6885V77.4978H166.642V76.6057C166.642 76.011 166.378 75.7851 165.964 75.7851C165.547 75.7851 165.283 76.011 165.283 76.6057V81.1112C165.283 81.706 165.547 81.9205 165.964 81.9205C166.382 81.9205 166.642 81.706 166.642 81.1112V79.918H167.88Z" fill="white"/>
<path d="M173.052 74.686L171.682 78.7361L173.146 83.0272H171.765L170.692 79.7261L169.608 83.0272H168.381L169.845 78.7361L168.475 74.686H169.834L170.824 77.7613L171.836 74.686H173.052Z" fill="white"/>
<path d="M173.696 76.6885C173.696 75.3523 174.4 74.5919 175.687 74.5919C176.974 74.5919 177.678 75.356 177.678 76.6885V81.0247C177.678 82.3609 176.974 83.1212 175.687 83.1212C174.4 83.1212 173.696 82.3571 173.696 81.0247V76.6885ZM175.006 81.1075C175.006 81.7022 175.269 81.928 175.687 81.928C176.105 81.928 176.365 81.7022 176.365 81.1075V76.6019C176.365 76.0072 176.101 75.7814 175.687 75.7814C175.269 75.7814 175.006 76.0072 175.006 76.6019V81.1075Z" fill="white"/>
<path d="M182.3 78.0586L183.851 74.686H185.161L183.554 78.0699L185.161 83.0271H183.813L182.62 79.3308L182.3 79.9632V83.0271H181.002V79.9632L180.678 79.3196L179.485 83.0271H178.137L179.76 78.1038L178.137 74.6823H179.447L180.998 78.0548V74.6823H182.296V78.0586H182.3Z" fill="white"/>
<path d="M189.513 84.1488V83.0272H186.712V84.1488H185.436V81.8603H185.948C186.174 81.5742 186.245 81.2656 186.268 80.7763L186.565 74.686H190.235V81.8603H190.807V84.1488H189.513ZM187.559 80.7499C187.525 81.3823 187.405 81.657 187.19 81.8603H188.906V75.8792H187.796L187.559 80.7499Z" fill="white"/>
<path d="M192.851 78.2017H194.65V79.3949H192.851V81.8377H195.117V83.0309H191.541V74.6898H195.117V75.883H192.851V78.2017Z" fill="white"/>
<path d="M197.236 83.0272H195.926V74.686H197.236V78.2619H198.727V74.686H200.063V83.0272H198.727V79.4513H197.236V83.0272Z" fill="white"/>
<path d="M202.363 83.0272H201.015V74.686H202.182V79.967L202.66 78.1301L203.733 74.686H205.174V83.0272H203.996V77.1515L203.462 79.2029L202.363 83.0272Z" fill="white"/>
<path d="M207.418 78.2017H209.217V79.3949H207.418V81.8377H209.684V83.0309H206.108V74.6898H209.684V75.883H207.418V78.2017Z" fill="white"/>
<path d="M211.754 77.2229V78.4876H210.489V77.2229H211.754ZM211.754 81.7661V83.0308H210.489V81.7661H211.754Z" fill="white"/>
<path d="M218.443 76.7488V77.8328C218.443 79.1691 217.799 79.8955 216.489 79.8955H215.868V83.031H214.558V74.6898H216.489C217.799 74.6861 218.443 75.4125 218.443 76.7488ZM215.868 75.8793V78.7023H216.489C216.907 78.7023 217.133 78.5103 217.133 77.9156V76.666C217.133 76.0712 216.907 75.8793 216.489 75.8793H215.868Z" fill="#1A1A37"/>
<path d="M220.362 78.2017H222.161V79.3949H220.362V81.8377H222.628V83.0309H219.052V74.6898H222.628V75.883H220.362V78.2017Z" fill="#1A1A37"/>
<path d="M224.747 83.0272H223.438V74.686H227.574V83.0272H226.238V75.8755H224.747V83.0272Z" fill="#1A1A37"/>
<path d="M228.158 81.849C228.752 81.849 228.944 81.7662 228.967 80.9908L229.181 74.686H232.889V83.0272H231.553V75.8755H230.408L230.265 80.9155C230.217 82.44 229.671 83.0385 228.357 83.0385H228.154V81.849H228.158Z" fill="#1A1A37"/>
<path d="M235.238 83.0272H233.891V74.686H235.057V79.967L235.536 78.1301L236.608 74.686H238.05V83.0272H236.872V77.1515L236.337 79.2029L235.238 83.0272Z" fill="#1A1A37"/>
<path d="M240.696 79.7035L240.289 80.4676V83.0309H238.979V74.6898H240.289V78.3259L242.006 74.6898H243.316L241.494 78.4087L243.316 83.0347H241.968L240.696 79.7035Z" fill="#1A1A37"/>
<path d="M248.156 83.0272H246.835L246.609 81.514H245.002L244.776 83.0272H243.572L244.908 74.686H246.828L248.156 83.0272ZM245.168 80.381H246.432L245.8 76.1615L245.168 80.381Z" fill="#1A1A37"/>
<path d="M250.076 83.0272H248.766V74.686H250.076V78.2619H251.567V74.686H252.903V83.0272H251.567V79.4513H250.076V83.0272Z" fill="#1A1A37"/>
<path d="M253.475 74.686H257.529V75.8792H256.159V83.0309H254.849V75.8792H253.479V74.686H253.475Z" fill="#1A1A37"/>
<path d="M144.577 100.526C144.577 99.19 145.281 98.4297 146.568 98.4297C147.856 98.4297 148.56 99.1938 148.56 100.526V104.862C148.56 106.199 147.856 106.959 146.568 106.959C145.281 106.959 144.577 106.195 144.577 104.862V100.526ZM145.887 104.949C145.887 105.544 146.151 105.77 146.568 105.77C146.986 105.77 147.246 105.544 147.246 104.949V100.443C147.246 99.8487 146.982 99.6229 146.568 99.6229C146.151 99.6229 145.887 99.8487 145.887 100.443V104.949Z" fill="white"/>
<path d="M153.204 103.756V104.862C153.204 106.199 152.538 106.959 151.251 106.959C149.964 106.959 149.297 106.195 149.297 104.862V100.526C149.297 99.19 149.964 98.4297 151.251 98.4297C152.538 98.4297 153.204 99.1938 153.204 100.526V101.336H151.966V100.443C151.966 99.8487 151.703 99.6229 151.289 99.6229C150.871 99.6229 150.607 99.8487 150.607 100.443V104.949C150.607 105.544 150.871 105.758 151.289 105.758C151.706 105.758 151.966 105.544 151.966 104.949V103.756H153.204Z" fill="white"/>
<path d="M153.897 100.526C153.897 99.19 154.601 98.4297 155.888 98.4297C157.175 98.4297 157.879 99.1938 157.879 100.526V104.862C157.879 106.199 157.175 106.959 155.888 106.959C154.601 106.959 153.897 106.195 153.897 104.862V100.526ZM155.211 104.949C155.211 105.544 155.474 105.77 155.892 105.77C156.31 105.77 156.569 105.544 156.569 104.949V100.443C156.569 99.8487 156.306 99.6229 155.892 99.6229C155.474 99.6229 155.211 99.8487 155.211 100.443V104.949Z" fill="white"/>
<path d="M158.737 106.869V98.5275H162.407V99.7207H160.047V101.855H160.811C162.121 101.855 162.791 102.581 162.791 103.918V104.813C162.791 106.15 162.125 106.876 160.811 106.876H158.737V106.869ZM160.811 105.675C161.229 105.675 161.478 105.483 161.478 104.889V103.827C161.478 103.233 161.225 103.041 160.811 103.041H160.047V105.675H160.811Z" fill="white"/>
<path d="M163.672 106.869V98.5275H164.982V101.663H165.603C166.913 101.663 167.557 102.389 167.557 103.726V104.81C167.557 106.146 166.913 106.872 165.603 106.872H163.672V106.869ZM165.603 105.675C166.021 105.675 166.247 105.483 166.247 104.889V103.639C166.247 103.044 166.021 102.852 165.603 102.852H164.982V105.675H165.603ZM168.31 106.869V98.5275H169.62V106.869H168.31Z" fill="white"/>
<path d="M171.886 102.039H173.685V103.233H171.886V105.675H174.152V106.869H170.576V98.5275H174.152V99.7207H171.886V102.039Z" fill="white"/>
<path d="M178.118 106.869H176.809V98.5275H180.945V106.869H179.609V99.7169H178.118V106.869Z" fill="white"/>
<path d="M185.782 100.586V101.67C185.782 103.007 185.138 103.733 183.828 103.733H183.207V106.869H181.897V98.5275H183.828C185.138 98.5275 185.782 99.2539 185.782 100.586ZM183.207 99.7169V102.54H183.828C184.246 102.54 184.472 102.348 184.472 101.753V100.504C184.472 99.9089 184.246 99.7169 183.828 99.7169H183.207Z" fill="white"/>
<path d="M187.74 106.869H186.392V98.5275H187.559V103.808L188.037 101.972L189.11 98.5275H190.551V106.869H189.373V100.993L188.839 103.044L187.74 106.869Z" fill="white"/>
<path d="M194.259 104.448L195.155 98.5237H196.977V106.865H195.738V100.884L194.831 106.865H193.593L192.614 100.967V106.865H191.47V98.5237H193.292L194.259 104.448Z" fill="white"/>
<path d="M199.239 102.039H201.038V103.233H199.239V105.675H201.505V106.869H197.929V98.5275H201.505V99.7207H199.239V102.039Z" fill="white"/>
<path d="M201.934 98.5275H205.987V99.7207H204.617V106.872H203.307V99.7207H201.937V98.5275H201.934Z" fill="white"/>
<path d="M206.56 106.869V98.5275H207.869V101.663H208.491C209.8 101.663 210.444 102.389 210.444 103.726V104.81C210.444 106.146 209.8 106.872 208.491 106.872H206.56V106.869ZM208.491 105.675C208.908 105.675 209.134 105.483 209.134 104.889V103.639C209.134 103.044 208.908 102.852 208.491 102.852H207.869V105.675H208.491ZM211.197 106.869V98.5275H212.507V106.869H211.197Z" fill="white"/>
<path d="M214.724 101.064V102.329H213.459V101.064H214.724ZM214.724 105.604V106.869H213.459V105.604H214.724Z" fill="white"/>
<path d="M145.496 111.495C146.508 111.495 146.734 111.005 146.937 110.444H147.818V118.786H146.508V112.421H145.496V111.495Z" fill="white"/>
<path d="M150.668 117.525V118.789H149.403V117.525H150.668Z" fill="white"/>
<path d="M153.468 118.789V110.448H154.778V117.6H155.911V110.448H157.221V117.6H158.354V110.448H159.663V118.789H153.468Z" fill="#1A1A37"/>
<path d="M164.508 112.507V113.591C164.508 114.927 163.864 115.654 162.554 115.654H161.933V118.789H160.623V110.448H162.554C163.864 110.444 164.508 111.171 164.508 112.507ZM161.933 111.638V114.461H162.554C162.972 114.461 163.198 114.269 163.198 113.674V112.424C163.198 111.83 162.972 111.638 162.554 111.638H161.933Z" fill="#1A1A37"/>
<path d="M169.356 118.789H168.035L167.809 117.276H166.202L165.976 118.789H164.771L166.108 110.448H168.027L169.356 118.789ZM166.367 116.143H167.632L167 111.924L166.367 116.143Z" fill="#1A1A37"/>
<path d="M172.743 116.369L173.639 110.444H175.461V118.786H174.223V112.805L173.315 118.786H172.077L171.098 112.887V118.786H169.954V110.444H171.776L172.743 116.369Z" fill="#1A1A37"/>
<path d="M179.571 118.789H178.261V110.448H179.571V114.024H181.062V110.448H182.398V118.789H181.062V115.213H179.571V118.789Z" fill="#1A1A37"/>
<path d="M187.592 118.789H186.271L186.045 117.276H184.438L184.212 118.789H183.008L184.344 110.448H186.264L187.592 118.789ZM184.604 116.143H185.868L185.236 111.924L184.604 116.143Z" fill="#1A1A37"/>
<path d="M189.681 117.607C190.276 117.607 190.468 117.525 190.491 116.749L190.705 110.444H194.413V118.786H193.077V111.634H191.932L191.789 116.674C191.74 118.198 191.195 118.797 189.881 118.797H189.678V117.607H189.681Z" fill="#1A1A37"/>
<path d="M196.724 113.96H198.524V115.153H196.724V117.596H198.99V118.789H195.415V110.448H198.99V111.641H196.724V113.96Z" fill="#1A1A37"/>
<path d="M203.721 112.364V112.661C203.721 113.52 203.458 114.069 202.875 114.34C203.578 114.615 203.853 115.247 203.853 116.128V116.806C203.853 118.093 203.176 118.786 201.862 118.786H199.799V110.444H201.779C203.138 110.444 203.721 111.077 203.721 112.364ZM201.113 111.638V113.843H201.625C202.114 113.843 202.412 113.629 202.412 112.963V112.496C202.412 111.901 202.208 111.638 201.745 111.638H201.113ZM201.113 115.033V117.596H201.866C202.306 117.596 202.543 117.393 202.543 116.776V116.049C202.543 115.274 202.291 115.037 201.696 115.037H201.113V115.033Z" fill="#1A1A37"/>
<path d="M204.535 112.447C204.535 111.111 205.239 110.35 206.526 110.35C207.813 110.35 208.517 111.114 208.517 112.447V116.783C208.517 118.119 207.813 118.88 206.526 118.88C205.239 118.88 204.535 118.116 204.535 116.783V112.447ZM205.845 116.87C205.845 117.464 206.108 117.69 206.526 117.69C206.944 117.69 207.203 117.464 207.203 116.87V112.364C207.203 111.769 206.94 111.54 206.526 111.54C206.108 111.54 205.845 111.766 205.845 112.364V116.87Z" fill="#1A1A37"/>
<path d="M210.707 118.789H209.36V110.448H210.527V115.729L211.005 113.892L212.077 110.448H213.519V118.789H212.341V112.914L211.806 114.965L210.707 118.789ZM212.055 108.585C212.021 109.025 211.818 109.135 211.46 109.135C211.114 109.135 210.937 109.025 210.899 108.585H210.09C210.113 109.394 210.542 109.906 211.46 109.906C212.39 109.906 212.853 109.394 212.853 108.585H212.055Z" fill="#1A1A37"/>
<path d="M222.519 117.619H223.103V119.907H221.827V118.786H216.32V110.444H217.63V117.596H218.763V110.444H220.073V117.596H221.206V110.444H222.515V117.619H222.519Z" fill="#1A1A37"/>
<path d="M225.132 113.96H226.931V115.153H225.132V117.596H227.398V118.789H223.822V110.448H227.398V111.641H225.132V113.96Z" fill="#1A1A37"/>
<path d="M229.923 115.462L229.517 116.226V118.789H228.207V110.448H229.517V114.084L231.233 110.448H232.543L230.721 114.167L232.543 118.793H231.196L229.923 115.462Z" fill="#1A1A37"/>
<path d="M234.451 113.96H236.25V115.153H234.451V117.596H236.717V118.789H233.141V110.448H236.717V111.641H234.451V113.96Z" fill="#1A1A37"/>
<path d="M146.602 123.46C146.185 123.46 145.925 123.686 145.925 124.285V125.177H144.687V124.368C144.687 123.031 145.353 122.271 146.64 122.271C147.927 122.271 148.594 123.035 148.594 124.368C148.594 126.987 145.985 127.966 145.985 129.336C145.985 129.396 145.985 129.457 145.996 129.517H148.477V130.71H144.687V129.686C144.687 127.232 147.284 126.825 147.284 124.417C147.284 123.664 147.02 123.46 146.602 123.46Z" fill="white"/>
<path d="M150.668 129.445V130.71H149.403V129.445H150.668Z" fill="white"/>
<path d="M153.087 122.365H157.141V123.558H155.771V130.71H154.461V123.558H153.091V122.365H153.087Z" fill="#1A1A37"/>
<path d="M161.956 130.706H160.635L160.409 129.193H158.801L158.576 130.706H157.371L158.707 122.365H160.627L161.956 130.706ZM158.963 128.06H160.228L159.596 123.844L158.963 128.06Z" fill="#1A1A37"/>
<path d="M162.182 122.365H166.236V123.558H164.865V130.71H163.556V123.558H162.185V122.365H162.182Z" fill="#1A1A37"/>
<path d="M169.714 128.587C169.405 130.089 168.893 130.838 167.067 130.721V129.554C167.734 129.603 168.118 129.483 168.223 128.877L168.234 128.805L166.424 122.369H167.722L168.438 125.218L168.844 127.172L169.153 125.23L169.747 122.369H171.118L169.714 128.587Z" fill="#1A1A37"/>
<path d="M173.018 130.706H171.671V122.365H172.838V127.646L173.316 125.809L174.389 122.365H175.83V130.706H174.652V124.831L174.118 126.882L173.018 130.706Z" fill="#1A1A37"/>
<path d="M180.644 124.428V125.512C180.644 126.848 180.001 127.575 178.691 127.575H178.07V130.71H176.76V122.369H178.691C180.001 122.365 180.644 123.092 180.644 124.428ZM178.07 123.558V126.381H178.691C179.109 126.381 179.334 126.189 179.334 125.595V124.345C179.334 123.75 179.109 123.558 178.691 123.558H178.07Z" fill="#1A1A37"/>
<path d="M181.145 124.368C181.145 123.031 181.848 122.271 183.136 122.271C184.423 122.271 185.127 123.035 185.127 124.368V128.704C185.127 130.04 184.423 130.8 183.136 130.8C181.848 130.8 181.145 130.036 181.145 128.704V124.368ZM182.458 128.79C182.458 129.385 182.722 129.611 183.139 129.611C183.557 129.611 183.817 129.385 183.817 128.79V124.285C183.817 123.69 183.554 123.46 183.139 123.46C182.722 123.46 182.458 123.686 182.458 124.285V128.79Z" fill="#1A1A37"/>
<path d="M189.896 124.285V124.582C189.896 125.44 189.633 125.99 189.049 126.261C189.753 126.536 190.028 127.168 190.028 128.049V128.726C190.028 130.014 189.35 130.706 188.037 130.706H185.974V122.365H187.954C189.309 122.365 189.896 122.997 189.896 124.285ZM187.284 123.558V125.764H187.796C188.285 125.764 188.583 125.549 188.583 124.883V124.417C188.583 123.822 188.379 123.558 187.916 123.558H187.284ZM187.284 126.953V129.517H188.037C188.477 129.517 188.714 129.314 188.714 128.696V127.97C188.714 127.194 188.462 126.957 187.867 126.957H187.284V126.953Z" fill="#1A1A37"/>
<path d="M192.531 127.383L192.124 128.147V130.71H190.814V122.369H192.124V126.005L193.841 122.369H195.151L193.329 126.088L195.151 130.714H193.803L192.531 127.383Z" fill="#1A1A37"/>
<path d="M199.991 130.706H198.67L198.444 129.193H196.837L196.611 130.706H195.407L196.743 122.365H198.663L199.991 130.706ZM196.999 128.06H198.264L197.631 123.841L196.999 128.06Z" fill="#1A1A37"/>
<path d="M204.162 127.383L203.756 128.147V130.71H202.446V122.369H203.756V126.005L205.472 122.369H206.782L204.96 126.088L206.782 130.714H205.434L204.162 127.383Z" fill="#1A1A37"/>
<path d="M211.265 124.428V125.512C211.265 126.848 210.621 127.575 209.311 127.575H208.69V130.71H207.38V122.369H209.311C210.625 122.365 211.265 123.092 211.265 124.428ZM208.694 123.558V126.381H209.315C209.733 126.381 209.959 126.189 209.959 125.595V124.345C209.959 123.75 209.733 123.558 209.315 123.558H208.694Z" fill="#1A1A37"/>
<path d="M213.184 125.881H214.984V127.074H213.184V129.517H215.45V130.71H211.875V122.369H215.45V123.562H213.184V125.881Z" fill="#1A1A37"/>
<path d="M220.065 127.597V128.704C220.065 130.04 219.399 130.8 218.112 130.8C216.824 130.8 216.158 130.036 216.158 128.704V124.368C216.158 123.031 216.824 122.271 218.112 122.271C219.399 122.271 220.065 123.035 220.065 124.368V125.177H218.827V124.285C218.827 123.69 218.563 123.46 218.149 123.46C217.732 123.46 217.468 123.686 217.468 124.285V128.79C217.468 129.385 217.732 129.6 218.149 129.6C218.567 129.6 218.827 129.385 218.827 128.79V127.597H220.065Z" fill="#1A1A37"/>
<path d="M220.483 122.365H224.537V123.558H223.167V130.71H221.857V123.558H220.487V122.365H220.483Z" fill="#1A1A37"/>
<path d="M228.263 130.706H226.953V122.365H231.09V130.706H229.754V123.555H228.263V130.706Z" fill="#1A1A37"/>
<path d="M231.937 124.368C231.937 123.031 232.641 122.271 233.928 122.271C235.215 122.271 235.919 123.035 235.919 124.368V128.704C235.919 130.04 235.215 130.8 233.928 130.8C232.641 130.8 231.937 130.036 231.937 128.704V124.368ZM233.247 128.79C233.247 129.385 233.51 129.611 233.928 129.611C234.346 129.611 234.606 129.385 234.606 128.79V124.285C234.606 123.69 234.342 123.46 233.928 123.46C233.51 123.46 233.247 123.686 233.247 124.285V128.79Z" fill="#1A1A37"/>
<path d="M240.553 131.828V130.706H237.752V131.828H236.476V129.539H236.988C237.214 129.253 237.285 128.945 237.308 128.455L237.605 122.365H241.275V129.539H241.847V131.828H240.553ZM238.599 128.433C238.565 129.065 238.445 129.34 238.23 129.543H239.947V123.562H238.836L238.599 128.433Z" fill="#1A1A37"/>
<path d="M145.996 142.627H144.687V134.286H148.823V142.627H147.487V135.475H145.996V142.627Z" fill="#1A1A37"/>
<path d="M153.66 136.349V137.433C153.66 138.769 153.016 139.495 151.706 139.495H151.085V142.631H149.775V134.29H151.706C153.016 134.286 153.66 135.012 153.66 136.349ZM151.085 135.475V138.298H151.706C152.124 138.298 152.35 138.106 152.35 137.512V136.262C152.35 135.667 152.124 135.475 151.706 135.475H151.085Z" fill="#1A1A37"/>
<path d="M158.512 142.627H157.191L156.965 141.114H155.358L155.132 142.627H153.927L155.263 134.286H157.183L158.512 142.627ZM155.519 139.981H156.784L156.152 135.761L155.519 139.981Z" fill="#1A1A37"/>
<path d="M163.04 136.206V136.503C163.04 137.361 162.776 137.911 162.193 138.182C162.897 138.456 163.172 139.089 163.172 139.97V140.647C163.172 141.934 162.494 142.627 161.18 142.627H159.118V134.286H161.098C162.456 134.286 163.04 134.918 163.04 136.206ZM160.431 135.475V137.681H160.943C161.433 137.681 161.73 137.467 161.73 136.8V136.334C161.73 135.739 161.527 135.475 161.064 135.475H160.431ZM160.431 138.874V141.438H161.184C161.625 141.438 161.862 141.234 161.862 140.617V139.891C161.862 139.115 161.609 138.878 161.015 138.878H160.431V138.874Z" fill="#1A1A37"/>
<path d="M163.958 142.627V134.286H165.268V137.421H165.889C167.199 137.421 167.843 138.148 167.843 139.484V140.568C167.843 141.904 167.199 142.631 165.889 142.631H163.958V142.627ZM165.889 141.438C166.307 141.438 166.533 141.246 166.533 140.651V139.401C166.533 138.807 166.307 138.615 165.889 138.615H165.268V141.438H165.889ZM168.595 142.627V134.286H169.905V142.627H168.595Z" fill="#1A1A37"/>
<path d="M173.636 140.207L174.532 134.282H176.353V142.623H175.115V136.642L174.208 142.623H172.97L171.991 136.725V142.623H170.847V134.282H172.668L173.636 140.207Z" fill="#1A1A37"/>
<path d="M179.169 142.627V134.286H182.624V135.479H180.479V142.631H179.169V142.627Z" fill="#1A1A37"/>
<path d="M183.136 141.449C183.731 141.449 183.923 141.366 183.945 140.591L184.16 134.286H187.867V142.627H186.531V135.475H185.387L185.244 140.515C185.195 142.04 184.649 142.638 183.336 142.638H183.132V141.449H183.136Z" fill="#1A1A37"/>
<path d="M193.114 142.627H191.793L191.567 141.114H189.96L189.734 142.627H188.53L189.866 134.286H191.786L193.114 142.627ZM190.122 139.981H191.387L190.754 135.761L190.122 139.981Z" fill="#1A1A37"/>
<path d="M196.25 136.333C196.25 135.584 195.987 135.381 195.573 135.381C195.158 135.381 194.88 135.607 194.88 136.206V136.883H193.675V136.262C193.675 134.926 194.319 134.188 195.606 134.188C196.894 134.188 197.56 134.952 197.56 136.285V136.499C197.56 137.395 197.274 137.952 196.641 138.216C197.296 138.502 197.56 139.123 197.56 139.966V140.621C197.56 141.957 196.894 142.717 195.606 142.717C194.319 142.717 193.653 141.953 193.653 140.621V139.702H194.891V140.704C194.891 141.298 195.155 141.524 195.569 141.524C195.983 141.524 196.246 141.321 196.246 140.583V139.928C196.246 139.153 195.983 138.867 195.388 138.867H195.068V137.673H195.46C195.949 137.673 196.246 137.459 196.246 136.793V136.333H196.25Z" fill="#1A1A37"/>
<path d="M198.335 136.288C198.335 134.952 199.039 134.192 200.326 134.192C201.613 134.192 202.317 134.956 202.317 136.288V140.625C202.317 141.961 201.613 142.721 200.326 142.721C199.039 142.721 198.335 141.957 198.335 140.625V136.288ZM199.645 140.707C199.645 141.302 199.908 141.528 200.326 141.528C200.744 141.528 201.004 141.302 201.004 140.707V136.202C201.004 135.607 200.74 135.377 200.326 135.377C199.908 135.377 199.645 135.603 199.645 136.202V140.707Z" fill="#1A1A37"/>
<path d="M205.939 140.207L206.834 134.282H208.656V142.623H207.418V136.642L206.511 142.623H205.272L204.294 136.725V142.623H203.149V134.282H204.971L205.939 140.207Z" fill="#1A1A37"/>
<path d="M210.873 141.362V142.627H209.608V141.362H210.873Z" fill="#1A1A37"/>
<path d="M6.3916 167.681C6.3916 166.254 7.14441 165.437 8.51829 165.437C9.89216 165.437 10.645 166.254 10.645 167.681V172.318C10.645 173.745 9.89216 174.561 8.51829 174.561C7.14441 174.561 6.3916 173.745 6.3916 172.318V167.681ZM7.79183 172.405C7.79183 173.041 8.07037 173.285 8.51829 173.285C8.96621 173.285 9.24475 173.044 9.24475 172.405V167.59C9.24475 166.954 8.96621 166.713 8.51829 166.713C8.07037 166.713 7.79183 166.954 7.79183 167.59V172.405Z" fill="white"/>
<path d="M11.5635 174.456V165.539H15.4856V166.811H12.9637V169.092H13.7805C15.1807 169.092 15.8959 169.868 15.8959 171.294V172.25C15.8959 173.677 15.1807 174.456 13.7805 174.456H11.5635ZM13.7805 173.184C14.2247 173.184 14.4957 172.98 14.4957 172.344V171.211C14.4957 170.575 14.2284 170.372 13.7805 170.372H12.9637V173.187H13.7805V173.184Z" fill="white"/>
<path d="M21.0301 167.59V167.91C21.0301 168.829 20.7515 169.412 20.1267 169.706C20.8795 169.999 21.1693 170.673 21.1693 171.618V172.344C21.1693 173.722 20.4429 174.46 19.0426 174.46H16.8369V165.543H18.9523C20.4052 165.539 21.0301 166.217 21.0301 167.59ZM18.2371 166.815V169.171H18.7867C19.3099 169.171 19.6261 168.942 19.6261 168.23V167.733C19.6261 167.097 19.4078 166.815 18.9109 166.815H18.2371ZM18.2371 170.444V173.184H19.0389C19.5094 173.184 19.7653 172.965 19.7653 172.307V171.531C19.7653 170.703 19.4981 170.447 18.862 170.447H18.2371V170.444Z" fill="white"/>
<path d="M23.4501 174.456H22.0122V165.539H23.2619V171.181L23.77 169.22L24.918 165.539H26.4575V174.456H25.1966V168.178L24.6245 170.368L23.4501 174.456Z" fill="white"/>
<path d="M28.848 174.456H27.4478V165.539H28.848V169.359H30.4402V165.539H31.8667V174.456H30.4402V170.635H28.848V174.456Z" fill="white"/>
<path d="M34.2907 169.299H36.2141V170.571H34.2907V173.184H36.711V174.456H32.8867V165.539H36.7072V166.811H34.2907V169.299ZM34.43 163.845V165.068H33.2067V163.845H34.43ZM36.3647 163.845V165.068H35.1414V163.845H36.3647Z" fill="white"/>
<path d="M38.9769 174.456H37.5767V165.539H38.9769V169.359H40.5691V165.539H41.9956V174.456H40.5691V170.635H38.9769V174.456Z" fill="white"/>
<path d="M46.3919 174.456H44.9917V165.539H49.4107V174.456H47.9841V166.811H46.3919V174.456Z" fill="white"/>
<path d="M50.314 167.681C50.314 166.254 51.0668 165.437 52.4407 165.437C53.8145 165.437 54.5673 166.254 54.5673 167.681V172.318C54.5673 173.745 53.8145 174.561 52.4407 174.561C51.0668 174.561 50.314 173.745 50.314 172.318V167.681ZM51.7142 172.405C51.7142 173.041 51.9927 173.285 52.4407 173.285C52.8886 173.285 53.1671 173.044 53.1671 172.405V167.59C53.1671 166.954 52.8886 166.713 52.4407 166.713C51.9927 166.713 51.7142 166.954 51.7142 167.59V172.405Z" fill="white"/>
<path d="M61.5121 171.132V172.318C61.5121 173.745 60.7969 174.561 59.423 174.561C58.0491 174.561 57.334 173.745 57.334 172.318V167.681C57.334 166.254 58.0491 165.437 59.423 165.437C60.7969 165.437 61.5121 166.254 61.5121 167.681V168.546H60.1871V167.59C60.1871 166.954 59.9086 166.713 59.4607 166.713C59.0127 166.713 58.7342 166.954 58.7342 167.59V172.405C58.7342 173.041 59.0127 173.27 59.4607 173.27C59.9086 173.27 60.1871 173.041 60.1871 172.405V171.132H61.5121Z" fill="white"/>
<path d="M61.9565 165.539H66.289V166.811H64.8247V174.456H63.4245V166.811H61.9603V165.539H61.9565Z" fill="white"/>
<path d="M71.4343 174.456H70.0191L69.7782 172.837H68.058L67.8171 174.456H66.5298L67.9564 165.539H70.0078L71.4343 174.456ZM68.2387 171.629H69.59L68.9162 167.12L68.2387 171.629Z" fill="white"/>
<path d="M71.6753 165.539H76.0077V166.811H74.5435V174.456H73.1433V166.811H71.6791V165.539H71.6753Z" fill="white"/>
<path d="M76.6211 174.456V165.539H78.0213V168.889H78.6838C80.084 168.889 80.7728 169.664 80.7728 171.095V172.254C80.7728 173.681 80.084 174.46 78.6838 174.46H76.6211V174.456ZM78.6838 173.184C79.1279 173.184 79.3726 172.98 79.3726 172.344V171.008C79.3726 170.372 79.1317 170.169 78.6838 170.169H78.0213V173.187H78.6838V173.184Z" fill="white"/>
<path d="M83.0164 169.299H84.9399V170.571H83.0164V173.184H85.4367V174.456H81.6162V165.539H85.4367V166.811H83.0164V169.299Z" fill="white"/>
<path d="M89.1405 166.661C90.2245 166.661 90.4654 166.137 90.68 165.539H91.621V174.456H90.2208V167.654H89.1367V166.661H89.1405Z" fill="white"/>
<path d="M94.5793 171.576V172.405C94.5793 173.041 94.8616 173.27 95.3058 173.27C95.75 173.27 96.0323 173.041 96.0323 172.405V170.443C96.0323 169.807 95.7537 169.566 95.3058 169.566C94.8579 169.566 94.5793 169.807 94.5793 170.443V170.711H93.2544L93.5103 165.539H97.2029V166.811H94.7713L94.6584 168.938C94.9143 168.516 95.3209 168.287 95.8817 168.287C96.913 168.287 97.4362 169.013 97.4362 170.327V172.314C97.4362 173.741 96.7211 174.558 95.3472 174.558C93.9696 174.558 93.2582 173.741 93.2582 172.314V171.576H94.5793Z" fill="white"/>
<path d="M101.065 167.73C101.065 166.928 100.786 166.71 100.339 166.71C99.8906 166.71 99.6121 166.95 99.6121 167.587V168.159H98.2871V167.673C98.2871 166.247 99.0023 165.43 100.376 165.43C101.75 165.43 102.465 166.247 102.465 167.673V167.903C102.465 168.859 102.16 169.457 101.483 169.736C102.183 170.041 102.465 170.703 102.465 171.61V172.31C102.465 173.737 101.75 174.554 100.376 174.554C99.0023 174.554 98.2871 173.737 98.2871 172.31V171.573H99.6121V172.401C99.6121 173.037 99.8906 173.282 100.339 173.282C100.786 173.282 101.065 173.063 101.065 172.277V171.576C101.065 170.748 100.786 170.444 100.147 170.444H99.676V169.171H100.226C100.749 169.171 101.065 168.942 101.065 168.23V167.73Z" fill="white"/>
<path d="M108.492 172.19C108.16 173.793 107.615 174.599 105.665 174.471V173.221C106.376 173.274 106.787 173.146 106.899 172.495L106.911 172.42L104.976 165.539H106.365L107.129 168.584L107.562 170.673L107.893 168.595L108.529 165.539H109.994L108.492 172.19Z" fill="white"/>
<path d="M112.418 170.903L111.985 171.72V174.46H110.584V165.543H111.985V169.427L113.818 165.543H115.218L113.268 169.518L115.218 174.46H113.78L112.418 170.903Z" fill="white"/>
<path d="M119.919 171.132V172.318C119.919 173.745 119.204 174.561 117.83 174.561C116.456 174.561 115.741 173.745 115.741 172.318V167.681C115.741 166.254 116.456 165.437 117.83 165.437C119.204 165.437 119.919 166.254 119.919 167.681V168.546H118.594V167.59C118.594 166.954 118.315 166.713 117.867 166.713C117.419 166.713 117.141 166.954 117.141 167.59V172.405C117.141 173.041 117.419 173.27 117.867 173.27C118.315 173.27 118.594 173.041 118.594 172.405V171.132H119.919Z" fill="white"/>
<path d="M120.773 174.456V165.539H122.174V173.184H123.386V165.539H124.786V173.184H125.994V165.539H127.394V174.456H120.773Z" fill="white"/>
<path d="M132.875 165.539V166.687H132.532C132.088 166.687 131.881 166.853 131.881 167.489V172.506C131.881 173.142 132.084 173.308 132.532 173.308H132.875V174.456H132.442C131.042 174.456 130.481 173.933 130.481 172.506V167.489C130.481 166.062 131.042 165.539 132.442 165.539H132.875Z" fill="#1A1A37"/>
<path d="M137.742 167.745V168.904C137.742 170.331 137.053 171.106 135.653 171.106H134.991V174.456H133.59V165.539H135.653C137.053 165.539 137.742 166.318 137.742 167.745ZM134.991 166.815V169.834H135.653C136.097 169.834 136.342 169.63 136.342 168.994V167.658C136.342 167.022 136.101 166.819 135.653 166.819H134.991V166.815Z" fill="#1A1A37"/>
<path d="M142.925 174.456H141.51L141.269 172.837H139.549L139.308 174.456H138.021L139.447 165.539H141.498L142.925 174.456ZM139.729 171.629H141.081L140.407 167.12L139.729 171.629Z" fill="#1A1A37"/>
<path d="M146.275 167.73C146.275 166.928 145.996 166.71 145.548 166.71C145.101 166.71 144.811 166.951 144.811 167.587V168.313H143.523V167.651C143.523 166.224 144.212 165.434 145.586 165.434C146.96 165.434 147.675 166.25 147.675 167.677V167.907C147.675 168.863 147.37 169.461 146.693 169.74C147.393 170.045 147.675 170.707 147.675 171.614V172.314C147.675 173.741 146.96 174.558 145.586 174.558C144.212 174.558 143.497 173.741 143.497 172.314V171.332H144.822V172.401C144.822 173.037 145.101 173.282 145.548 173.282C145.996 173.282 146.275 173.063 146.275 172.277V171.577C146.275 170.748 145.996 170.444 145.357 170.444H145.014V169.171H145.436C145.959 169.171 146.275 168.942 146.275 168.23V167.73Z" fill="#1A1A37"/>
<path d="M148.631 174.456V165.539H152.553V166.811H150.032V169.092H150.848C152.249 169.092 152.964 169.868 152.964 171.294V172.25C152.964 173.677 152.249 174.456 150.848 174.456H148.631ZM150.848 173.184C151.293 173.184 151.564 172.98 151.564 172.344V171.211C151.564 170.575 151.296 170.372 150.848 170.372H150.032V173.187H150.848V173.184Z" fill="#1A1A37"/>
<path d="M153.792 167.681C153.792 166.254 154.544 165.437 155.918 165.437C157.292 165.437 158.045 166.254 158.045 167.681V172.318C158.045 173.745 157.292 174.561 155.918 174.561C154.544 174.561 153.792 173.745 153.792 172.318V167.681ZM155.192 172.405C155.192 173.041 155.47 173.285 155.918 173.285C156.366 173.285 156.645 173.044 156.645 172.405V167.59C156.645 166.954 156.366 166.713 155.918 166.713C155.47 166.713 155.192 166.954 155.192 167.59V172.405Z" fill="#1A1A37"/>
<path d="M160.39 174.456H158.952V165.539H160.202V171.181L160.71 169.22L161.858 165.539H163.397V174.456H162.137V168.178L161.564 170.368L160.39 174.456ZM161.828 163.552C161.79 164.022 161.572 164.139 161.192 164.139C160.823 164.139 160.631 164.026 160.593 163.552H159.728C159.754 164.417 160.213 164.967 161.192 164.967C162.185 164.967 162.682 164.417 162.682 163.552H161.828Z" fill="#1A1A37"/>
<path d="M165.818 174.456H164.417V165.539H165.818V169.359H167.41V165.539H168.836V174.456H167.41V170.635H165.818V174.456Z" fill="#1A1A37"/>
<path d="M169.74 167.681C169.74 166.254 170.493 165.437 171.866 165.437C173.24 165.437 173.993 166.254 173.993 167.681V172.318C173.993 173.745 173.24 174.561 171.866 174.561C170.493 174.561 169.74 173.745 169.74 172.318V167.681ZM171.14 172.405C171.14 173.041 171.419 173.285 171.866 173.285C172.314 173.285 172.593 173.044 172.593 172.405V167.59C172.593 166.954 172.314 166.713 171.866 166.713C171.419 166.713 171.14 166.954 171.14 167.59V172.405Z" fill="#1A1A37"/>
<path d="M176.301 169.299H178.224V170.571H176.301V173.184H178.721V174.456H174.9V165.539H178.721V166.811H176.301V169.299Z" fill="#1A1A37"/>
<path d="M182.963 174.456H181.563V165.539H182.963V169.359H184.555V165.539H185.982V174.456H184.555V170.635H182.963V174.456Z" fill="#1A1A37"/>
<path d="M191.538 174.456H190.123L189.882 172.837H188.162L187.921 174.456H186.633L188.06 165.539H190.111L191.538 174.456ZM188.338 171.629H189.69L189.016 167.12L188.338 171.629Z" fill="#1A1A37"/>
<path d="M193.585 174.456H192.185V165.539H196.604V174.456H195.177V166.811H193.585V174.456Z" fill="#1A1A37"/>
<path d="M202.159 174.456H200.744L200.503 172.837H198.783L198.542 174.456H197.255L198.681 165.539H200.733L202.159 174.456ZM198.964 171.629H200.315L199.641 167.12L198.964 171.629Z" fill="#1A1A37"/>
<path d="M206.861 175.653V174.456H203.868V175.653H202.506V173.206H203.055C203.296 172.901 203.375 172.57 203.398 172.047L203.718 165.539H207.64V173.206H208.25V175.653H206.861ZM204.772 172.024C204.734 172.698 204.606 172.992 204.377 173.21H206.21V166.815H205.024L204.772 172.024Z" fill="#1A1A37"/>
<path d="M210.43 169.299H212.353V170.571H210.43V173.184H212.85V174.456H209.029V165.539H212.85V166.811H210.43V169.299Z" fill="#1A1A37"/>
<path d="M215.116 174.456H213.715V165.539H215.116V169.359H216.708V165.539H218.134V174.456H216.708V170.635H215.116V174.456Z" fill="#1A1A37"/>
<path d="M220.592 174.456H219.154V165.539H220.404V171.181L220.912 169.22L222.06 165.539H223.6V174.456H222.339V168.178L221.767 170.368L220.592 174.456Z" fill="#1A1A37"/>
<path d="M225.993 169.299H227.917V170.571H225.993V173.184H228.414V174.456H224.593V165.539H228.414V166.811H225.993V169.299Z" fill="#1A1A37"/>
<path d="M229.407 165.539C230.808 165.539 231.369 166.062 231.369 167.489V172.506C231.369 173.933 230.808 174.456 229.407 174.456H228.975V173.308H229.317C229.761 173.308 229.968 173.142 229.968 172.506V167.489C229.968 166.853 229.765 166.687 229.317 166.687H228.975V165.539H229.407Z" fill="#1A1A37"/>
<path d="M232.479 174.456V173.105H233.83V174.317L233.221 175.732H232.648L233.017 174.46H232.479V174.456Z" fill="#1A1A37"/>
<path d="M237.688 166.661C238.772 166.661 239.013 166.137 239.228 165.539H240.169V174.456H238.769V167.654H237.685V166.661H237.688Z" fill="white"/>
<path d="M243.918 166.713C243.474 166.713 243.192 166.954 243.192 167.59V168.546H241.867V167.681C241.867 166.254 242.582 165.437 243.956 165.437C245.33 165.437 246.045 166.254 246.045 167.681C246.045 170.485 243.256 171.527 243.256 172.992C243.256 173.056 243.256 173.12 243.267 173.184H245.917V174.456H241.867V173.361C241.867 170.737 244.645 170.304 244.645 167.73C244.645 166.928 244.362 166.713 243.918 166.713Z" fill="white"/>
<path d="M248.962 166.713C248.517 166.713 248.235 166.954 248.235 167.59V168.546H246.91V167.681C246.91 166.254 247.625 165.437 248.999 165.437C250.373 165.437 251.088 166.254 251.088 167.681C251.088 170.485 248.299 171.527 248.299 172.992C248.299 173.056 248.299 173.12 248.31 173.184H250.96V174.456H246.91V173.361C246.91 170.737 249.688 170.304 249.688 167.73C249.688 166.928 249.409 166.713 248.962 166.713Z" fill="white"/>
<path d="M258.184 165.539V174.456H256.783V170.865C256.478 171.196 255.967 171.362 255.586 171.362C254.438 171.362 253.84 170.534 253.84 169.31V165.539H255.24V169.194C255.24 169.792 255.609 170.071 256.057 170.071C256.505 170.071 256.783 169.751 256.783 169.152V165.535H258.184V165.539Z" fill="white"/>
<path d="M261.918 167.73C261.918 166.928 261.639 166.71 261.191 166.71C260.743 166.71 260.465 166.95 260.465 167.587V168.159H259.14V167.673C259.14 166.247 259.855 165.43 261.229 165.43C262.603 165.43 263.318 166.247 263.318 167.673V167.903C263.318 168.859 263.013 169.457 262.335 169.736C263.035 170.041 263.318 170.703 263.318 171.61V172.31C263.318 173.737 262.603 174.554 261.229 174.554C259.855 174.554 259.14 173.737 259.14 172.31V171.573H260.465V172.401C260.465 173.037 260.743 173.282 261.191 173.282C261.639 173.282 261.918 173.063 261.918 172.277V171.576C261.918 170.748 261.639 170.444 260.999 170.444H260.529V169.171H261.078C261.601 169.171 261.918 168.942 261.918 168.23V167.73Z" fill="white"/>
<path d="M269.344 172.19C269.013 173.793 268.467 174.599 266.517 174.471V173.221C267.229 173.274 267.639 173.146 267.752 172.495L267.763 172.42L265.829 165.539H267.218L267.982 168.584L268.415 170.673L268.746 168.595L269.382 165.539H270.846L269.344 172.19Z" fill="white"/>
<path d="M273.266 170.903L272.833 171.72V174.46H271.433V165.543H272.833V169.427L274.666 165.543H276.067L274.117 169.518L276.067 174.46H274.629L273.266 170.903Z" fill="white"/>
<path d="M280.772 171.132V172.318C280.772 173.745 280.057 174.561 278.683 174.561C277.309 174.561 276.594 173.745 276.594 172.318V167.681C276.594 166.254 277.309 165.437 278.683 165.437C280.057 165.437 280.772 166.254 280.772 167.681V168.546H279.447V167.59C279.447 166.954 279.168 166.713 278.72 166.713C278.273 166.713 277.994 166.954 277.994 167.59V172.405C277.994 173.041 278.273 173.27 278.72 173.27C279.168 173.27 279.447 173.041 279.447 172.405V171.132H280.772Z" fill="white"/>
<path d="M281.622 174.456V165.539H283.022V173.184H284.234V165.539H285.635V173.184H286.843V165.539H288.243V174.456H281.622Z" fill="white"/>
<path d="M8.98866 178.28V179.428H8.64613C8.20197 179.428 7.99495 179.594 7.99495 180.23V185.248C7.99495 185.884 8.19821 186.049 8.64613 186.049H8.98866V187.197H8.55579C7.15557 187.197 6.59473 186.674 6.59473 185.248V180.23C6.59473 178.803 7.15557 178.28 8.55579 178.28H8.98866Z" fill="#1A1A37"/>
<path d="M11.1038 187.197H9.70361V178.28H11.1038V182.101H12.696V178.28H14.1226V187.197H12.696V183.377H11.1038V187.197Z" fill="#1A1A37"/>
<path d="M19.6785 187.197H18.2632L18.0223 185.579H16.3021L16.0612 187.197H14.7739L16.2005 178.28H18.2519L19.6785 187.197ZM16.479 184.367H17.8303L17.1566 179.857L16.479 184.367Z" fill="#1A1A37"/>
<path d="M21.7302 187.197H20.3262V178.28H24.7452V187.197H23.3186V179.553H21.7264V187.197H21.7302Z" fill="#1A1A37"/>
<path d="M30.301 187.197H28.8858L28.6449 185.579H26.9247L26.6838 187.197H25.3965L26.8231 178.28H28.8745L30.301 187.197ZM27.1054 184.367H28.4567L27.7829 179.857L27.1054 184.367Z" fill="#1A1A37"/>
<path d="M35.002 188.394V187.197H32.0096V188.394H30.647V185.948H31.1965C31.4374 185.643 31.5165 185.312 31.5391 184.788L31.859 178.28H35.7811V185.948H36.3909V188.394H35.002ZM32.9129 184.762C32.8753 185.436 32.7473 185.729 32.5177 185.948H34.3508V179.553H33.1651L32.9129 184.762Z" fill="#1A1A37"/>
<path d="M38.5705 182.037H40.4939V183.309H38.5705V185.921H40.9908V187.193H37.1665V178.276H40.987V179.549H38.5667V182.037H38.5705Z" fill="#1A1A37"/>
<path d="M43.2567 187.197H41.8564V178.28H43.2567V182.101H44.8489V178.28H46.2754V187.197H44.8489V183.377H43.2567V187.197Z" fill="#1A1A37"/>
<path d="M48.7333 187.197H47.2954V178.28H48.5451V183.923L49.0532 181.962L50.2013 178.28H51.7408V187.197H50.4798V180.915L49.9077 183.106L48.7333 187.197Z" fill="#1A1A37"/>
<path d="M54.1351 182.037H56.0585V183.309H54.1351V185.921H56.5554V187.193H52.7349V178.276H56.5554V179.549H54.1351V182.037Z" fill="#1A1A37"/>
<path d="M60.7972 187.197H59.397V178.28H60.7972V182.101H62.3894V178.28H63.816V187.197H62.3894V183.377H60.7972V187.197Z" fill="#1A1A37"/>
<path d="M69.3718 187.197H67.9566L67.7157 185.579H65.9955L65.7546 187.197H64.4673L65.8939 178.28H67.9453L69.3718 187.197ZM66.1762 184.367H67.5275L66.8537 179.857L66.1762 184.367Z" fill="#1A1A37"/>
<path d="M73.3953 187.197H71.9951V178.28H76.4141V187.197H74.9875V179.553H73.3953V187.197Z" fill="#1A1A37"/>
<path d="M77.3213 180.418C77.3213 178.991 78.0741 178.175 79.448 178.175C80.8219 178.175 81.5747 178.991 81.5747 180.418V185.055C81.5747 186.482 80.8219 187.299 79.448 187.299C78.0741 187.299 77.3213 186.482 77.3213 185.055V180.418ZM78.7215 185.146C78.7215 185.782 79.0001 186.026 79.448 186.026C79.8959 186.026 80.1744 185.786 80.1744 185.146V180.331C80.1744 179.695 79.8959 179.454 79.448 179.454C79.0001 179.454 78.7215 179.695 78.7215 180.331V185.146Z" fill="#1A1A37"/>
<path d="M82.0868 185.936C82.7229 185.936 82.9262 185.846 82.9525 185.018L83.1821 178.28H87.1456V187.197H85.7191V179.553H84.4958L84.3414 184.943C84.2887 186.572 83.7053 187.209 82.3013 187.209H82.083V185.936H82.0868Z" fill="#1A1A37"/>
<path d="M89.6522 187.197H88.2144V178.28H89.464V183.923L89.9722 181.962L91.1202 178.28H92.6597V187.197H91.3987V180.915L90.8266 183.106L89.6522 187.197Z" fill="#1A1A37"/>
<path d="M93.6498 178.28H95.05V185.925H96.6422V178.28H98.0688V185.948H98.6785V188.394H97.3159V187.197H93.646V178.28H93.6498Z" fill="#1A1A37"/>
<path d="M100.85 182.037H102.774V183.309H100.85V185.921H103.271V187.193H99.4463V178.276H103.267V179.549H100.847V182.037H100.85Z" fill="#1A1A37"/>
<path d="M105.574 187.197H104.136V178.28H105.386V183.922L105.894 181.961L107.042 178.28H108.582V187.197H107.321V180.915L106.748 183.106L105.574 187.197ZM107.016 176.293C106.978 176.763 106.76 176.88 106.38 176.88C106.011 176.88 105.819 176.767 105.781 176.293H104.915C104.942 177.158 105.401 177.708 106.38 177.708C107.373 177.708 107.87 177.158 107.87 176.293H107.016Z" fill="#1A1A37"/>
<path d="M113.663 183.87V185.055C113.663 186.482 112.948 187.299 111.574 187.299C110.201 187.299 109.485 186.482 109.485 185.055V180.418C109.485 178.991 110.201 178.175 111.574 178.175C112.948 178.175 113.663 178.991 113.663 180.418V181.284H112.339V180.328C112.339 179.692 112.06 179.451 111.612 179.451C111.164 179.451 110.886 179.692 110.886 180.328V185.142C110.886 185.778 111.164 186.008 111.612 186.008C112.06 186.008 112.339 185.778 112.339 185.142V183.87H113.663Z" fill="#1A1A37"/>
<path d="M116.351 183.64L115.918 184.457V187.197H114.518V178.28H115.918V182.165L117.751 178.28H119.151L117.201 182.255L119.151 187.197H117.713L116.351 183.64Z" fill="#1A1A37"/>
<path d="M119.678 180.418C119.678 178.991 120.431 178.175 121.805 178.175C123.179 178.175 123.932 178.991 123.932 180.418V185.055C123.932 186.482 123.179 187.299 121.805 187.299C120.431 187.299 119.678 186.482 119.678 185.055V180.418ZM121.078 185.146C121.078 185.782 121.357 186.026 121.805 186.026C122.253 186.026 122.531 185.786 122.531 185.146V180.331C122.531 179.695 122.253 179.454 121.805 179.454C121.357 179.454 121.078 179.695 121.078 180.331V185.146Z" fill="#1A1A37"/>
<path d="M124.85 187.197V178.28H128.543V179.553H126.25V187.197H124.85Z" fill="#1A1A37"/>
<path d="M129.371 180.418C129.371 178.991 130.123 178.175 131.497 178.175C132.871 178.175 133.624 178.991 133.624 180.418V185.055C133.624 186.482 132.871 187.299 131.497 187.299C130.123 187.299 129.371 186.482 129.371 185.055V180.418ZM130.771 185.146C130.771 185.782 131.049 186.026 131.497 186.026C131.945 186.026 132.224 185.786 132.224 185.146V180.331C132.224 179.695 131.945 179.454 131.497 179.454C131.049 179.454 130.771 179.695 130.771 180.331V185.146Z" fill="#1A1A37"/>
<path d="M134.659 178.28C136.059 178.28 136.62 178.803 136.62 180.23V185.248C136.62 186.674 136.059 187.197 134.659 187.197H134.226V186.049H134.569C135.013 186.049 135.22 185.884 135.22 185.248V180.23C135.22 179.594 135.017 179.428 134.569 179.428H134.226V178.28H134.659Z" fill="#1A1A37"/>
<path d="M141.141 187.197H139.703V178.28H140.952V183.923L141.46 181.962L142.608 178.28H144.148V187.197H142.887V180.915L142.315 183.106L141.141 187.197Z" fill="white"/>
<path d="M149.166 179.451C148.722 179.451 148.439 179.692 148.439 180.328V181.284H147.114V180.418C147.114 178.991 147.829 178.175 149.203 178.175C150.577 178.175 151.292 178.991 151.292 180.418C151.292 183.222 148.503 184.265 148.503 185.729C148.503 185.793 148.503 185.857 148.514 185.921H151.164V187.193H147.114V186.098C147.114 183.474 149.892 183.042 149.892 180.467C149.892 179.665 149.614 179.451 149.166 179.451Z" fill="white"/>
<path d="M152.045 180.418C152.045 178.991 152.798 178.175 154.172 178.175C155.545 178.175 156.298 178.991 156.298 180.418V185.055C156.298 186.482 155.545 187.299 154.172 187.299C152.798 187.299 152.045 186.482 152.045 185.055V180.418ZM153.445 185.146C153.445 185.782 153.724 186.026 154.172 186.026C154.62 186.026 154.898 185.786 154.898 185.146V180.331C154.898 179.695 154.62 179.454 154.172 179.454C153.724 179.454 153.445 179.695 153.445 180.331V185.146Z" fill="white"/>
<path d="M159.257 179.451C158.813 179.451 158.531 179.692 158.531 180.328V181.284H157.206V180.418C157.206 178.991 157.921 178.175 159.295 178.175C160.668 178.175 161.384 178.991 161.384 180.418C161.384 183.222 158.595 184.265 158.595 185.729C158.595 185.793 158.594 185.857 158.606 185.921H161.256V187.193H157.206V186.098C157.206 183.474 159.983 183.042 159.983 180.467C159.983 179.665 159.701 179.451 159.257 179.451Z" fill="white"/>
<path d="M168.479 178.28V187.197H167.079V183.606C166.774 183.937 166.262 184.103 165.882 184.103C164.734 184.103 164.135 183.275 164.135 182.052V178.28H165.535V181.935C165.535 182.534 165.904 182.812 166.352 182.812C166.8 182.812 167.079 182.492 167.079 181.894V178.276H168.479V178.28Z" fill="white"/>
<path d="M171.562 179.451C171.118 179.451 170.835 179.692 170.835 180.328V181.284H169.51V180.418C169.51 178.991 170.225 178.175 171.599 178.175C172.973 178.175 173.688 178.991 173.688 180.418C173.688 183.222 170.899 184.265 170.899 185.729C170.899 185.793 170.899 185.857 170.91 185.921H173.56V187.193H169.51V186.098C169.51 183.474 172.288 183.042 172.288 180.467C172.288 179.665 172.006 179.451 171.562 179.451Z" fill="white"/>
<path d="M179.64 184.927C179.308 186.531 178.763 187.336 176.813 187.208V185.959C177.524 186.011 177.935 185.883 178.047 185.232L178.059 185.157L176.124 178.276H177.513L178.277 181.321L178.71 183.411L179.041 181.333L179.677 178.276H181.141L179.64 184.927Z" fill="white"/>
<path d="M183.562 183.64L183.129 184.457V187.197H181.729V178.28H183.129V182.165L184.962 178.28H186.362L184.412 182.255L186.362 187.197H184.924L183.562 183.64Z" fill="white"/>
<path d="M191.063 183.87V185.055C191.063 186.482 190.348 187.299 188.974 187.299C187.6 187.299 186.885 186.482 186.885 185.055V180.418C186.885 178.991 187.6 178.175 188.974 178.175C190.348 178.175 191.063 178.991 191.063 180.418V181.284H189.738V180.328C189.738 179.692 189.46 179.451 189.012 179.451C188.564 179.451 188.285 179.692 188.285 180.328V185.142C188.285 185.778 188.564 186.008 189.012 186.008C189.46 186.008 189.738 185.778 189.738 185.142V183.87H191.063Z" fill="white"/>
<path d="M191.918 187.197V178.28H193.318V185.925H194.53V178.28H195.93V185.925H197.139V178.28H198.539V187.197H191.918Z" fill="white"/>
<path d="M204.019 178.28V179.428H203.677C203.233 179.428 203.026 179.594 203.026 180.23V185.248C203.026 185.884 203.229 186.049 203.677 186.049H204.019V187.197H203.587C202.186 187.197 201.625 186.674 201.625 185.248V180.23C201.625 178.803 202.186 178.28 203.587 178.28H204.019Z" fill="#1A1A37"/>
<path d="M207.84 184.927C207.509 186.531 206.963 187.336 205.013 187.208V185.959C205.724 186.011 206.135 185.883 206.248 185.232L206.259 185.157L204.324 178.276H205.713L206.477 181.321L206.91 183.411L207.241 181.333L207.877 178.276H209.342L207.84 184.927Z" fill="#1A1A37"/>
<path d="M209.944 187.197V178.28H213.866V179.553H211.344V181.834H212.161C213.561 181.834 214.276 182.609 214.276 184.035V184.992C214.276 186.418 213.561 187.197 212.161 187.197H209.944ZM212.161 185.921C212.605 185.921 212.876 185.718 212.876 185.082V183.949C212.876 183.313 212.609 183.11 212.161 183.11H211.344V185.925H212.161V185.921Z" fill="#1A1A37"/>
<path d="M216.655 187.197H215.217V178.28H216.467V183.923L216.975 181.962L218.123 178.28H219.663V187.197H218.402V180.915L217.83 183.106L216.655 187.197Z" fill="#1A1A37"/>
<path d="M222.094 187.197H220.656V178.28H221.906V183.922L222.414 181.961L223.562 178.28H225.102V187.197H223.841V180.915L223.268 183.106L222.094 187.197ZM223.536 176.293C223.498 176.763 223.28 176.88 222.9 176.88C222.531 176.88 222.339 176.767 222.301 176.293H221.435C221.462 177.158 221.921 177.708 222.9 177.708C223.893 177.708 224.39 177.158 224.39 176.293H223.536Z" fill="#1A1A37"/>
<path d="M230.187 183.87V185.055C230.187 186.482 229.472 187.299 228.098 187.299C226.724 187.299 226.009 186.482 226.009 185.055V180.418C226.009 178.991 226.724 178.175 228.098 178.175C229.472 178.175 230.187 178.991 230.187 180.418V181.284H228.862V180.328C228.862 179.692 228.583 179.451 228.135 179.451C227.688 179.451 227.409 179.692 227.409 180.328V185.142C227.409 185.778 227.688 186.008 228.135 186.008C228.583 186.008 228.862 185.778 228.862 185.142V183.87H230.187Z" fill="#1A1A37"/>
<path d="M230.631 178.28H234.963V179.553H233.499V187.197H232.099V179.553H230.635V178.28H230.631Z" fill="#1A1A37"/>
<path d="M239.762 180.328V180.648C239.762 181.566 239.484 182.15 238.859 182.443C239.612 182.737 239.902 183.411 239.902 184.355V185.082C239.902 186.46 239.175 187.197 237.775 187.197H235.569V178.28H237.685C239.141 178.28 239.762 178.954 239.762 180.328ZM236.973 179.553V181.909H237.523C238.046 181.909 238.362 181.679 238.362 180.968V180.471C238.362 179.835 238.144 179.553 237.647 179.553H236.973ZM236.973 183.185V185.925H237.775C238.246 185.925 238.502 185.707 238.502 185.048V184.273C238.502 183.445 238.234 183.189 237.598 183.189H236.973V183.185Z" fill="#1A1A37"/>
<path d="M240.632 180.418C240.632 178.991 241.385 178.175 242.759 178.175C244.132 178.175 244.885 178.991 244.885 180.418V185.055C244.885 186.482 244.132 187.299 242.759 187.299C241.385 187.299 240.632 186.482 240.632 185.055V180.418ZM242.032 185.146C242.032 185.782 242.311 186.026 242.759 186.026C243.206 186.026 243.485 185.786 243.485 185.146V180.331C243.485 179.695 243.206 179.454 242.759 179.454C242.311 179.454 242.032 179.695 242.032 180.331V185.146Z" fill="#1A1A37"/>
<path d="M245.917 178.28C247.317 178.28 247.878 178.803 247.878 180.23V185.248C247.878 186.674 247.317 187.197 245.917 187.197H245.484V186.049H245.826C246.271 186.049 246.478 185.884 246.478 185.248V180.23C246.478 179.594 246.274 179.428 245.826 179.428H245.484V178.28H245.917Z" fill="#1A1A37"/>
<path d="M250.336 185.846V187.197H248.984V185.846H250.336Z" fill="#1A1A37"/>
<path d="M8.75574 204.064H10.2011V205.02H8.75574V206.985H10.5775V207.941H7.70557V201.233H10.5775V202.189H8.75574V204.064Z" fill="#1A1A37"/>
<path d="M14.2813 205.442V206.334C14.2813 207.406 13.7468 208.02 12.7117 208.02C11.6766 208.02 11.1421 207.406 11.1421 206.334V202.848C11.1421 201.775 11.6766 201.162 12.7117 201.162C13.7468 201.162 14.2813 201.775 14.2813 202.848V203.499H13.2876V202.78C13.2876 202.302 13.0768 202.118 12.7418 202.118C12.4068 202.118 12.196 202.299 12.196 202.78V206.401C12.196 206.879 12.4068 207.053 12.7418 207.053C13.0768 207.053 13.2876 206.879 13.2876 206.401V205.445H14.2813V205.442Z" fill="#1A1A37"/>
<path d="M14.6274 206.992C15.1055 206.992 15.2598 206.925 15.2786 206.303L15.4518 201.237H18.4329V207.945H17.3601V202.197H16.4417L16.3288 206.251C16.2911 207.478 15.8508 207.956 14.7968 207.956H14.635V206.992H14.6274Z" fill="#1A1A37"/>
<path d="M20.3184 207.941H19.2344V201.233H20.1716V205.479L20.5556 204.004L21.4175 201.233H22.5768V207.941H21.6283V203.221L21.1954 204.869L20.3184 207.941Z" fill="#1A1A37"/>
<path d="M27.9635 202.777V203.018C27.9635 203.706 27.7527 204.147 27.2822 204.369C27.8468 204.587 28.0689 205.095 28.0689 205.807V206.352C28.0689 207.388 27.5231 207.941 26.4692 207.941H24.813V201.233H26.4014C27.4968 201.237 27.9635 201.745 27.9635 202.777ZM25.8669 202.193V203.966H26.2772C26.6687 203.966 26.9096 203.793 26.9096 203.258V202.886C26.9096 202.408 26.7477 202.197 26.3751 202.197H25.8669V202.193ZM25.8669 204.926V206.985H26.4692C26.823 206.985 27.015 206.823 27.015 206.322V205.739C27.015 205.118 26.8155 204.926 26.3337 204.926H25.8669Z" fill="#1A1A37"/>
<path d="M28.7012 207.941V201.233H29.7551V203.752H30.252C31.3059 203.752 31.8216 204.335 31.8216 205.408V206.281C31.8216 207.354 31.3021 207.937 30.252 207.937H28.7012V207.941ZM30.2557 206.985C30.5907 206.985 30.7714 206.831 30.7714 206.352V205.347C30.7714 204.869 30.5907 204.715 30.2557 204.715H29.7589V206.985H30.2557ZM32.4276 207.941V201.233H33.4815V207.941H32.4276Z" fill="#1A1A37"/>
<path d="M36.7904 204.064H38.2358V205.02H36.7904V206.985H38.6122V207.941H35.7402V201.233H38.6122V202.189H36.7904V204.064Z" fill="#1A1A37"/>
<path d="M39.2705 207.941V201.233H42.0484V202.189H40.3244V207.937H39.2705V207.941Z" fill="#1A1A37"/>
<path d="M42.6733 202.844C42.6733 201.772 43.2379 201.158 44.2731 201.158C45.3082 201.158 45.8728 201.772 45.8728 202.844V206.33C45.8728 207.403 45.3082 208.016 44.2731 208.016C43.2379 208.016 42.6733 207.403 42.6733 206.33V202.844ZM43.7273 206.401C43.7273 206.879 43.9381 207.064 44.2731 207.064C44.6081 207.064 44.8188 206.883 44.8188 206.401V202.78C44.8188 202.302 44.6081 202.118 44.2731 202.118C43.9381 202.118 43.7273 202.299 43.7273 202.78V206.401Z" fill="#1A1A37"/>
<path d="M51.1876 202.777V203.018C51.1876 203.706 50.9768 204.147 50.5063 204.369C51.0709 204.587 51.293 205.095 51.293 205.807V206.352C51.293 207.388 50.7472 207.941 49.6933 207.941H48.0371V201.233H49.6255C50.7209 201.237 51.1876 201.745 51.1876 202.777ZM49.091 202.193V203.966H49.5013C49.8928 203.966 50.1337 203.793 50.1337 203.258V202.886C50.1337 202.408 49.9718 202.197 49.5992 202.197H49.091V202.193ZM49.091 204.926V206.985H49.6933C50.0471 206.985 50.2391 206.823 50.2391 206.322V205.739C50.2391 205.118 50.0396 204.926 49.5578 204.926H49.091Z" fill="#1A1A37"/>
<path d="M53.0093 207.941H51.9253V201.233H52.8625V205.479L53.2465 204.004L54.1084 201.233H55.2678V207.941H54.3192V203.221L53.8864 204.869L53.0093 207.941Z" fill="#1A1A37"/>
<path d="M59.0657 208.844V207.945H56.8148V208.844H55.791V207.004H56.2013C56.382 206.774 56.4422 206.526 56.461 206.13L56.7019 201.233H59.6529V207H60.1121V208.841H59.0657V208.844ZM57.4924 206.112C57.4623 206.62 57.3681 206.838 57.195 207.004H58.5764V202.193H57.6843L57.4924 206.112Z" fill="#1A1A37"/>
<path d="M61.746 204.064H63.1914V205.02H61.746V206.985H63.5678V207.941H60.6958V201.233H63.5678V202.189H61.746V204.064Z" fill="#1A1A37"/>
<path d="M63.9214 206.992C64.3994 206.992 64.5537 206.925 64.5726 206.303L64.7457 201.237H67.7268V207.945H66.6541V202.197H65.7357L65.6227 206.251C65.5851 207.478 65.1447 207.956 64.0908 207.956H63.9289V206.992H63.9214Z" fill="#1A1A37"/>
<path d="M69.6129 207.941H68.5288V201.233H69.4698V205.479L69.8538 204.004L70.7157 201.233H71.875V207.941H70.9265V203.221L70.4936 204.869L69.6129 207.941Z" fill="#1A1A37"/>
<path d="M8.7818 217.524H7.69775V210.817H8.635V215.063L9.01893 213.587L9.8809 210.817H11.0402V217.524H10.0917V212.8L9.65882 214.449L8.7818 217.524Z" fill="#1A1A37"/>
<path d="M11.4956 216.576C11.9736 216.576 12.128 216.508 12.1468 215.887L12.3199 210.82H15.3011V217.528H14.2283V211.78H13.3099L13.197 215.834C13.1593 217.061 12.7189 217.539 11.665 217.539H11.5031V216.576H11.4956Z" fill="#1A1A37"/>
<path d="M17.1871 217.524H16.103V210.817H17.044V215.063L17.428 213.587L18.2899 210.817H19.4493V217.524H18.5007V212.8L18.0679 214.449L17.1871 217.524Z" fill="#1A1A37"/>
<path d="M23.7101 212.465C23.7101 211.863 23.4994 211.697 23.1644 211.697C22.8294 211.697 22.6073 211.878 22.6073 212.36V212.906H21.6399V212.409C21.6399 211.336 22.1594 210.741 23.1907 210.741C24.2258 210.741 24.7603 211.355 24.7603 212.427V212.601C24.7603 213.32 24.5307 213.771 24.0226 213.982C24.5495 214.212 24.7603 214.709 24.7603 215.39V215.917C24.7603 216.99 24.2221 217.603 23.1907 217.603C22.1556 217.603 21.6211 216.99 21.6211 215.917V215.179H22.6186V215.985C22.6186 216.463 22.8294 216.647 23.1644 216.647C23.4994 216.647 23.7101 216.485 23.7101 215.89V215.363C23.7101 214.742 23.4994 214.509 23.0213 214.509H22.7616V213.553H23.0778C23.4692 213.553 23.7101 213.38 23.7101 212.845V212.465Z" fill="#1A1A37"/>
<path d="M26.529 217.524H25.4751V210.817H26.529V213.692H27.726V210.817H28.7988V217.524H27.726V214.649H26.529V217.524Z" fill="#1A1A37"/>
<path d="M32.9734 217.524H31.9082L31.7275 216.309H30.4327L30.252 217.524H29.2847L30.3574 210.817H31.9007L32.9734 217.524ZM30.572 215.398H31.5883L31.0801 212.006L30.572 215.398Z" fill="#1A1A37"/>
<path d="M34.5168 213.643H35.9622V214.599H34.5168V216.564H36.3386V217.52H33.4629V210.813H36.3386V211.769H34.5168V213.643Z" fill="#1A1A37"/>
<path d="M36.6849 210.817H39.9408V211.773H38.838V217.521H37.784V211.773H36.6812V210.817H36.6849Z" fill="#1A1A37"/>
<path d="M41.454 213.643H42.8994V214.599H41.454V216.564H43.2758V217.52H40.4038V210.813H43.2758V211.769H41.454V213.643Z" fill="#1A1A37"/>
<path d="M45.3271 212.427C45.3271 211.355 45.8918 210.741 46.9269 210.741C47.962 210.741 48.5266 211.355 48.5266 212.427V215.913C48.5266 216.986 47.962 217.599 46.9269 217.599C45.8918 217.599 45.3271 216.986 45.3271 215.913V212.427ZM46.3811 215.981C46.3811 216.459 46.5919 216.643 46.9269 216.643C47.2619 216.643 47.4727 216.463 47.4727 215.981V212.36C47.4727 211.882 47.2619 211.697 46.9269 211.697C46.5919 211.697 46.3811 211.878 46.3811 212.36V215.981Z" fill="#1A1A37"/>
<path d="M51.7445 213.643H53.1899V214.599H51.7445V216.564H53.5663V217.52H50.6943V210.813H53.5663V211.769H51.7445V213.643Z" fill="#1A1A37"/>
<path d="M54.2251 217.524V210.817H57.003V211.773H55.279V217.521H54.2251V217.524Z" fill="#1A1A37"/>
<path d="M57.6279 212.427C57.6279 211.355 58.1925 210.741 59.2276 210.741C60.2628 210.741 60.8274 211.355 60.8274 212.427V215.913C60.8274 216.986 60.2628 217.599 59.2276 217.599C58.1925 217.599 57.6279 216.986 57.6279 215.913V212.427ZM58.6819 215.981C58.6819 216.459 58.8926 216.643 59.2276 216.643C59.5626 216.643 59.7734 216.463 59.7734 215.981V212.36C59.7734 211.882 59.5626 211.697 59.2276 211.697C58.8926 211.697 58.6819 211.878 58.6819 212.36V215.981Z" fill="#1A1A37"/>
<path d="M65.2238 215.578L65.9428 210.817H67.407V217.524H66.4095V212.714L65.6831 217.524H64.6856L63.8989 212.782V217.524H62.9805V210.817H64.4447L65.2238 215.578Z" fill="#1A1A37"/>
<path d="M69.2289 213.643H70.6743V214.599H69.2289V216.564H71.0507V217.52H68.1787V210.813H71.0507V211.769H69.2289V213.643Z" fill="#1A1A37"/>
<path d="M74.7579 215.025V215.917C74.7579 216.99 74.2234 217.603 73.1883 217.603C72.1531 217.603 71.6187 216.99 71.6187 215.917V212.431C71.6187 211.359 72.1531 210.745 73.1883 210.745C74.2234 210.745 74.7579 211.359 74.7579 212.431V213.082H73.7604V212.364C73.7604 211.885 73.5496 211.701 73.2146 211.701C72.8796 211.701 72.6688 211.882 72.6688 212.364V215.985C72.6688 216.463 72.8796 216.636 73.2146 216.636C73.5496 216.636 73.7604 216.463 73.7604 215.985V215.028H74.7579V215.025Z" fill="#1A1A37"/>
<path d="M75.0931 210.817H78.349V211.773H77.2462V217.521H76.1922V211.773H75.0894V210.817H75.0931Z" fill="#1A1A37"/>
<path d="M78.7256 212.427C78.7256 211.355 79.2902 210.741 80.3253 210.741C81.3604 210.741 81.925 211.355 81.925 212.427V215.913C81.925 216.986 81.3604 217.599 80.3253 217.599C79.2902 217.599 78.7256 216.986 78.7256 215.913V212.427ZM79.7795 215.981C79.7795 216.459 79.9903 216.643 80.3253 216.643C80.6603 216.643 80.8711 216.463 80.8711 215.981V212.36C80.8711 211.882 80.6603 211.697 80.3253 211.697C79.9903 211.697 79.7795 211.878 79.7795 212.36V215.981Z" fill="#1A1A37"/>
<path d="M83.6599 217.524H82.606V210.817H85.9296V217.524H84.8569V211.777H83.6599V217.524Z" fill="#1A1A37"/>
<path d="M86.6108 212.427C86.6108 211.355 87.1754 210.741 88.2106 210.741C89.2457 210.741 89.8103 211.355 89.8103 212.427V215.913C89.8103 216.986 89.2457 217.599 88.2106 217.599C87.1754 217.599 86.6108 216.986 86.6108 215.913V212.427ZM87.6648 215.981C87.6648 216.459 87.8756 216.643 88.2106 216.643C88.5456 216.643 88.7563 216.463 88.7563 215.981V212.36C88.7563 211.882 88.5456 211.697 88.2106 211.697C87.8756 211.697 87.6648 211.878 87.6648 212.36V215.981Z" fill="#1A1A37"/>
<path d="M90.1943 216.576C90.6724 216.576 90.8267 216.508 90.8455 215.887L91.0187 210.82H93.9998V217.528H92.927V211.78H92.0086L91.8957 215.834C91.858 217.061 91.4177 217.539 90.3637 217.539H90.2019V216.576H90.1943Z" fill="#1A1A37"/>
<path d="M94.7148 212.427C94.7148 211.355 95.2795 210.741 96.3146 210.741C97.3497 210.741 97.9143 211.355 97.9143 212.427V215.913C97.9143 216.986 97.3497 217.599 96.3146 217.599C95.2795 217.599 94.7148 216.986 94.7148 215.913V212.427ZM95.7688 215.981C95.7688 216.459 95.9796 216.643 96.3146 216.643C96.6496 216.643 96.8603 216.463 96.8603 215.981V212.36C96.8603 211.882 96.6496 211.697 96.3146 211.697C95.9796 211.697 95.7688 211.878 95.7688 212.36V215.981Z" fill="#1A1A37"/>
<path d="M101.633 213.53L102.879 210.82H103.933L102.638 213.542L103.933 217.528H102.849L101.893 214.558L101.633 215.066V217.528H100.591V215.066L100.331 214.55L99.3712 217.524H98.2871L99.5895 213.568L98.2871 210.82H99.341L100.587 213.53V210.82H101.63V213.53H101.633Z" fill="#1A1A37"/>
<path d="M105.435 213.643H106.88V214.599H105.435V216.564H107.257V217.52H104.385V210.813H107.257V211.769H105.435V213.643Z" fill="#1A1A37"/>
<path d="M108.962 217.524H107.908V210.817H108.962V213.692H110.159V210.817H111.231V217.524H110.159V214.649H108.962V217.524Z" fill="#1A1A37"/>
<path d="M113.084 217.524H112V210.817H112.937V215.063L113.321 213.587L114.183 210.817H115.342V217.524H114.393V212.8L113.961 214.449L113.084 217.524Z" fill="#1A1A37"/>
<path d="M117.175 217.524H116.091V210.817H117.032V215.063L117.416 213.587L118.278 210.817H119.438V217.524H118.489V212.8L118.056 214.449L117.175 217.524Z" fill="#1A1A37"/>
<path d="M121.621 213.692H123.537V214.648H121.621V213.692Z" fill="#1A1A37"/>
<path d="M127.771 212.465C127.771 211.863 127.56 211.697 127.225 211.697C126.89 211.697 126.668 211.878 126.668 212.36V212.906H125.701V212.409C125.701 211.336 126.22 210.741 127.252 210.741C128.287 210.741 128.821 211.355 128.821 212.427V212.601C128.821 213.32 128.592 213.771 128.084 213.982C128.611 214.212 128.821 214.709 128.821 215.39V215.917C128.821 216.99 128.283 217.603 127.252 217.603C126.217 217.603 125.682 216.99 125.682 215.917V215.179H126.68V215.985C126.68 216.463 126.89 216.647 127.225 216.647C127.56 216.647 127.771 216.485 127.771 215.89V215.363C127.771 214.742 127.56 214.509 127.082 214.509H126.823V213.553H127.139C127.53 213.553 127.771 213.38 127.771 212.845V212.465Z" fill="#1A1A37"/>
<path d="M132.687 212.36V212.601C132.687 213.29 132.476 213.73 132.005 213.952C132.57 214.171 132.792 214.679 132.792 215.39V215.936C132.792 216.971 132.246 217.524 131.192 217.524H129.536V210.817H131.125C132.216 210.817 132.687 211.325 132.687 212.36ZM130.586 211.777V213.549H130.997C131.388 213.549 131.629 213.376 131.629 212.842V212.469C131.629 211.991 131.467 211.78 131.094 211.78H130.586V211.777ZM130.586 214.506V216.564H131.189C131.542 216.564 131.734 216.403 131.734 215.902V215.319C131.734 214.697 131.535 214.506 131.053 214.506H130.586Z" fill="#1A1A37"/>
<path d="M133.338 212.427C133.338 211.355 133.902 210.741 134.938 210.741C135.973 210.741 136.537 211.355 136.537 212.427V215.913C136.537 216.986 135.973 217.599 134.938 217.599C133.902 217.599 133.338 216.986 133.338 215.913V212.427ZM134.392 215.981C134.392 216.459 134.603 216.643 134.938 216.643C135.273 216.643 135.483 216.463 135.483 215.981V212.36C135.483 211.882 135.273 211.697 134.938 211.697C134.603 211.697 134.392 211.878 134.392 212.36V215.981Z" fill="#1A1A37"/>
<path d="M138.273 217.524H137.219V210.817H138.273V213.692H139.47V210.817H140.542V217.524H139.47V214.649H138.273V217.524Z" fill="#1A1A37"/>
<path d="M142.39 217.524H141.306V210.817H142.243V215.063L142.627 213.587L143.489 210.817H144.649V217.524H143.7V212.8L143.267 214.449L142.39 217.524Z" fill="#1A1A37"/>
<path d="M145.093 210.817H148.349V211.773H147.246V217.521H146.192V211.773H145.089V210.817H145.093Z" fill="#1A1A37"/>
<path d="M149.865 213.643H151.311V214.599H149.865V216.564H151.687V217.52H148.812V210.813H151.687V211.769H149.865V213.643Z" fill="#1A1A37"/>
<path d="M154.876 217.524H153.822V210.817H157.145V217.524H156.073V211.777H154.876V217.524Z" fill="#1A1A37"/>
<path d="M157.827 212.427C157.827 211.355 158.391 210.741 159.426 210.741C160.461 210.741 161.026 211.355 161.026 212.427V215.913C161.026 216.986 160.461 217.599 159.426 217.599C158.391 217.599 157.827 216.986 157.827 215.913V212.427ZM158.881 215.981C158.881 216.459 159.091 216.643 159.426 216.643C159.761 216.643 159.972 216.463 159.972 215.981V212.36C159.972 211.882 159.761 211.697 159.426 211.697C159.091 211.697 158.881 211.878 158.881 212.36V215.981Z" fill="#1A1A37"/>
<path d="M164.245 217.524H163.191V210.817H164.245V213.692H165.442V210.817H166.515V217.524H165.442V214.649H164.245V217.524Z" fill="#1A1A37"/>
<path d="M167.196 212.427C167.196 211.355 167.76 210.741 168.796 210.741C169.831 210.741 170.395 211.355 170.395 212.427V215.913C170.395 216.986 169.831 217.599 168.796 217.599C167.76 217.599 167.196 216.986 167.196 215.913V212.427ZM168.25 215.981C168.25 216.459 168.461 216.643 168.796 216.643C169.131 216.643 169.341 216.463 169.341 215.981V212.36C169.341 211.882 169.131 211.697 168.796 211.697C168.461 211.697 168.25 211.878 168.25 212.36V215.981Z" fill="#1A1A37"/>
<path d="M173.308 215.578L174.027 210.817H175.491V217.524H174.494V212.714L173.768 217.524H172.77L171.983 212.782V217.524H171.065V210.817H172.529L173.308 215.578Z" fill="#1A1A37"/>
<path d="M177.313 213.643H178.759V214.599H177.313V216.564H179.135V217.52H176.259V210.813H179.135V211.769H177.313V213.643Z" fill="#1A1A37"/>
<path d="M182.91 212.477V213.35C182.91 214.423 182.395 215.006 181.341 215.006H180.844V217.524H179.79V210.817H181.341C182.391 210.817 182.91 211.4 182.91 212.477ZM180.84 211.777V214.046H181.337C181.672 214.046 181.853 213.892 181.853 213.414V212.409C181.853 211.931 181.672 211.777 181.337 211.777H180.84Z" fill="#1A1A37"/>
<path d="M185.737 215.819C185.489 217.027 185.075 217.629 183.61 217.535V216.598C184.145 216.636 184.454 216.542 184.54 216.052L184.551 215.996L183.095 210.824H184.137L184.713 213.113L185.041 214.682L185.289 213.12L185.767 210.82H186.87L185.737 215.819Z" fill="#1A1A37"/>
<path d="M208.536 213.662C208.536 217.607 206.733 219.745 202.923 219.745C199.314 219.745 197.443 217.607 197.443 213.866V213.263H200.917V214.099C200.917 215.77 201.651 216.406 202.822 216.406C204.124 216.406 204.862 215.77 204.862 213.534V209.258C204.226 210.595 203.089 211.329 201.455 211.329C198.749 211.329 197.379 209.424 197.379 205.984V201.708C197.379 197.966 199.351 195.828 202.961 195.828C206.571 195.828 208.543 197.966 208.543 201.708V213.662H208.536ZM204.858 205.679V201.467C204.858 199.796 204.124 199.193 202.953 199.193C201.783 199.193 201.049 199.796 201.049 201.467V205.679C201.049 207.35 201.783 207.982 202.953 207.982C204.124 207.982 204.858 207.346 204.858 205.679Z" fill="#1A1A37"/>
<path d="M213.248 199.028C216.09 199.028 216.722 197.658 217.29 196.088H219.763V219.478H216.086V201.632H213.244V199.028H213.248Z" fill="#1A1A37"/>
<path d="M226.479 199.028C229.321 199.028 229.953 197.658 230.521 196.088H232.994V219.478H229.317V201.632H226.475V199.028H226.479Z" fill="#1A1A37"/>
<path d="M237.274 206.112H243.955V209.454H237.274V206.112Z" fill="#1A1A37"/>
<path d="M251.841 199.159C250.67 199.159 249.936 199.796 249.936 201.467V203.974H246.462V201.7C246.462 197.959 248.333 195.821 251.942 195.821C255.552 195.821 257.423 197.959 257.423 201.7C257.423 209.051 250.106 211.792 250.106 215.635C250.106 215.8 250.105 215.97 250.139 216.135H257.088V219.478H246.462V216.606C246.462 209.721 253.745 208.585 253.745 201.836C253.745 199.728 253.011 199.159 251.841 199.159Z" fill="#1A1A37"/>
<path d="M259.395 201.7C259.395 197.959 261.367 195.821 264.977 195.821C268.587 195.821 270.559 197.959 270.559 201.7V213.862C270.559 217.603 268.587 219.741 264.977 219.741C261.367 219.741 259.395 217.603 259.395 213.862V201.7ZM263.069 214.099C263.069 215.77 263.803 216.406 264.973 216.406C266.144 216.406 266.878 215.77 266.878 214.099V201.467C266.878 199.796 266.144 199.159 264.973 199.159C263.803 199.159 263.069 199.796 263.069 201.467V214.099Z" fill="#1A1A37"/>
<path d="M278.306 199.159C277.135 199.159 276.401 199.796 276.401 201.467V203.974H272.927V201.7C272.927 197.959 274.797 195.821 278.407 195.821C282.017 195.821 283.888 197.959 283.888 201.7C283.888 209.051 276.57 211.792 276.57 215.635C276.57 215.8 276.57 215.97 276.604 216.135H283.553V219.478H272.927V216.606C272.927 209.721 280.21 208.585 280.21 201.836C280.21 199.728 279.476 199.159 278.306 199.159Z" fill="#1A1A37"/>
</g>
<defs>
<clipPath id="clip0_89:532">
<rect width="297.537" height="226.419" fill="white"/>
</clipPath>
</defs>
</svg>
