<svg width="300" height="228" viewBox="0 0 300 228" fill="none" xmlns="http://www.w3.org/2000/svg">
<g clip-path="url(#clip0_89:308)">
<path d="M299.034 0H0V227.558H299.034V0Z" fill="#1A1A37"/>
<path d="M0 129.042H2.2698" stroke="#BBC3C3" stroke-width="1.8915" stroke-miterlimit="10"/>
<path d="M6.79443 129.042H294.117" stroke="#BBC3C3" stroke-width="1.8915" stroke-miterlimit="10" stroke-dasharray="4.52 4.52"/>
<path d="M296.379 129.042H298.649" stroke="#BBC3C3" stroke-width="1.8915" stroke-miterlimit="10"/>
<path d="M55.644 128.478V226.609" stroke="#BBC3C3" stroke-width="1.8915" stroke-miterlimit="10" stroke-dasharray="4.54 4.54"/>
<path d="M117.651 128.478V226.609" stroke="#BBC3C3" stroke-width="1.8915" stroke-miterlimit="10" stroke-dasharray="4.54 4.54"/>
<path d="M180.793 128.478V226.609" stroke="#BBC3C3" stroke-width="1.8915" stroke-miterlimit="10" stroke-dasharray="4.54 4.54"/>
<path d="M244.695 128.478V226.609" stroke="#BBC3C3" stroke-width="1.8915" stroke-miterlimit="10" stroke-dasharray="4.54 4.54"/>
<path d="M15.2152 32.2463L14.3981 33.786V38.9611H11.75V22.1117H14.3981V29.4507L17.8633 22.1117H20.5114L16.8268 29.6209L20.5076 38.9574H17.7877L15.2152 32.2463Z" fill="white"/>
<path d="M27.5858 34.675C26.9616 37.709 25.9251 39.2222 22.2442 38.9838V36.627C23.591 36.7216 24.3627 36.4833 24.5783 35.2538L24.601 35.1101L20.9429 22.1155H23.5645L25.0096 27.8656L25.8267 31.8113L26.4509 27.8883L27.6539 22.1117H30.4231L27.5858 34.675Z" fill="white"/>
<path d="M34.1754 38.9574H31.5273V22.1117H39.8764V38.9574H37.1867V24.5215H34.1792V38.9574H34.1754Z" fill="white"/>
<path d="M41.0571 36.5779C42.2601 36.5779 42.646 36.4076 42.6952 34.8452L43.1264 22.1117H50.6092V38.9574H47.9157V24.5215H45.6043L45.3168 34.7015C45.2222 37.7809 44.1138 38.9838 41.4657 38.9838H41.0571V36.5779Z" fill="white"/>
<path d="M57.2517 31.7394H55.277V38.9573H52.6289V22.1116H55.277V29.3296H57.2517V26.1519C57.2517 23.4584 58.6704 21.9149 61.2693 21.9149C63.8682 21.9149 65.2868 23.4546 65.2868 26.1519V34.9171C65.2868 37.6106 63.8682 39.154 61.2693 39.154C58.6704 39.154 57.2517 37.6143 57.2517 34.9171V31.7394ZM59.8998 35.0835C59.8998 36.2865 60.4294 36.7442 61.273 36.7442C62.1167 36.7442 62.6463 36.2865 62.6463 35.0835V25.9892C62.6463 24.7862 62.1167 24.3285 61.273 24.3285C60.4294 24.3285 59.8998 24.7862 59.8998 25.9892V35.0835Z" fill="white"/>
<path d="M73.424 38.9574H70.7759V22.1117H73.424V29.3296H76.4315V22.1117H79.1249V38.9574H76.4315V31.7394H73.424V38.9574Z" fill="#BBC3C3"/>
<path d="M89.619 38.9574H86.9482L86.4905 35.9007H83.2409L82.7832 38.9574H80.3545L83.048 22.1117H86.9218L89.619 38.9574ZM83.5776 33.6158H86.1273L84.8525 25.0965L83.5776 33.6158Z" fill="#BBC3C3"/>
<path d="M98.5202 32.6775V34.9171C98.5202 37.6106 97.1735 39.154 94.5746 39.154C91.9756 39.154 90.6289 37.6143 90.6289 34.9171V26.1557C90.6289 23.4622 91.9756 21.9187 94.5746 21.9187C97.1735 21.9187 98.5202 23.4584 98.5202 26.1557V27.7937H96.0159V25.9892C96.0159 24.7862 95.4863 24.3285 94.6427 24.3285C93.799 24.3285 93.2694 24.7862 93.2694 25.9892V35.0873C93.2694 36.2903 93.799 36.7253 94.6427 36.7253C95.4863 36.7253 96.0159 36.2903 96.0159 35.0873V32.6813H98.5202V32.6775Z" fill="#BBC3C3"/>
<path d="M99.3602 22.1117H107.543V24.5177H104.774V38.9574H102.126V24.5215H99.3564V22.1117H99.3602Z" fill="#BBC3C3"/>
<path d="M108.481 26.1557C108.481 23.4622 109.9 21.9187 112.498 21.9187C115.097 21.9187 116.516 23.4584 116.516 26.1557V34.9171C116.516 37.6106 115.097 39.154 112.498 39.154C109.9 39.154 108.481 37.6143 108.481 34.9171V26.1557ZM111.129 35.0835C111.129 36.2865 111.659 36.7442 112.502 36.7442C113.346 36.7442 113.875 36.2865 113.875 35.0835V25.9892C113.875 24.7862 113.346 24.3285 112.502 24.3285C111.659 24.3285 111.129 24.7862 111.129 25.9892V35.0835Z" fill="#BBC3C3"/>
<path d="M117.746 38.9574C118.01 38.3332 118.033 37.7317 118.033 36.9108V34.3118C118.033 32.5565 118.468 31.2779 119.788 30.7256C118.608 30.1733 118.056 29.0421 118.056 27.3095V25.9855C118.056 23.3866 119.236 22.1117 121.979 22.1117H125.974V38.9574H123.326V32.0988H122.41C121.207 32.0988 120.677 32.6776 120.677 34.24V36.8881C120.677 38.2613 120.583 38.5261 120.435 38.9574H117.746ZM122.054 24.5215C121.116 24.5215 120.708 25.0511 120.708 26.2541V27.9148C120.708 29.2616 121.309 29.6966 122.297 29.6966H123.333V24.5215H122.054Z" fill="#BBC3C3"/>
<path d="M140.414 36.6006H141.594V41.2196H139.018V38.9574H127.899V22.1117H130.548V36.5514H132.832V22.1117H135.481V36.5514H137.765V22.1117H140.414V36.6006Z" fill="#BBC3C3"/>
<path d="M145.755 38.9574H143.035V22.1117H145.391V32.7722L146.352 29.0648L148.52 22.1117H151.433V38.9574H149.05V27.0939L147.968 31.2325L145.755 38.9574Z" fill="#BBC3C3"/>
<path d="M162.143 22.1117L159.374 30.2943L162.332 38.9574H159.54L157.372 32.2917L155.182 38.9574H152.704L155.662 30.2943L152.893 22.1117H155.636L157.633 28.3196L159.68 22.1117H162.143Z" fill="#BBC3C3"/>
<path d="M19.3802 52.9847L22.5087 46.1753H25.1568L21.9072 53.0112L25.1568 63.021H22.4368L20.0309 55.5609L19.3802 56.8358V63.021H16.7586V56.8358L16.1079 55.5344L13.7019 63.0172H10.9819L14.2542 53.0793L10.9819 46.1715H13.63L16.7586 52.9809V46.1715H19.3802V52.9847Z" fill="white"/>
<path d="M29.0041 63.0208H26.2842V46.1752H28.641V56.8356L29.6019 53.1283L31.7695 46.1752H34.6824V63.0208H32.2991V51.1574L31.2172 55.296L29.0041 63.0208Z" fill="white"/>
<path d="M44.4764 50.049V50.6505C44.4764 52.3831 43.9468 53.4915 42.7665 54.0438C44.1851 54.5961 44.7412 55.871 44.7412 57.6528V59.026C44.7412 61.6249 43.368 63.0208 40.7237 63.0208H36.5586V46.1752H40.5534C43.2961 46.1752 44.4764 47.45 44.4764 50.049ZM39.2067 48.5812V53.0337H40.2432C41.2306 53.0337 41.8321 52.5987 41.8321 51.2519V50.3138C41.8321 49.1108 41.4235 48.5812 40.4853 48.5812H39.2067ZM39.2067 55.4397V60.6149H40.7237C41.6127 60.6149 42.0969 60.2063 42.0969 58.9541V57.4863C42.0969 55.9239 41.59 55.4397 40.387 55.4397H39.2067Z" fill="white"/>
<path d="M46.1108 50.2194C46.1108 47.5259 47.5295 45.9824 50.1284 45.9824C52.7273 45.9824 54.1459 47.5221 54.1459 50.2194V58.9808C54.1459 61.6743 52.7273 63.2177 50.1284 63.2177C47.5295 63.2177 46.1108 61.6781 46.1108 58.9808V50.2194ZM48.7589 59.1472C48.7589 60.3502 49.2886 60.808 50.1322 60.808C50.9758 60.808 51.5054 60.3502 51.5054 59.1472V50.0491C51.5054 48.8461 50.9758 48.3884 50.1322 48.3884C49.2886 48.3884 48.7589 48.8461 48.7589 50.0491V59.1472Z" fill="white"/>
<path d="M55.0878 46.1752H63.2704V48.5812H60.5012V63.0208H57.8531V48.5812H55.084V46.1752H55.0878Z" fill="white"/>
<path d="M67.0685 63.0208H64.4204V46.1752H67.0685V53.3931H70.076V46.1752H72.7695V63.0208H70.076V55.8029H67.0685V63.0208Z" fill="white"/>
<path d="M74.6987 63.0208V46.1752H77.3468V52.5041H78.599C81.2471 52.5041 82.5447 53.9719 82.5447 56.6654V58.8558C82.5447 61.5493 81.2433 63.0171 78.599 63.0171H74.6987V63.0208ZM78.5952 60.6149C79.4388 60.6149 79.8966 60.229 79.8966 59.026V56.499C79.8966 55.296 79.4388 54.9101 78.5952 54.9101H77.343V60.6149H78.5952ZM84.0579 63.0208V46.1752H86.7059V63.0208H84.0579Z" fill="white"/>
<path d="M97.461 46.1752L94.6919 54.3578L97.6502 63.0208H94.8583L92.6907 56.3552L90.5003 63.0208H88.0225L90.9808 54.3578L88.2116 46.1752H90.9543L92.9517 52.3831L94.9983 46.1752H97.461Z" fill="white"/>
<path d="M102.587 53.397H107.399V55.803H102.587V53.397Z" fill="white"/>
<path d="M120.587 65.2831V63.0208H114.931V65.2831H112.355V60.664H113.392C113.849 60.0852 113.993 59.461 114.042 58.4737L114.644 46.1752H122.055V60.6603H123.208V65.2793H120.587V65.2831ZM116.637 58.4245C116.565 59.6994 116.323 60.2517 115.892 60.664H119.357V48.5849H117.118L116.637 58.4245Z" fill="white"/>
<path d="M124.457 50.2194C124.457 47.5259 125.875 45.9824 128.474 45.9824C131.073 45.9824 132.492 47.5221 132.492 50.2194V58.9808C132.492 61.6743 131.073 63.2177 128.474 63.2177C125.875 63.2177 124.457 61.6781 124.457 58.9808V50.2194ZM127.105 59.1472C127.105 60.3502 127.634 60.808 128.478 60.808C129.321 60.808 129.851 60.3502 129.851 59.1472V50.0491C129.851 48.8461 129.321 48.3884 128.478 48.3884C127.634 48.3884 127.105 48.8461 127.105 50.0491V59.1472Z" fill="white"/>
<path d="M142.048 50.3403V52.5306C142.048 55.2241 140.746 56.6919 138.102 56.6919H136.85V63.0208H134.202V46.1752H138.102C140.75 46.1752 142.048 47.643 142.048 50.3403ZM136.85 48.5812V54.2859H138.102C138.946 54.2859 139.403 53.9 139.403 52.6971V50.17C139.403 48.967 138.946 48.5812 138.102 48.5812H136.85Z" fill="white"/>
<path d="M143.058 50.2194C143.058 47.5259 144.476 45.9824 147.075 45.9824C149.674 45.9824 151.093 47.5221 151.093 50.2194V58.9808C151.093 61.6743 149.674 63.2177 147.075 63.2177C144.476 63.2177 143.058 61.6781 143.058 58.9808V50.2194ZM145.706 59.1472C145.706 60.3502 146.235 60.808 147.079 60.808C147.923 60.808 148.452 60.3502 148.452 59.1472V50.0491C148.452 48.8461 147.923 48.3884 147.079 48.3884C146.235 48.3884 145.706 48.8461 145.706 50.0491V59.1472Z" fill="white"/>
<path d="M152.829 63.0208V46.1752H159.809V48.5812H155.477V63.0208H152.829Z" fill="white"/>
<path d="M161.371 50.2194C161.371 47.5259 162.79 45.9824 165.389 45.9824C167.988 45.9824 169.406 47.5221 169.406 50.2194V58.9808C169.406 61.6743 167.988 63.2177 165.389 63.2177C162.79 63.2177 161.371 61.6781 161.371 58.9808V50.2194ZM164.019 59.1472C164.019 60.3502 164.549 60.808 165.392 60.808C166.236 60.808 166.766 60.3502 166.766 59.1472V50.0491C166.766 48.8461 166.236 48.3884 165.392 48.3884C164.549 48.3884 164.019 48.8461 164.019 50.0491V59.1472Z" fill="white"/>
<path d="M175.183 59.2908L174.846 53.204V46.1752H177.494V53.204L177.158 59.2908H175.183ZM177.445 60.4711V63.0208H174.895V60.4711H177.445Z" fill="white"/>
<path d="M15.9719 96.716V97.0148C15.9719 97.8773 15.7071 98.4259 15.1245 98.702C15.8282 98.9782 16.1043 99.6099 16.1043 100.495V101.176C16.1043 102.466 15.4234 103.162 14.1069 103.162H12.0376V94.7942H14.0237C15.3855 94.7942 15.9719 95.4259 15.9719 96.716ZM13.3541 95.9896V98.2027H13.8686C14.3604 98.2027 14.6592 97.987 14.6592 97.3174V96.8521C14.6592 96.2544 14.4549 95.9896 13.9896 95.9896H13.3541ZM13.3541 99.3943V101.963H14.1069C14.5495 101.963 14.7878 101.759 14.7878 101.138V100.408C14.7878 99.6326 14.5382 99.3905 13.9404 99.3905H13.3541V99.3943Z" fill="#BBC3C3"/>
<path d="M20.0616 103.162H18.7451V94.7942H22.8951V103.162H21.5559V95.9896H20.0616V103.162Z" fill="#BBC3C3"/>
<path d="M27.7446 96.8597V97.9492C27.7446 99.2884 27.0977 100.019 25.785 100.019H25.1646V103.162H23.8481V94.7942H25.785C27.1015 94.7942 27.7446 95.5205 27.7446 96.8597ZM25.1646 95.9896V98.8231H25.785C26.205 98.8231 26.4319 98.6301 26.4319 98.0324V96.7765C26.4319 96.1788 26.205 95.9858 25.785 95.9858H25.1646V95.9896Z" fill="#BBC3C3"/>
<path d="M29.7045 103.162H28.354V94.7942H29.5267V100.09L30.0034 98.2481L31.0778 94.7942H32.5229V103.162H31.3388V97.2683L30.8016 99.3262L29.7045 103.162Z" fill="#BBC3C3"/>
<path d="M33.3511 96.8029C33.3511 95.4637 34.0547 94.6996 35.3485 94.6996C36.6385 94.6996 37.3459 95.4637 37.3459 96.8029V101.153C37.3459 102.493 36.6423 103.257 35.3485 103.257C34.0585 103.257 33.3511 102.493 33.3511 101.153V96.8029ZM34.6638 101.237C34.6638 101.834 34.9286 102.061 35.3447 102.061C35.7608 102.061 36.0257 101.834 36.0257 101.237V96.7159C36.0257 96.1182 35.7608 95.8912 35.3447 95.8912C34.9286 95.8912 34.6638 96.1182 34.6638 96.7159V101.237Z" fill="#BBC3C3"/>
<path d="M42.0898 96.8597V97.9492C42.0898 99.2884 41.443 100.019 40.1303 100.019H39.5098V103.162H38.1934V94.7942H40.1303C41.443 94.7942 42.0898 95.5205 42.0898 96.8597ZM39.5061 95.9896V98.8231H40.1265C40.5464 98.8231 40.7734 98.6301 40.7734 98.0324V96.7765C40.7734 96.1788 40.5464 95.9858 40.1265 95.9858H39.5061V95.9896Z" fill="#BBC3C3"/>
<path d="M44.0493 103.162H42.6987V94.7942H43.8715V100.09L44.3481 98.2481L45.4225 94.7942H46.8676V103.162H45.6835V97.2683L45.1463 99.3262L44.0493 103.162Z" fill="#BBC3C3"/>
<path d="M47.4199 94.7942H51.4829V95.9896H50.1096V103.162H48.7931V95.9896H47.4199V94.7942Z" fill="#BBC3C3"/>
<path d="M53.3702 98.3199H55.1747V99.5154H53.3702V101.967H55.64V103.162H52.0537V94.7942H55.64V95.9896H53.3702V98.3199Z" fill="#BBC3C3"/>
<path d="M56.0718 94.7942H60.1347V95.9896H58.7615V103.162H57.445V95.9896H56.0718V94.7942Z" fill="#BBC3C3"/>
<path d="M62.026 98.3199H63.8304V99.5154H62.026V101.967H64.2958V103.162H60.7095V94.7942H64.2958V95.9896H62.026V98.3199Z" fill="#BBC3C3"/>
<path d="M69.4938 96.8483C69.4938 96.0955 69.229 95.8912 68.8129 95.8912C68.3967 95.8912 68.1206 96.1182 68.1206 96.7159V97.3969H66.9138V96.7764C66.9138 95.4373 67.5607 94.6958 68.8507 94.6958C70.1407 94.6958 70.8103 95.46 70.8103 96.7991V97.0148C70.8103 97.9113 70.5228 98.475 69.891 98.736C70.5493 99.0235 70.8103 99.6439 70.8103 100.495V101.153C70.8103 102.493 70.1407 103.257 68.8507 103.257C67.5607 103.257 66.8911 102.493 66.8911 101.153V100.234H68.1357V101.237C68.1357 101.834 68.4005 102.061 68.8167 102.061C69.2328 102.061 69.4976 101.857 69.4976 101.116V100.457C69.4976 99.6818 69.2328 99.3943 68.6351 99.3943H68.3135V98.1988H68.7069C69.1987 98.1988 69.4976 97.9832 69.4976 97.3136V96.8483H69.4938Z" fill="#BBC3C3"/>
<path d="M74.4796 100.733L75.3762 94.7904H77.2033V103.158H75.9587V97.1586L75.0508 103.158H73.8062L72.8264 97.2418V103.158H71.6802V94.7904H73.5074L74.4796 100.733Z" fill="#BBC3C3"/>
<path d="M79.4771 98.3199H81.2816V99.5154H79.4771V101.967H81.7469V103.162H78.1606V94.7942H81.7469V95.9896H79.4771V98.3199Z" fill="#BBC3C3"/>
<path d="M83.9106 103.162H82.5601V94.7942H83.7328V100.09L84.2094 98.2481L85.2838 94.7942H86.7289V103.162H85.5448V97.2683L85.0077 99.3262L83.9106 103.162Z" fill="#BBC3C3"/>
<path d="M90.8676 103.162H89.5171V94.7942H90.6898V100.09L91.1665 98.2481L92.2408 94.7942H93.6859V103.162H92.5019V97.2683L91.9647 99.3262L90.8676 103.162Z" fill="#BBC3C3"/>
<path d="M100.367 96.8597V97.9492C100.367 99.2884 99.7198 100.019 98.4071 100.019H97.7867V103.162H96.4702V94.7942H98.4071C99.7236 94.7942 100.367 95.5205 100.367 96.8597ZM97.7867 95.9896V98.8231H98.4071C98.827 98.8231 99.054 98.6301 99.054 98.0324V96.7765C99.054 96.1788 98.827 95.9858 98.4071 95.9858H97.7867V95.9896Z" fill="#BBC3C3"/>
<path d="M102.292 98.3199H104.097V99.5154H102.292V101.967H104.562V103.162H100.976V94.7942H104.562V95.9896H102.292V98.3199Z" fill="#BBC3C3"/>
<path d="M109.177 104.286V103.162H106.367V104.286H105.088V101.989H105.602C105.829 101.702 105.901 101.392 105.924 100.9L106.223 94.7904H109.904V101.986H110.479V104.282H109.177V104.286ZM107.218 100.877C107.184 101.509 107.063 101.785 106.847 101.989H108.568V95.9896H107.456L107.218 100.877Z" fill="#BBC3C3"/>
<path d="M112.93 99.8256L112.525 100.59V103.158H111.209V94.7904H112.525V98.4372L114.247 94.7904H115.563L113.736 98.5204L115.563 103.158H114.213L112.93 99.8256Z" fill="#BBC3C3"/>
<path d="M117.507 103.162H116.157V94.7942H117.329V100.09L117.806 98.2481L118.88 94.7942H120.326V103.162H119.142V97.2683L118.604 99.3262L117.507 103.162Z" fill="#BBC3C3"/>
<path d="M122.577 98.3199H124.381V99.5154H122.577V101.967H124.847V103.162H121.26V94.7942H124.847V95.9896H122.577V98.3199Z" fill="#BBC3C3"/>
<path d="M128.826 103.162H127.51V94.7942H131.66V103.162H130.321V95.9896H128.826V103.162Z" fill="#BBC3C3"/>
<path d="M132.235 94.7942H136.298V95.9896H134.925V103.162H133.608V95.9896H132.235V94.7942Z" fill="#BBC3C3"/>
<path d="M138.219 103.162H136.869V94.7942H138.041V100.09L138.518 98.2481L139.592 94.7942H141.038V103.162H139.853V97.2683L139.316 99.3262L138.219 103.162Z" fill="#BBC3C3"/>
<path d="M141.976 94.7942H143.293V101.967H144.787V94.7942H146.126V101.989H146.701V104.286H145.422V103.162H141.98V94.7942H141.976Z" fill="#BBC3C3"/>
<path d="M147.412 103.162V94.7942H148.729V97.9379H149.349C150.665 97.9379 151.309 98.668 151.309 100.007V101.097C151.309 102.436 150.662 103.166 149.349 103.166H147.412V103.162ZM149.349 101.967C149.769 101.967 149.996 101.774 149.996 101.176V99.9201C149.996 99.3224 149.769 99.1295 149.349 99.1295H148.729V101.963H149.349V101.967ZM152.061 103.162V94.7942H153.378V103.162H152.061Z" fill="#BBC3C3"/>
<path d="M154.331 103.162V101.895H155.598V103.03L155.023 104.357H154.486L154.834 103.162H154.331Z" fill="#BBC3C3"/>
<path d="M13.7589 111.78L13.3541 112.544V115.113H12.0376V106.745H13.3541V110.391L15.0753 106.745H16.3918L14.5646 110.475L16.3918 115.113H15.0413L13.7589 111.78Z" fill="#BBC3C3"/>
<path d="M16.8799 108.753C16.8799 107.414 17.5835 106.65 18.8773 106.65C20.1673 106.65 20.8747 107.414 20.8747 108.753V113.104C20.8747 114.443 20.1711 115.207 18.8773 115.207C17.5873 115.207 16.8799 114.443 16.8799 113.104V108.753ZM18.1964 113.187C18.1964 113.785 18.4612 114.012 18.8773 114.012C19.2934 114.012 19.5582 113.785 19.5582 113.187V108.666C19.5582 108.069 19.2934 107.842 18.8773 107.842C18.4612 107.842 18.1964 108.069 18.1964 108.666V113.187Z" fill="#BBC3C3"/>
<path d="M21.7222 115.113V106.745H23.0387V113.917H24.1735V106.745H25.49V113.917H26.6249V106.745H27.9414V115.113H21.7222Z" fill="#BBC3C3"/>
<path d="M30.2071 110.27H32.0116V111.466H30.2071V113.917H32.4769V115.113H28.8906V106.745H32.4769V107.94H30.2071V110.27Z" fill="#BBC3C3"/>
<path d="M35.0118 111.78L34.607 112.544V115.113H33.2905V106.745H34.607V110.391L36.3283 106.745H37.6448L35.8176 110.475L37.6448 115.113H36.2942L35.0118 111.78Z" fill="#BBC3C3"/>
<path d="M41.4428 115.113H40.0923V106.745H41.265V112.041L41.7417 110.198L42.816 106.745H44.2611V115.113H43.0771V109.219L42.5399 111.277L41.4428 115.113Z" fill="#BBC3C3"/>
<path d="M50.8625 111.992V113.104C50.8625 114.443 50.193 115.207 48.903 115.207C47.613 115.207 46.9434 114.443 46.9434 113.104V108.753C46.9434 107.414 47.613 106.65 48.903 106.65C50.193 106.65 50.8625 107.414 50.8625 108.753V109.567H49.6179V108.67C49.6179 108.072 49.3531 107.845 48.937 107.845C48.5209 107.845 48.2561 108.072 48.2561 108.67V113.191C48.2561 113.789 48.5209 114.004 48.937 114.004C49.3531 114.004 49.6179 113.789 49.6179 113.191V111.995H50.8625V111.992Z" fill="#BBC3C3"/>
<path d="M51.5547 108.753C51.5547 107.414 52.2583 106.65 53.5521 106.65C54.8421 106.65 55.5495 107.414 55.5495 108.753V113.104C55.5495 114.443 54.8459 115.207 53.5521 115.207C52.2621 115.207 51.5547 114.443 51.5547 113.104V108.753ZM52.8674 113.187C52.8674 113.785 53.1322 114.012 53.5483 114.012C53.9645 114.012 54.2293 113.785 54.2293 113.187V108.666C54.2293 108.069 53.9645 107.842 53.5483 107.842C53.1322 107.842 52.8674 108.069 52.8674 108.666V113.187Z" fill="#BBC3C3"/>
<path d="M56.4087 115.113V106.745H60.0895V107.94H57.7214V110.081H58.4856C59.802 110.081 60.4716 110.811 60.4716 112.151V113.047C60.4716 114.386 59.802 115.116 58.4856 115.116H56.4087V115.113ZM58.4856 113.917C58.9055 113.917 59.1551 113.724 59.1551 113.127V112.064C59.1551 111.466 58.9055 111.277 58.4856 111.277H57.7214V113.917H58.4856Z" fill="#BBC3C3"/>
<path d="M65.6122 115.113H64.2844L64.0574 113.596H62.4421L62.2151 115.113H61.0083L62.3475 106.745H64.273L65.6122 115.113ZM62.6085 112.461H63.8758L63.244 108.228L62.6085 112.461Z" fill="#BBC3C3"/>
<path d="M67.9429 111.78L67.5382 112.544V115.113H66.2217V106.745H67.5382V110.391L69.2594 106.745H70.5759L68.7487 110.475L70.5759 115.113H69.2254L67.9429 111.78Z" fill="#BBC3C3"/>
<path d="M74.336 115.113H73.0195V106.745H74.336V110.331H75.8303V106.745H77.1695V115.113H75.8303V111.526H74.336V115.113Z" fill="#BBC3C3"/>
<path d="M79.439 110.27H81.2435V111.466H79.439V113.917H81.7088V115.113H78.1226V106.745H81.7088V107.94H79.439V110.27Z" fill="#BBC3C3"/>
<path d="M85.6886 115.113H84.3721V106.745H88.522V115.113H87.1828V107.94H85.6886V115.113Z" fill="#BBC3C3"/>
<path d="M93.3755 108.814V109.903C93.3755 111.243 92.7286 111.973 91.4159 111.973H90.7955V115.116H89.479V106.748H91.4159C92.7286 106.745 93.3755 107.475 93.3755 108.814ZM90.7955 107.94V110.774H91.4159C91.8358 110.774 92.0628 110.581 92.0628 109.983V108.727C92.0628 108.129 91.8358 107.936 91.4159 107.936H90.7955V107.94Z" fill="#BBC3C3"/>
<path d="M95.3013 110.27H97.1058V111.466H95.3013V113.917H97.5711V115.113H93.9849V106.745H97.5711V107.94H95.3013V110.27Z" fill="#BBC3C3"/>
<path d="M102.187 116.236V115.113H99.3758V116.236H98.0972V113.94H98.6117C98.8386 113.652 98.9105 113.342 98.9332 112.85L99.2321 106.741H102.913V113.936H103.488V116.232H102.187V116.236ZM100.223 112.832C100.189 113.463 100.068 113.74 99.8525 113.944H101.574V107.944H100.462L100.223 112.832Z" fill="#BBC3C3"/>
<path d="M103.847 113.929C104.445 113.929 104.638 113.845 104.661 113.07L104.876 106.745H108.595V115.113H107.256V107.94H106.109L105.966 112.998C105.916 114.526 105.368 115.124 104.051 115.124H103.847V113.929Z" fill="#BBC3C3"/>
<path d="M113.849 115.113H112.521L112.294 113.596H110.679L110.452 115.113H109.245L110.584 106.745H112.51L113.849 115.113ZM110.849 112.461H112.116L111.485 108.228L110.849 112.461Z" fill="#BBC3C3"/>
<path d="M114.474 115.113V106.745H117.939V107.94H115.786V115.113H114.474Z" fill="#BBC3C3"/>
<path d="M123.08 115.113H121.752L121.525 113.596H119.91L119.683 115.113H118.476L119.815 106.745H121.741L123.08 115.113ZM120.076 112.461H121.344L120.712 108.228L120.076 112.461Z" fill="#BBC3C3"/>
<path d="M123.303 106.745H127.366V107.94H125.993V115.113H124.676V107.94H123.303V106.745Z" fill="#BBC3C3"/>
<path d="M127.941 115.113V106.745H129.257V109.888H129.878C131.194 109.888 131.837 110.618 131.837 111.958V113.047C131.837 114.386 131.191 115.116 129.878 115.116H127.941V115.113ZM129.878 113.917C130.298 113.917 130.525 113.724 130.525 113.127V111.871C130.525 111.273 130.298 111.08 129.878 111.08H129.257V113.913H129.878V113.917Z" fill="#BBC3C3"/>
<path d="M17.5262 211.549C17.5262 211.965 17.7532 212.23 18.3509 212.23H19.2475V213.47H18.4379C17.1025 213.47 16.3384 212.801 16.3384 211.515C16.3384 210.228 17.1025 209.559 18.4379 209.559C21.0633 209.559 22.0393 212.173 23.4126 212.173C23.4731 212.173 23.5336 212.173 23.5904 212.162V209.68H24.782V213.474H23.7568C21.2979 213.474 20.8931 210.872 18.4833 210.872C17.7267 210.868 17.5262 211.133 17.5262 211.549Z" fill="white"/>
<path d="M17.4775 207.932C17.4775 206.918 16.9894 206.691 16.4258 206.487V205.606H24.7786V206.918H18.4081V207.932H17.4775Z" fill="white"/>
<path d="M17.5262 202.099C17.5262 202.515 17.7532 202.78 18.3509 202.78H19.2475V204.021H18.4379C17.1025 204.021 16.3384 203.351 16.3384 202.065C16.3384 200.778 17.1025 200.109 18.4379 200.109C21.0633 200.109 22.0393 202.723 23.4126 202.723C23.4731 202.723 23.5336 202.723 23.5904 202.712V200.23H24.782V204.024H23.7568C21.2979 204.024 20.8931 201.422 18.4833 201.422C17.7267 201.418 17.5262 201.679 17.5262 202.099Z" fill="white"/>
<path d="M20.0083 199.352V196.965H21.1999V199.352H20.0083Z" fill="white"/>
<path d="M17.4775 195.259C17.4775 194.245 16.9894 194.018 16.4258 193.814V192.933H24.7786V194.245H18.4081V195.259H17.4775Z" fill="white"/>
<path d="M18.4306 191.453C17.0952 191.453 16.3311 190.75 16.3311 189.46C16.3311 188.17 17.0952 187.466 18.4306 187.466H22.7735C24.1089 187.466 24.8731 188.17 24.8731 189.46C24.8731 190.75 24.1089 191.453 22.7735 191.453H18.4306ZM22.8605 190.141C23.4582 190.141 23.6852 189.88 23.6852 189.46C23.6852 189.044 23.4582 188.779 22.8605 188.779H18.3474C17.7497 188.779 17.5227 189.04 17.5227 189.46C17.5227 189.876 17.7497 190.141 18.3474 190.141H22.8605Z" fill="white"/>
<path d="M18.4794 184.092C17.7266 184.092 17.5261 184.353 17.5261 184.773C17.5261 185.192 17.7531 185.454 18.3508 185.454H18.888V186.694H18.434C17.0986 186.694 16.3345 186.025 16.3345 184.739C16.3345 183.452 17.0986 182.783 18.434 182.783H18.6497C19.5462 182.783 20.1061 183.07 20.3671 183.702C20.6547 183.048 21.2751 182.783 22.1225 182.783H22.7769C24.1123 182.783 24.8765 183.452 24.8765 184.739C24.8765 186.025 24.1123 186.694 22.7769 186.694H22.0846V185.454H22.8601C23.4578 185.454 23.6848 185.192 23.6848 184.773C23.6848 184.353 23.4805 184.092 22.7429 184.092H22.0884C21.3129 184.092 21.0254 184.353 21.0254 184.95V185.393H19.8337V184.878C19.8337 184.39 19.6181 184.092 18.9523 184.092H18.4794Z" fill="white"/>
<path d="M20.0083 181.954V179.567H21.1999V181.954H20.0083Z" fill="white"/>
<path d="M18.4794 176.144C17.7266 176.144 17.5261 176.405 17.5261 176.825C17.5261 177.245 17.7531 177.506 18.3508 177.506H18.888V178.746H18.434C17.0986 178.746 16.3345 178.077 16.3345 176.791C16.3345 175.504 17.0986 174.835 18.434 174.835H18.6497C19.5462 174.835 20.1061 175.122 20.3671 175.754C20.6547 175.1 21.2751 174.835 22.1225 174.835H22.7769C24.1123 174.835 24.8765 175.504 24.8765 176.791C24.8765 178.077 24.1123 178.746 22.7769 178.746H22.0846V177.506H22.8601C23.4578 177.506 23.6848 177.245 23.6848 176.825C23.6848 176.405 23.4805 176.144 22.7429 176.144H22.0884C21.3129 176.144 21.0254 176.405 21.0254 177.002V177.445H19.8337V176.931C19.8337 176.443 19.6181 176.144 18.9523 176.144H18.4794Z" fill="white"/>
<path d="M18.4794 171.419C17.7266 171.419 17.5261 171.68 17.5261 172.1C17.5261 172.516 17.7531 172.781 18.3508 172.781H18.888V174.021H18.434C17.0986 174.021 16.3345 173.352 16.3345 172.066C16.3345 170.779 17.0986 170.11 18.434 170.11H18.6497C19.5462 170.11 20.1061 170.397 20.3671 171.029C20.6547 170.375 21.2751 170.11 22.1225 170.11H22.7769C24.1123 170.11 24.8765 170.779 24.8765 172.066C24.8765 173.352 24.1123 174.021 22.7769 174.021H22.0846V172.781H22.8601C23.4578 172.781 23.6848 172.519 23.6848 172.1C23.6848 171.683 23.4805 171.419 22.7429 171.419H22.0884C21.3129 171.419 21.0254 171.68 21.0254 172.277V172.72H19.8337V172.206C19.8337 171.718 19.6181 171.419 18.9523 171.419H18.4794Z" fill="white"/>
<path d="M18.4306 169.331C17.0952 169.331 16.3311 168.627 16.3311 167.337C16.3311 166.047 17.0952 165.343 18.4306 165.343H22.7735C24.1089 165.343 24.8731 166.047 24.8731 167.337C24.8731 168.627 24.1089 169.331 22.7735 169.331H18.4306ZM22.8605 168.018C23.4582 168.018 23.6852 167.757 23.6852 167.337C23.6852 166.921 23.4582 166.656 22.8605 166.656H18.3474C17.7497 166.656 17.5227 166.917 17.5227 167.337C17.5227 167.753 17.7497 168.018 18.3474 168.018H22.8605Z" fill="white"/>
<path d="M20.0083 164.556V162.169H21.1999V164.556H20.0083Z" fill="white"/>
<path d="M18.5025 161.36C17.0952 161.36 16.3311 160.717 16.3311 159.355C16.3311 158.065 17.0952 157.399 18.4306 157.399H18.6462V158.64H18.3474C17.7497 158.64 17.5227 158.901 17.5227 159.321C17.5227 159.786 17.7497 160.047 18.5479 160.047H20.0762C19.5996 159.82 19.3348 159.415 19.3348 158.829C19.3348 157.864 20.0157 157.372 21.2452 157.372H22.7735C24.1089 157.372 24.8731 158.076 24.8731 159.366C24.8731 160.656 24.1089 161.36 22.7735 161.36H18.5025ZM21.3549 160.047H22.8567C23.4544 160.047 23.6701 159.786 23.6701 159.366C23.6701 158.95 23.4544 158.685 22.8567 158.685H21.3549C20.7572 158.685 20.5302 158.946 20.5302 159.366C20.534 159.786 20.7572 160.047 21.3549 160.047Z" fill="white"/>
<path d="M18.4306 156.657C17.0952 156.657 16.3311 155.954 16.3311 154.664C16.3311 153.374 17.0952 152.67 18.4306 152.67H22.7735C24.1089 152.67 24.8731 153.374 24.8731 154.664C24.8731 155.954 24.1089 156.657 22.7735 156.657H18.4306ZM22.8605 155.345C23.4582 155.345 23.6852 155.084 23.6852 154.664C23.6852 154.248 23.4582 153.983 22.8605 153.983H18.3474C17.7497 153.983 17.5227 154.244 17.5227 154.664C17.5227 155.08 17.7497 155.345 18.3474 155.345H22.8605Z" fill="white"/>
<path d="M22.7041 147.972C24.1113 147.972 24.8755 148.615 24.8755 149.977C24.8755 151.267 24.1113 151.932 22.7759 151.932H22.5603V150.692H22.8592C23.4569 150.692 23.6839 150.431 23.6839 150.011C23.6839 149.545 23.4569 149.284 22.6587 149.284H21.1303C21.607 149.511 21.8718 149.916 21.8718 150.503C21.8718 151.467 21.1909 151.959 19.9614 151.959H18.4331C17.0977 151.959 16.3335 151.255 16.3335 149.965C16.3335 148.675 17.0977 147.972 18.4331 147.972H22.7041ZM19.8517 149.284H18.346C17.7483 149.284 17.5365 149.545 17.5365 149.965C17.5365 150.381 17.7521 150.646 18.346 150.646H19.8479C20.4456 150.646 20.6726 150.385 20.6726 149.965C20.6726 149.545 20.4456 149.284 19.8517 149.284Z" fill="white"/>
<path d="M36.7137 198.762V200.086L35.1967 200.313V201.925L36.7137 202.152V203.358L28.3608 202.023V200.101L36.7137 198.762ZM34.0656 201.758V200.495L29.84 201.126L34.0656 201.758Z" fill="white"/>
<path d="M35.5296 198.524C35.5296 197.926 35.4464 197.737 34.6709 197.714L28.3608 197.499V193.788H36.7137V195.123H29.5525V196.269L34.599 196.413C36.1273 196.462 36.7213 197.011 36.7213 198.323V198.528H35.5296V198.524Z" fill="white"/>
<path d="M36.7137 188.537V189.861L35.1967 190.088V191.699L36.7137 191.926V193.133L28.3608 191.798V189.876L36.7137 188.537ZM34.0656 191.533V190.269L29.84 190.901L34.0656 191.533Z" fill="white"/>
<path d="M36.7137 186.615V187.928H28.3608V186.615H31.9396V185.124H28.3608V183.789H36.7137V185.124H33.135V186.615H36.7137Z" fill="white"/>
<path d="M34.5876 178.073C36.0895 178.383 36.8423 178.898 36.725 180.721H35.5561C35.6053 180.051 35.4842 179.669 34.8752 179.563L34.8033 179.552L28.3608 181.364V180.063L31.2132 179.348L33.169 178.943L31.2246 178.633L28.3608 178.035V176.662L34.5876 178.073Z" fill="white"/>
<path d="M30.3657 176.223C29.0303 176.223 28.2661 175.519 28.2661 174.229C28.2661 172.939 29.0303 172.236 30.3657 172.236H34.7085C36.0439 172.236 36.8081 172.939 36.8081 174.229C36.8081 175.519 36.0439 176.223 34.7085 176.223H30.3657ZM34.7918 174.91C35.3895 174.91 35.6165 174.649 35.6165 174.229C35.6165 173.813 35.3895 173.549 34.7918 173.549H30.2824C29.6847 173.549 29.4578 173.81 29.4578 174.229C29.4578 174.646 29.6847 174.91 30.2824 174.91H34.7918Z" fill="white"/>
<path d="M33.3847 169.671L34.1488 170.076H36.7137V171.388H28.3608V170.076H32.0001L28.3608 168.358V167.045L32.0833 168.873L36.7137 167.045V168.392L33.3847 169.671Z" fill="white"/>
<path d="M31.879 165.135V163.334H33.0707V165.135H35.5183V162.869H36.7099V166.448H28.3608V162.869H29.5525V165.135H31.879Z" fill="white"/>
<path d="M30.4264 158.167H31.5121C32.8475 158.167 33.5776 158.81 33.5776 160.123V160.743H36.7137V162.056H28.3608V160.123C28.3608 158.81 29.0872 158.167 30.4264 158.167ZM29.5525 160.743H32.3784V160.123C32.3784 159.707 32.1892 159.48 31.5915 159.48H30.3393C29.7416 159.48 29.5525 159.707 29.5525 160.123V160.743Z" fill="white"/>
<path d="M78.8524 211.549C78.8524 211.965 79.0794 212.23 79.6771 212.23H80.5737V213.47H79.7641C78.4287 213.47 77.6646 212.801 77.6646 211.515C77.6646 210.228 78.4287 209.559 79.7641 209.559C82.3895 209.559 83.3655 212.173 84.7387 212.173C84.7993 212.173 84.8598 212.173 84.9165 212.162V209.68H86.1082V213.474H85.083C82.6241 213.474 82.2193 210.872 79.8095 210.872C79.0567 210.868 78.8524 211.133 78.8524 211.549Z" fill="white"/>
<path d="M78.8036 207.932C78.8036 206.918 78.3156 206.691 77.752 206.487V205.606H86.1048V206.918H79.7342V207.932H78.8036Z" fill="white"/>
<path d="M78.8524 202.099C78.8524 202.515 79.0794 202.78 79.6771 202.78H80.5737V204.021H79.7641C78.4287 204.021 77.6646 203.351 77.6646 202.065C77.6646 200.778 78.4287 200.109 79.7641 200.109C82.3895 200.109 83.3655 202.723 84.7387 202.723C84.7993 202.723 84.8598 202.723 84.9165 202.712V200.23H86.1082V204.024H85.083C82.6241 204.024 82.2193 201.422 79.8095 201.422C79.0567 201.418 78.8524 201.679 78.8524 202.099Z" fill="white"/>
<path d="M81.3345 199.352V196.965H82.5261V199.352H81.3345Z" fill="white"/>
<path d="M78.8036 195.259C78.8036 194.245 78.3156 194.018 77.752 193.814V192.933H86.1048V194.245H79.7342V195.259H78.8036Z" fill="white"/>
<path d="M79.7607 191.453C78.4253 191.453 77.6611 190.75 77.6611 189.46C77.6611 188.17 78.4253 187.466 79.7607 187.466H84.1036C85.439 187.466 86.2031 188.17 86.2031 189.46C86.2031 190.75 85.439 191.453 84.1036 191.453H79.7607ZM84.1868 190.141C84.7845 190.141 85.0115 189.88 85.0115 189.46C85.0115 189.044 84.7845 188.779 84.1868 188.779H79.6775C79.0798 188.779 78.8528 189.04 78.8528 189.46C78.8528 189.876 79.0798 190.141 79.6775 190.141H84.1868Z" fill="white"/>
<path d="M79.8061 184.092C79.0533 184.092 78.8528 184.353 78.8528 184.773C78.8528 185.192 79.0798 185.454 79.6775 185.454H80.2147V186.694H79.7607C78.4253 186.694 77.6611 186.025 77.6611 184.739C77.6611 183.452 78.4253 182.783 79.7607 182.783H79.9763C80.8729 182.783 81.4328 183.07 81.6938 183.702C81.9813 183.048 82.6017 182.783 83.4491 182.783H84.1036C85.439 182.783 86.2031 183.452 86.2031 184.739C86.2031 186.025 85.439 186.694 84.1036 186.694H83.4113V185.454H84.1868C84.7845 185.454 85.0115 185.192 85.0115 184.773C85.0115 184.353 84.8072 184.092 84.0695 184.092H83.4151C82.6396 184.092 82.352 184.353 82.352 184.95V185.393H81.1604V184.878C81.1604 184.39 80.9448 184.092 80.279 184.092H79.8061Z" fill="white"/>
<path d="M81.3345 181.954V179.567H82.5261V181.954H81.3345Z" fill="white"/>
<path d="M79.8061 176.144C79.0533 176.144 78.8528 176.405 78.8528 176.825C78.8528 177.245 79.0798 177.506 79.6775 177.506H80.2147V178.746H79.7607C78.4253 178.746 77.6611 178.077 77.6611 176.791C77.6611 175.504 78.4253 174.835 79.7607 174.835H79.9763C80.8729 174.835 81.4328 175.122 81.6938 175.754C81.9813 175.1 82.6017 174.835 83.4491 174.835H84.1036C85.439 174.835 86.2031 175.504 86.2031 176.791C86.2031 178.077 85.439 178.746 84.1036 178.746H83.4113V177.506H84.1868C84.7845 177.506 85.0115 177.245 85.0115 176.825C85.0115 176.405 84.8072 176.144 84.0695 176.144H83.4151C82.6396 176.144 82.352 176.405 82.352 177.002V177.445H81.1604V176.931C81.1604 176.443 80.9448 176.144 80.279 176.144H79.8061Z" fill="white"/>
<path d="M79.8061 171.419C79.0533 171.419 78.8528 171.68 78.8528 172.1C78.8528 172.516 79.0798 172.781 79.6775 172.781H80.2147V174.021H79.7607C78.4253 174.021 77.6611 173.352 77.6611 172.066C77.6611 170.779 78.4253 170.11 79.7607 170.11H79.9763C80.8729 170.11 81.4328 170.397 81.6938 171.029C81.9813 170.375 82.6017 170.11 83.4491 170.11H84.1036C85.439 170.11 86.2031 170.779 86.2031 172.066C86.2031 173.352 85.439 174.021 84.1036 174.021H83.4113V172.781H84.1868C84.7845 172.781 85.0115 172.519 85.0115 172.1C85.0115 171.683 84.8072 171.419 84.0695 171.419H83.4151C82.6396 171.419 82.352 171.68 82.352 172.277V172.72H81.1604V172.206C81.1604 171.718 80.9448 171.419 80.279 171.419H79.8061Z" fill="white"/>
<path d="M79.7607 169.331C78.4253 169.331 77.6611 168.627 77.6611 167.337C77.6611 166.047 78.4253 165.343 79.7607 165.343H84.1036C85.439 165.343 86.2031 166.047 86.2031 167.337C86.2031 168.627 85.439 169.331 84.1036 169.331H79.7607ZM84.1868 168.018C84.7845 168.018 85.0115 167.757 85.0115 167.337C85.0115 166.921 84.7845 166.656 84.1868 166.656H79.6775C79.0798 166.656 78.8528 166.917 78.8528 167.337C78.8528 167.753 79.0798 168.018 79.6775 168.018H84.1868Z" fill="white"/>
<path d="M81.3345 164.556V162.169H82.5261V164.556H81.3345Z" fill="white"/>
<path d="M79.8326 161.36C78.4253 161.36 77.6611 160.717 77.6611 159.355C77.6611 158.065 78.4253 157.399 79.7607 157.399H79.9763V158.64H79.6775C79.0798 158.64 78.8528 158.901 78.8528 159.321C78.8528 159.786 79.0798 160.047 79.878 160.047H81.4063C80.9296 159.82 80.6648 159.415 80.6648 158.829C80.6648 157.864 81.3458 157.372 82.5752 157.372H84.1036C85.439 157.372 86.2031 158.076 86.2031 159.366C86.2031 160.656 85.439 161.36 84.1036 161.36H79.8326ZM82.6812 160.047H84.183C84.7807 160.047 84.9964 159.786 84.9964 159.366C84.9964 158.95 84.7807 158.685 84.183 158.685H82.6812C82.0835 158.685 81.8565 158.946 81.8565 159.366C81.8603 159.786 82.0872 160.047 82.6812 160.047Z" fill="white"/>
<path d="M79.7607 156.657C78.4253 156.657 77.6611 155.954 77.6611 154.664C77.6611 153.374 78.4253 152.67 79.7607 152.67H84.1036C85.439 152.67 86.2031 153.374 86.2031 154.664C86.2031 155.954 85.439 156.657 84.1036 156.657H79.7607ZM84.1868 155.345C84.7845 155.345 85.0115 155.084 85.0115 154.664C85.0115 154.248 84.7845 153.983 84.1868 153.983H79.6775C79.0798 153.983 78.8528 154.244 78.8528 154.664C78.8528 155.08 79.0798 155.345 79.6775 155.345H84.1868Z" fill="white"/>
<path d="M84.0322 147.972C85.4395 147.972 86.2036 148.615 86.2036 149.977C86.2036 151.267 85.4395 151.932 84.1041 151.932H83.8884V150.692H84.1873C84.785 150.692 85.012 150.431 85.012 150.011C85.012 149.545 84.785 149.284 83.9868 149.284H82.4585C82.9351 149.511 83.1999 149.916 83.1999 150.503C83.1999 151.467 82.519 151.959 81.2895 151.959H79.7612C78.4258 151.959 77.6616 151.255 77.6616 149.965C77.6616 148.675 78.4258 147.972 79.7612 147.972H84.0322ZM81.1798 149.284H79.678C79.0802 149.284 78.8684 149.545 78.8684 149.965C78.8684 150.381 79.084 150.646 79.678 150.646H81.1798C81.7775 150.646 82.0045 150.385 82.0045 149.965C82.0045 149.545 81.7775 149.284 81.1798 149.284Z" fill="white"/>
<path d="M98.0403 198.762V200.086L96.5234 200.313V201.925L98.0403 202.152V203.358L89.6875 202.023V200.101L98.0403 198.762ZM95.3923 201.758V200.495L91.1667 201.126L95.3923 201.758Z" fill="white"/>
<path d="M96.8597 198.524C96.8597 197.926 96.7765 197.737 96.001 197.714L89.6909 197.499V193.788H98.0438V195.123H90.8863V196.269L95.9329 196.413C97.4612 196.462 98.0551 197.011 98.0551 198.323V198.528H96.8597V198.524Z" fill="white"/>
<path d="M98.0403 188.537V189.861L96.5234 190.088V191.699L98.0403 191.926V193.133L89.6875 191.798V189.876L98.0403 188.537ZM95.3923 191.533V190.269L91.1667 190.901L95.3923 191.533Z" fill="white"/>
<path d="M98.0403 186.615V187.928H89.6875V186.615H93.2662V185.124H89.6875V183.789H98.0403V185.124H94.4616V186.615H98.0403Z" fill="white"/>
<path d="M95.9143 178.073C97.4162 178.383 98.169 178.898 98.0517 180.721H96.8828C96.9319 180.051 96.8109 179.669 96.2018 179.563L96.1299 179.552L89.6875 181.364V180.063L92.5399 179.348L94.4957 178.943L92.5512 178.633L89.6875 178.035V176.662L95.9143 178.073Z" fill="white"/>
<path d="M91.6923 176.223C90.3569 176.223 89.5928 175.519 89.5928 174.229C89.5928 172.939 90.3569 172.236 91.6923 172.236H96.0352C97.3706 172.236 98.1348 172.939 98.1348 174.229C98.1348 175.519 97.3706 176.223 96.0352 176.223H91.6923ZM96.1184 174.91C96.7161 174.91 96.9431 174.649 96.9431 174.229C96.9431 173.813 96.7161 173.549 96.1184 173.549H91.6091C91.0114 173.549 90.7844 173.81 90.7844 174.229C90.7844 174.646 91.0114 174.91 91.6091 174.91H96.1184Z" fill="white"/>
<path d="M94.7113 169.671L95.4755 170.076H98.0403V171.388H89.6875V170.076H93.3267L89.6875 168.358V167.045L93.41 168.873L98.0403 167.045V168.392L94.7113 169.671Z" fill="white"/>
<path d="M93.2095 165.135V163.334H94.4011V165.135H96.8487V162.869H98.0403V166.448H89.6875V162.869H90.8791V165.135H93.2095Z" fill="white"/>
<path d="M91.753 158.167H92.8387C94.1741 158.167 94.9042 158.81 94.9042 160.123V160.743H98.0403V162.056H89.6875V160.123C89.6875 158.81 90.4176 158.167 91.753 158.167ZM90.8829 160.743H93.7088V160.123C93.7088 159.707 93.5197 159.48 92.922 159.48H91.6698C91.0721 159.48 90.8829 159.707 90.8829 160.123V160.743Z" fill="white"/>
<path d="M140.179 211.549C140.179 211.965 140.406 212.23 141.003 212.23H141.9V213.47H141.09C139.755 213.47 138.991 212.801 138.991 211.515C138.991 210.228 139.755 209.559 141.09 209.559C143.716 209.559 144.692 212.173 146.065 212.173C146.125 212.173 146.186 212.173 146.243 212.162V209.68H147.434V213.474H146.409C143.95 213.474 143.545 210.872 141.136 210.872C140.383 210.868 140.179 211.133 140.179 211.549Z" fill="white"/>
<path d="M140.133 207.932C140.133 206.918 139.645 206.691 139.082 206.487V205.606H147.434V206.918H141.064V207.932H140.133Z" fill="white"/>
<path d="M140.179 202.099C140.179 202.515 140.406 202.78 141.003 202.78H141.9V204.021H141.09C139.755 204.021 138.991 203.351 138.991 202.065C138.991 200.778 139.755 200.109 141.09 200.109C143.716 200.109 144.692 202.723 146.065 202.723C146.125 202.723 146.186 202.723 146.243 202.712V200.23H147.434V204.024H146.409C143.95 204.024 143.545 201.422 141.136 201.422C140.383 201.418 140.179 201.679 140.179 202.099Z" fill="white"/>
<path d="M142.66 199.352V196.965H143.852V199.352H142.66Z" fill="white"/>
<path d="M140.133 195.259C140.133 194.245 139.645 194.018 139.082 193.814V192.933H147.434V194.245H141.064V195.259H140.133Z" fill="white"/>
<path d="M141.086 191.453C139.751 191.453 138.987 190.75 138.987 189.46C138.987 188.17 139.751 187.466 141.086 187.466H145.429C146.765 187.466 147.529 188.17 147.529 189.46C147.529 190.75 146.765 191.453 145.429 191.453H141.086ZM145.512 190.141C146.11 190.141 146.337 189.88 146.337 189.46C146.337 189.044 146.11 188.779 145.512 188.779H141.003C140.405 188.779 140.178 189.04 140.178 189.46C140.178 189.876 140.405 190.141 141.003 190.141H145.512Z" fill="white"/>
<path d="M141.132 184.092C140.379 184.092 140.178 184.353 140.178 184.773C140.178 185.192 140.405 185.454 141.003 185.454H141.54V186.694H141.086C139.751 186.694 138.987 186.025 138.987 184.739C138.987 183.452 139.751 182.783 141.086 182.783H141.302C142.199 182.783 142.758 183.07 143.019 183.702C143.307 183.048 143.927 182.783 144.775 182.783H145.429C146.765 182.783 147.529 183.452 147.529 184.739C147.529 186.025 146.765 186.694 145.429 186.694H144.737V185.454H145.512C146.11 185.454 146.337 185.192 146.337 184.773C146.337 184.353 146.133 184.092 145.395 184.092H144.741C143.965 184.092 143.678 184.353 143.678 184.95V185.393H142.486V184.878C142.486 184.39 142.27 184.092 141.605 184.092H141.132Z" fill="white"/>
<path d="M142.66 181.954V179.567H143.852V181.954H142.66Z" fill="white"/>
<path d="M141.132 176.144C140.379 176.144 140.178 176.405 140.178 176.825C140.178 177.245 140.405 177.506 141.003 177.506H141.54V178.746H141.086C139.751 178.746 138.987 178.077 138.987 176.791C138.987 175.504 139.751 174.835 141.086 174.835H141.302C142.199 174.835 142.758 175.122 143.019 175.754C143.307 175.1 143.927 174.835 144.775 174.835H145.429C146.765 174.835 147.529 175.504 147.529 176.791C147.529 178.077 146.765 178.746 145.429 178.746H144.737V177.506H145.512C146.11 177.506 146.337 177.245 146.337 176.825C146.337 176.405 146.133 176.144 145.395 176.144H144.741C143.965 176.144 143.678 176.405 143.678 177.002V177.445H142.486V176.931C142.486 176.443 142.27 176.144 141.605 176.144H141.132Z" fill="white"/>
<path d="M141.132 171.419C140.379 171.419 140.178 171.68 140.178 172.1C140.178 172.516 140.405 172.781 141.003 172.781H141.54V174.021H141.086C139.751 174.021 138.987 173.352 138.987 172.066C138.987 170.779 139.751 170.11 141.086 170.11H141.302C142.199 170.11 142.758 170.397 143.019 171.029C143.307 170.375 143.927 170.11 144.775 170.11H145.429C146.765 170.11 147.529 170.779 147.529 172.066C147.529 173.352 146.765 174.021 145.429 174.021H144.737V172.781H145.512C146.11 172.781 146.337 172.519 146.337 172.1C146.337 171.683 146.133 171.419 145.395 171.419H144.741C143.965 171.419 143.678 171.68 143.678 172.277V172.72H142.486V172.206C142.486 171.718 142.27 171.419 141.605 171.419H141.132Z" fill="white"/>
<path d="M141.086 169.331C139.751 169.331 138.987 168.627 138.987 167.337C138.987 166.047 139.751 165.343 141.086 165.343H145.429C146.765 165.343 147.529 166.047 147.529 167.337C147.529 168.627 146.765 169.331 145.429 169.331H141.086ZM145.512 168.018C146.11 168.018 146.337 167.757 146.337 167.337C146.337 166.921 146.11 166.656 145.512 166.656H141.003C140.405 166.656 140.178 166.917 140.178 167.337C140.178 167.753 140.405 168.018 141.003 168.018H145.512Z" fill="white"/>
<path d="M142.66 164.556V162.169H143.852V164.556H142.66Z" fill="white"/>
<path d="M141.158 161.36C139.751 161.36 138.987 160.717 138.987 159.355C138.987 158.065 139.751 157.399 141.086 157.399H141.302V158.64H141.003C140.405 158.64 140.178 158.901 140.178 159.321C140.178 159.786 140.405 160.047 141.204 160.047H142.732C142.255 159.82 141.991 159.415 141.991 158.829C141.991 157.864 142.671 157.372 143.901 157.372H145.429C146.765 157.372 147.529 158.076 147.529 159.366C147.529 160.656 146.765 161.36 145.429 161.36H141.158ZM144.011 160.047H145.512C146.11 160.047 146.326 159.786 146.326 159.366C146.326 158.95 146.11 158.685 145.512 158.685H144.011C143.413 158.685 143.186 158.946 143.186 159.366C143.186 159.786 143.413 160.047 144.011 160.047Z" fill="white"/>
<path d="M141.086 156.657C139.751 156.657 138.987 155.954 138.987 154.664C138.987 153.374 139.751 152.67 141.086 152.67H145.429C146.765 152.67 147.529 153.374 147.529 154.664C147.529 155.954 146.765 156.657 145.429 156.657H141.086ZM145.512 155.345C146.11 155.345 146.337 155.084 146.337 154.664C146.337 154.248 146.11 153.983 145.512 153.983H141.003C140.405 153.983 140.178 154.244 140.178 154.664C140.178 155.08 140.405 155.345 141.003 155.345H145.512Z" fill="white"/>
<path d="M145.358 147.972C146.765 147.972 147.529 148.615 147.529 149.977C147.529 151.267 146.765 151.932 145.43 151.932H145.214V150.692H145.513C146.111 150.692 146.338 150.431 146.338 150.011C146.338 149.545 146.111 149.284 145.312 149.284H143.784C144.261 149.511 144.526 149.916 144.526 150.503C144.526 151.467 143.845 151.959 142.615 151.959H141.087C139.751 151.959 138.987 151.255 138.987 149.965C138.987 148.675 139.751 147.972 141.087 147.972H145.358ZM142.505 149.284H141.004C140.406 149.284 140.194 149.545 140.194 149.965C140.194 150.381 140.41 150.646 141.004 150.646H142.505C143.103 150.646 143.33 150.385 143.33 149.965C143.33 149.545 143.103 149.284 142.505 149.284Z" fill="white"/>
<path d="M159.366 198.762V200.086L157.849 200.313V201.925L159.366 202.152V203.358L151.013 202.023V200.101L159.366 198.762ZM156.718 201.758V200.495L152.492 201.126L156.718 201.758Z" fill="white"/>
<path d="M158.186 198.524C158.186 197.926 158.103 197.737 157.327 197.714L151.017 197.499V193.788H159.37V195.123H152.213V196.269L157.259 196.413C158.787 196.462 159.381 197.011 159.381 198.323V198.528H158.186V198.524Z" fill="white"/>
<path d="M159.366 188.537V189.861L157.849 190.088V191.699L159.366 191.926V193.133L151.013 191.798V189.876L159.366 188.537ZM156.718 191.533V190.269L152.492 190.901L156.718 191.533Z" fill="white"/>
<path d="M159.366 186.615V187.928H151.013V186.615H154.592V185.124H151.013V183.789H159.366V185.124H155.787V186.615H159.366Z" fill="white"/>
<path d="M157.244 178.073C158.746 178.383 159.499 178.898 159.381 180.721H158.212C158.262 180.051 158.14 179.669 157.531 179.563L157.46 179.552L151.017 181.364V180.063L153.869 179.348L155.825 178.943L153.881 178.633L151.017 178.035V176.662L157.244 178.073Z" fill="white"/>
<path d="M153.019 176.223C151.683 176.223 150.919 175.519 150.919 174.229C150.919 172.939 151.683 172.236 153.019 172.236H157.361C158.697 172.236 159.461 172.939 159.461 174.229C159.461 175.519 158.697 176.223 157.361 176.223H153.019ZM157.445 174.91C158.042 174.91 158.269 174.649 158.269 174.229C158.269 173.813 158.042 173.549 157.445 173.549H152.935C152.338 173.549 152.111 173.81 152.111 174.229C152.111 174.646 152.338 174.91 152.935 174.91H157.445Z" fill="white"/>
<path d="M156.037 169.671L156.801 170.076H159.366V171.388H151.013V170.076H154.652L151.013 168.358V167.045L154.736 168.873L159.366 167.045V168.392L156.037 169.671Z" fill="white"/>
<path d="M154.535 165.135V163.334H155.727V165.135H158.174V162.869H159.366V166.448H151.013V162.869H152.205V165.135H154.535Z" fill="white"/>
<path d="M153.079 158.167H154.164C155.5 158.167 156.23 158.81 156.23 160.123V160.743H159.366V162.056H151.013V160.123C151.013 158.81 151.743 158.167 153.079 158.167ZM152.209 160.743H155.035V160.123C155.035 159.707 154.845 159.48 154.248 159.48H152.995C152.398 159.48 152.209 159.707 152.209 160.123V160.743Z" fill="white"/>
<path d="M201.505 211.549C201.505 211.965 201.732 212.23 202.329 212.23H203.226V213.47H202.416C201.081 213.47 200.317 212.801 200.317 211.515C200.317 210.228 201.081 209.559 202.416 209.559C205.042 209.559 206.018 212.173 207.391 212.173C207.452 212.173 207.512 212.173 207.569 212.162V209.68H208.761V213.474H207.735C205.276 213.474 204.872 210.872 202.462 210.872C201.709 210.868 201.505 211.133 201.505 211.549Z" fill="white"/>
<path d="M201.459 207.932C201.459 206.918 200.971 206.691 200.408 206.487V205.606H208.761V206.918H202.39V207.932H201.459Z" fill="white"/>
<path d="M201.505 202.099C201.505 202.515 201.732 202.78 202.329 202.78H203.226V204.021H202.416C201.081 204.021 200.317 203.351 200.317 202.065C200.317 200.778 201.081 200.109 202.416 200.109C205.042 200.109 206.018 202.723 207.391 202.723C207.452 202.723 207.512 202.723 207.569 202.712V200.23H208.761V204.024H207.735C205.276 204.024 204.872 201.422 202.462 201.422C201.709 201.418 201.505 201.679 201.505 202.099Z" fill="white"/>
<path d="M203.986 199.352V196.965H205.178V199.352H203.986Z" fill="white"/>
<path d="M201.459 195.259C201.459 194.245 200.971 194.018 200.408 193.814V192.933H208.761V194.245H202.39V195.259H201.459Z" fill="white"/>
<path d="M202.413 191.453C201.077 191.453 200.313 190.75 200.313 189.46C200.313 188.17 201.077 187.466 202.413 187.466H206.755C208.091 187.466 208.855 188.17 208.855 189.46C208.855 190.75 208.091 191.453 206.755 191.453H202.413ZM206.839 190.141C207.436 190.141 207.663 189.88 207.663 189.46C207.663 189.044 207.436 188.779 206.839 188.779H202.329C201.732 188.779 201.505 189.04 201.505 189.46C201.505 189.876 201.732 190.141 202.329 190.141H206.839Z" fill="white"/>
<path d="M202.462 184.092C201.709 184.092 201.509 184.353 201.509 184.773C201.509 185.192 201.736 185.454 202.333 185.454H202.87V186.694H202.416C201.081 186.694 200.317 186.025 200.317 184.739C200.317 183.452 201.081 182.783 202.416 182.783H202.632C203.529 182.783 204.089 183.07 204.35 183.702C204.637 183.048 205.257 182.783 206.105 182.783H206.759C208.095 182.783 208.859 183.452 208.859 184.739C208.859 186.025 208.095 186.694 206.759 186.694H206.067V185.454H206.843C207.44 185.454 207.667 185.192 207.667 184.773C207.667 184.353 207.463 184.092 206.725 184.092H206.071C205.295 184.092 205.008 184.353 205.008 184.95V185.393H203.816V184.878C203.816 184.39 203.601 184.092 202.935 184.092H202.462Z" fill="white"/>
<path d="M203.986 181.954V179.567H205.178V181.954H203.986Z" fill="white"/>
<path d="M202.462 176.144C201.709 176.144 201.509 176.405 201.509 176.825C201.509 177.245 201.736 177.506 202.333 177.506H202.87V178.746H202.416C201.081 178.746 200.317 178.077 200.317 176.791C200.317 175.504 201.081 174.835 202.416 174.835H202.632C203.529 174.835 204.089 175.122 204.35 175.754C204.637 175.1 205.257 174.835 206.105 174.835H206.759C208.095 174.835 208.859 175.504 208.859 176.791C208.859 178.077 208.095 178.746 206.759 178.746H206.067V177.506H206.843C207.44 177.506 207.667 177.245 207.667 176.825C207.667 176.405 207.463 176.144 206.725 176.144H206.071C205.295 176.144 205.008 176.405 205.008 177.002V177.445H203.816V176.931C203.816 176.443 203.601 176.144 202.935 176.144H202.462Z" fill="white"/>
<path d="M202.462 171.419C201.709 171.419 201.509 171.68 201.509 172.1C201.509 172.516 201.736 172.781 202.333 172.781H202.87V174.021H202.416C201.081 174.021 200.317 173.352 200.317 172.066C200.317 170.779 201.081 170.11 202.416 170.11H202.632C203.529 170.11 204.089 170.397 204.35 171.029C204.637 170.375 205.257 170.11 206.105 170.11H206.759C208.095 170.11 208.859 170.779 208.859 172.066C208.859 173.352 208.095 174.021 206.759 174.021H206.067V172.781H206.843C207.44 172.781 207.667 172.519 207.667 172.1C207.667 171.683 207.463 171.419 206.725 171.419H206.071C205.295 171.419 205.008 171.68 205.008 172.277V172.72H203.816V172.206C203.816 171.718 203.601 171.419 202.935 171.419H202.462Z" fill="white"/>
<path d="M202.413 169.331C201.077 169.331 200.313 168.627 200.313 167.337C200.313 166.047 201.077 165.343 202.413 165.343H206.755C208.091 165.343 208.855 166.047 208.855 167.337C208.855 168.627 208.091 169.331 206.755 169.331H202.413ZM206.839 168.018C207.436 168.018 207.663 167.757 207.663 167.337C207.663 166.921 207.436 166.656 206.839 166.656H202.329C201.732 166.656 201.505 166.917 201.505 167.337C201.505 167.753 201.732 168.018 202.329 168.018H206.839Z" fill="white"/>
<path d="M203.986 164.556V162.169H205.178V164.556H203.986Z" fill="white"/>
<path d="M202.484 161.36C201.077 161.36 200.313 160.717 200.313 159.355C200.313 158.065 201.077 157.399 202.413 157.399H202.628V158.64H202.329C201.732 158.64 201.505 158.901 201.505 159.321C201.505 159.786 201.732 160.047 202.53 160.047H204.058C203.581 159.82 203.317 159.415 203.317 158.829C203.317 157.864 203.998 157.372 205.227 157.372H206.755C208.091 157.372 208.855 158.076 208.855 159.366C208.855 160.656 208.091 161.36 206.755 161.36H202.484ZM205.337 160.047H206.839C207.436 160.047 207.652 159.786 207.652 159.366C207.652 158.95 207.436 158.685 206.839 158.685H205.337C204.739 158.685 204.512 158.946 204.512 159.366C204.512 159.786 204.739 160.047 205.337 160.047Z" fill="white"/>
<path d="M202.413 156.657C201.077 156.657 200.313 155.954 200.313 154.664C200.313 153.374 201.077 152.67 202.413 152.67H206.755C208.091 152.67 208.855 153.374 208.855 154.664C208.855 155.954 208.091 156.657 206.755 156.657H202.413ZM206.839 155.345C207.436 155.345 207.663 155.084 207.663 154.664C207.663 154.248 207.436 153.983 206.839 153.983H202.329C201.732 153.983 201.505 154.244 201.505 154.664C201.505 155.08 201.732 155.345 202.329 155.345H206.839Z" fill="white"/>
<path d="M206.685 147.972C208.092 147.972 208.856 148.615 208.856 149.977C208.856 151.267 208.092 151.932 206.756 151.932H206.541V150.692H206.84C207.437 150.692 207.664 150.431 207.664 150.011C207.664 149.545 207.437 149.284 206.639 149.284H205.111C205.587 149.511 205.852 149.916 205.852 150.503C205.852 151.467 205.171 151.959 203.942 151.959H202.414C201.078 151.959 200.314 151.255 200.314 149.965C200.314 148.675 201.078 147.972 202.414 147.972H206.685ZM203.832 149.284H202.33C201.733 149.284 201.521 149.545 201.521 149.965C201.521 150.381 201.736 150.646 202.33 150.646H203.832C204.43 150.646 204.657 150.385 204.657 149.965C204.657 149.545 204.43 149.284 203.832 149.284Z" fill="white"/>
<path d="M220.692 198.762V200.086L219.175 200.313V201.925L220.692 202.152V203.358L212.339 202.023V200.101L220.692 198.762ZM218.044 201.758V200.495L213.819 201.126L218.044 201.758Z" fill="white"/>
<path d="M219.512 198.524C219.512 197.926 219.429 197.737 218.653 197.714L212.343 197.499V193.788H220.696V195.123H213.539V196.269L218.585 196.413C220.114 196.462 220.707 197.011 220.707 198.323V198.528H219.512V198.524Z" fill="white"/>
<path d="M220.692 188.537V189.861L219.175 190.088V191.699L220.692 191.926V193.133L212.339 191.798V189.876L220.692 188.537ZM218.044 191.533V190.269L213.819 190.901L218.044 191.533Z" fill="white"/>
<path d="M220.692 186.615V187.928H212.339V186.615H215.918V185.124H212.339V183.789H220.692V185.124H217.113V186.615H220.692Z" fill="white"/>
<path d="M218.57 178.073C220.072 178.383 220.825 178.898 220.707 180.721H219.539C219.588 180.051 219.467 179.669 218.858 179.563L218.786 179.552L212.343 181.364V180.063L215.196 179.348L217.151 178.943L215.207 178.633L212.343 178.035V176.662L218.57 178.073Z" fill="white"/>
<path d="M214.344 176.223C213.008 176.223 212.244 175.519 212.244 174.229C212.244 172.939 213.008 172.236 214.344 172.236H218.687C220.022 172.236 220.786 172.939 220.786 174.229C220.786 175.519 220.022 176.223 218.687 176.223H214.344ZM218.774 174.91C219.371 174.91 219.598 174.649 219.598 174.229C219.598 173.813 219.371 173.549 218.774 173.549H214.264C213.667 173.549 213.44 173.81 213.44 174.229C213.44 174.646 213.667 174.91 214.264 174.91H218.774Z" fill="white"/>
<path d="M217.363 169.671L218.127 170.076H220.692V171.388H212.339V170.076H215.979L212.339 168.358V167.045L216.062 168.873L220.692 167.045V168.392L217.363 169.671Z" fill="white"/>
<path d="M215.861 165.135V163.334H217.053V165.135H219.501V162.869H220.692V166.448H212.339V162.869H213.531V165.135H215.861Z" fill="white"/>
<path d="M214.405 158.167H215.491C216.826 158.167 217.556 158.81 217.556 160.123V160.743H220.692V162.056H212.339V160.123C212.343 158.81 213.069 158.167 214.405 158.167ZM213.535 160.743H216.361V160.123C216.361 159.707 216.172 159.48 215.574 159.48H214.322C213.724 159.48 213.535 159.707 213.535 160.123V160.743Z" fill="white"/>
<path d="M262.835 211.549C262.835 211.965 263.062 212.23 263.66 212.23H264.556V213.47H263.747C262.411 213.47 261.647 212.801 261.647 211.515C261.647 210.228 262.411 209.559 263.747 209.559C266.372 209.559 267.348 212.173 268.721 212.173C268.782 212.173 268.842 212.173 268.899 212.162V209.68H270.091V213.474H269.065C266.606 213.474 266.202 210.872 263.792 210.872C263.035 210.868 262.835 211.133 262.835 211.549Z" fill="white"/>
<path d="M262.786 207.932C262.786 206.918 262.298 206.691 261.734 206.487V205.606H270.087V206.918H263.716V207.932H262.786Z" fill="white"/>
<path d="M262.835 202.099C262.835 202.515 263.062 202.78 263.66 202.78H264.556V204.021H263.747C262.411 204.021 261.647 203.351 261.647 202.065C261.647 200.778 262.411 200.109 263.747 200.109C266.372 200.109 267.348 202.723 268.721 202.723C268.782 202.723 268.842 202.723 268.899 202.712V200.23H270.091V204.024H269.065C266.606 204.024 266.202 201.422 263.792 201.422C263.035 201.418 262.835 201.679 262.835 202.099Z" fill="white"/>
<path d="M265.317 199.352V196.965H266.509V199.352H265.317Z" fill="white"/>
<path d="M262.786 195.259C262.786 194.245 262.298 194.018 261.734 193.814V192.933H270.087V194.245H263.716V195.259H262.786Z" fill="white"/>
<path d="M263.739 191.453C262.404 191.453 261.64 190.75 261.64 189.46C261.64 188.17 262.404 187.466 263.739 187.466H268.082C269.417 187.466 270.182 188.17 270.182 189.46C270.182 190.75 269.417 191.453 268.082 191.453H263.739ZM268.165 190.141C268.763 190.141 268.99 189.88 268.99 189.46C268.99 189.044 268.763 188.779 268.165 188.779H263.656C263.058 188.779 262.831 189.04 262.831 189.46C262.831 189.876 263.058 190.141 263.656 190.141H268.165Z" fill="white"/>
<path d="M263.788 184.092C263.035 184.092 262.835 184.353 262.835 184.773C262.835 185.192 263.062 185.454 263.659 185.454H264.197V186.694H263.743C262.407 186.694 261.643 186.025 261.643 184.739C261.643 183.452 262.407 182.783 263.743 182.783H263.958C264.855 182.783 265.415 183.07 265.676 183.702C265.963 183.048 266.584 182.783 267.431 182.783H268.085C269.421 182.783 270.185 183.452 270.185 184.739C270.185 186.025 269.421 186.694 268.085 186.694H267.393V185.454H268.169C268.766 185.454 268.993 185.192 268.993 184.773C268.993 184.353 268.789 184.092 268.051 184.092H267.397C266.621 184.092 266.334 184.353 266.334 184.95V185.393H265.142V184.878C265.142 184.39 264.927 184.092 264.261 184.092H263.788Z" fill="white"/>
<path d="M265.317 181.954V179.567H266.509V181.954H265.317Z" fill="white"/>
<path d="M263.788 176.144C263.035 176.144 262.835 176.405 262.835 176.825C262.835 177.245 263.062 177.506 263.659 177.506H264.197V178.746H263.743C262.407 178.746 261.643 178.077 261.643 176.791C261.643 175.504 262.407 174.835 263.743 174.835H263.958C264.855 174.835 265.415 175.122 265.676 175.754C265.963 175.1 266.584 174.835 267.431 174.835H268.085C269.421 174.835 270.185 175.504 270.185 176.791C270.185 178.077 269.421 178.746 268.085 178.746H267.393V177.506H268.169C268.766 177.506 268.993 177.245 268.993 176.825C268.993 176.405 268.789 176.144 268.051 176.144H267.397C266.621 176.144 266.334 176.405 266.334 177.002V177.445H265.142V176.931C265.142 176.443 264.927 176.144 264.261 176.144H263.788Z" fill="white"/>
<path d="M263.788 171.419C263.035 171.419 262.835 171.68 262.835 172.1C262.835 172.516 263.062 172.781 263.659 172.781H264.197V174.021H263.743C262.407 174.021 261.643 173.352 261.643 172.066C261.643 170.779 262.407 170.11 263.743 170.11H263.958C264.855 170.11 265.415 170.397 265.676 171.029C265.963 170.375 266.584 170.11 267.431 170.11H268.085C269.421 170.11 270.185 170.779 270.185 172.066C270.185 173.352 269.421 174.021 268.085 174.021H267.393V172.781H268.169C268.766 172.781 268.993 172.519 268.993 172.1C268.993 171.683 268.789 171.419 268.051 171.419H267.397C266.621 171.419 266.334 171.68 266.334 172.277V172.72H265.142V172.206C265.142 171.718 264.927 171.419 264.261 171.419H263.788Z" fill="white"/>
<path d="M263.739 169.331C262.404 169.331 261.64 168.627 261.64 167.337C261.64 166.047 262.404 165.343 263.739 165.343H268.082C269.417 165.343 270.182 166.047 270.182 167.337C270.182 168.627 269.417 169.331 268.082 169.331H263.739ZM268.165 168.018C268.763 168.018 268.99 167.757 268.99 167.337C268.99 166.921 268.763 166.656 268.165 166.656H263.656C263.058 166.656 262.831 166.917 262.831 167.337C262.831 167.753 263.058 168.018 263.656 168.018H268.165Z" fill="white"/>
<path d="M265.317 164.556V162.169H266.509V164.556H265.317Z" fill="white"/>
<path d="M263.811 161.36C262.404 161.36 261.64 160.717 261.64 159.355C261.64 158.065 262.404 157.399 263.739 157.399H263.955V158.64H263.656C263.058 158.64 262.831 158.901 262.831 159.321C262.831 159.786 263.058 160.047 263.856 160.047H265.385C264.908 159.82 264.643 159.415 264.643 158.829C264.643 157.864 265.324 157.372 266.554 157.372H268.082C269.417 157.372 270.182 158.076 270.182 159.366C270.182 160.656 269.417 161.36 268.082 161.36H263.811ZM266.663 160.047H268.165C268.763 160.047 268.979 159.786 268.979 159.366C268.979 158.95 268.763 158.685 268.165 158.685H266.663C266.066 158.685 265.839 158.946 265.839 159.366C265.839 159.786 266.066 160.047 266.663 160.047Z" fill="white"/>
<path d="M263.739 156.657C262.404 156.657 261.64 155.954 261.64 154.664C261.64 153.374 262.404 152.67 263.739 152.67H268.082C269.417 152.67 270.182 153.374 270.182 154.664C270.182 155.954 269.417 156.657 268.082 156.657H263.739ZM268.165 155.345C268.763 155.345 268.99 155.084 268.99 154.664C268.99 154.248 268.763 153.983 268.165 153.983H263.656C263.058 153.983 262.831 154.244 262.831 154.664C262.831 155.08 263.058 155.345 263.656 155.345H268.165Z" fill="white"/>
<path d="M268.011 147.972C269.418 147.972 270.183 148.615 270.183 149.977C270.183 151.267 269.418 151.932 268.083 151.932H267.867V150.692H268.166C268.764 150.692 268.991 150.431 268.991 150.011C268.991 149.545 268.764 149.284 267.966 149.284H266.437C266.914 149.511 267.179 149.916 267.179 150.503C267.179 151.467 266.498 151.959 265.269 151.959H263.74C262.405 151.959 261.641 151.255 261.641 149.965C261.641 148.675 262.405 147.972 263.74 147.972H268.011ZM265.163 149.284H263.661C263.063 149.284 262.851 149.545 262.851 149.965C262.851 150.381 263.067 150.646 263.661 150.646H265.163C265.76 150.646 265.987 150.385 265.987 149.965C265.983 149.545 265.757 149.284 265.163 149.284Z" fill="white"/>
<path d="M282.022 198.762V200.086L280.505 200.313V201.925L282.022 202.152V203.358L273.669 202.023V200.101L282.022 198.762ZM279.37 201.758V200.495L275.145 201.126L279.37 201.758Z" fill="white"/>
<path d="M280.838 198.524C280.838 197.926 280.755 197.737 279.979 197.714L273.669 197.499V193.788H282.022V195.123H274.865V196.269L279.911 196.413C281.44 196.462 282.034 197.011 282.034 198.323V198.528H280.838V198.524Z" fill="white"/>
<path d="M282.022 188.537V189.861L280.505 190.088V191.699L282.022 191.926V193.133L273.669 191.798V189.876L282.022 188.537ZM279.37 191.533V190.269L275.145 190.901L279.37 191.533Z" fill="white"/>
<path d="M282.022 186.615V187.928H273.669V186.615H277.248V185.124H273.669V183.789H282.022V185.124H278.444V186.615H282.022Z" fill="white"/>
<path d="M279.896 178.073C281.398 178.383 282.151 178.898 282.034 180.721H280.865C280.914 180.051 280.793 179.669 280.184 179.563L280.112 179.552L273.669 181.364V180.063L276.522 179.348L278.478 178.943L276.533 178.633L273.669 178.035V176.662L279.896 178.073Z" fill="white"/>
<path d="M275.674 176.223C274.339 176.223 273.575 175.519 273.575 174.229C273.575 172.939 274.339 172.236 275.674 172.236H280.017C281.353 172.236 282.117 172.939 282.117 174.229C282.117 175.519 281.353 176.223 280.017 176.223H275.674ZM280.1 174.91C280.698 174.91 280.925 174.649 280.925 174.229C280.925 173.813 280.698 173.549 280.1 173.549H275.591C274.993 173.549 274.766 173.81 274.766 174.229C274.766 174.646 274.993 174.91 275.591 174.91H280.1Z" fill="white"/>
<path d="M278.693 169.671L279.457 170.076H282.022V171.388H273.669V170.076H277.309L273.669 168.358V167.045L277.392 168.873L282.022 167.045V168.392L278.693 169.671Z" fill="white"/>
<path d="M277.188 165.135V163.334H278.38V165.135H280.827V162.869H282.019V166.448H273.666V162.869H274.858V165.135H277.188Z" fill="white"/>
<path d="M275.732 158.167H276.817C278.153 158.167 278.883 158.81 278.883 160.123V160.743H282.019V162.056H273.666V160.123C273.67 158.81 274.396 158.167 275.732 158.167ZM274.861 160.743H277.687V160.123C277.687 159.707 277.498 159.48 276.9 159.48H275.648C275.051 159.48 274.861 159.707 274.861 160.123V160.743Z" fill="white"/>
<path d="M230.634 15.7107C234.655 15.7107 238.673 15.7107 242.694 15.7107C243.228 15.8431 243.757 16.0171 244.302 16.1003C250.582 17.0915 256.532 18.9414 261.439 23.1821C265.823 26.9727 267.878 31.7052 266.841 37.5915C266.187 41.3178 264.526 44.5787 262.491 47.6959C258.027 54.5318 252.466 60.3841 246.394 65.7975C243.069 68.7634 239.721 71.7141 236.573 74.8578C234.701 76.7266 235.272 78.0695 237.852 78.5954C238.158 78.6559 238.476 78.6748 238.79 78.6824C244.499 78.8035 250.219 78.7429 255.912 79.1023C259.824 79.3482 263.769 79.9081 267.575 80.8311C271.369 81.7542 273.616 84.2472 273.726 88.5257C273.847 93.1486 275.171 94.4121 279.696 95.2481C280.248 95.3503 280.796 95.4865 281.341 95.6302C283.581 96.2241 284.833 97.7184 285.264 99.9542C286.35 105.598 284.413 109.173 278.829 110.66C275.417 111.568 271.793 112.064 268.26 112.086C248.1 112.222 227.94 112.173 207.781 112.151C205.655 112.147 203.487 112.113 201.414 111.708C195.846 110.622 190.285 109.378 189.188 102.371C189.188 102.247 189.188 102.122 189.188 101.993C189.297 101.513 189.445 101.04 189.509 100.556C190.08 96.1636 191.416 94.6958 195.721 93.7538C196.209 93.6479 196.701 93.5458 197.185 93.4209C200.23 92.6341 201.198 91.4008 201.27 88.2382C201.407 82.0682 204.251 79.1969 210.406 79.0077C213.308 78.9169 214.129 78.1982 214.465 75.221C214.976 70.7343 216.773 66.8795 220.193 63.9249C222.319 62.0864 224.642 60.4711 226.927 58.8255C230.589 56.1887 234.413 53.7638 237.946 50.9682C241.79 47.9229 245.335 44.5106 247.256 39.8197C248.857 35.9119 247.65 32.4391 244.083 30.5438C241.608 29.2311 238.938 28.8793 236.229 29.3862C234.148 29.7759 232.026 30.5665 231.716 33.0065C231.383 35.6092 229.9 37.2094 227.717 38.0039C223.56 39.5171 219.368 41.0984 215.052 41.9609C210.781 42.8121 206.76 43.667 203.953 47.3592C203.082 48.5055 202 49.4928 201.13 50.6353C198.864 53.6125 196.666 56.6427 194.359 59.7561C194.631 57.4485 196.103 55.3867 195.161 52.3906C193.114 54.248 191.401 55.8029 189.687 57.3577C192.789 50.4045 199.023 46.5837 204.879 42.343C203.975 41.9004 203.116 41.5599 202.341 41.087C200.987 40.2661 200.419 38.9534 201.047 37.5348C202.356 34.5727 203.517 31.4555 205.367 28.8415C209.846 22.5125 216.425 19.2024 223.741 17.2315C226.004 16.63 228.33 16.2176 230.634 15.7107ZM218.96 26.9121C218.892 25.3649 217.753 24.5251 216.535 24.9109C214.352 25.6032 212.99 27.2261 212.177 29.2765C211.742 30.3774 212.347 31.1302 213.482 30.7178C215.044 30.1466 216.557 29.3711 217.972 28.4896C218.525 28.1454 218.744 27.2791 218.96 26.9121Z" fill="#BBC3C3"/>
<path d="M218.96 26.9122C218.744 27.2792 218.525 28.1455 217.976 28.4859C216.561 29.3674 215.048 30.1467 213.486 30.7141C212.351 31.1265 211.742 30.3737 212.181 29.2728C212.994 27.2224 214.356 25.6033 216.539 24.9072C217.753 24.5251 218.892 25.365 218.96 26.9122Z" fill="#1A1A37"/>
</g>
<defs>
<clipPath id="clip0_89:308">
<rect width="299.034" height="227.558" fill="white"/>
</clipPath>
</defs>
</svg>
