<svg width="535" height="710" viewBox="0 0 535 710" fill="none" xmlns="http://www.w3.org/2000/svg">
<path d="M535 710L535 0L0 0L0 710L535 710Z" fill="#BBC3C3"/>
<path d="M516.444 79.045H16.7358V560.649H516.444V79.045Z" fill="#1A1A37"/>
<path d="M351.044 471.493H182.135V633.249H351.044V471.493Z" fill="#1A1A37"/>
<path opacity="0.82" d="M444.235 517.91L268.197 437.951L88.9448 517.91V79.5038H444.235V517.91Z" fill="#16142D"/>
<path d="M396.051 211.705C391.49 216.682 387.145 221.767 382.441 226.473C366.819 242.105 349.33 255.218 329.57 265.18C316.04 272.001 301.873 276.951 286.925 279.525C277.328 281.181 267.65 281.856 257.917 281.298C238.462 280.2 220.058 275.061 202.578 266.557C177.215 254.219 155.525 237.084 137.031 215.827C135.827 214.441 134.714 212.983 133.466 211.444C135.217 209.329 136.887 207.143 138.727 205.109C159.143 182.457 182.916 164.422 211.107 152.552C222.266 147.854 233.848 144.588 245.851 142.878C254.919 141.582 264.013 141.087 273.153 141.726C289.924 142.896 305.967 147.036 321.301 153.857C348.998 166.186 372.403 184.293 392.298 207.089C393.501 208.457 394.615 209.923 396.051 211.705ZM206.833 211.426C206.78 243.311 232.753 269.347 264.633 269.374C296.531 269.401 322.415 243.482 322.441 211.498C322.468 179.55 296.603 153.569 264.705 153.488C232.959 153.416 206.887 179.514 206.833 211.426ZM211.583 165.745C187.675 176.653 167.259 192.321 149.213 211.453C167.304 230.631 187.729 246.308 211.646 257.215C200.684 243.941 194.839 228.795 194.812 211.543C194.794 194.255 200.621 179.064 211.583 165.745ZM317.773 165.763C328.717 179.037 334.526 194.219 334.526 211.435C334.535 228.687 328.717 243.896 317.54 257.233C332.82 252.311 371.712 223.684 379.981 211.318C362.052 192.312 341.672 176.662 317.773 165.763Z" fill="#BBC3C3"/>
<path d="M392.765 172.999C389.569 175.987 386.687 178.686 383.787 181.413C381.453 179.244 379.235 177.103 376.937 175.06C357.877 158.213 336.608 145.038 312.61 136.452C302.95 132.996 293.029 130.54 282.867 129.172C272.964 127.831 263.016 127.525 253.051 128.416C233.767 130.153 215.55 135.678 198.214 144.192C178.948 153.65 161.558 165.808 146.223 180.882C146.044 181.053 145.855 181.215 145.604 181.44C142.695 178.722 139.813 176.023 137.156 173.539C139.275 171.253 141.178 168.859 143.413 166.834C160.866 150.968 180.357 138.225 202.084 129.019C214.536 123.745 227.41 119.929 240.787 117.787C252.072 115.978 263.403 115.367 274.795 116.158C295.067 117.571 314.343 122.89 332.739 131.421C354.483 141.51 373.974 154.919 391.104 171.739C391.562 172.198 392.145 172.54 392.765 172.999Z" fill="#BBC3C3"/>
<path d="M282.742 177.678C275.191 181.368 272.211 186.084 273.405 192.446C274.455 198.071 279.348 202.517 284.87 202.868C291.145 203.273 296.074 199.799 298.247 193.436C304.316 202.733 306.165 221.785 294.045 236.13C280.461 252.203 257.083 254.524 240.752 241.493C224.601 228.615 221.531 205.19 233.947 188.514C246.444 171.712 268.252 169.354 282.742 177.678Z" fill="#BBC3C3"/>
<path d="M119.972 539.869C119.972 539.869 91.333 555.357 64.3186 542.947C37.3042 530.537 15.8022 544.639 15.8022 544.639" stroke="white" stroke-width="3.35083" stroke-miterlimit="10"/>
<path d="M16.7002 516.533V523.49L39.8362 539.14L67.47 557.841L84.1868 547.689H84.1958L108.301 533.056L108.634 525.929L74.7062 546.429L67.5868 550.731L50.6006 539.311H50.5916L16.7002 516.533Z" fill="#1A1A37" stroke="white" stroke-width="3.35083" stroke-miterlimit="10"/>
<path d="M99.3859 506.175C99.3859 506.175 84.5814 534.829 113.4 536.854" stroke="white" stroke-width="3.35083" stroke-miterlimit="10"/>
<path d="M105.599 494.89C101.784 495.574 98.8838 499.047 98.8838 503.232C98.8838 507.417 101.784 510.882 105.599 511.575C106.317 511.701 106.982 511.161 106.982 510.423V496.042C106.982 495.304 106.317 494.755 105.599 494.89Z" fill="#1A1A37"/>
<path d="M107.081 496.527V510.81C107.081 511.709 107.799 512.447 108.706 512.465L108.93 512.474C109.927 512.492 110.555 513.311 110.555 514.148C110.555 514.625 110.349 515.12 109.882 515.462C109.496 515.75 109.254 516.2 109.218 516.686L108.221 532.363C108.185 532.885 108.401 533.389 108.796 533.722L115.466 539.464C115.763 539.725 116.149 539.86 116.544 539.86H123.537C124.049 539.86 124.534 539.617 124.848 539.212L126.141 537.52C126.509 537.034 127.12 536.791 127.721 536.89L135.658 538.186C135.747 538.204 135.837 538.204 135.927 538.204H141.394C141.888 538.204 142.355 537.988 142.669 537.601L145.847 533.758C146.09 533.461 146.225 533.083 146.225 532.696V531.22C146.225 530.779 146.045 530.347 145.731 530.032L143.531 527.872C143.199 527.548 143.019 527.098 143.037 526.631L143.666 507.255C143.693 506.328 142.966 505.554 142.041 505.545L131.339 505.401C130.432 505.392 129.705 504.654 129.705 503.745V500.523C129.705 499.605 128.969 498.867 128.053 498.867H126.949C126.024 498.867 125.279 498.111 125.297 497.184L125.306 496.518C125.324 495.592 124.579 494.836 123.654 494.836H108.733C107.817 494.872 107.081 495.61 107.081 496.527Z" fill="#1A1A37"/>
<path d="M149.582 501.531C156.289 499.065 162.223 492.361 163.363 485.485C165.491 472.715 155.956 461.637 143.72 461.205C139.778 461.07 136.079 462.015 132.901 463.779C126.401 467.387 122.101 474.407 122.325 482.507C122.424 485.944 123.349 489.175 124.92 491.992C124.992 492.127 125.162 492.172 125.297 492.091L133.7 487.105C132.82 485.53 132.327 483.712 132.345 481.778C132.398 475.928 137.184 471.176 143.019 471.176C145.048 471.176 146.943 471.743 148.559 472.733C149.699 473.426 150.695 474.335 151.503 475.397C152.859 477.179 153.676 479.411 153.685 481.832C153.712 487.69 148.981 492.514 143.136 492.577C142.014 492.586 140.927 492.424 139.904 492.118L136.771 501.387C136.717 501.531 136.798 501.693 136.95 501.738C139.976 502.665 143.298 502.908 146.745 502.305C147.697 502.134 148.648 501.873 149.582 501.531Z" fill="#1A1A37"/>
<path d="M128.358 451.09V458.271C128.358 458.784 128.555 459.279 128.915 459.648L132.856 463.716L132.901 463.788C136.07 462.024 139.769 461.079 143.719 461.214C155.956 461.637 165.49 472.724 163.363 485.494C162.222 492.37 156.288 499.074 149.582 501.54L149.725 518.54C149.734 519.62 150.614 520.493 151.691 520.493H160.077C161.136 520.493 162.007 519.647 162.043 518.576L162.142 515.219C162.16 514.491 162.582 513.843 163.228 513.519L166.891 511.683C167.546 511.35 167.968 510.684 167.977 509.946L168.273 486.988C168.282 486.601 168.399 486.223 168.615 485.908L171.093 482.255C171.308 481.931 171.434 481.553 171.434 481.157L171.55 461.223C171.55 460.638 171.82 460.08 172.278 459.711L172.574 459.468C173.032 459.09 173.301 458.532 173.301 457.938V454.419C173.301 453.978 173.157 453.555 172.888 453.204L171.577 451.522C171.2 451.045 170.635 450.766 170.024 450.766H164.53C164.458 450.766 164.395 450.766 164.323 450.775L163.012 450.91C162.366 450.982 161.729 450.721 161.307 450.226L159.978 448.66C159.61 448.228 159.08 447.976 158.524 447.967L146.888 447.715C146.35 447.706 145.874 447.481 145.524 447.121C145.173 446.761 144.967 446.275 144.967 445.744C144.967 444.655 144.087 443.773 143.001 443.773H134.831C133.745 443.773 132.865 444.655 132.865 445.744V447.148C132.865 448.237 131.985 449.119 130.899 449.119H130.333C129.238 449.119 128.358 450.001 128.358 451.09Z" fill="#1A1A37"/>
<path d="M147.948 478.718C147.392 477.854 146.62 477.143 145.704 476.675C144.905 476.261 143.989 476.027 143.028 476.027C139.796 476.027 137.175 478.655 137.175 481.895C137.175 485.135 139.796 487.762 143.028 487.762C146.26 487.762 148.882 485.135 148.882 481.895C148.873 480.716 148.532 479.627 147.948 478.718Z" fill="#1A1A37"/>
<path d="M148.569 472.742L145.705 476.666C146.62 477.134 147.392 477.845 147.949 478.709L151.513 475.397C150.705 474.344 149.709 473.435 148.569 472.742Z" fill="#1A1A37"/>
<path d="M132.865 463.716L128.923 459.648C128.564 459.279 128.367 458.784 128.367 458.271V451.09C128.367 450.001 129.247 449.119 130.333 449.119H130.898C131.985 449.119 132.865 448.237 132.865 447.148V445.744C132.865 444.655 133.744 443.773 134.831 443.773H143.001C144.087 443.773 144.967 444.655 144.967 445.744C144.967 446.284 145.182 446.77 145.523 447.121C145.874 447.481 146.349 447.706 146.888 447.715L158.523 447.967C159.089 447.976 159.619 448.228 159.978 448.66L161.306 450.226C161.728 450.721 162.366 450.973 163.012 450.91L164.323 450.775C164.395 450.766 164.458 450.766 164.53 450.766H170.024C170.634 450.766 171.2 451.045 171.577 451.522L172.888 453.204C173.157 453.555 173.301 453.978 173.301 454.419V457.938C173.301 458.532 173.032 459.09 172.574 459.468L172.277 459.711C171.82 460.08 171.559 460.638 171.55 461.223L171.434 481.157C171.434 481.553 171.317 481.931 171.092 482.255L168.614 485.908C168.399 486.232 168.282 486.601 168.273 486.988L167.977 509.946C167.968 510.684 167.546 511.35 166.891 511.683L163.228 513.519C162.581 513.843 162.159 514.5 162.141 515.219L162.043 518.576C162.007 519.638 161.136 520.493 160.077 520.493H151.691C150.614 520.493 149.734 519.62 149.725 518.54L149.581 501.54V501.423" stroke="white" stroke-width="3.35083" stroke-miterlimit="10"/>
<path d="M139.913 492.118L136.78 501.387C136.726 501.531 136.807 501.693 136.959 501.738C139.985 502.665 143.307 502.908 146.754 502.305C147.706 502.134 148.648 501.873 149.582 501.531C156.289 499.065 162.223 492.361 163.363 485.485C165.491 472.715 155.956 461.637 143.72 461.205C139.778 461.07 136.079 462.015 132.901 463.779C126.401 467.387 122.101 474.407 122.325 482.507C122.424 485.944 123.349 489.175 124.92 491.992C124.992 492.127 125.162 492.172 125.297 492.091L133.7 487.105" stroke="white" stroke-width="3.35083" stroke-miterlimit="10"/>
<path d="M139.914 492.118C140.937 492.433 142.024 492.595 143.146 492.577C148.99 492.514 153.722 487.69 153.695 481.831C153.686 479.411 152.869 477.188 151.513 475.397C150.705 474.335 149.709 473.435 148.569 472.733C146.952 471.743 145.058 471.176 143.029 471.176C137.194 471.176 132.408 475.928 132.354 481.777C132.337 483.712 132.83 485.53 133.71 487.105" stroke="white" stroke-width="3.35083" stroke-miterlimit="10"/>
<path d="M143.674 507.291L143.046 526.667C143.028 527.135 143.207 527.576 143.539 527.909L145.739 530.069C146.053 530.384 146.233 530.807 146.233 531.257V532.733C146.233 533.12 146.098 533.488 145.856 533.794L142.678 537.637C142.363 538.015 141.897 538.24 141.403 538.24H135.935C135.845 538.24 135.756 538.231 135.666 538.222L127.729 536.926C127.128 536.827 126.517 537.07 126.149 537.556L124.857 539.248C124.542 539.662 124.058 539.896 123.546 539.896H116.552C116.157 539.896 115.771 539.752 115.475 539.5L108.804 533.758C108.409 533.416 108.203 532.913 108.23 532.4L109.226 516.723C109.253 516.237 109.495 515.787 109.89 515.499C110.357 515.157 110.564 514.662 110.564 514.185C110.564 513.348 109.944 512.529 108.939 512.511L108.714 512.502C107.817 512.484 107.089 511.746 107.089 510.846V496.564C107.089 495.646 107.826 494.908 108.741 494.908H123.662C124.587 494.908 125.332 495.664 125.314 496.591L125.305 497.257C125.287 498.184 126.033 498.94 126.957 498.94H128.062C128.977 498.94 129.714 499.678 129.714 500.596V503.817C129.714 504.726 130.441 505.464 131.348 505.473L142.049 505.617C142.965 505.59 143.701 506.364 143.674 507.291Z" stroke="white" stroke-width="3.35083" stroke-miterlimit="10"/>
<path d="M145.694 476.675C144.895 476.261 143.979 476.027 143.019 476.027C139.787 476.027 137.165 478.655 137.165 481.895C137.165 485.135 139.787 487.762 143.019 487.762C146.251 487.762 148.872 485.135 148.872 481.895C148.872 480.725 148.531 479.636 147.947 478.727C147.391 477.854 146.61 477.143 145.694 476.675Z" stroke="white" stroke-width="3.35083" stroke-miterlimit="10"/>
<path d="M151.512 475.406L147.948 478.718H147.939" stroke="white" stroke-width="3.35083" stroke-miterlimit="10"/>
<path d="M148.568 472.742L145.695 476.675" stroke="white" stroke-width="3.35083" stroke-miterlimit="10"/>
<path d="M98.8838 503.223C98.8838 507.408 101.784 510.873 105.599 511.566C106.317 511.692 106.982 511.152 106.982 510.414V496.033C106.982 495.295 106.317 494.755 105.599 494.881C101.784 495.574 98.8838 499.048 98.8838 503.223Z" stroke="white" stroke-width="3.35083" stroke-miterlimit="10"/>
<path d="M137.318 448.282H140.918C141.538 448.282 142.04 447.778 142.04 447.157C142.04 446.536 141.538 446.032 140.918 446.032H137.318C136.699 446.032 136.196 446.536 136.196 447.157C136.196 447.778 136.699 448.282 137.318 448.282Z" fill="#1A1A37" stroke="white" stroke-width="3.35083" stroke-miterlimit="10"/>
<path d="M145.74 530.051C145.74 530.051 173.284 527.666 162.142 515.22" stroke="white" stroke-width="3.35083" stroke-miterlimit="10"/>
<path d="M67.695 559.083C70.3676 559.083 72.5341 556.911 72.5341 554.232C72.5341 551.553 70.3676 549.381 67.695 549.381C65.0225 549.381 62.856 551.553 62.856 554.232C62.856 556.911 65.0225 559.083 67.695 559.083Z" fill="#1A1A37" stroke="white" stroke-width="3.35083" stroke-miterlimit="10"/>
<path d="M414.069 539.869C414.069 539.869 442.709 555.357 469.723 542.947C496.737 530.537 518.24 544.639 518.24 544.639" stroke="white" stroke-width="3.35083" stroke-miterlimit="10"/>
<path d="M517.341 516.534V523.49L494.214 539.14L466.572 557.841L449.855 547.69L425.749 533.056L425.417 525.929L459.344 546.43L466.464 550.731L483.45 539.311H483.459L517.341 516.534Z" fill="#1A1A37" stroke="white" stroke-width="3.35083" stroke-miterlimit="10"/>
<path d="M434.664 506.175C434.664 506.175 449.469 534.83 420.65 536.854" stroke="white" stroke-width="3.35083" stroke-miterlimit="10"/>
<path d="M428.452 494.89C432.268 495.574 435.167 499.048 435.167 503.233C435.167 507.417 432.268 510.882 428.452 511.575C427.734 511.701 427.069 511.161 427.069 510.423V496.042C427.06 495.304 427.725 494.755 428.452 494.89Z" fill="#1A1A37"/>
<path d="M426.971 496.528V510.81C426.971 511.71 426.252 512.448 425.346 512.466L425.121 512.475C424.125 512.493 423.496 513.312 423.496 514.149C423.496 514.626 423.703 515.121 424.17 515.463C424.556 515.751 424.798 516.201 424.834 516.687L425.83 532.364C425.866 532.886 425.651 533.39 425.256 533.723L418.585 539.464C418.289 539.725 417.903 539.86 417.508 539.86H410.514C410.002 539.86 409.518 539.617 409.203 539.212L407.911 537.52C407.543 537.034 406.932 536.792 406.331 536.89L398.394 538.186C398.304 538.204 398.215 538.204 398.125 538.204H392.657C392.163 538.204 391.697 537.988 391.382 537.601L388.204 533.759C387.962 533.462 387.827 533.084 387.827 532.697V531.221C387.827 530.78 388.007 530.348 388.321 530.033L390.521 527.873C390.853 527.549 391.032 527.099 391.014 526.631L390.386 507.255C390.359 506.328 391.086 505.555 392.011 505.546L402.712 505.402C403.619 505.393 404.346 504.655 404.346 503.746V500.524C404.346 499.606 405.083 498.868 405.998 498.868H407.103C408.027 498.868 408.773 498.112 408.755 497.185L408.746 496.519C408.728 495.592 409.473 494.836 410.398 494.836H425.319C426.225 494.872 426.971 495.61 426.971 496.528Z" fill="#1A1A37"/>
<path d="M384.469 501.532C377.763 499.066 371.828 492.361 370.688 485.486C368.56 472.716 378.095 461.637 390.332 461.205C394.273 461.07 397.972 462.015 401.15 463.779C407.65 467.388 411.95 474.408 411.726 482.507C411.627 485.945 410.702 489.176 409.131 491.992C409.059 492.127 408.889 492.172 408.754 492.091L400.351 487.106C401.231 485.531 401.724 483.713 401.707 481.778C401.653 475.928 396.867 471.177 391.032 471.177C389.003 471.177 387.108 471.744 385.492 472.734C384.352 473.427 383.356 474.336 382.548 475.397C381.192 477.179 380.375 479.411 380.366 481.832C380.339 487.691 385.071 492.514 390.915 492.577C392.037 492.586 393.124 492.424 394.147 492.118L397.28 501.388C397.334 501.532 397.253 501.694 397.101 501.739C394.075 502.666 390.754 502.909 387.306 502.306C386.345 502.135 385.403 501.874 384.469 501.532Z" fill="#1A1A37"/>
<path d="M405.685 451.09V458.271C405.685 458.784 405.487 459.279 405.128 459.648L401.187 463.716L401.142 463.788C397.973 462.024 394.274 461.079 390.324 461.214C378.087 461.637 368.552 472.724 370.68 485.494C371.82 492.37 377.755 499.075 384.461 501.54L384.318 518.54C384.309 519.62 383.429 520.493 382.351 520.493H373.966C372.907 520.493 372.036 519.647 372 518.576L371.901 515.22C371.883 514.491 371.461 513.843 370.815 513.519L367.152 511.683C366.497 511.35 366.075 510.684 366.066 509.946L365.769 486.988C365.76 486.601 365.644 486.223 365.428 485.908L362.95 482.255C362.735 481.931 362.609 481.553 362.609 481.157L362.492 461.223C362.492 460.638 362.223 460.08 361.765 459.711L361.469 459.468C361.011 459.09 360.742 458.532 360.742 457.938V454.42C360.742 453.979 360.885 453.556 361.155 453.205L362.465 451.522C362.843 451.045 363.408 450.766 364.019 450.766H369.513C369.585 450.766 369.648 450.766 369.72 450.775L371.03 450.91C371.677 450.982 372.314 450.721 372.736 450.226L374.065 448.66C374.433 448.228 374.963 447.976 375.519 447.967L387.155 447.715C387.693 447.706 388.169 447.481 388.519 447.121C388.869 446.761 389.076 446.275 389.076 445.744C389.076 444.655 389.956 443.773 391.042 443.773H399.212C400.298 443.773 401.178 444.655 401.178 445.744V447.148C401.178 448.237 402.058 449.119 403.144 449.119H403.71C404.805 449.119 405.685 450.001 405.685 451.09Z" fill="#1A1A37"/>
<path d="M386.103 478.718C386.659 477.854 387.431 477.143 388.347 476.675C389.146 476.261 390.062 476.027 391.023 476.027C394.255 476.027 396.876 478.655 396.876 481.895C396.876 485.135 394.255 487.763 391.023 487.763C387.79 487.763 385.169 485.135 385.169 481.895C385.178 480.716 385.519 479.627 386.103 478.718Z" fill="#1A1A37"/>
<path d="M385.483 472.742L388.347 476.666C387.432 477.134 386.659 477.845 386.103 478.709L382.539 475.397C383.347 474.344 384.343 473.435 385.483 472.742Z" fill="#1A1A37"/>
<path d="M401.19 463.716L405.131 459.648C405.49 459.279 405.688 458.784 405.688 458.271V451.09C405.688 450.001 404.808 449.119 403.722 449.119H403.156C402.07 449.119 401.19 448.237 401.19 447.148V445.744C401.19 444.655 400.31 443.773 399.224 443.773H391.054C389.967 443.773 389.088 444.655 389.088 445.744C389.088 446.284 388.872 446.77 388.531 447.121C388.181 447.481 387.705 447.706 387.166 447.715L375.531 447.967C374.965 447.976 374.436 448.228 374.077 448.66L372.748 450.226C372.326 450.721 371.688 450.973 371.042 450.91L369.731 450.775C369.659 450.766 369.597 450.766 369.525 450.766H364.03C363.42 450.766 362.854 451.045 362.477 451.522L361.166 453.204C360.897 453.555 360.753 453.978 360.753 454.419V457.938C360.753 458.532 361.023 459.09 361.481 459.468L361.777 459.711C362.235 460.08 362.495 460.638 362.504 461.223L362.621 481.157C362.621 481.553 362.738 481.931 362.962 482.255L365.44 485.908C365.655 486.232 365.772 486.601 365.781 486.988L366.077 509.946C366.086 510.684 366.508 511.35 367.164 511.683L370.827 513.519C371.473 513.843 371.895 514.5 371.913 515.219L372.012 518.576C372.048 519.638 372.918 520.493 373.978 520.493H382.363C383.44 520.493 384.32 519.62 384.329 518.54L384.473 501.54V501.423" stroke="white" stroke-width="3.35083" stroke-miterlimit="10"/>
<path d="M394.138 492.118L397.271 501.388C397.325 501.532 397.245 501.694 397.092 501.739C394.066 502.665 390.745 502.908 387.297 502.305C386.345 502.134 385.403 501.873 384.469 501.531C377.763 499.066 371.828 492.361 370.688 485.486C368.56 472.715 378.095 461.637 390.332 461.205C394.273 461.07 397.972 462.015 401.15 463.779C407.65 467.388 411.95 474.407 411.726 482.507C411.627 485.945 410.702 489.175 409.131 491.992C409.059 492.127 408.889 492.172 408.754 492.091L400.351 487.105" stroke="white" stroke-width="3.35083" stroke-miterlimit="10"/>
<path d="M394.138 492.118C393.114 492.433 392.028 492.595 390.906 492.577C385.061 492.514 380.33 487.69 380.357 481.831C380.366 479.411 381.183 477.188 382.538 475.397C383.346 474.335 384.343 473.435 385.483 472.733C387.099 471.743 388.993 471.176 391.022 471.176C396.858 471.176 401.643 475.928 401.697 481.777C401.715 483.712 401.221 485.53 400.341 487.105" stroke="white" stroke-width="3.35083" stroke-miterlimit="10"/>
<path d="M390.376 507.291L391.004 526.667C391.022 527.135 390.842 527.576 390.51 527.909L388.311 530.069C387.996 530.384 387.817 530.807 387.817 531.256V532.732C387.817 533.119 387.952 533.488 388.194 533.794L391.372 537.637C391.686 538.015 392.153 538.24 392.647 538.24H398.115C398.204 538.24 398.294 538.231 398.384 538.222L406.32 536.926C406.922 536.827 407.532 537.07 407.9 537.556L409.193 539.248C409.507 539.662 409.992 539.896 410.504 539.896H417.498C417.893 539.896 418.279 539.752 418.575 539.5L425.246 533.758C425.641 533.416 425.847 532.912 425.82 532.399L424.824 516.722C424.797 516.236 424.554 515.786 424.159 515.499C423.692 515.157 423.486 514.662 423.486 514.185C423.486 513.348 424.105 512.529 425.111 512.511L425.335 512.502C426.233 512.484 426.96 511.746 426.96 510.846V496.564C426.96 495.646 426.224 494.908 425.308 494.908H410.387C409.463 494.908 408.717 495.664 408.735 496.591L408.744 497.257C408.762 498.184 408.017 498.94 407.092 498.94H405.988C405.072 498.94 404.336 499.678 404.336 500.595V503.817C404.336 504.726 403.609 505.464 402.702 505.473L392.001 505.617C391.076 505.59 390.349 506.364 390.376 507.291Z" stroke="white" stroke-width="3.35083" stroke-miterlimit="10"/>
<path d="M388.347 476.675C389.146 476.261 390.062 476.027 391.023 476.027C394.255 476.027 396.876 478.655 396.876 481.895C396.876 485.134 394.255 487.762 391.023 487.762C387.79 487.762 385.169 485.134 385.169 481.895C385.169 480.725 385.51 479.636 386.094 478.727C386.659 477.854 387.431 477.143 388.347 476.675Z" stroke="white" stroke-width="3.35083" stroke-miterlimit="10"/>
<path d="M382.539 475.406L386.103 478.718" stroke="white" stroke-width="3.35083" stroke-miterlimit="10"/>
<path d="M385.483 472.742L388.347 476.675H388.356" stroke="white" stroke-width="3.35083" stroke-miterlimit="10"/>
<path d="M435.167 503.224C435.167 507.408 432.268 510.873 428.452 511.566C427.734 511.692 427.069 511.152 427.069 510.414V496.033C427.069 495.295 427.734 494.755 428.452 494.881C432.268 495.574 435.167 499.048 435.167 503.224Z" stroke="white" stroke-width="3.35083" stroke-miterlimit="10"/>
<path d="M396.733 448.282H393.132C392.513 448.282 392.01 447.778 392.01 447.157C392.01 446.536 392.513 446.032 393.132 446.032H396.733C397.352 446.032 397.855 446.536 397.855 447.157C397.855 447.778 397.352 448.282 396.733 448.282Z" fill="#1A1A37" stroke="white" stroke-width="3.35083" stroke-miterlimit="10"/>
<path d="M388.311 530.051C388.311 530.051 360.767 527.666 371.909 515.219" stroke="white" stroke-width="3.35083" stroke-miterlimit="10"/>
<path d="M466.347 559.083C469.02 559.083 471.186 556.911 471.186 554.232C471.186 551.553 469.02 549.382 466.347 549.382C463.675 549.382 461.508 551.553 461.508 554.232C461.508 556.911 463.675 559.083 466.347 559.083Z" fill="#1A1A37" stroke="white" stroke-width="3.35083" stroke-miterlimit="10"/>
<path d="M117.952 316.522V342.836C117.952 374.532 102.142 392.639 71.6533 392.639C41.1645 392.639 25.3545 374.532 25.3545 342.836V239.829C25.3545 208.133 41.1645 190.026 71.6533 190.026C102.142 190.026 117.952 208.133 117.952 239.829V259.069H88.5946V237.849C88.5946 223.702 82.3819 218.32 72.5062 218.32C62.6306 218.32 56.4179 223.693 56.4179 237.849V344.816C56.4179 358.963 62.6306 364.057 72.5062 364.057C82.3819 364.057 88.5946 358.963 88.5946 344.816V316.513H117.952V316.522Z" fill="white"/>
<path d="M411.269 192.294H507.251V220.597H474.787V390.389H443.733V220.588H411.269V192.294Z" fill="white"/>
<path d="M155.838 383.684V376.07H136.85V383.684H128.205V368.133H131.679C133.214 366.189 133.699 364.083 133.861 360.762L135.881 319.365H160.767V368.133H164.646V383.684H155.838ZM142.587 360.6C142.345 364.893 141.537 366.756 140.082 368.133H151.718V327.464H144.203L142.587 360.6Z" fill="white"/>
<path d="M198.349 376.07H189.38L187.845 365.784H176.937L175.402 376.07H167.241L176.29 319.365H189.299L198.349 376.07ZM178.068 358.089H186.633L182.35 329.417L178.068 358.089Z" fill="white"/>
<path d="M211.599 376.07H202.469V319.365H210.387V355.255L213.619 342.781L220.891 319.374H230.668V376.079H222.669V336.14L219.033 350.071L211.599 376.07ZM220.73 306.73C220.487 309.727 219.114 310.456 216.69 310.456C214.346 310.456 213.134 309.727 212.892 306.73H207.398C207.559 312.237 210.468 315.72 216.69 315.72C222.992 315.72 226.143 312.237 226.143 306.73H220.73Z" fill="white"/>
<path d="M339.778 319.375H367.251V327.475H357.959V376.08H349.07V327.475H339.778V319.375Z" fill="white"/>
<path d="M380.026 343.268H392.227V351.367H380.026V367.971H395.378V376.071H371.138V319.365H395.378V327.465H380.026V343.268Z" fill="white"/>
<path d="M426.657 354.931V362.463C426.657 371.535 422.133 376.719 413.406 376.719C404.68 376.719 400.155 371.535 400.155 362.463V332.981C400.155 323.91 404.68 318.726 413.406 318.726C422.133 318.726 426.657 323.91 426.657 332.981V338.489H418.254V332.414C418.254 328.365 416.477 326.826 413.649 326.826C410.82 326.826 409.043 328.365 409.043 332.414V363.03C409.043 367.08 410.82 368.538 413.649 368.538C416.477 368.538 418.254 367.08 418.254 363.03V354.931H426.657Z" fill="white"/>
<g opacity="0.82">
<path opacity="0.82" d="M442.404 669.168C444.873 665.964 447.235 662.904 449.676 659.736C452.118 662.877 454.516 665.973 456.993 669.159C457.999 666.774 458.96 664.515 459.911 662.247C461.168 659.25 462.362 656.226 463.718 653.284C464.212 652.213 465.074 651.313 465.819 650.386C465.926 650.251 466.375 650.296 466.609 650.395C469.993 651.772 473.414 653.077 476.745 654.579C479.833 655.965 482.957 657.333 485.821 659.106C490.328 661.896 493.075 666.207 495.051 671.039C496.765 675.251 497.789 679.616 497.995 684.17C498.067 685.807 497.825 686.167 496.379 686.779C491.136 688.984 485.633 690.163 480.04 690.928C475.308 691.567 470.559 692.17 465.792 692.467C460.163 692.827 454.507 692.962 448.86 692.989C444.173 693.016 439.478 692.899 434.8 692.548C429.297 692.134 423.793 691.495 418.317 690.775C413.217 690.1 408.244 688.876 403.449 686.959C401.429 686.149 401.349 685.825 401.456 683.648C401.627 680.156 402.309 676.79 403.422 673.496C405.38 667.728 408.235 662.526 413.505 659.16C416.018 657.558 418.784 656.334 421.504 655.101C425.158 653.455 428.893 651.979 432.592 650.404C433.22 650.134 433.534 650.278 433.992 650.809C436.165 653.266 436.919 656.415 438.212 659.295C439.666 662.499 440.968 665.748 442.404 669.168ZM485.75 663.705C485.741 662.814 485.265 662.274 484.484 661.923C479.276 659.556 474.069 657.18 468.862 654.804C467.65 654.246 466.591 654.561 466.124 655.605C465.639 656.685 466.115 657.792 467.291 658.332C469.257 659.232 471.214 660.123 473.181 661.014C476.457 662.499 479.725 663.993 483.002 665.46C484.439 666.099 485.768 665.226 485.75 663.705ZM413.666 663.741C413.675 665.262 415.013 666.09 416.44 665.442C418.326 664.596 420.211 663.741 422.096 662.877C425.454 661.347 428.821 659.835 432.152 658.251C432.645 658.017 433.094 657.495 433.328 656.991C433.678 656.244 433.4 655.506 432.789 654.948C432.161 654.373 431.442 654.391 430.688 654.723C427.932 655.974 425.167 657.216 422.402 658.467C419.915 659.592 417.437 660.744 414.95 661.869C414.16 662.247 413.657 662.805 413.666 663.741Z" fill="#16142D"/>
<path opacity="0.82" d="M428.658 618.654C435.526 621.416 442.511 622.847 449.756 622.919C457.001 622.991 463.905 621.38 470.737 618.609C470.737 619.86 470.729 620.93 470.746 622.01C470.755 622.253 470.8 622.613 470.962 622.721C472.264 623.576 472.596 624.908 472.758 626.303C473.242 630.488 472.147 634.304 469.894 637.795C469.112 639.001 468.116 640.063 467.245 641.206C467.039 641.485 466.85 641.8 466.751 642.133C465.126 647.344 462.289 651.664 457.531 654.498C451.642 658.017 445.707 657.441 440.258 653.409C436.613 650.71 434.323 647.02 432.842 642.772C432.564 641.98 432.097 641.206 431.558 640.567C429.089 637.669 427.321 634.43 426.737 630.632C426.423 628.607 426.306 626.546 427.06 624.566C427.258 624.044 427.536 623.45 427.967 623.162C428.622 622.712 428.712 622.181 428.685 621.488C428.631 620.598 428.658 619.707 428.658 618.654Z" fill="#16142D"/>
<path opacity="0.82" d="M474.68 613.452C457.981 605.263 441.444 605.281 424.861 613.38C423.91 612.021 423.982 610.527 424.215 609.051C424.673 606.163 426.271 603.868 428.291 601.879C433.049 597.208 438.741 594.328 445.322 593.194C452.145 592.024 458.412 593.635 464.382 596.875C467.731 598.684 470.675 600.961 472.929 604.057C474.527 606.253 475.613 608.628 475.227 611.436C475.155 612.075 474.895 612.696 474.68 613.452ZM449.838 593.752C446.902 593.662 444.388 595.993 444.29 598.909C444.182 601.96 446.498 604.552 449.434 604.651C452.558 604.759 455.099 602.392 455.171 599.305C455.252 596.281 452.908 593.851 449.838 593.752Z" fill="#16142D"/>
<path opacity="0.82" d="M425.841 614.739C441.831 607.026 457.596 607.035 473.577 614.748C465.604 618.528 457.452 620.733 448.771 620.553C440.763 620.391 433.221 618.285 425.841 614.739Z" fill="#16142D"/>
</g>
<g opacity="0.82">
<path opacity="0.82" d="M77.005 667.269C79.4739 664.065 81.8351 661.005 84.2771 657.838C86.719 660.978 89.1161 664.074 91.594 667.26C92.5995 664.875 93.5602 662.616 94.5118 660.348C95.7687 657.352 96.9628 654.328 98.3184 651.385C98.8122 650.314 99.6741 649.414 100.419 648.487C100.527 648.352 100.976 648.397 101.209 648.496C104.594 649.873 108.015 651.178 111.345 652.681C114.434 654.067 117.558 655.435 120.422 657.208C124.929 659.997 127.676 664.308 129.651 669.141C131.366 673.353 132.389 677.717 132.596 682.271C132.668 683.909 132.425 684.269 130.98 684.881C125.737 687.086 120.233 688.265 114.64 689.03C109.909 689.669 105.16 690.272 100.392 690.569C94.7632 690.928 89.1072 691.063 83.4601 691.09C78.7736 691.117 74.0782 691 69.4007 690.649C63.8973 690.236 58.3939 689.597 52.9174 688.877C47.8179 688.202 42.8442 686.978 38.05 685.061C36.03 684.251 35.9492 683.927 36.0569 681.749C36.2275 678.257 36.9098 674.892 38.0231 671.598C39.9803 665.829 42.8352 660.627 48.1052 657.262C50.619 655.66 53.3842 654.436 56.1045 653.203C59.7585 651.556 63.4933 650.08 67.1922 648.505C67.8206 648.235 68.1348 648.379 68.5927 648.91C70.7654 651.367 71.5195 654.517 72.8123 657.397C74.2667 660.591 75.5595 663.849 77.005 667.269ZM120.35 661.797C120.341 660.906 119.865 660.366 119.084 660.015C113.877 657.649 108.67 655.273 103.463 652.897C102.242 652.339 101.191 652.654 100.725 653.698C100.24 654.778 100.716 655.885 101.892 656.425C103.858 657.325 105.815 658.216 107.781 659.107C111.058 660.591 114.326 662.085 117.603 663.552C119.03 664.191 120.359 663.318 120.35 661.797ZM48.2579 661.833C48.2668 663.354 49.6045 664.182 51.032 663.534C52.9174 662.688 54.8027 661.833 56.6881 660.969C60.0458 659.44 63.4125 657.928 66.7433 656.344C67.2371 656.11 67.686 655.588 67.9194 655.084C68.2695 654.337 67.9912 653.599 67.3807 653.041C66.7523 652.465 66.034 652.483 65.2799 652.816C62.5237 654.067 59.7585 655.309 56.9933 656.56C54.5064 657.685 52.0286 658.837 49.5417 659.961C48.7606 660.339 48.2489 660.906 48.2579 661.833Z" fill="#16142D"/>
<path opacity="0.82" d="M63.2593 616.746C70.1274 619.509 77.1122 620.94 84.3573 621.012C91.6025 621.084 98.5064 619.473 105.339 616.701C105.339 617.952 105.33 619.023 105.348 620.103C105.357 620.346 105.401 620.706 105.563 620.814C106.865 621.669 107.197 623.001 107.359 624.396C107.843 628.58 106.748 632.396 104.495 635.888C103.714 637.094 102.717 638.156 101.846 639.299C101.64 639.578 101.451 639.893 101.352 640.226C99.7274 645.436 96.8904 649.756 92.1322 652.591C86.2427 656.11 80.3083 655.534 74.8587 651.502C71.2137 648.802 68.9244 645.112 67.443 640.865C67.1647 640.073 66.6979 639.299 66.1592 638.66C63.6903 635.762 61.9216 632.522 61.3381 628.724C61.0238 626.7 60.9071 624.639 61.6613 622.659C61.8588 622.137 62.1371 621.543 62.568 621.255C63.2234 620.805 63.3132 620.274 63.2863 619.581C63.2234 618.69 63.2593 617.799 63.2593 616.746Z" fill="#16142D"/>
<path opacity="0.82" d="M109.28 611.545C92.5814 603.355 76.0441 603.373 59.462 611.473C58.5104 610.114 58.5822 608.62 58.8156 607.144C59.2735 604.255 60.8715 601.96 62.8916 599.971C67.6498 595.301 73.3418 592.421 79.9226 591.287C86.7458 590.117 93.0123 591.728 98.9826 594.968C102.331 596.777 105.276 599.053 107.53 602.149C109.128 604.345 110.214 606.721 109.828 609.529C109.756 610.177 109.496 610.789 109.28 611.545ZM84.4384 591.845C81.5027 591.755 78.9889 594.086 78.8811 597.002C78.7734 600.052 81.0897 602.644 84.0255 602.743C87.1498 602.851 89.6905 600.484 89.7623 597.397C89.8521 594.374 87.5089 591.944 84.4384 591.845Z" fill="#16142D"/>
<path opacity="0.82" d="M60.4409 612.832C76.4305 605.119 92.1956 605.128 108.176 612.84C100.204 616.62 92.052 618.825 83.3704 618.645C75.3532 618.483 67.8117 616.377 60.4409 612.832Z" fill="#16142D"/>
</g>
<path d="M254.327 571.605H250.413V546.631H254.327V557.332H258.78V546.631H262.766V571.605H258.78V560.904H254.327V571.605Z" fill="white"/>
<path d="M278.281 571.605H274.33L273.657 567.078H268.854L268.181 571.605H264.589L268.576 546.631H274.303L278.281 571.605ZM269.348 563.685H273.118L271.233 551.059L269.348 563.685Z" fill="white"/>
<path d="M207.364 588.487V591.736C207.364 595.732 205.442 597.91 201.528 597.91H199.678V607.296H195.764V582.323H201.528C205.442 582.314 207.364 584.492 207.364 588.487ZM199.67 585.878V594.328H201.519C202.767 594.328 203.44 593.761 203.44 591.97V588.227C203.44 586.445 202.767 585.869 201.519 585.869H199.67V585.878Z" fill="white"/>
<path d="M213.091 592.834H218.469V596.398H213.091V603.715H219.851V607.278H209.177V582.305H219.851V585.869H213.091V592.834Z" fill="white"/>
<path d="M226.19 607.287H222.275V582.314H234.629V607.287H230.643V585.878H226.19V607.287Z" fill="white"/>
<path d="M236.37 603.751C238.148 603.751 238.722 603.499 238.794 601.186L239.432 582.314H250.501V607.287H246.515V585.878H243.095L242.664 600.97C242.52 605.533 240.886 607.323 236.972 607.323H236.37V603.751Z" fill="white"/>
<path d="M257.514 607.287H253.492V582.314H256.975V598.117L258.403 592.627L261.608 582.314H265.917V607.287H262.398V589.703L260.8 595.84L257.514 607.287Z" fill="white"/>
<path d="M273.818 597.334L272.606 599.62V607.287H268.691V582.314H272.606V593.194L277.732 582.314H281.646L276.197 593.446L281.646 607.287H277.624L273.818 597.334Z" fill="white"/>
<path d="M296.101 607.287H292.151L291.478 602.761H286.675L286.001 607.287H282.41L286.396 582.314H292.124L296.101 607.287ZM287.168 599.368H290.939L289.054 586.742L287.168 599.368Z" fill="white"/>
<path d="M301.827 607.287H297.913V582.314H301.827V593.014H306.28V582.314H310.267V607.287H306.28V596.587H301.827V607.287Z" fill="white"/>
<path d="M311.973 582.314H324.075V585.878H319.981V607.287H316.067V585.878H311.973V582.314Z" fill="white"/>
<path d="M338.458 607.287H334.508L333.834 602.761H329.031L328.358 607.287H324.767L328.753 582.314H334.481L338.458 607.287ZM329.525 599.368H333.296L331.41 586.742L329.525 599.368Z" fill="white"/>
<path d="M214.565 645.373L215.696 637.886H217.994V648.433H216.432V640.874L215.292 648.433H213.73L212.5 640.973V648.433H211.054V637.886H213.353L214.565 645.373Z" fill="#1A1A37"/>
<path d="M220.848 642.331H223.12V643.834H220.848V646.921H223.703V648.424H219.196V637.877H223.703V639.38H220.848V642.331Z" fill="#1A1A37"/>
<path d="M224.243 637.895H229.351V639.398H227.627V648.433H225.975V639.398H224.252V637.895H224.243Z" fill="#1A1A37"/>
<path d="M229.935 640.424C229.935 638.732 230.823 637.769 232.448 637.769C234.073 637.769 234.953 638.732 234.953 640.424V645.904C234.953 647.596 234.064 648.559 232.448 648.559C230.832 648.559 229.935 647.596 229.935 645.904V640.424ZM231.586 646.012C231.586 646.768 231.919 647.056 232.439 647.056C232.96 647.056 233.292 646.768 233.292 646.012V640.316C233.292 639.56 232.96 639.281 232.439 639.281C231.919 639.281 231.586 639.569 231.586 640.316V646.012Z" fill="#1A1A37"/>
<path d="M240.797 649.855V648.442H237.269V649.855H235.662V646.966H236.309C236.596 646.606 236.686 646.21 236.713 645.598L237.09 637.904H241.722V646.975H242.44V649.864H240.797V649.855ZM238.329 645.562C238.284 646.363 238.131 646.705 237.862 646.966H240.025V639.407H238.625L238.329 645.562Z" fill="#1A1A37"/>
<path d="M243.212 640.424C243.212 638.732 244.101 637.769 245.726 637.769C247.351 637.769 248.231 638.732 248.231 640.424V645.904C248.231 647.596 247.342 648.559 245.726 648.559C244.11 648.559 243.212 647.596 243.212 645.904V640.424ZM244.864 646.012C244.864 646.768 245.196 647.056 245.717 647.056C246.238 647.056 246.57 646.768 246.57 646.012V640.316C246.57 639.56 246.238 639.281 245.717 639.281C245.196 639.281 244.864 639.569 244.864 640.316V646.012Z" fill="#1A1A37"/>
<path d="M252.8 645.373L253.932 637.886H256.23V648.433H254.668V640.874L253.528 648.433H251.965L250.735 640.973V648.433H249.29V637.886H251.588L252.8 645.373Z" fill="#1A1A37"/>
<path d="M264.544 644.5V645.904C264.544 647.596 263.7 648.559 262.075 648.559C260.45 648.559 259.606 647.596 259.606 645.904V640.424C259.606 638.732 260.45 637.769 262.075 637.769C263.7 637.769 264.544 638.732 264.544 640.424V641.45H262.982V640.316C262.982 639.56 262.649 639.281 262.129 639.281C261.608 639.281 261.276 639.569 261.276 640.316V646.012C261.276 646.768 261.608 647.038 262.129 647.038C262.649 647.038 262.982 646.768 262.982 646.012V644.509H264.544V644.5Z" fill="#1A1A37"/>
<path d="M270.569 637.895V648.442H268.917V644.194C268.558 644.59 267.956 644.779 267.507 644.779C266.151 644.779 265.451 643.799 265.451 642.35V637.895H267.103V642.215C267.103 642.926 267.543 643.259 268.064 643.259C268.584 643.259 268.917 642.881 268.917 642.17V637.895H270.569Z" fill="#1A1A37"/>
<path d="M273.486 648.433H271.79V637.886H273.262V644.563L273.863 642.241L275.219 637.886H277.042V648.433H275.551V641.009L274.878 643.6L273.486 648.433Z" fill="#1A1A37"/>
<path d="M277.714 637.895H282.822V639.398H281.099V648.433H279.447V639.398H277.723V637.895H277.714Z" fill="#1A1A37"/>
<path d="M283.542 648.433V637.886H285.193V641.846H285.974C287.626 641.846 288.443 642.763 288.443 644.455V645.823C288.443 647.506 287.635 648.433 285.974 648.433H283.542ZM285.983 646.93C286.513 646.93 286.791 646.687 286.791 645.94V644.356C286.791 643.6 286.504 643.366 285.983 643.366H285.202V646.939H285.983V646.93ZM289.395 648.433V637.886H291.047V648.433H289.395Z" fill="#1A1A37"/>
<path d="M297.188 640.316V640.694C297.188 641.782 296.855 642.466 296.119 642.817C297.008 643.159 297.349 643.96 297.349 645.076V645.931C297.349 647.56 296.496 648.433 294.844 648.433H292.241V637.886H294.737C296.451 637.895 297.188 638.687 297.188 640.316ZM293.893 639.398V642.187H294.539C295.159 642.187 295.527 641.918 295.527 641.072V640.487C295.527 639.731 295.275 639.398 294.683 639.398H293.893ZM293.893 643.69V646.93H294.835C295.392 646.93 295.688 646.678 295.688 645.886V644.968C295.688 643.987 295.374 643.69 294.62 643.69H293.893Z" fill="#1A1A37"/>
<path d="M303.689 648.433H302.019L301.732 646.516H299.703L299.415 648.433H297.898L299.577 637.886H302.001L303.689 648.433ZM299.918 645.094H301.507L300.708 639.758L299.918 645.094Z" fill="#1A1A37"/>
<path d="M306.112 648.433H304.46V637.886H306.112V642.403H307.988V637.886H309.667V648.433H307.988V643.915H306.112V648.433Z" fill="#1A1A37"/>
<path d="M312.567 648.433H310.87V637.886H312.343V644.563L312.944 642.241L314.3 637.886H316.122V648.433H314.632V641.009L313.959 643.6L312.567 648.433Z" fill="#1A1A37"/>
<path d="M316.983 648.433C317.145 648.037 317.163 647.668 317.163 647.155V645.526C317.163 644.428 317.432 643.628 318.258 643.286C317.522 642.944 317.172 642.233 317.172 641.144V640.316C317.172 638.687 317.908 637.895 319.623 637.895H322.119V648.442H320.467V644.15H319.892C319.138 644.15 318.806 644.509 318.806 645.49V647.146C318.806 648.001 318.743 648.172 318.653 648.442H316.983V648.433ZM319.677 639.398C319.093 639.398 318.833 639.731 318.833 640.487V641.522C318.833 642.368 319.21 642.638 319.82 642.638H320.467V639.398H319.677Z" fill="#1A1A37"/>
<path d="M208.028 660.15V661.554C208.028 663.246 207.184 664.209 205.559 664.209C203.934 664.209 203.09 663.246 203.09 661.554V656.074C203.09 654.382 203.934 653.419 205.559 653.419C207.184 653.419 208.028 654.382 208.028 656.074V657.1H206.466V655.966C206.466 655.21 206.134 654.922 205.613 654.922C205.092 654.922 204.76 655.21 204.76 655.966V661.662C204.76 662.418 205.092 662.688 205.613 662.688C206.134 662.688 206.466 662.418 206.466 661.662V660.159H208.028V660.15Z" fill="#1A1A37"/>
<path d="M210.687 657.982H212.958V659.484H210.687V662.571H213.542V664.074H209.035V653.545H213.542V655.048H210.687V657.982Z" fill="#1A1A37"/>
<path d="M214.088 653.545H219.197V655.048H217.473V664.083H215.821V655.048H214.097V653.545H214.088Z" fill="#1A1A37"/>
<path d="M224.934 653.545V664.092H223.282V659.844C222.923 660.24 222.321 660.429 221.872 660.429C220.517 660.429 219.816 659.448 219.816 658V653.545H221.468V657.865C221.468 658.575 221.908 658.908 222.429 658.908C222.95 658.908 223.282 658.53 223.282 657.82V653.545H224.934Z" fill="#1A1A37"/>
<path d="M231.496 664.083H229.826L229.539 662.166H227.51L227.222 664.083H225.705L227.384 653.536H229.808L231.496 664.083ZM227.725 660.744H229.314L228.515 655.408L227.725 660.744Z" fill="#1A1A37"/>
<path d="M231.784 653.545H236.892V655.048H235.168V664.083H233.516V655.048H231.793V653.545H231.784Z" fill="#1A1A37"/>
<path d="M239.773 659.88L239.261 660.843V664.083H237.609V653.545H239.261V658.134L241.425 653.545H243.077L240.779 658.242L243.077 664.092H241.38L239.773 659.88Z" fill="#1A1A37"/>
<path d="M245.528 664.083H243.832V653.545H245.304V660.222L245.905 657.9L247.261 653.545H249.084V664.092H247.593V656.668L246.92 659.259L245.528 664.083Z" fill="#1A1A37"/>
<path d="M252.585 664.083V653.545H256.94V655.048H254.237V664.083H252.585Z" fill="#1A1A37"/>
<path d="M257.587 662.598C258.341 662.598 258.584 662.49 258.611 661.509L258.88 653.545H263.557V664.092H261.87V655.057H260.424L260.245 661.428C260.182 663.354 259.49 664.11 257.838 664.11H257.578V662.598H257.587Z" fill="#1A1A37"/>
<path d="M270.164 664.083H268.494L268.207 662.166H266.178L265.891 664.083H264.374L266.052 653.536H268.476L270.164 664.083ZM266.394 660.744H267.983L267.184 655.408L266.394 660.744Z" fill="#1A1A37"/>
<path d="M274.114 656.128C274.114 655.183 273.782 654.922 273.261 654.922C272.741 654.922 272.391 655.21 272.391 655.966V656.821H270.873V656.038C270.873 654.346 271.681 653.419 273.306 653.419C274.931 653.419 275.775 654.382 275.775 656.074V656.344C275.775 657.469 275.416 658.179 274.617 658.512C275.443 658.872 275.775 659.655 275.775 660.726V661.554C275.775 663.246 274.931 664.209 273.306 664.209C271.681 664.209 270.837 663.246 270.837 661.554V660.393H272.4V661.662C272.4 662.418 272.732 662.706 273.252 662.706C273.773 662.706 274.105 662.454 274.105 661.518V660.69C274.105 659.709 273.773 659.349 273.019 659.349H272.615V657.847H273.109C273.728 657.847 274.096 657.577 274.096 656.731V656.128H274.114Z" fill="#1A1A37"/>
<path d="M282.221 664.083H280.552L280.264 662.166H278.235L277.948 664.083H276.431L278.11 653.536H280.534L282.221 664.083ZM278.451 660.744H280.04L279.241 655.408L278.451 660.744Z" fill="#1A1A37"/>
<path d="M290.266 655.966V656.344C290.266 657.433 289.933 658.116 289.197 658.467C290.086 658.809 290.427 659.61 290.427 660.726V661.581C290.427 663.21 289.574 664.083 287.922 664.083H285.319V653.545H287.815C289.529 653.545 290.266 654.337 290.266 655.966ZM286.971 655.048V657.837H287.617C288.237 657.837 288.605 657.568 288.605 656.722V656.137C288.605 655.381 288.353 655.048 287.761 655.048H286.971ZM286.971 659.34V662.58H287.913C288.47 662.58 288.766 662.328 288.766 661.536V660.618C288.766 659.637 288.452 659.34 287.698 659.34H286.971Z" fill="#1A1A37"/>
<path d="M291.28 656.074C291.28 654.382 292.169 653.419 293.794 653.419C295.419 653.419 296.299 654.382 296.299 656.074V661.554C296.299 663.246 295.41 664.209 293.794 664.209C292.178 664.209 291.28 663.246 291.28 661.554V656.074ZM292.932 661.662C292.932 662.418 293.264 662.706 293.785 662.706C294.306 662.706 294.638 662.418 294.638 661.662V655.966C294.638 655.21 294.306 654.922 293.785 654.922C293.264 654.922 292.932 655.21 292.932 655.966V661.662Z" fill="#1A1A37"/>
<path d="M304.639 655.966V656.344C304.639 657.433 304.307 658.116 303.57 658.467C304.459 658.809 304.8 659.61 304.8 660.726V661.581C304.8 663.21 303.947 664.083 302.295 664.083H299.692V653.545H302.188C303.903 653.545 304.639 654.337 304.639 655.966ZM301.344 655.048V657.837H301.99C302.61 657.837 302.978 657.568 302.978 656.722V656.137C302.978 655.381 302.726 655.048 302.134 655.048H301.344ZM301.344 659.34V662.58H302.287C302.843 662.58 303.139 662.328 303.139 661.536V660.618C303.139 659.637 302.825 659.34 302.071 659.34H301.344Z" fill="#1A1A37"/>
<path d="M310.691 656.146V657.514C310.691 659.196 309.883 660.123 308.222 660.123H307.441V664.083H305.789V653.545H308.222C309.883 653.545 310.691 654.463 310.691 656.146ZM307.45 655.048V658.62H308.231C308.761 658.62 309.039 658.377 309.039 657.631V656.047C309.039 655.291 308.752 655.057 308.231 655.057H307.45V655.048Z" fill="#1A1A37"/>
<path d="M313.106 657.982H315.377V659.484H313.106V662.571H315.961V664.074H311.454V653.545H315.961V655.048H313.106V657.982Z" fill="#1A1A37"/>
<path d="M320.486 661.023L321.617 653.536H323.915V664.083H322.353V656.523L321.213 664.083H319.651L318.421 656.622V664.083H316.976V653.545H319.274L320.486 661.023Z" fill="#1A1A37"/>
<path d="M324.813 664.083C324.975 663.687 324.993 663.318 324.993 662.805V661.176C324.993 660.078 325.262 659.277 326.088 658.935C325.352 658.593 325.002 657.883 325.002 656.794V655.966C325.002 654.337 325.738 653.545 327.452 653.545H329.948V664.092H328.296V659.799H327.722C326.968 659.799 326.635 660.159 326.635 661.14V662.796C326.635 663.651 326.573 663.822 326.483 664.092H324.813V664.083ZM327.497 655.048C326.914 655.048 326.653 655.381 326.653 656.137V657.172C326.653 658.017 327.031 658.287 327.641 658.287H328.287V655.048H327.497Z" fill="#1A1A37"/>
<path d="M213.631 675.953V677.312C213.631 678.068 213.963 678.338 214.484 678.338C215.004 678.338 215.336 678.068 215.336 677.312V675.035H213.819V673.532H215.336V671.615C215.336 670.859 215.004 670.571 214.484 670.571C213.963 670.571 213.631 670.859 213.631 671.615V672.605H212.095V671.714C212.095 670.022 212.903 669.059 214.528 669.059C216.153 669.059 216.997 670.022 216.997 671.714V677.195C216.997 678.887 216.153 679.85 214.528 679.85C212.903 679.85 212.06 678.887 212.06 677.195V675.944H213.631V675.953Z" fill="#1A1A37"/>
<path d="M221.577 676.673L222.708 669.186H225.007V679.733H223.445V672.174L222.304 679.733H220.742L219.512 672.273V679.733H218.067V669.186H220.365L221.577 676.673Z" fill="#1A1A37"/>
<path d="M227.851 679.733H226.199V669.186H231.415V679.733H229.737V670.698H227.86V679.733H227.851Z" fill="#1A1A37"/>
<path d="M237.961 679.733H236.291L236.004 677.816H233.975L233.688 679.733H232.17L233.849 669.186H236.273L237.961 679.733ZM234.19 676.394H235.78L234.98 671.058L234.19 676.394Z" fill="#1A1A37"/>
<path d="M238.248 669.186H243.356V670.689H241.633V679.724H239.981V670.689H238.257V669.186H238.248Z" fill="#1A1A37"/>
<path d="M245.772 679.733H244.075V669.186H245.548V675.863L246.149 673.541L247.505 669.186H249.327V679.733H247.837V672.309L247.164 674.9L245.772 679.733Z" fill="#1A1A37"/>
<path d="M255.512 669.186V679.733H253.86V675.485C253.501 675.881 252.899 676.07 252.45 676.07C251.095 676.07 250.395 675.089 250.395 673.641V669.186H252.046V673.506C252.046 674.216 252.486 674.549 253.007 674.549C253.528 674.549 253.86 674.171 253.86 673.461V669.186H255.512Z" fill="#1A1A37"/>
<path d="M258.377 673.631H260.648V675.134H258.377V678.221H261.231V679.724H256.725V669.177H261.231V670.68H258.377V673.631Z" fill="#1A1A37"/>
<path d="M267.05 675.8V677.204C267.05 678.896 266.206 679.859 264.581 679.859C262.956 679.859 262.112 678.896 262.112 677.204V671.723C262.112 670.032 262.956 669.069 264.581 669.069C266.206 669.069 267.05 670.032 267.05 671.723V672.749H265.488V671.615C265.488 670.86 265.155 670.571 264.635 670.571C264.114 670.571 263.782 670.86 263.782 671.615V677.312C263.782 678.068 264.114 678.338 264.635 678.338C265.155 678.338 265.488 678.068 265.488 677.312V675.809H267.05V675.8Z" fill="#1A1A37"/>
<path d="M270.21 675.53L269.698 676.493V679.733H268.046V669.186H269.698V673.775L271.861 669.186H273.513L271.215 673.883L273.513 679.733H271.817L270.21 675.53Z" fill="#1A1A37"/>
<path d="M274.132 671.723C274.132 670.032 275.021 669.069 276.646 669.069C278.271 669.069 279.151 670.032 279.151 671.723V677.204C279.151 678.896 278.262 679.859 276.646 679.859C275.03 679.859 274.132 678.896 274.132 677.204V671.723ZM275.784 677.312C275.784 678.068 276.116 678.356 276.637 678.356C277.158 678.356 277.49 678.068 277.49 677.312V671.615C277.49 670.86 277.158 670.571 276.637 670.571C276.116 670.571 275.784 670.86 275.784 671.615V677.312Z" fill="#1A1A37"/>
<path d="M280.228 679.733V669.186H284.582V670.689H281.88V679.724H280.228V679.733Z" fill="#1A1A37"/>
<path d="M285.562 671.723C285.562 670.032 286.451 669.069 288.076 669.069C289.701 669.069 290.581 670.032 290.581 671.723V677.204C290.581 678.896 289.692 679.859 288.076 679.859C286.46 679.859 285.562 678.896 285.562 677.204V671.723ZM287.223 677.312C287.223 678.068 287.555 678.356 288.076 678.356C288.597 678.356 288.929 678.068 288.929 677.312V671.615C288.929 670.86 288.597 670.571 288.076 670.571C287.555 670.571 287.223 670.86 287.223 671.615V677.312Z" fill="#1A1A37"/>
<path d="M293.498 669.186H298.606V670.689H296.883V679.724H295.231V670.689H293.507V669.186H293.498Z" fill="#1A1A37"/>
<path d="M300.976 673.631H303.248V675.134H300.976V678.221H303.831V679.724H299.324V669.177H303.831V670.68H300.976V673.631Z" fill="#1A1A37"/>
<path d="M309.649 675.8V677.204C309.649 678.896 308.805 679.859 307.18 679.859C305.555 679.859 304.711 678.896 304.711 677.204V671.723C304.711 670.032 305.555 669.069 307.18 669.069C308.805 669.069 309.649 670.032 309.649 671.723V672.749H308.087V671.615C308.087 670.86 307.755 670.571 307.234 670.571C306.713 670.571 306.381 670.86 306.381 671.615V677.312C306.381 678.068 306.713 678.338 307.234 678.338C307.755 678.338 308.087 678.068 308.087 677.312V675.809H309.649V675.8Z" fill="#1A1A37"/>
<path d="M310.169 669.186H315.278V670.689H313.554V679.724H311.902V670.689H310.178V669.186H310.169Z" fill="#1A1A37"/>
<path d="M321.347 679.733H319.677L319.39 677.816H317.361L317.073 679.733H315.556L317.235 669.186H319.659L321.347 679.733ZM317.576 676.394H319.165L318.366 671.058L317.576 676.394Z" fill="#1A1A37"/>
<path d="M234.262 687.266V687.644C234.262 688.732 233.93 689.416 233.194 689.767C234.083 690.109 234.424 690.91 234.424 692.026V692.881C234.424 694.51 233.571 695.383 231.919 695.383H229.315V684.836H231.811C233.526 684.836 234.262 685.637 234.262 687.266ZM230.967 686.348V689.137H231.614C232.233 689.137 232.601 688.867 232.601 688.022V687.437C232.601 686.681 232.35 686.348 231.757 686.348H230.967ZM230.967 690.64V693.88H231.91C232.467 693.88 232.763 693.628 232.763 692.836V691.918C232.763 690.937 232.449 690.64 231.695 690.64H230.967Z" fill="#1A1A37"/>
<path d="M235.276 687.373C235.276 685.682 236.165 684.719 237.79 684.719C239.415 684.719 240.295 685.682 240.295 687.373V692.854C240.295 694.546 239.406 695.509 237.79 695.509C236.174 695.509 235.276 694.546 235.276 692.854V687.373ZM236.937 692.962C236.937 693.718 237.269 694.006 237.79 694.006C238.311 694.006 238.643 693.718 238.643 692.962V687.265C238.643 686.509 238.311 686.231 237.79 686.231C237.269 686.231 236.937 686.518 236.937 687.265V692.962Z" fill="#1A1A37"/>
<path d="M243.06 695.383H241.363V684.836H242.836V691.514L243.437 689.192L244.793 684.836H246.615V695.383H245.125V687.959L244.452 690.551L243.06 695.383ZM244.757 682.487C244.712 683.045 244.461 683.18 244.003 683.18C243.563 683.18 243.338 683.045 243.294 682.487H242.27C242.297 683.513 242.845 684.161 243.994 684.161C245.17 684.161 245.753 683.513 245.753 682.487H244.757Z" fill="#1A1A37"/>
<path d="M247.325 684.836H252.433V686.339H250.709V695.374H249.057V686.339H247.334V684.836H247.325Z" fill="#1A1A37"/>
<path d="M258.502 695.383H256.832L256.544 693.466H254.515L254.228 695.383H252.711L254.39 684.836H256.814L258.502 695.383ZM254.731 692.035H256.32L255.521 686.699L254.731 692.035Z" fill="#1A1A37"/>
<path d="M259.194 689.362H262.201V690.865H259.194V689.362Z" fill="#1A1A37"/>
<path d="M265.486 691.18L264.975 692.143V695.383H263.323V684.836H264.975V689.425L267.138 684.836H268.79L266.492 689.533L268.79 695.383H267.093L265.486 691.18Z" fill="#1A1A37"/>
<path d="M274.895 695.383H273.225L272.938 693.466H270.909L270.622 695.383H269.104L270.783 684.836H273.207L274.895 695.383ZM271.125 692.035H272.714L271.915 686.699L271.125 692.035Z" fill="#1A1A37"/>
<path d="M279.16 692.323L280.291 684.836H282.59V695.383H281.028V687.824L279.887 695.383H278.325L277.095 687.923V695.383H275.65V684.836H277.948L279.16 692.323Z" fill="#1A1A37"/>
<path d="M285.436 695.383H283.784V684.836H289V695.383H287.321V686.348H285.445V695.383H285.436Z" fill="#1A1A37"/>
<path d="M293.147 694.195H292.528C290.876 694.195 290.059 693.277 290.059 691.585V688.705C290.059 687.013 290.867 686.095 292.528 686.095H293.147V684.827H294.772V686.095H295.392C297.044 686.095 297.861 687.013 297.861 688.705V691.585C297.861 693.268 297.053 694.195 295.392 694.195H294.772V695.383H293.147V694.195ZM293.147 687.562H292.528C292.007 687.562 291.702 687.85 291.702 688.606V691.693C291.702 692.449 291.998 692.746 292.528 692.746H293.147V687.562ZM294.763 687.562V692.746H295.383C295.913 692.746 296.209 692.449 296.209 691.693V688.606C296.209 687.85 295.913 687.562 295.383 687.562H294.763Z" fill="#1A1A37"/>
<path d="M304.308 695.383H302.638L302.351 693.466H300.322L300.034 695.383H298.517L300.196 684.836H302.62L304.308 695.383ZM300.537 692.035H302.126L301.327 686.699L300.537 692.035Z" fill="#1A1A37"/>
<path d="M266.59 6.59082L276.502 26.7225L298.668 29.9533L282.634 45.6213L286.414 67.7419L266.59 57.3025L246.767 67.7419L250.556 45.6213L234.521 29.9533L256.679 26.7225L266.59 6.59082Z" fill="#1A1A37"/>
<path d="M54.8838 58.6965H49.542V24.6157H66.4024V58.7055H60.9618V29.4844H54.8928V58.6965H54.8838Z" fill="black"/>
<path d="M69.8398 32.7971C69.8398 27.3434 72.7038 24.2296 77.9558 24.2296C83.1989 24.2296 86.0718 27.3434 86.0718 32.7971V50.5259C86.0718 55.9796 83.2079 59.0934 77.9558 59.0934C72.7128 59.0934 69.8398 55.9796 69.8398 50.5259V32.7971ZM75.1817 50.8589C75.1817 53.2977 76.25 54.2157 77.9469 54.2157C79.6437 54.2157 80.712 53.2887 80.712 50.8589V32.4551C80.712 30.0162 79.6437 29.0983 77.9469 29.0983C76.25 29.0983 75.1817 30.0252 75.1817 32.4551V50.8589Z" fill="black"/>
<path d="M88.0122 53.8827C90.4452 53.8827 91.2173 53.5407 91.3161 50.3729L92.1869 24.6166H107.297V58.7064H101.856V29.4853H97.1966L96.613 50.0849C96.4155 56.3215 94.18 58.7514 88.8382 58.7514H88.0122V53.8827Z" fill="black"/>
<path d="M116.867 58.6974H111.381V24.6166H116.14V46.1882L118.079 38.6917L122.451 24.6166H128.332V58.7064H123.519V34.6959L121.338 43.0744L116.867 58.6974Z" fill="black"/>
<path d="M132.112 24.6166H137.454V53.8287H143.523V24.6166H148.964V53.9277H151.298V63.2781H146.1V58.6974H132.112V24.6166Z" fill="black"/>
<path d="M159.7 58.6974H154.215V24.6166H158.973V46.1882L160.912 38.6917L165.285 24.6166H171.165V58.7064H166.353V34.6959L164.171 43.0744L159.7 58.6974Z" fill="black"/>
<path d="M173.984 58.6974C174.523 57.4285 174.568 56.2135 174.568 54.5576V49.302C174.568 45.7472 175.439 43.1644 178.114 42.0484C175.735 40.9325 174.613 38.6377 174.613 35.1369V32.4551C174.613 27.1994 176.992 24.6166 182.531 24.6166H190.593V58.7064H185.252V44.8203H183.402C180.969 44.8203 179.901 45.9902 179.901 49.158V54.5126C179.901 57.2845 179.703 57.8244 179.416 58.6974H173.984ZM182.684 29.4853C180.79 29.4853 179.964 30.5562 179.964 32.995V36.3518C179.964 39.0786 181.176 39.9516 183.169 39.9516H185.261V29.4853H182.684Z" fill="black"/>
<path d="M339.581 58.6966H334.239V24.6158H351.099V58.7056H345.659V29.4845H339.59V58.6966H339.581Z" fill="black"/>
<path d="M354.537 32.7972C354.537 27.3435 357.401 24.2297 362.653 24.2297C367.896 24.2297 370.769 27.3435 370.769 32.7972V50.526C370.769 55.9797 367.905 59.0935 362.653 59.0935C357.41 59.0935 354.537 55.9797 354.537 50.526V32.7972ZM359.879 50.859C359.879 53.2979 360.947 54.2158 362.644 54.2158C364.341 54.2158 365.409 53.2889 365.409 50.859V32.4552C365.409 30.0164 364.341 29.0984 362.644 29.0984C360.947 29.0984 359.879 30.0254 359.879 32.4552V50.859Z" fill="black"/>
<path d="M372.7 53.8829C375.133 53.8829 375.905 53.541 376.004 50.3732L376.874 24.6168H391.984V58.7066H386.544V29.4855H381.884L381.301 50.0852C381.103 56.3218 378.868 58.7516 373.526 58.7516H372.7V53.8829Z" fill="black"/>
<path d="M401.554 58.6976H396.069V24.6168H400.827V46.1884L402.766 38.6919L407.139 24.6168H413.019V58.7066H408.207V34.6962L406.025 43.0746L401.554 58.6976Z" fill="black"/>
<path d="M416.809 24.6168H422.15V53.8289H428.228V24.6168H433.669V53.9279H436.003V63.2783H430.805V58.6976H416.818V24.6168H416.809Z" fill="black"/>
<path d="M444.396 58.6976H438.911V24.6168H443.669V46.1884L445.608 38.6919L449.98 24.6168H455.861V58.7066H451.049V34.6962L448.867 43.0746L444.396 58.6976Z" fill="black"/>
<path d="M458.681 58.6976C459.219 57.4287 459.264 56.2138 459.264 54.5579V49.3022C459.264 45.7474 460.135 43.1646 462.81 42.0487C460.431 40.9328 459.309 38.6379 459.309 35.1371V32.4553C459.309 27.1997 461.688 24.6168 467.228 24.6168H475.29V58.7066H469.948V44.8205H468.098C465.665 44.8205 464.597 45.9904 464.597 49.1582V54.5129C464.597 57.2847 464.4 57.8247 464.112 58.6976H458.681ZM467.371 29.4855C465.477 29.4855 464.651 30.5564 464.651 32.9953V36.3521C464.651 39.0789 465.863 39.9518 467.856 39.9518H469.948V29.4855H467.371Z" fill="black"/>
</svg>
