<svg width="884" height="728" viewBox="0 0 884 728" fill="none" xmlns="http://www.w3.org/2000/svg">
<path d="M839.615 728H44.3846C19.8716 728 0 708.205 0 683.787V44.213C0 19.7948 19.8716 0 44.3846 0H839.614C864.128 0 884 19.7948 884 44.213V683.785C884 708.205 864.128 728 839.615 728Z" fill="#2D2F58"/>
<path d="M792.259 689.192H91.5179C67.0049 689.192 47.1333 669.397 47.1333 644.979V83.2201C47.1333 58.8019 67.0049 39.0071 91.5179 39.0071H792.258C816.771 39.0071 836.642 58.8019 836.642 83.2201V644.979C836.644 669.397 816.772 689.192 792.259 689.192Z" fill="#080B3B"/>
<path d="M757.214 660.077H126.779C102.266 660.077 82.3945 640.282 82.3945 615.864V112.003C82.3945 87.5848 102.266 67.79 126.779 67.79H757.216C781.729 67.79 801.6 87.5848 801.6 112.003V615.864C801.6 640.282 781.729 660.077 757.214 660.077Z" fill="#BAC3C3"/>
<path d="M319.556 212.099C326.672 212.099 332.65 206.603 333.148 199.451C338.206 201.108 342.351 203.832 345.566 207.633C351.253 214.364 354.101 223.464 354.101 234.942V311.879C354.101 323.216 351.253 332.288 345.566 339.085C342.558 342.68 338.741 345.32 334.107 347.024C333.947 340.498 329.153 335.115 322.874 334.02C327.405 333.467 330.845 331.651 333.186 328.571C336.025 324.817 337.454 319.537 337.454 312.731V234.09C337.454 227.293 336.025 222.013 333.186 218.259C330.338 214.505 325.854 212.632 319.744 212.632C319.687 212.632 319.621 212.632 319.565 212.632L319.556 212.099Z" fill="#090B3C"/>
<path d="M171.484 199.675C170.845 199.441 170.197 199.226 169.529 199.029H171.484C171.494 199.17 171.494 199.32 171.494 199.46C171.494 199.535 171.494 199.6 171.484 199.675Z" fill="#090B3C"/>
<path d="M331.729 199.029C332.209 199.16 332.679 199.301 333.149 199.451C332.651 206.603 326.672 212.099 319.556 212.099C319.293 212.099 319.02 212.099 318.757 212.08C311.867 211.677 306.48 206.257 305.963 199.591C306.556 199.385 307.157 199.198 307.778 199.029H331.729Z" fill="#090B3C"/>
<path d="M169.528 199.029C170.196 199.226 170.844 199.441 171.484 199.675C171.39 206.201 166.661 211.612 160.429 212.791C159.517 212.688 158.558 212.632 157.552 212.632C156.697 212.632 155.86 212.67 155.071 212.754C148.979 211.49 144.383 206.172 144.242 199.769C144.947 199.497 145.68 199.254 146.432 199.029H169.528Z" fill="#090B3C"/>
<path d="M485.235 411.004C485.621 411.116 486.015 411.228 486.391 411.35C486.25 418.016 481.278 423.492 474.82 424.457C474.218 424.41 473.598 424.391 472.958 424.391C472.225 424.391 471.52 424.419 470.843 424.475C464.545 423.595 459.629 418.418 459.178 412.015C460.108 411.631 461.077 411.294 462.082 411.004H485.235Z" fill="#090B3C"/>
<path d="M684.229 332.709V347.801H622.77V199.029H684.229V214.111H639.418V264.91H675.91V279.786H639.418V332.709H684.229Z" fill="#090B3C"/>
<path d="M593.413 304.174L610.606 347.801H593.535L593.413 304.174Z" fill="white"/>
<path d="M609.751 199.029L593.197 230.401L593.112 199.029H609.751Z" fill="white"/>
<path d="M593.413 304.174L593.536 347.801L564.94 277.661L557.044 291.694V347.801H540.612V291.694L532.932 277.455L504.337 347.801H487.257L521.408 262.148L488.112 199.029H504.76L540.612 267.465V199.029H557.044V267.465L593.113 199.029L593.197 230.401L576.681 261.727L593.413 304.174Z" fill="#090B3C"/>
<path d="M498.678 419.72C504.008 426.516 506.677 435.654 506.677 447.131C506.677 453.086 505.935 458.328 504.44 462.86C502.945 467.4 501.131 471.538 498.997 475.292C496.863 479.056 494.476 482.52 491.844 485.712C489.212 488.895 486.833 492.125 484.7 495.383C482.566 498.641 480.751 502.152 479.257 505.897C477.762 509.66 477.02 513.873 477.02 518.545C477.02 521.101 477.367 523.787 478.082 526.624H463.145C462.853 525.351 462.609 524.04 462.393 522.692C462.186 521.344 462.073 519.818 462.073 518.124C462.073 512.74 462.75 507.994 464.104 503.884C465.457 499.774 467.196 496.02 469.33 492.621C471.464 489.214 473.711 485.956 476.051 482.838C478.401 479.73 480.648 476.435 482.782 472.961C484.916 469.488 486.655 465.621 488.008 461.371C489.353 457.121 490.03 452.093 490.03 446.289C490.03 439.483 488.713 434.137 486.081 430.233C483.722 426.741 479.971 424.822 474.82 424.457C481.278 423.492 486.251 418.016 486.392 411.35C491.515 413.016 495.604 415.806 498.678 419.72Z" fill="#090B3C"/>
<path d="M486.401 411.004H485.235C481.738 410.011 477.79 409.515 473.391 409.515C469.217 409.515 465.448 410.011 462.082 411.004H459.14C459.159 403.523 465.25 397.466 472.771 397.466C480.291 397.466 486.382 403.523 486.401 411.004Z" fill="white"/>
<path d="M485.235 411.004H462.082C465.447 410.011 469.217 409.515 473.39 409.515C477.79 409.515 481.738 410.011 485.235 411.004Z" fill="#090B3C"/>
<path d="M479.792 199.029L447.784 315.071C446.497 320.595 444.974 325.482 443.197 329.732C442.53 331.324 441.778 332.812 440.95 334.198L432.631 308.696L398.273 199.029H414.921L430.065 250.67L440.311 288.081L449.063 250.67L462.505 199.029H479.792V199.029Z" fill="#090B3C"/>
<path d="M478.297 539.16H462.505V559.775H478.297V539.16Z" fill="#090B3C"/>
<path d="M470.843 424.475C465.823 424.887 462.157 426.844 459.835 430.345C457.203 434.315 455.887 439.623 455.887 446.289V459.461H440.311V447.347C440.311 441.683 440.95 436.543 442.229 431.937C443.507 427.34 445.5 423.371 448.207 420.038C450.905 416.705 454.355 414.121 458.557 412.277C458.764 412.183 458.97 412.099 459.177 412.015C459.628 418.418 464.545 423.595 470.843 424.475Z" fill="#090B3C"/>
<path d="M432.631 308.696L440.95 334.198C439.55 336.529 437.914 338.588 436.044 340.358C433.054 343.194 429.322 345.254 424.838 346.527C422.282 347.248 419.349 347.726 416.03 347.941H407.871V333.14C414.273 333.421 419.076 332.466 422.282 330.266C425.478 328.075 427.79 324.143 429.219 318.469L432.631 308.696Z" fill="white"/>
<path d="M430.704 411.004V426.095H403.18V559.775H386.532V426.095H358.999V411.004H430.704Z" fill="#090B3C"/>
<path d="M407.871 347.941H416.031C413.53 348.11 410.813 348.138 407.871 348.016V347.941Z" fill="white"/>
<path d="M348.547 505.372V523.862C348.547 535.2 345.812 544.262 340.331 551.068C337.116 555.066 332.849 557.884 327.528 559.531C327.34 552.285 321.456 546.453 314.161 546.331V546.153C314.518 546.163 314.885 546.172 315.261 546.172C321.371 546.172 325.827 544.3 328.6 540.545C331.373 536.791 332.755 531.511 332.755 524.714V505.372H348.547V505.372Z" fill="#090B3C"/>
<path d="M348.547 446.925V460.313H332.755V446.074C332.755 439.267 331.373 433.997 328.6 430.233C325.827 426.488 321.371 424.606 315.261 424.606C322.433 424.401 328.205 418.671 328.468 411.547C333.347 413.232 337.304 415.956 340.331 419.72C345.811 426.516 348.547 435.588 348.547 446.925Z" fill="#090B3C"/>
<path d="M334.108 347.024C334.117 347.146 334.117 347.258 334.117 347.38C334.117 347.576 334.117 347.782 334.098 347.979L330.978 347.988C332.059 347.707 333.102 347.389 334.108 347.024Z" fill="#090B3C"/>
<path d="M330.978 347.988L334.099 347.978C333.789 355.196 327.82 360.954 320.487 360.954C313.165 360.954 307.196 355.206 306.876 347.997H308.568C311.914 348.858 315.646 349.289 319.745 349.289C323.862 349.289 327.603 348.858 330.978 347.988Z" fill="white"/>
<path d="M320.337 184.968C327.763 185.398 333.441 191.671 333.168 199.029H331.73C328.167 198.037 324.172 197.541 319.745 197.541C315.317 197.541 311.331 198.037 307.778 199.029H305.936H305.926C305.907 198.599 305.907 198.168 305.936 197.737C306.377 190.248 312.826 184.537 320.337 184.968Z" fill="white"/>
<path d="M333.168 199.029C333.168 199.123 333.168 199.217 333.158 199.31C333.158 199.357 333.149 199.404 333.149 199.451C332.679 199.301 332.209 199.16 331.729 199.029H333.168Z" fill="#090B3C"/>
<path d="M331.73 199.029H307.778C311.332 198.037 315.317 197.541 319.745 197.541C324.172 197.541 328.167 198.037 331.73 199.029Z" fill="#1A1717"/>
<path d="M334.108 347.024C333.102 347.389 332.058 347.707 330.977 347.988L308.567 347.997C307.984 347.847 307.411 347.688 306.856 347.51C306.856 347.464 306.856 347.426 306.856 347.379C306.856 340.882 311.444 335.443 317.573 334.113C317.573 334.113 317.573 334.113 317.582 334.113C318.278 334.17 319.002 334.198 319.744 334.198C320.844 334.198 321.887 334.141 322.874 334.02C329.154 335.115 333.948 340.498 334.108 347.024Z" fill="#090B3C"/>
<path d="M308.568 347.997L330.978 347.988C327.603 348.858 323.862 349.289 319.745 349.289C315.646 349.289 311.914 348.858 308.568 347.997Z" fill="#090B3C"/>
<path d="M328.477 411.004C328.477 411.013 328.477 411.032 328.477 411.041C328.477 411.21 328.477 411.378 328.468 411.547C327.894 411.35 327.312 411.172 326.71 411.004H328.477V411.004Z" fill="#090B3C"/>
<path d="M328.476 411.004H326.709C323.193 410.011 319.227 409.515 314.827 409.515C310.578 409.515 306.743 410.011 303.321 411.004H301.216C301.235 403.523 307.326 397.466 314.846 397.466C322.366 397.466 328.458 403.523 328.476 411.004Z" fill="white"/>
<path d="M327.537 559.775C327.537 559.812 327.537 559.859 327.537 559.897C327.537 567.396 321.437 573.471 313.907 573.471C306.378 573.471 300.277 567.396 300.277 559.897C300.277 559.859 300.277 559.812 300.277 559.775H303.088C306.566 560.767 310.476 561.263 314.828 561.263C319.228 561.263 323.195 560.767 326.71 559.775H327.537Z" fill="white"/>
<path d="M327.526 559.531C327.536 559.616 327.536 559.691 327.536 559.775H326.71C326.982 559.7 327.254 559.616 327.526 559.531Z" fill="#090B3C"/>
<path d="M326.71 411.004C327.312 411.172 327.895 411.35 328.468 411.547C328.205 418.671 322.433 424.4 315.261 424.606C315.12 424.616 314.988 424.616 314.847 424.616C314.829 424.616 314.81 424.616 314.791 424.616C307.506 424.588 301.565 418.868 301.236 411.687C301.913 411.434 302.608 411.21 303.323 411.004H326.71Z" fill="#090B3C"/>
<path d="M327.528 559.532C327.255 559.616 326.982 559.7 326.71 559.775H303.087C302.128 559.504 301.207 559.195 300.323 558.848C300.85 551.836 306.734 546.322 313.907 546.322C313.991 546.322 314.076 546.322 314.16 546.331C321.455 546.453 327.34 552.285 327.528 559.532Z" fill="#090B3C"/>
<path d="M326.71 411.004H303.322C306.744 410.011 310.579 409.515 314.828 409.515C319.227 409.515 323.194 410.011 326.71 411.004Z" fill="#090B3C"/>
<path d="M303.087 559.775H326.71C323.194 560.767 319.228 561.263 314.828 561.263C310.476 561.263 306.565 560.767 303.087 559.775Z" fill="#090B3C"/>
<path d="M320.487 333.804C321.305 333.804 322.104 333.879 322.875 334.02C321.888 334.141 320.844 334.198 319.745 334.198C319.002 334.198 318.278 334.17 317.583 334.113C318.513 333.907 319.491 333.804 320.487 333.804Z" fill="#090B3C"/>
<path d="M319.556 212.099L319.566 212.632C313.672 212.67 309.291 214.542 306.405 218.259C303.482 222.013 302.025 227.293 302.025 234.09V312.731C302.025 319.537 303.482 324.817 306.405 328.571C308.953 331.857 312.675 333.701 317.573 334.113C311.444 335.443 306.857 340.882 306.857 347.379C306.857 347.426 306.857 347.464 306.857 347.51C301.574 345.853 297.297 343.045 294.025 339.085C288.404 332.288 285.593 323.216 285.593 311.879V234.942C285.593 223.464 288.404 214.364 294.025 207.633C297.109 203.935 301.085 201.257 305.964 199.591C306.481 206.257 311.867 211.677 318.757 212.08C319.021 212.099 319.293 212.099 319.556 212.099Z" fill="#090B3C"/>
<path d="M314.161 546.153V546.331C314.076 546.322 313.991 546.322 313.907 546.322C306.735 546.322 300.85 551.836 300.324 558.848C295.943 557.154 292.352 554.56 289.541 551.068C284.061 544.262 281.326 535.2 281.326 523.862V446.925C281.326 441.252 282.003 436.122 283.356 431.516C284.7 426.909 286.768 422.977 289.541 419.719C292.315 416.462 295.802 413.943 300.004 412.174C300.408 412.005 300.812 411.837 301.235 411.687C301.564 418.868 307.505 424.588 314.79 424.616C309.047 424.709 304.798 426.591 302.025 430.233C299.177 433.997 297.757 439.267 297.757 446.073V524.714C297.757 531.511 299.177 536.791 302.025 540.545C304.695 544.065 308.737 545.929 314.161 546.153Z" fill="#090B3C"/>
<path d="M308.567 347.997H306.875C306.866 347.838 306.856 347.67 306.856 347.51C307.411 347.688 307.984 347.847 308.567 347.997Z" fill="#090B3C"/>
<path d="M305.936 199.029H307.778C307.158 199.198 306.556 199.385 305.964 199.591C305.945 199.404 305.936 199.217 305.936 199.029Z" fill="#090B3C"/>
<path d="M301.216 411.004H303.321C302.607 411.21 301.911 411.434 301.235 411.687C301.225 411.472 301.216 411.256 301.216 411.041C301.216 411.032 301.216 411.013 301.216 411.004Z" fill="#090B3C"/>
<path d="M303.088 559.775H300.277C300.277 559.466 300.296 559.157 300.324 558.848C301.207 559.194 302.129 559.503 303.088 559.775Z" fill="#090B3C"/>
<path d="M274.501 199.029V214.111H246.968V347.801H230.33V214.111H202.796V199.029H274.501Z" fill="#090B3C"/>
<path d="M267.244 544.693V559.775H205.786V411.004H267.244V426.095H222.433V476.893H258.925V491.769H222.433V544.693H267.244Z" fill="#090B3C"/>
<path d="M193.405 411.004V426.095H165.882V559.775H149.234V426.095H121.71V411.004H193.405Z" fill="#090B3C"/>
<path d="M191.488 234.942V311.879C191.488 323.216 188.752 332.288 183.272 339.085C180.443 342.605 176.823 345.207 172.424 346.911C172.199 340.339 167.301 334.956 160.928 333.973C165.224 333.383 168.504 331.576 170.788 328.571C173.637 324.817 175.056 319.537 175.056 312.731V278.297H149.018V263.421H175.056V234.09C175.056 227.293 173.637 222.013 170.788 218.259C168.42 215.132 164.97 213.316 160.429 212.791C166.662 211.612 171.39 206.201 171.484 199.675C171.935 199.844 172.387 200.012 172.819 200.2C177.011 201.969 180.499 204.478 183.272 207.736C186.045 211.003 188.104 214.935 189.457 219.532C190.811 224.138 191.488 229.278 191.488 234.942Z" fill="#090B3C"/>
<path d="M172.423 346.911C172.433 347.071 172.433 347.22 172.433 347.379C172.433 347.604 172.423 347.838 172.414 348.063L168.729 348.072C170.017 347.745 171.248 347.361 172.423 346.911Z" fill="#090B3C"/>
<path d="M168.73 348.072L172.415 348.063C172.058 355.244 166.107 360.954 158.803 360.954C151.509 360.954 145.559 355.253 145.192 348.082H147.279H147.288C150.512 348.887 154.075 349.289 157.986 349.289C161.915 349.289 165.496 348.877 168.73 348.072Z" fill="white"/>
<path d="M171.484 199.029H169.528C166.097 198.037 162.253 197.541 157.985 197.541C153.708 197.541 149.863 198.037 146.432 199.029H144.242C144.467 191.727 150.474 185.885 157.863 185.885C165.251 185.885 171.258 191.727 171.484 199.029Z" fill="white"/>
<path d="M172.424 346.911C171.249 347.361 170.018 347.744 168.73 348.072L147.288 348.081H147.279C146.564 347.904 145.859 347.698 145.173 347.482C145.173 347.445 145.173 347.417 145.173 347.379C145.173 340.91 149.713 335.499 155.795 334.141C156.369 334.179 156.951 334.198 157.553 334.198C158.737 334.198 159.865 334.123 160.928 333.973C167.301 334.956 172.199 340.339 172.424 346.911Z" fill="#090B3C"/>
<path d="M169.529 199.029H146.433C149.864 198.037 153.708 197.541 157.985 197.541C162.253 197.541 166.098 198.037 169.529 199.029Z" fill="#090B3C"/>
<path d="M147.288 348.082L168.73 348.072C165.496 348.877 161.915 349.289 157.986 349.289C154.075 349.289 150.512 348.887 147.288 348.082Z" fill="#090B3C"/>
<path d="M158.803 333.804C159.527 333.804 160.232 333.861 160.927 333.973C159.865 334.123 158.737 334.198 157.553 334.198C156.951 334.198 156.368 334.179 155.795 334.141C156.763 333.917 157.769 333.804 158.803 333.804Z" fill="#090B3C"/>
<path d="M157.553 212.632C158.559 212.632 159.518 212.688 160.43 212.791C159.603 212.951 158.738 213.035 157.864 213.035C156.905 213.035 155.974 212.941 155.072 212.754C155.861 212.67 156.698 212.632 157.553 212.632Z" fill="#090B3C"/>
<path d="M155.071 212.754C150.343 213.213 146.752 215.048 144.327 218.259C141.478 222.013 140.059 227.293 140.059 234.09V245.998H124.689V234.942C124.689 229.278 125.366 224.138 126.72 219.532C128.074 214.935 130.095 211.003 132.802 207.736C135.5 204.478 138.95 201.969 143.151 200.2C143.509 200.05 143.866 199.9 144.242 199.769C144.383 206.173 148.98 211.49 155.071 212.754Z" fill="#090B3C"/>
<path d="M144.327 328.571C146.884 331.951 150.71 333.804 155.796 334.141C149.714 335.499 145.173 340.91 145.173 347.379C145.173 347.417 145.173 347.445 145.173 347.482C140.022 345.825 135.867 343.026 132.699 339.085C127.219 332.288 124.483 323.216 124.483 311.879V295.729H140.06V312.731C140.06 319.537 141.479 324.817 144.327 328.571Z" fill="#090B3C"/>
<path d="M147.279 348.082H145.192C145.182 347.876 145.173 347.679 145.173 347.482C145.859 347.698 146.564 347.904 147.279 348.082Z" fill="#090B3C"/>
<path d="M144.242 199.029H146.432C145.68 199.254 144.947 199.497 144.242 199.769C144.232 199.666 144.232 199.563 144.232 199.46C144.232 199.32 144.232 199.17 144.242 199.029Z" fill="#090B3C"/>
<path d="M147.279 348.082H145.192L124.483 348.091V311.879V295.729V245.998V199.029H144.243H146.433H169.529H171.484H202.797H274.502H305.926" stroke="white" stroke-width="2" stroke-miterlimit="10"/>
<path d="M305.936 199.029H307.778H331.73H333.168H398.274H414.922H462.506H479.793H488.112H504.76H540.612H557.044H593.112H609.751H622.77H684.228V214.111V332.709V347.801L610.606 347.838L557.044 347.866L504.337 347.894L416.031 347.941H407.872L334.099 347.979L330.978 347.988L308.568 347.997H306.876L246.968 348.025L172.415 348.063L168.73 348.072L147.288 348.082" stroke="white" stroke-width="2" stroke-miterlimit="10"/>
<path d="M121.71 426.095V411.004H193.405H205.786H267.244H301.217H303.322H326.71H328.477H359H430.705H459.14H462.083H485.235H486.401H506.677V447.131V559.775H478.298H462.506H403.181H386.533H327.537H326.71H303.087H300.277H267.244H205.786H165.882H149.234H121.71V426.095Z" stroke="white" stroke-width="2" stroke-miterlimit="10"/>
<path d="M593.112 199.029L593.197 230.401L593.413 304.174L593.535 347.801" stroke="white" stroke-width="2" stroke-miterlimit="10"/>
<path d="M171.484 199.029C171.493 199.17 171.493 199.319 171.493 199.46C171.493 199.535 171.493 199.6 171.484 199.675C171.39 206.201 166.661 211.612 160.429 212.791C159.602 212.951 158.737 213.035 157.863 213.035C156.904 213.035 155.973 212.941 155.071 212.754C148.98 211.49 144.383 206.172 144.242 199.769C144.232 199.666 144.232 199.563 144.232 199.46C144.232 199.319 144.232 199.17 144.242 199.029C144.467 191.727 150.474 185.885 157.863 185.885C165.251 185.885 171.258 191.727 171.484 199.029Z" stroke="white" stroke-width="2" stroke-miterlimit="10"/>
<path d="M333.168 199.029C333.168 199.123 333.168 199.217 333.159 199.31C333.159 199.357 333.149 199.404 333.149 199.451C332.651 206.603 326.672 212.099 319.557 212.099C319.293 212.099 319.021 212.099 318.757 212.08C311.867 211.677 306.481 206.257 305.964 199.591C305.945 199.404 305.936 199.217 305.936 199.029H305.926C305.907 198.599 305.907 198.168 305.936 197.737C306.377 190.248 312.826 184.537 320.337 184.968C327.763 185.398 333.441 191.671 333.168 199.029Z" stroke="white" stroke-width="2" stroke-miterlimit="10"/>
<path d="M172.424 346.911C172.434 347.07 172.434 347.22 172.434 347.379C172.434 347.604 172.424 347.838 172.415 348.063C172.057 355.243 166.107 360.954 158.803 360.954C151.509 360.954 145.558 355.253 145.192 348.081C145.182 347.876 145.173 347.679 145.173 347.482C145.173 347.445 145.173 347.417 145.173 347.379C145.173 340.91 149.713 335.499 155.795 334.141C156.763 333.917 157.769 333.804 158.803 333.804C159.527 333.804 160.232 333.861 160.928 333.973C167.301 334.956 172.198 340.339 172.424 346.911Z" stroke="white" stroke-width="2" stroke-miterlimit="10"/>
<path d="M317.582 334.113C318.513 333.907 319.49 333.804 320.487 333.804C321.305 333.804 322.104 333.879 322.874 334.02C329.154 335.115 333.948 340.498 334.108 347.024C334.117 347.145 334.117 347.258 334.117 347.379C334.117 347.576 334.117 347.782 334.098 347.979C333.788 355.197 327.819 360.954 320.487 360.954C313.164 360.954 307.195 355.206 306.875 347.997C306.866 347.838 306.856 347.67 306.856 347.51C306.856 347.464 306.856 347.426 306.856 347.379C306.856 340.882 311.444 335.443 317.582 334.113Z" stroke="white" stroke-width="2" stroke-miterlimit="10"/>
<path d="M328.476 411.004C328.476 411.013 328.476 411.032 328.476 411.041C328.476 411.209 328.476 411.378 328.467 411.546C328.204 418.671 322.432 424.401 315.26 424.606C315.119 424.616 314.987 424.616 314.846 424.616C314.827 424.616 314.808 424.616 314.79 424.616C307.505 424.588 301.564 418.868 301.235 411.687C301.225 411.472 301.216 411.256 301.216 411.041C301.216 411.032 301.216 411.013 301.216 411.004C301.235 403.523 307.326 397.466 314.846 397.466C322.366 397.466 328.458 403.523 328.476 411.004Z" stroke="white" stroke-width="2" stroke-miterlimit="10"/>
<path d="M327.537 559.775C327.537 559.812 327.537 559.859 327.537 559.897C327.537 567.396 321.437 573.471 313.907 573.471C306.378 573.471 300.277 567.396 300.277 559.897C300.277 559.859 300.277 559.812 300.277 559.775C300.277 559.466 300.296 559.157 300.324 558.848C300.85 551.836 306.735 546.322 313.907 546.322C313.992 546.322 314.076 546.322 314.161 546.331C321.456 546.453 327.34 552.285 327.528 559.531C327.537 559.616 327.537 559.691 327.537 559.775Z" stroke="white" stroke-width="2" stroke-miterlimit="10"/>
<path d="M486.401 411.004C486.401 411.013 486.401 411.032 486.401 411.041C486.401 411.144 486.401 411.247 486.392 411.35C486.251 418.016 481.278 423.492 474.82 424.457C474.152 424.56 473.466 424.616 472.771 424.616C472.113 424.616 471.473 424.569 470.843 424.475C464.545 423.595 459.629 418.418 459.178 412.015C459.15 411.696 459.14 411.369 459.14 411.041C459.14 411.032 459.14 411.013 459.14 411.004C459.159 403.523 465.25 397.466 472.771 397.466C480.291 397.466 486.382 403.523 486.401 411.004Z" stroke="white" stroke-width="2" stroke-linecap="round" stroke-linejoin="round"/>
<path d="M266.908 411.139V560" stroke="white" stroke-width="2" stroke-miterlimit="10"/>
<path d="M676.167 280H683.997V265.114H676.167" fill="white"/>
<path d="M259.079 491.949H266.908V477.063H259.079" fill="white"/>
<g clip-path="url(#clip0_41:49)">
<path d="M157.298 378.886H321.002" stroke="white" stroke-width="2" stroke-miterlimit="10"/>
</g>
<g clip-path="url(#clip1_41:49)">
<path d="M683.997 167.646L762.916 168.052" stroke="white" stroke-width="2" stroke-miterlimit="10"/>
<path d="M690.114 179.927V171.525H691.433V175.128H692.933V171.525H694.28V179.927H692.933V176.329H691.433V179.927H690.114ZM695.235 179.927V171.525H698.833V172.726H696.554V175.069H698.364V176.265H696.554V178.726H698.833V179.927H695.235ZM699.653 179.927V171.525H701.599C702.251 171.525 702.741 171.702 703.069 172.058C703.401 172.413 703.567 172.929 703.567 173.605V174.694C703.567 175.37 703.401 175.886 703.069 176.241C702.741 176.593 702.251 176.769 701.599 176.769H700.972V179.927H699.653ZM700.972 175.573H701.599C701.817 175.573 701.979 175.513 702.085 175.392C702.19 175.271 702.243 175.066 702.243 174.776V173.517C702.243 173.228 702.19 173.025 702.085 172.907C701.979 172.786 701.817 172.726 701.599 172.726H700.972V175.573ZM703.831 179.927L705.173 171.525H707.106L708.448 179.927H707.118L706.89 178.403H705.267L705.038 179.927H703.831ZM705.437 177.261H706.708L706.075 173.013L705.437 177.261ZM709.063 179.927V171.525H711.056C711.731 171.525 712.226 171.683 712.538 171.999C712.854 172.316 713.013 172.802 713.013 173.458V173.757C713.013 174.616 712.728 175.181 712.157 175.45C712.813 175.704 713.142 176.304 713.142 177.249V177.935C713.142 178.583 712.972 179.077 712.632 179.417C712.292 179.757 711.794 179.927 711.138 179.927H709.063ZM710.382 178.726H711.138C711.368 178.726 711.54 178.663 711.653 178.538C711.767 178.413 711.823 178.2 711.823 177.9V177.167C711.823 176.784 711.757 176.519 711.624 176.37C711.495 176.222 711.278 176.148 710.974 176.148H710.382V178.726ZM710.382 174.946H710.897C711.159 174.946 711.356 174.88 711.489 174.747C711.622 174.61 711.688 174.382 711.688 174.062V173.593C711.688 173.292 711.636 173.073 711.53 172.937C711.425 172.796 711.255 172.726 711.021 172.726H710.382V174.946ZM713.938 179.927V171.525H715.257V175.128H716.757V171.525H718.104V179.927H716.757V176.329H715.257V179.927H713.938ZM719.06 179.927V171.525H720.378V174.683H721.005C721.657 174.683 722.147 174.86 722.476 175.216C722.808 175.568 722.974 176.081 722.974 176.757V177.853C722.974 178.528 722.808 179.044 722.476 179.4C722.147 179.751 721.657 179.927 721.005 179.927H719.06ZM720.378 178.726H721.005C721.224 178.726 721.386 178.667 721.491 178.55C721.597 178.429 721.649 178.224 721.649 177.935V176.675C721.649 176.386 721.597 176.183 721.491 176.066C721.386 175.944 721.224 175.884 721.005 175.884H720.378V178.726ZM723.729 179.927V171.525H725.048V179.927H723.729ZM726.009 179.927V171.525H729.606V172.726H727.327V175.069H729.138V176.265H727.327V178.726H729.606V179.927H726.009ZM689.827 193.058V190.749H690.343C690.452 190.612 690.53 190.462 690.577 190.298C690.624 190.13 690.653 189.917 690.665 189.659L690.964 183.525H694.661V190.749H695.235V193.058H693.929V191.927H691.11V193.058H689.827ZM691.591 190.749H693.319V184.726H692.2L691.96 189.636C691.944 189.944 691.907 190.181 691.849 190.345C691.79 190.505 691.704 190.64 691.591 190.749ZM695.599 191.939V190.737C695.763 190.737 695.89 190.73 695.979 190.714C696.069 190.698 696.149 190.661 696.22 190.603C696.29 190.54 696.339 190.452 696.366 190.339C696.394 190.226 696.411 190.071 696.419 189.876L696.636 183.525H700.362V191.927H699.021V184.726H697.872L697.726 189.806C697.702 190.571 697.54 191.118 697.239 191.446C696.942 191.775 696.464 191.939 695.804 191.939H695.599ZM701.376 191.927V183.525H702.554V188.845L703.034 186.993L704.112 183.525H705.565V191.927H704.376V186.009L703.837 188.077L702.729 191.927H701.376ZM706.497 191.927V183.525H707.815V187.128H709.315V183.525H710.663V191.927H709.315V188.329H707.815V191.927H706.497ZM711.618 191.927V183.525H712.937V186.683H713.563C714.216 186.683 714.706 186.86 715.034 187.216C715.366 187.568 715.532 188.081 715.532 188.757V189.853C715.532 190.528 715.366 191.044 715.034 191.4C714.706 191.751 714.216 191.927 713.563 191.927H711.618ZM712.937 190.726H713.563C713.782 190.726 713.944 190.667 714.05 190.55C714.155 190.429 714.208 190.224 714.208 189.935V188.675C714.208 188.386 714.155 188.183 714.05 188.066C713.944 187.944 713.782 187.884 713.563 187.884H712.937V190.726ZM716.288 191.927V183.525H717.606V191.927H716.288Z" fill="#090B3C"/>
</g>
<g clip-path="url(#clip2_41:49)">
<path d="M415.665 378.886H487.552" stroke="white" stroke-width="2" stroke-miterlimit="10"/>
</g>
<g clip-path="url(#clip3_41:49)">
<path d="M610.686 366.127H763.001" stroke="white" stroke-width="2" stroke-miterlimit="10"/>
</g>
<g clip-path="url(#clip4_41:49)">
<path d="M416.733 346.633L416.733 379.949" stroke="white" stroke-width="2" stroke-miterlimit="10"/>
</g>
<g clip-path="url(#clip5_41:49)">
<path d="M762.645 167.291L762.645 367.19" stroke="white" stroke-width="2" stroke-miterlimit="10"/>
</g>
<g clip-path="url(#clip6_41:49)">
<path d="M610.33 346.633L610.33 367.19" stroke="white" stroke-width="2" stroke-miterlimit="10"/>
</g>
<g clip-path="url(#clip7_41:49)">
<path d="M684.353 167.291L684.353 199.899" stroke="white" stroke-width="2" stroke-miterlimit="10"/>
</g>
<g clip-path="url(#clip8_41:49)">
<path d="M314.24 400.506L314.24 378.532" stroke="white" stroke-width="2" stroke-miterlimit="10"/>
</g>
<g clip-path="url(#clip9_41:49)">
<path d="M158.009 361.519L158.009 379.949" stroke="white" stroke-width="2" stroke-miterlimit="10"/>
</g>
<g clip-path="url(#clip10_41:49)">
<path d="M320.29 360.81L320.29 379.949" stroke="white" stroke-width="2" stroke-miterlimit="10"/>
</g>
<path d="M159.131 389.769V388.843H160.379V389.851C160.379 390.406 160.606 390.683 161.059 390.683C161.286 390.683 161.456 390.613 161.569 390.472C161.686 390.332 161.745 390.086 161.745 389.734V389.072C161.745 388.689 161.676 388.416 161.54 388.252C161.407 388.088 161.188 388.005 160.883 388.005H160.555V386.804H160.954C161.215 386.804 161.413 386.738 161.545 386.605C161.678 386.468 161.745 386.24 161.745 385.92V385.451C161.745 385.091 161.686 384.841 161.569 384.701C161.456 384.56 161.286 384.49 161.059 384.49C160.598 384.49 160.368 384.765 160.368 385.316V386.002H159.155V385.375C159.155 384.699 159.319 384.183 159.647 383.828C159.975 383.468 160.459 383.289 161.1 383.289C161.741 383.289 162.227 383.472 162.559 383.839C162.895 384.203 163.063 384.722 163.063 385.398V385.615C163.063 386.513 162.756 387.089 162.143 387.343C162.756 387.609 163.063 388.197 163.063 389.107V389.769C163.063 390.445 162.895 390.966 162.559 391.334C162.227 391.697 161.741 391.879 161.1 391.879C160.459 391.879 159.971 391.697 159.635 391.334C159.299 390.966 159.131 390.445 159.131 389.769ZM163.614 391.785L164.956 383.382H166.889L168.231 391.785H166.901L166.672 390.261H165.049L164.821 391.785H163.614ZM165.219 389.119H166.491L165.858 384.871L165.219 389.119ZM168.846 391.785V383.382H170.165V387.045L171.893 383.382H173.211L171.377 387.127L173.211 391.785H171.858L170.575 388.439L170.165 389.207V391.785H168.846ZM173.815 391.785V383.382H175.76C176.413 383.382 176.903 383.56 177.231 383.916C177.563 384.271 177.729 384.787 177.729 385.463V386.552C177.729 387.228 177.563 387.744 177.231 388.099C176.903 388.451 176.413 388.627 175.76 388.627H175.133V391.785H173.815ZM175.133 387.431H175.76C175.979 387.431 176.141 387.371 176.247 387.25C176.352 387.129 176.405 386.923 176.405 386.634V385.375C176.405 385.086 176.352 384.882 176.247 384.765C176.141 384.644 175.979 384.584 175.76 384.584H175.133V387.431ZM177.952 383.382H179.264L179.979 386.254L180.389 388.222L180.7 386.265L181.303 383.382H182.68L181.268 389.646C181.202 389.966 181.127 390.24 181.045 390.466C180.963 390.689 180.856 390.896 180.723 391.088C180.59 391.275 180.43 391.422 180.243 391.527C180.055 391.632 179.825 391.711 179.551 391.761C179.282 391.808 178.965 391.82 178.602 391.797V390.619C178.961 390.642 179.233 390.607 179.417 390.513C179.6 390.42 179.717 390.228 179.768 389.939L179.78 389.863L177.952 383.382ZM183.249 391.785V383.382H186.729V384.584H184.567V391.785H183.249ZM187.245 391.797V390.595C187.409 390.595 187.536 390.588 187.625 390.572C187.715 390.556 187.795 390.519 187.866 390.461C187.936 390.398 187.985 390.31 188.012 390.197C188.04 390.084 188.057 389.929 188.065 389.734L188.282 383.382H192.008V391.785H190.667V384.584H189.518L189.372 389.664C189.348 390.429 189.186 390.976 188.885 391.304C188.588 391.632 188.11 391.797 187.45 391.797H187.245ZM193.022 391.785V383.382H196.62V384.584H194.34V386.927H196.151V388.123H194.34V390.584H196.62V391.785H193.022ZM197.44 391.785V383.382H198.758V386.986H200.258V383.382H201.606V391.785H200.258V388.187H198.758V391.785H197.44ZM202.561 391.785V383.382H203.739V388.703L204.219 386.851L205.297 383.382H206.75V391.785H205.561V385.867L205.022 387.935L203.915 391.785H202.561ZM207.442 391.785C207.54 391.558 207.588 391.218 207.588 390.765V389.47C207.588 389.005 207.655 388.625 207.788 388.328C207.92 388.031 208.145 387.816 208.461 387.683C207.887 387.414 207.6 386.845 207.6 385.978V385.316C207.6 384.66 207.756 384.173 208.069 383.857C208.381 383.541 208.875 383.382 209.551 383.382H211.543V391.785H210.225V388.363H209.768C209.467 388.363 209.249 388.445 209.112 388.609C208.975 388.773 208.907 389.048 208.907 389.435V390.754C208.907 390.968 208.899 391.146 208.883 391.287C208.872 391.423 208.86 391.517 208.848 391.568C208.836 391.615 208.815 391.687 208.784 391.785H207.442ZM208.918 386.277C208.918 386.601 208.985 386.832 209.118 386.968C209.25 387.101 209.448 387.168 209.709 387.168H210.225V384.584H209.592C209.358 384.584 209.186 384.654 209.077 384.795C208.971 384.931 208.918 385.15 208.918 385.451V386.277ZM214.374 391.785V383.382H216.366C217.042 383.382 217.536 383.541 217.848 383.857C218.165 384.173 218.323 384.66 218.323 385.316V385.615C218.323 386.474 218.038 387.039 217.467 387.308C218.124 387.562 218.452 388.162 218.452 389.107V389.793C218.452 390.441 218.282 390.935 217.942 391.275C217.602 391.615 217.104 391.785 216.448 391.785H214.374ZM215.692 390.584H216.448C216.678 390.584 216.85 390.521 216.963 390.396C217.077 390.271 217.133 390.058 217.133 389.757V389.025C217.133 388.642 217.067 388.377 216.934 388.228C216.805 388.08 216.588 388.005 216.284 388.005H215.692V390.584ZM215.692 386.804H216.208C216.469 386.804 216.667 386.738 216.799 386.605C216.932 386.468 216.999 386.24 216.999 385.92V385.451C216.999 385.15 216.946 384.931 216.84 384.795C216.735 384.654 216.565 384.584 216.331 384.584H215.692V386.804ZM219.249 391.785V383.382H220.567V386.541H221.194C221.846 386.541 222.336 386.718 222.665 387.074C222.997 387.425 223.163 387.939 223.163 388.615V389.711C223.163 390.386 222.997 390.902 222.665 391.257C222.336 391.609 221.846 391.785 221.194 391.785H219.249ZM220.567 390.584H221.194C221.413 390.584 221.575 390.525 221.68 390.408C221.786 390.287 221.838 390.082 221.838 389.793V388.533C221.838 388.244 221.786 388.041 221.68 387.923C221.575 387.802 221.413 387.742 221.194 387.742H220.567V390.584ZM223.918 391.785V383.382H225.237V391.785H223.918ZM225.899 391.785L227.375 387.466L225.993 383.382H227.364L228.36 386.482L229.379 383.382H230.604L229.221 387.466L230.698 391.785H229.303L228.225 388.463L227.135 391.785H225.899ZM231.243 389.769V385.398C231.243 384.726 231.417 384.207 231.764 383.839C232.112 383.472 232.608 383.289 233.252 383.289C233.897 383.289 234.391 383.472 234.735 383.839C235.083 384.207 235.256 384.726 235.256 385.398V389.769C235.256 390.441 235.083 390.961 234.735 391.328C234.391 391.695 233.897 391.879 233.252 391.879C232.608 391.879 232.112 391.695 231.764 391.328C231.417 390.961 231.243 390.441 231.243 389.769ZM232.567 389.851C232.567 390.406 232.795 390.683 233.252 390.683C233.706 390.683 233.932 390.406 233.932 389.851V385.316C233.932 384.765 233.706 384.49 233.252 384.49C232.795 384.49 232.567 384.765 232.567 385.316V389.851ZM235.825 392.916V390.607H236.34C236.45 390.47 236.528 390.32 236.575 390.156C236.622 389.988 236.651 389.775 236.663 389.517L236.961 383.382H240.659V390.607H241.233V392.916H239.926V391.785H237.108V392.916H235.825ZM237.588 390.607H239.317V384.584H238.198L237.958 389.494C237.942 389.802 237.905 390.039 237.846 390.203C237.788 390.363 237.702 390.498 237.588 390.607ZM241.731 391.785C241.829 391.558 241.877 391.218 241.877 390.765V389.47C241.877 389.005 241.944 388.625 242.077 388.328C242.209 388.031 242.434 387.816 242.75 387.683C242.176 387.414 241.889 386.845 241.889 385.978V385.316C241.889 384.66 242.045 384.173 242.358 383.857C242.67 383.541 243.165 383.382 243.84 383.382H245.833V391.785H244.514V388.363H244.057C243.756 388.363 243.538 388.445 243.401 388.609C243.264 388.773 243.196 389.048 243.196 389.435V390.754C243.196 390.968 243.188 391.146 243.172 391.287C243.161 391.423 243.149 391.517 243.137 391.568C243.125 391.615 243.104 391.687 243.073 391.785H241.731ZM243.208 386.277C243.208 386.601 243.274 386.832 243.407 386.968C243.54 387.101 243.737 387.168 243.999 387.168H244.514V384.584H243.881C243.647 384.584 243.475 384.654 243.366 384.795C243.26 384.931 243.208 385.15 243.208 385.451V386.277ZM246.413 384.584V383.382H250.497V384.584H249.114V391.785H247.795V384.584H246.413ZM252.87 389.769V388.843H254.118V389.851C254.118 390.406 254.344 390.683 254.797 390.683C255.024 390.683 255.194 390.613 255.307 390.472C255.424 390.332 255.483 390.086 255.483 389.734V389.072C255.483 388.689 255.415 388.416 255.278 388.252C255.145 388.088 254.926 388.005 254.622 388.005H254.293V386.804H254.692C254.954 386.804 255.151 386.738 255.284 386.605C255.417 386.468 255.483 386.24 255.483 385.92V385.451C255.483 385.091 255.424 384.841 255.307 384.701C255.194 384.56 255.024 384.49 254.797 384.49C254.336 384.49 254.106 384.765 254.106 385.316V386.002H252.893V385.375C252.893 384.699 253.057 384.183 253.385 383.828C253.713 383.468 254.198 383.289 254.838 383.289C255.479 383.289 255.965 383.472 256.297 383.839C256.633 384.203 256.801 384.722 256.801 385.398V385.615C256.801 386.513 256.495 387.089 255.881 387.343C256.495 387.609 256.801 388.197 256.801 389.107V389.769C256.801 390.445 256.633 390.966 256.297 391.334C255.965 391.697 255.479 391.879 254.838 391.879C254.198 391.879 253.709 391.697 253.374 391.334C253.038 390.966 252.87 390.445 252.87 389.769ZM257.352 391.785L258.694 383.382H260.627L261.969 391.785H260.639L260.411 390.261H258.788L258.559 391.785H257.352ZM258.958 389.119H260.229L259.596 384.871L258.958 389.119ZM264.448 391.785V383.382H268.614V391.785H267.266V384.584H265.766V391.785H264.448ZM269.569 391.785V383.382H271.514C272.167 383.382 272.657 383.56 272.985 383.916C273.317 384.271 273.483 384.787 273.483 385.463V386.552C273.483 387.228 273.317 387.744 272.985 388.099C272.657 388.451 272.167 388.627 271.514 388.627H270.887V391.785H269.569ZM270.887 387.431H271.514C271.733 387.431 271.895 387.371 272 387.25C272.106 387.129 272.159 386.923 272.159 386.634V385.375C272.159 385.086 272.106 384.882 272 384.765C271.895 384.644 271.733 384.584 271.514 384.584H270.887V387.431ZM274.092 391.785V383.382H277.69V384.584H275.411V386.927H277.221V388.123H275.411V390.584H277.69V391.785H274.092ZM278.223 392.916V390.607H278.739C278.848 390.47 278.926 390.32 278.973 390.156C279.02 389.988 279.049 389.775 279.061 389.517L279.36 383.382H283.057V390.607H283.631V392.916H282.325V391.785H279.506V392.916H278.223ZM279.987 390.607H281.715V384.584H280.596L280.356 389.494C280.34 389.802 280.303 390.039 280.245 390.203C280.186 390.363 280.1 390.498 279.987 390.607ZM284.37 391.785V383.382H287.967V384.584H285.688V386.927H287.499V388.123H285.688V390.584H287.967V391.785H284.37ZM288.413 391.797V390.595C288.577 390.595 288.704 390.588 288.793 390.572C288.883 390.556 288.963 390.519 289.034 390.461C289.104 390.398 289.153 390.31 289.18 390.197C289.208 390.084 289.225 389.929 289.233 389.734L289.45 383.382H293.176V391.785H291.834V384.584H290.686L290.54 389.664C290.516 390.429 290.354 390.976 290.053 391.304C289.756 391.632 289.278 391.797 288.618 391.797H288.413ZM159.09 401.769V397.398C159.09 396.722 159.258 396.203 159.594 395.839C159.93 395.472 160.418 395.289 161.059 395.289C161.7 395.289 162.188 395.472 162.524 395.839C162.86 396.203 163.028 396.722 163.028 397.398V398.218H161.78V397.316C161.78 396.765 161.553 396.49 161.1 396.49C160.643 396.49 160.415 396.765 160.415 397.316V401.851C160.415 402.398 160.643 402.672 161.1 402.672C161.553 402.672 161.78 402.398 161.78 401.851V400.65H163.028V401.769C163.028 402.445 162.86 402.966 162.524 403.334C162.188 403.697 161.7 403.879 161.059 403.879C160.418 403.879 159.93 403.697 159.594 403.334C159.258 402.966 159.09 402.445 159.09 401.769ZM163.831 403.785V395.382H167.428V396.584H165.149V398.927H166.959V400.123H165.149V402.584H167.428V403.785H163.831ZM167.862 396.584V395.382H171.946V396.584H170.563V403.785H169.245V396.584H167.862ZM172.526 403.785V395.382H173.844V399.045L175.573 395.382H176.891L175.057 399.127L176.891 403.785H175.538L174.254 400.439L173.844 401.207V403.785H172.526ZM177.495 403.785V395.382H178.672V400.703L179.153 398.851L180.231 395.382H181.684V403.785H180.495V397.867L179.956 399.935L178.848 403.785H177.495Z" fill="#090B3C"/>
<path d="M421.84 376.19V367.787H423.018V373.108L423.498 371.256L424.576 367.787H426.029V376.19H424.84V370.272L424.301 372.34L423.193 376.19H421.84ZM426.891 374.174V373.248H428.139V374.256C428.139 374.811 428.365 375.088 428.818 375.088C429.045 375.088 429.215 375.018 429.328 374.877C429.445 374.737 429.504 374.491 429.504 374.139V373.477C429.504 373.094 429.436 372.821 429.299 372.657C429.166 372.493 428.947 372.411 428.643 372.411H428.314V371.209H428.713C428.975 371.209 429.172 371.143 429.305 371.01C429.438 370.873 429.504 370.645 429.504 370.325V369.856C429.504 369.496 429.445 369.246 429.328 369.106C429.215 368.965 429.045 368.895 428.818 368.895C428.357 368.895 428.127 369.17 428.127 369.721V370.407H426.914V369.78C426.914 369.104 427.078 368.588 427.406 368.233C427.734 367.873 428.219 367.694 428.859 367.694C429.5 367.694 429.986 367.877 430.318 368.245C430.654 368.608 430.822 369.127 430.822 369.803V370.02C430.822 370.918 430.516 371.495 429.902 371.748C430.516 372.014 430.822 372.602 430.822 373.512V374.174C430.822 374.85 430.654 375.371 430.318 375.739C429.986 376.102 429.5 376.284 428.859 376.284C428.219 376.284 427.73 376.102 427.395 375.739C427.059 375.371 426.891 374.85 426.891 374.174ZM431.479 376.19C431.576 375.963 431.625 375.623 431.625 375.17V373.875C431.625 373.411 431.691 373.03 431.824 372.733C431.957 372.436 432.182 372.221 432.498 372.088C431.924 371.819 431.637 371.25 431.637 370.383V369.721C431.637 369.065 431.793 368.578 432.105 368.262C432.418 367.946 432.912 367.787 433.588 367.787H435.58V376.19H434.262V372.768H433.805C433.504 372.768 433.285 372.85 433.148 373.014C433.012 373.178 432.943 373.453 432.943 373.84V375.159C432.943 375.373 432.936 375.551 432.92 375.692C432.908 375.828 432.896 375.922 432.885 375.973C432.873 376.02 432.852 376.092 432.82 376.19H431.479ZM432.955 370.682C432.955 371.006 433.021 371.237 433.154 371.373C433.287 371.506 433.484 371.573 433.746 371.573H434.262V368.989H433.629C433.395 368.989 433.223 369.059 433.113 369.2C433.008 369.336 432.955 369.555 432.955 369.856V370.682ZM436.547 376.19V367.787H437.865V374.989H439.008V367.787H440.326V374.989H441.469V367.787H442.787V375.012H443.373V377.321H442.09V376.19H436.547ZM444.094 376.19V367.787H445.412V371.391H446.912V367.787H448.26V376.19H446.912V372.592H445.412V376.19H444.094ZM448.869 376.19L450.211 367.787H452.145L453.486 376.19H452.156L451.928 374.666H450.305L450.076 376.19H448.869ZM450.475 373.524H451.746L451.113 369.276L450.475 373.524ZM453.861 376.19C453.959 375.963 454.008 375.623 454.008 375.17V373.875C454.008 373.411 454.074 373.03 454.207 372.733C454.34 372.436 454.564 372.221 454.881 372.088C454.307 371.819 454.02 371.25 454.02 370.383V369.721C454.02 369.065 454.176 368.578 454.488 368.262C454.801 367.946 455.295 367.787 455.971 367.787H457.963V376.19H456.645V372.768H456.188C455.887 372.768 455.668 372.85 455.531 373.014C455.395 373.178 455.326 373.453 455.326 373.84V375.159C455.326 375.373 455.318 375.551 455.303 375.692C455.291 375.828 455.279 375.922 455.268 375.973C455.256 376.02 455.234 376.092 455.203 376.19H453.861ZM455.338 370.682C455.338 371.006 455.404 371.237 455.537 371.373C455.67 371.506 455.867 371.573 456.129 371.573H456.645V368.989H456.012C455.777 368.989 455.605 369.059 455.496 369.2C455.391 369.336 455.338 369.555 455.338 369.856V370.682ZM421.84 388.19V379.787H423.158V383.391H424.658V379.787H426.006V388.19H424.658V384.592H423.158V388.19H421.84ZM426.85 386.174V381.803C426.85 381.131 427.023 380.612 427.371 380.245C427.719 379.877 428.215 379.694 428.859 379.694C429.504 379.694 429.998 379.877 430.342 380.245C430.689 380.612 430.863 381.131 430.863 381.803V386.174C430.863 386.846 430.689 387.366 430.342 387.733C429.998 388.1 429.504 388.284 428.859 388.284C428.215 388.284 427.719 388.1 427.371 387.733C427.023 387.366 426.85 386.846 426.85 386.174ZM428.174 386.256C428.174 386.811 428.402 387.088 428.859 387.088C429.312 387.088 429.539 386.811 429.539 386.256V381.721C429.539 381.17 429.312 380.895 428.859 380.895C428.402 380.895 428.174 381.17 428.174 381.721V386.256ZM431.332 388.19L432.967 383.233L431.332 379.787H432.656L434.215 383.186V379.787H435.521V383.186L437.08 379.787H438.404L436.781 383.198L438.404 388.19H437.045L435.844 384.469L435.521 385.108V388.19H434.215V385.108L433.893 384.457L432.691 388.19H431.332ZM438.961 388.19V379.787H440.279V383.45L442.008 379.787H443.326L441.492 383.532L443.326 388.19H441.973L440.689 384.844L440.279 385.612V388.19H438.961ZM443.584 388.19L444.926 379.787H446.859L448.201 388.19H446.871L446.643 386.666H445.02L444.791 388.19H443.584ZM445.189 385.524H446.461L445.828 381.276L445.189 385.524Z" fill="#090B3C"/>
<defs>
<clipPath id="clip0_41:49">
<rect width="163.704" height="29.0634" fill="white" transform="translate(157.298 364.354)"/>
</clipPath>
<clipPath id="clip1_41:49">
<rect width="117.44" height="29.0633" fill="white" transform="translate(683.997 153.114)"/>
</clipPath>
<clipPath id="clip2_41:49">
<rect width="71.8874" height="29.0634" fill="white" transform="translate(415.665 364.354)"/>
</clipPath>
<clipPath id="clip3_41:49">
<rect width="152.315" height="29.0633" fill="white" transform="translate(610.686 351.595)"/>
</clipPath>
<clipPath id="clip4_41:49">
<rect width="33.3164" height="29.1819" fill="white" transform="translate(431.324 346.633) rotate(90)"/>
</clipPath>
<clipPath id="clip5_41:49">
<rect width="199.899" height="29.1821" fill="white" transform="translate(777.236 167.291) rotate(90)"/>
</clipPath>
<clipPath id="clip6_41:49">
<rect width="20.557" height="29.1819" fill="white" transform="translate(624.921 346.633) rotate(90)"/>
</clipPath>
<clipPath id="clip7_41:49">
<rect width="32.6076" height="29.182" fill="white" transform="translate(698.944 167.291) rotate(90)"/>
</clipPath>
<clipPath id="clip8_41:49">
<rect width="21.9746" height="29.182" fill="white" transform="translate(299.649 400.506) rotate(-90)"/>
</clipPath>
<clipPath id="clip9_41:49">
<rect width="18.4304" height="14.2351" fill="white" transform="translate(165.127 361.519) rotate(90)"/>
</clipPath>
<clipPath id="clip10_41:49">
<rect width="19.1392" height="14.2351" fill="white" transform="translate(327.407 360.81) rotate(90)"/>
</clipPath>
</defs>
</svg>
