<svg width="694" height="515" viewBox="0 0 694 515" fill="none" xmlns="http://www.w3.org/2000/svg">
<g clip-path="url(#clip0_31:1398)">
<path d="M238.87 427.81C238.87 427.81 366.07 496.45 486.07 441.45C606.07 386.45 701.57 448.95 701.57 448.95" stroke="white" stroke-width="4" stroke-miterlimit="10"/>
<path d="M697.57 324.43V355.23L594.83 424.58H594.82L472.07 507.45L397.82 462.47H397.81L290.72 397.62L289.25 366.03L439.95 456.89L471.57 475.95L547.03 425.36H547.04L697.57 324.43Z" fill="#080B3B" stroke="white" stroke-width="4" stroke-miterlimit="10"/>
<path d="M330.32 278.51C330.32 278.51 396.06 405.46 268.06 414.46" stroke="white" stroke-width="4" stroke-miterlimit="10"/>
<path d="M302.72 228.5C319.67 231.54 332.57 246.93 332.57 265.45C332.57 283.97 319.67 299.36 302.72 302.4C299.52 302.97 296.57 300.56 296.57 297.31V233.58C296.57 230.34 299.52 227.92 302.72 228.5Z" fill="#080B3B"/>
<path d="M296.14 235.77V299.04C296.14 303.04 292.94 306.3 288.94 306.38L287.93 306.4C283.49 306.49 280.72 310.11 280.72 313.81C280.72 315.94 281.64 318.1 283.7 319.63C285.43 320.92 286.51 322.9 286.65 325.06L291.06 394.54C291.21 396.84 290.26 399.07 288.52 400.57L258.88 426.03C257.55 427.17 255.85 427.8 254.1 427.8H223C220.71 427.8 218.55 426.73 217.17 424.91L211.44 417.39C209.8 415.23 207.1 414.16 204.42 414.6L169.16 420.36C168.77 420.43 168.37 420.46 167.98 420.46H143.68C141.5 420.46 139.42 419.49 138.03 417.8L123.93 400.79C122.84 399.47 122.24 397.82 122.24 396.1V389.56C122.24 387.59 123.04 385.69 124.45 384.31L134.21 374.76C135.68 373.32 136.48 371.33 136.41 369.27L133.62 283.43C133.49 279.32 136.75 275.91 140.86 275.85L188.39 275.2C192.4 275.15 195.63 271.87 195.63 267.86V253.6C195.63 249.55 198.92 246.26 202.97 246.26H207.88C211.98 246.26 215.28 242.9 215.22 238.8L215.17 235.86C215.11 231.76 218.41 228.4 222.51 228.4H288.8C292.86 228.43 296.14 231.72 296.14 235.77Z" fill="#080B3B"/>
<path d="M107.39 257.95C77.6 247.02 51.26 217.32 46.18 186.86C36.74 130.29 79.08 81.1699 133.42 79.2899C150.94 78.6799 167.36 82.8899 181.46 90.6999C210.31 106.69 229.44 137.79 228.43 173.67C228 188.9 223.87 203.2 216.89 215.7C216.56 216.3 215.79 216.5 215.21 216.15L177.89 194.06C181.8 187.1 184 179.04 183.92 170.47C183.69 144.55 162.43 123.49 136.51 123.49C127.49 123.49 119.07 126.01 111.89 130.38C106.83 133.46 102.39 137.47 98.81 142.16C92.77 150.08 89.17 159.95 89.12 170.66C89 196.62 110.03 218 135.99 218.29C140.98 218.34 145.8 217.63 150.34 216.25L164.25 257.32C164.47 257.97 164.11 258.68 163.46 258.88C150.01 262.97 135.25 264.07 119.97 261.37C115.73 260.62 111.52 259.46 107.39 257.95Z" fill="#080B3B"/>
<path d="M201.63 34.43V66.26C201.63 68.53 200.74 70.72 199.16 72.35L181.64 90.37L181.46 90.7C167.36 82.89 150.95 78.68 133.42 79.29C79.08 81.17 36.74 130.29 46.18 186.86C51.26 217.31 77.6 247.02 107.39 257.95L106.74 333.29C106.7 338.08 102.8 341.95 98 341.95H60.76C56.04 341.95 52.17 338.19 52.03 333.47L51.58 318.61C51.48 315.4 49.63 312.5 46.75 311.06L30.48 302.92C27.56 301.46 25.69 298.49 25.65 295.22L24.33 193.52C24.31 191.8 23.78 190.13 22.82 188.72L11.8 172.52C10.82 171.08 10.3 169.39 10.28 167.66L9.76 79.35C9.74 76.74 8.56 74.28 6.54 72.63L5.24 71.57C3.2 69.91 2.02 67.43 2.02 64.81L2 49.19C2 47.24 2.65 45.35 3.85 43.81L9.68 36.33C11.34 34.21 13.88 32.97 16.57 32.97H40.97C41.28 32.97 41.58 32.99 41.89 33.02L47.7 33.63C50.57 33.93 53.4 32.8 55.27 30.6L61.16 23.68C62.78 21.78 65.13 20.66 67.62 20.61L119.31 19.48C121.69 19.43 123.82 18.43 125.37 16.85C126.91 15.27 127.86 13.11 127.86 10.74C127.86 5.92 131.77 2 136.6 2H172.9C177.73 2 181.64 5.91 181.64 10.74V16.95C181.64 21.78 185.55 25.69 190.38 25.69H192.89C197.71 25.69 201.63 29.6 201.63 34.43Z" fill="#080B3B"/>
<path d="M114.65 156.85C117.11 153.02 120.56 149.88 124.62 147.78C128.18 145.94 132.23 144.9 136.52 144.9C150.87 144.9 162.51 156.53 162.51 170.89C162.51 185.24 150.88 196.88 136.52 196.88C122.16 196.88 110.53 185.25 110.53 170.89C110.53 165.72 112.04 160.9 114.65 156.85Z" fill="#080B3B"/>
<path d="M111.89 130.38L124.62 147.78C120.55 149.88 117.11 153.02 114.65 156.85L98.8201 142.17H98.8101C102.39 137.47 106.83 133.46 111.89 130.38Z" fill="#080B3B"/>
<path d="M181.64 90.37L199.16 72.35C200.74 70.72 201.63 68.53 201.63 66.26V34.43C201.63 29.6 197.72 25.69 192.89 25.69H190.38C185.55 25.69 181.64 21.78 181.64 16.95V10.74C181.64 5.92 177.73 2 172.9 2H136.6C131.77 2 127.86 5.91 127.86 10.74C127.86 13.12 126.91 15.27 125.37 16.85C123.83 18.43 121.69 19.43 119.31 19.48L67.62 20.6C65.13 20.65 62.77 21.77 61.16 23.67L55.27 30.59C53.4 32.79 50.57 33.92 47.7 33.62L41.89 33.01C41.58 32.98 41.28 32.96 40.97 32.96H16.57C13.88 32.96 11.34 34.2 9.68 36.32L3.85 43.8C2.65 45.35 2 47.24 2 49.19L2.02 64.8C2.02 67.42 3.2 69.91 5.24 71.56L6.54 72.62C8.56 74.27 9.74 76.73 9.76 79.34L10.29 167.65C10.3 169.38 10.83 171.08 11.81 172.51L22.82 188.7C23.79 190.12 24.31 191.79 24.33 193.5L25.65 295.2C25.69 298.47 27.55 301.44 30.48 302.9L46.75 311.04C49.63 312.48 51.48 315.38 51.58 318.59L52.03 333.45C52.17 338.17 56.04 341.93 60.76 341.93H98C102.79 341.93 106.7 338.06 106.74 333.27L107.39 257.93L107.4 257.4" stroke="white" stroke-width="4" stroke-miterlimit="10"/>
<path d="M150.33 216.25L164.24 257.32C164.46 257.97 164.1 258.68 163.45 258.88C150 262.97 135.24 264.07 119.96 261.37C115.73 260.62 111.53 259.47 107.39 257.95C77.6 247.02 51.26 217.32 46.18 186.86C36.74 130.29 79.08 81.1699 133.42 79.2899C150.94 78.6799 167.36 82.8899 181.46 90.6999C210.31 106.69 229.44 137.79 228.43 173.67C228 188.9 223.87 203.2 216.89 215.7C216.56 216.3 215.79 216.5 215.21 216.15L177.89 194.06" stroke="white" stroke-width="4" stroke-miterlimit="10"/>
<path d="M150.33 216.25C145.8 217.63 140.98 218.35 135.98 218.29C110.02 218 88.9899 196.62 89.1099 170.66C89.1599 159.95 92.7699 150.07 98.7999 142.16C102.38 137.46 106.82 133.46 111.88 130.38C119.05 126.01 127.48 123.49 136.5 123.49C162.42 123.48 183.68 144.55 183.91 170.47C183.99 179.04 181.79 187.1 177.88 194.06" stroke="white" stroke-width="4" stroke-miterlimit="10"/>
<path d="M133.62 283.45L136.41 369.29C136.48 371.35 135.68 373.34 134.21 374.78L124.45 384.33C123.04 385.71 122.24 387.6 122.24 389.58V396.12C122.24 397.83 122.84 399.49 123.93 400.81L138.03 417.82C139.42 419.5 141.5 420.48 143.68 420.48H167.98C168.38 420.48 168.77 420.45 169.16 420.38L204.42 414.62C207.1 414.18 209.8 415.26 211.44 417.41L217.17 424.93C218.56 426.75 220.72 427.82 223 427.82H254.08C255.84 427.82 257.53 427.19 258.86 426.05L288.5 400.59C290.25 399.09 291.19 396.85 291.04 394.56L286.63 325.08C286.5 322.92 285.42 320.94 283.68 319.65C281.62 318.12 280.7 315.96 280.7 313.83C280.7 310.13 283.47 306.51 287.91 306.42L288.92 306.4C292.92 306.33 296.12 303.06 296.12 299.06V235.79C296.12 231.74 292.83 228.45 288.78 228.45H222.49C218.39 228.45 215.09 231.81 215.15 235.91L215.2 238.85C215.27 242.95 211.96 246.31 207.86 246.31H202.95C198.9 246.31 195.61 249.6 195.61 253.65V267.91C195.61 271.92 192.39 275.2 188.37 275.25L140.84 275.9C136.75 275.93 133.49 279.35 133.62 283.45Z" stroke="white" stroke-width="4" stroke-miterlimit="10"/>
<path d="M124.62 147.78C128.18 145.94 132.23 144.9 136.52 144.9C150.87 144.9 162.51 156.53 162.51 170.89C162.51 185.24 150.88 196.88 136.52 196.88C122.16 196.88 110.53 185.25 110.53 170.89C110.53 165.72 112.04 160.9 114.65 156.85C117.11 153.02 120.56 149.88 124.62 147.78Z" stroke="white" stroke-width="4" stroke-miterlimit="10"/>
<path d="M98.8201 142.17L114.65 156.85L114.66 156.86" stroke="white" stroke-width="4" stroke-miterlimit="10"/>
<path d="M111.89 130.38L124.62 147.78L124.63 147.79" stroke="white" stroke-width="4" stroke-miterlimit="10"/>
<path d="M332.57 265.45C332.57 283.97 319.67 299.36 302.72 302.4C299.52 302.97 296.57 300.56 296.57 297.31V233.58C296.57 230.33 299.53 227.91 302.72 228.49C319.67 231.54 332.57 246.93 332.57 265.45Z" stroke="white" stroke-width="4" stroke-miterlimit="10"/>
<path d="M124.45 384.33C124.45 384.33 2.0901 373.76 51.5801 318.6" stroke="white" stroke-width="4" stroke-miterlimit="10"/>
<path d="M471.07 512.95C482.944 512.95 492.57 503.324 492.57 491.45C492.57 479.576 482.944 469.95 471.07 469.95C459.196 469.95 449.57 479.576 449.57 491.45C449.57 503.324 459.196 512.95 471.07 512.95Z" fill="#080B3B" stroke="white" stroke-width="4" stroke-miterlimit="10"/>
</g>
<defs>
<clipPath id="clip0_31:1398">
<rect width="702.66" height="514.95" fill="white"/>
</clipPath>
</defs>
</svg>
