<svg width="525" height="296" viewBox="0 0 525 296" fill="none" xmlns="http://www.w3.org/2000/svg">
<path d="M192.647 183.746C194.219 185.42 192.648 188.13 190.388 187.707C172.167 184.27 168.133 164.111 167.243 156.032C167.04 154.201 165.773 152.652 164.003 152.144C157.519 150.291 152.572 144.589 152.572 144.589C154.465 141.637 155.986 139.901 155.986 139.901C160.437 138.797 165.913 138.29 172.629 138.6L187.329 138.668L179.469 149.356C178.664 150.449 178.168 151.739 178.055 153.091C176.168 175.521 187.943 180.36 191.222 182.546C191.785 182.924 192.253 183.329 192.647 183.746Z" fill="#BBC3C3"/>
<path d="M275.149 139.073L294.328 139.163C287.567 179.729 271.098 193.865 271.098 193.865C271.098 193.865 260.523 207.9 204.181 210.154C147.84 212.407 140.515 177.476 140.515 177.476C140.515 177.476 127.923 146.843 155.987 139.901C155.987 139.901 154.466 141.637 152.572 144.589C146.797 153.592 137.608 173.881 157.981 190.434C185.025 212.407 251.508 199.449 259.959 192.124C267.791 185.335 278.535 178.062 279.611 150.556C279.78 146.279 278.152 142.121 275.149 139.073Z" fill="#BBC3C3"/>
<path d="M524.202 45.231V72.4777C524.202 75.7568 522.5 78.7992 519.711 80.5177L519.413 80.6979C517.756 81.7177 515.846 82.2586 513.902 82.2586H448.591C448.343 82.2586 448.141 82.4614 448.141 82.7093V85.5264C448.141 85.8983 448.445 86.2025 448.817 86.2025H483.354C484.278 86.2025 485.179 86.456 485.968 86.9293L488.988 88.7548C489.861 89.2844 490.397 90.2309 490.397 91.2507V103.866C490.397 104.795 489.923 105.663 489.14 106.159L487.551 107.167C485.36 108.564 482.819 109.303 480.227 109.303H463.223C463.077 109.303 463.009 109.488 463.122 109.584L468.333 113.923C469.122 114.576 470.108 114.948 471.134 114.97L479.224 115.145C479.483 115.151 479.692 115.365 479.692 115.624V131.084C479.692 131.501 479.354 131.839 478.937 131.839L448.332 131.772C447.915 131.766 447.577 132.104 447.577 132.521V132.831C447.577 133.839 446.76 134.651 445.752 134.645L393.861 134.346C393.343 134.346 392.926 133.924 392.926 133.405V130.555C392.926 130.329 392.746 130.149 392.52 130.149L306.797 129.85C306.442 129.845 306.16 129.563 306.16 129.208V125.94C306.16 125.608 305.76 125.427 305.512 125.653C297.01 133.265 294.328 139.164 294.328 139.164L275.15 139.073L187.33 138.668L172.631 138.6C165.915 138.29 160.438 138.797 155.987 139.902C127.924 146.843 140.516 177.476 140.516 177.476L138.155 185.026C137.868 185.955 137.192 186.727 136.307 187.138L124.036 192.868C121.929 193.849 120.177 195.466 119.022 197.483L117.472 200.198C116.74 201.477 116.402 202.948 116.52 204.413C117.771 219.788 108.508 223.276 105.111 224.036C104.322 224.211 103.674 224.763 103.364 225.501L99.2344 235.429C98.609 236.922 98.3668 238.55 98.502 240.161C99.1161 247.305 98.395 251.024 97.6681 252.895C97.2681 253.914 96.4512 254.714 95.437 255.131L88.4 258.027C87.4872 258.405 86.7266 259.075 86.2364 259.932C84.9969 262.101 84.3715 264.518 84.3715 266.94C84.3715 269.104 84.8673 271.267 85.8646 273.256C84.1912 274.693 84.8054 277.414 86.9351 277.995L99.302 281.336C101.184 281.843 102.249 283.832 101.629 285.68L100.491 289.094C98.9246 293.793 93.9496 296.435 89.1831 295.1L3.07637 270.991C0.867783 270.372 -0.43934 268.101 0.135343 265.876L3.04257 254.664C5.7864 255.272 8.49079 253.475 8.97533 250.703C22.7227 171.667 46.4481 142.409 57.429 132.729C60.8208 129.743 62.7251 125.388 62.4829 120.875C61.1025 95.1608 75.1428 76.0779 81.0587 69.2381C82.4672 67.6042 84.8448 67.2323 86.6928 68.3535L108.114 81.374C110.311 82.715 113.19 81.7234 114.103 79.3176L116.509 72.9679C117.793 69.5874 117.438 65.8012 115.557 62.7194L92.0622 24.2269V22.5028C92.0622 20.959 92.5016 19.4829 93.2791 18.2152C94.0623 16.9532 95.1891 15.8996 96.5695 15.2122L185.251 6.6652C188.479 6.35532 191.719 6.19757 194.964 6.19757H460.609C461.798 6.19757 462.941 5.87079 463.927 5.2792C464.913 4.68761 465.742 3.83122 466.299 2.78327C467.207 1.07049 468.987 0 470.925 0H479.624C480.362 0 481.038 0.400025 481.388 1.04795L482.807 3.6622C483.658 5.22286 485.298 6.19757 487.078 6.19757H488.008C490.628 6.19757 493.219 6.57505 495.704 7.30186C498.194 8.0343 500.578 9.11606 502.781 10.5359C503.49 10.9922 503.907 11.781 503.896 12.6205L503.49 35.7262C503.462 37.146 504.612 38.3122 506.031 38.3122H509.192C511.683 38.3122 514.145 38.7179 516.483 39.4898C518.821 40.2673 521.035 41.4166 523.035 42.9097C523.768 43.4562 524.202 44.3182 524.202 45.231Z" fill="#BBC3C3"/>
</svg>
